<?xml version="1.0" encoding="UTF-8" standalone="no"?>
<svg width="74px" height="26px" viewBox="0 0 74 26" version="1.1" xmlns="http://www.w3.org/2000/svg" xmlns:xlink="http://www.w3.org/1999/xlink">
    <!-- Generator: Sketch 39 (31667) - http://www.bohemiancoding.com/sketch -->
    <title>Artboard</title>
    <desc>Created with Sketch.</desc>
    <defs></defs>
    <g id="Page-1" stroke="none" stroke-width="1" fill="none" fill-rule="evenodd" fill-opacity="0.54">
        <g id="Artboard" fill="#000000">
            <path d="M9.24,11.19 L9.24,13.65 L15.12,13.65 C14.94,15.03 14.48,16.04 13.78,16.75 C12.92,17.61 11.58,18.55 9.24,18.55 C5.62,18.55 2.79,15.63 2.79,12.01 C2.79,8.39 5.62,5.47 9.24,5.47 C11.19,5.47 12.62,6.24 13.67,7.23 L15.4,5.5 C13.94,4.08 11.98,3 9.24,3 C4.28,3 0.109999999,7.04 0.109999999,12 C0.109999999,16.96 4.28,21 9.24,21 C11.92,21 13.94,20.12 15.52,18.48 C17.14,16.86 17.65,14.57 17.65,12.73 C17.65,12.16 17.61,11.63 17.52,11.19 L9.24,11.19 L9.24,11.19 L9.24,11.19 Z M25,9.19 C21.79,9.19 19.17,11.63 19.17,15 C19.17,18.34 21.79,20.81 25,20.81 C28.21,20.81 30.83,18.35 30.83,15 C30.83,11.63 28.21,9.19 25,9.19 L25,9.19 L25,9.19 Z M25,18.52 C23.24,18.52 21.72,17.07 21.72,15 C21.72,12.91 23.24,11.48 25,11.48 C26.76,11.48 28.28,12.91 28.28,15 C28.28,17.07 26.76,18.52 25,18.52 L25,18.52 L25,18.52 Z M53.58,10.49 L53.49,10.49 C52.92,9.81 51.82,9.19 50.43,9.19 C47.53,9.19 45,11.72 45,15 C45,18.26 47.53,20.81 50.43,20.81 C51.82,20.81 52.92,20.19 53.49,19.49 L53.58,19.49 L53.58,20.3 C53.58,22.52 52.39,23.71 50.48,23.71 C48.92,23.71 47.95,22.59 47.55,21.64 L45.33,22.56 C45.97,24.1 47.66,25.99 50.48,25.99 C53.47,25.99 56,24.23 56,19.94 L56,9.49 L53.58,9.49 L53.58,10.49 L53.58,10.49 L53.58,10.49 Z M50.65,18.52 C48.89,18.52 47.55,17.02 47.55,15 C47.55,12.95 48.89,11.48 50.65,11.48 C52.39,11.48 53.75,12.98 53.75,15.02 C53.76,17.05 52.39,18.52 50.65,18.52 L50.65,18.52 L50.65,18.52 Z M38,9.19 C34.79,9.19 32.17,11.63 32.17,15 C32.17,18.34 34.79,20.81 38,20.81 C41.21,20.81 43.83,18.35 43.83,15 C43.83,11.63 41.21,9.19 38,9.19 L38,9.19 L38,9.19 Z M38,18.52 C36.24,18.52 34.72,17.07 34.72,15 C34.72,12.91 36.24,11.48 38,11.48 C39.76,11.48 41.28,12.91 41.28,15 C41.28,17.07 39.76,18.52 38,18.52 L38,18.52 L38,18.52 Z M58,3.24 L60.51,3.24 L60.51,20.81 L58,20.81 L58,3.24 L58,3.24 Z M68.26,18.52 C66.96,18.52 66.04,17.93 65.44,16.76 L73.21,13.55 L72.95,12.89 C72.47,11.59 70.99,9.19 67.98,9.19 C64.99,9.19 62.5,11.54 62.5,15 C62.5,18.26 64.96,20.81 68.26,20.81 C70.92,20.81 72.46,19.18 73.1,18.24 L71.12,16.92 C70.46,17.88 69.56,18.52 68.26,18.52 L68.26,18.52 L68.26,18.52 Z M68.08,11.37 C69.11,11.37 69.99,11.9 70.28,12.65 L65.03,14.82 C65.03,12.38 66.76,11.37 68.08,11.37 L68.08,11.37 L68.08,11.37 Z" id="Shape"></path>
        </g>
    </g>
</svg>