<svg viewBox="0 0 16 16" xmlns="http://www.w3.org/2000/svg"><g fill="none" fill-rule="evenodd"><path d="M5 16H1.253C.561 16 0 15.44 0 14.747V11L11 0h3.747C15.439 0 16 .56 16 1.253V5L5 16z" fill="#8BC34A"/><path fill="#FFEB3B" d="M5 16h6l5-5V5H5z"/><path d="M16 14.747V11h-5v5h3.747c.701 0 1.253-.561 1.253-1.253z" fill="#FF9800"/><path d="M11 5h5l-5-5L0 11l5 5v-5l5 5h4.747c.692 0 1.253-.56 1.253-1.253V10l-5-5z" fill-opacity=".1" fill="#000"/><path fill="#00BCD4" d="M11 5V0H5L0 5v6h5z"/><path fill="#F5F5F5" d="M5 5h6v6H5z"/><path d="M5 0v5H0V1.253C0 .561.56 0 1.253 0H5z" fill="#2196F3"/></g></svg>