<svg viewBox="0 0 16 16" xmlns="http://www.w3.org/2000/svg"><g fill="none" fill-rule="evenodd"><circle fill="#4285F4" cx="8" cy="8" r="8"/><path d="M4.333 8.17a1 1 0 1 0-.001-2.002 1 1 0 0 0 .001 2.002zM2 10.133v.87h4.667v-.87c0-.736-1.229-1.296-2.334-1.296S2 9.397 2 10.133zm7.333 0v.87H14v-.87c0-.736-1.228-1.296-2.333-1.296-1.105 0-2.334.56-2.334 1.296zm2.334-1.963a1 1 0 1 0-.002-2.002 1 1 0 0 0 .002 2.002z" fill-opacity=".5" fill="#FFF"/><path d="M9.235 15.905l-4.902-4.902 4.492-2.316-2.003-2.005 2.356-2.357 6.36 6.36a8.01 8.01 0 0 1-6.303 5.22z" fill-opacity=".1" fill="#000"/><path d="M8 7.17a1.667 1.667 0 1 0-.001-3.335A1.667 1.667 0 0 0 8 7.17zm-3.667 3.037v.796h7.334v-.796c0-1.159-1.93-2.037-3.667-2.037-1.737 0-3.667.878-3.667 2.037z" fill="#F5F5F5"/></g></svg>