<svg viewBox="0 0 16 16" xmlns="http://www.w3.org/2000/svg"><g fill="none" fill-rule="evenodd"><circle fill="#34A853" cx="8" cy="8" r="8"/><path d="M10.159 15.69l-2.857-3.006.751-1.7-1.05-1v-2l-2-2 5.1-2.1 5.732 5.733a8.012 8.012 0 0 1-5.676 6.073z" fill-opacity=".1" fill="#000"/><path d="M7.002 5.984h-2v.122A3 3 0 0 1 8 2.99a2.987 2.987 0 0 1 2.985 3 2.995 2.995 0 0 1-1.983 2.827v1.167h-2v-3h1a1 1 0 1 0-1-1zm1.707 6.707a1 1 0 0 0-1.414-1.414.996.996 0 0 0 .004 1.41.996.996 0 0 0 1.41.004z" fill="#F5F5F5"/></g></svg>