<svg viewBox="0 0 16 16" xmlns="http://www.w3.org/2000/svg"><g fill-rule="nonzero" fill="none"><circle fill="#F7991C" cx="8" cy="8" r="8"/><path d="M16 8v-.43l-3.077-3.078-8.246 8.185L8 16c4.37 0 8-3.63 8-8z" fill="#F05721"/><path d="M10.77 11.63c.184-.122.368-.307.615-.492.184-.184.369-.369.492-.615l1.292.246.37-.246.492-1.97-.246-.43-1.231-.492c-.062-.554-.185-1.046-.43-1.539l.8-1.107v-.493l-1.478-1.477h-.492l-1.046.8c-.493-.246-.985-.43-1.539-.43l-.492-1.231-.492-.308-1.97.492-.246.431L5.354 4c-.185.123-.43.308-.616.492-.184.185-.307.431-.492.616l-1.292-.185-.43.246-.493 1.97.246.43 1.23.493c.062.553.185 1.046.431 1.538l-.8.985v.492l1.477 1.477h.493l.984-.8c.493.246.985.37 1.539.43l.492 1.231.43.247 1.97-.493.246-.369v-1.17z" fill="#FFF"/><path d="M10.03 5.908C9.478 5.354 8.8 5.046 8 5.046a2.823 2.823 0 0 0-2.83 2.83c0 .8.368 1.478.86 2.032l4-4z" fill="#F7991C"/><path d="M9.846 7.815c0 .985-.8 1.785-1.784 1.785a1.786 1.786 0 0 1 0-3.57c.984 0 1.784.8 1.784 1.785z" fill="#F05721"/></g></svg>