<svg viewBox="0 0 16 16" xmlns="http://www.w3.org/2000/svg"><g fill="none" fill-rule="evenodd"><path d="M11.517 15H4.483a1 1 0 0 1-.786-.454L.18 8.454a1.001 1.001 0 0 1 0-.908l3.517-6.092A1 1 0 0 1 4.483 1h7.034a1 1 0 0 1 .786.454l3.517 6.092a.999.999 0 0 1 0 .908l-3.517 6.092a.927.927 0 0 1-.338.321.927.927 0 0 1-.448.133z" fill="#4285F4"/><path d="M8.667 15h2.85c.146 0 .306-.05.448-.133a.927.927 0 0 0 .338-.32L15.05 9.79 8.436 3.177l-1.33 1.531.843.844-2.033.914-.858 2.016-.844-.844-1.612 1.297L8.667 15z" fill-opacity=".1" fill="#000"/><path d="M7.105 4.708l.436-1.416a.305.305 0 0 1 .275-.201h.418a.3.3 0 0 1 .275.201l.425 1.381a4.02 4.02 0 0 0-1.829.035zM4.2 7.643l-1.458.448a.305.305 0 0 0-.201.275v.418c0 .123.093.213.209.213h1.357A4.062 4.062 0 0 1 4.2 7.643zm7.882 1.354H13.3c.115 0 .21-.095.21-.213v-.418a.3.3 0 0 0-.202-.275L12 7.69a4.024 4.024 0 0 1 .082 1.308zM8.025 11.95a3.375 3.375 0 1 0 0-6.75 3.375 3.375 0 0 0 0 6.75zm0-.844a2.531 2.531 0 1 0 0-5.062 2.531 2.531 0 0 0 0 5.062zM7.13 9.47l-.298.298a1.687 1.687 0 0 0 2.386-2.386l-.298.298a1.266 1.266 0 1 0-1.79 1.79zm.895-.051a.844.844 0 1 0 0-1.688.844.844 0 0 0 0 1.688z" fill="#F5F5F5"/></g></svg>