<svg viewBox="0 0 16 16" xmlns="http://www.w3.org/2000/svg"><g fill="none" fill-rule="evenodd"><path d="M5.248 4.453c-.76-1.52 4.745-4.271 5.505-2.751l4.923 9.846a3.077 3.077 0 0 1-5.504 2.752L5.248 4.453z" fill="#FF5722"/><path d="M10.753 4.453a3.077 3.077 0 1 0-5.505-2.751L.325 11.548A3.077 3.077 0 0 0 5.83 14.3l4.923-9.847z" fill="#FF9800"/><path d="M8 4.616A1.538 1.538 0 1 0 8 1.54a1.538 1.538 0 0 0 0 3.077zm-4.922 9.846a1.538 1.538 0 1 0 0-3.077 1.538 1.538 0 0 0 0 3.077zm9.846 0a1.538 1.538 0 1 0 0-3.077 1.538 1.538 0 0 0 0 3.077z" fill="#FFF"/></g></svg>