<svg viewBox="0 0 16 16" xmlns="http://www.w3.org/2000/svg"><g fill="none" fill-rule="evenodd"><path d="M11 0v13h5V1.337A1.33 1.33 0 0 0 14.663 0H11z" fill="#EA4335"/><path d="M16 11H3v5h11.663A1.33 1.33 0 0 0 16 14.664V11z" fill="#FDC626"/><path fill-opacity=".1" fill="#BF360C" d="M3 16l2-5 5 5z"/><path d="M5 16V2L0 3v11.663A1.33 1.33 0 0 0 1.336 16H5z" fill="#34A853"/><path fill-opacity=".1" fill="#000" d="M0 5l5-3v8z"/><path d="M11 0v5H0V1.337A1.33 1.33 0 0 1 1.337 0H11z" fill="#4285F4"/></g></svg>