<svg viewBox="0 0 16 16" xmlns="http://www.w3.org/2000/svg"><g fill="none" fill-rule="evenodd"><path d="M1.337 0h13.326C15.402 0 16 .598 16 1.337v13.326c0 .739-.598 1.337-1.337 1.337H1.337A1.336 1.336 0 0 1 0 14.663V1.337C0 .598.598 0 1.337 0z" fill="#FF9800"/><path d="M16 11.18L9.41 4.59l-4.628.446-.192 6.374L9.18 16h5.483c.739 0 1.337-.598 1.337-1.337V11.18z" fill-opacity=".1" fill="#000"/><path d="M4 5.998A2 2 0 0 1 5.998 4h2.004C9.106 4 10 4.9 10 6.001c0 .552.444.999 1 .999.552 0 1 .444 1 1v1.995A1.996 1.996 0 0 1 10.002 12H5.998A1.993 1.993 0 0 1 4 10.002V5.998zM6 9.5c0-.276.215-.5.49-.5h3.02a.5.5 0 0 1 .49.5c0 .276-.215.5-.49.5H6.49A.5.5 0 0 1 6 9.5zm0-3c0-.276.23-.5.506-.5h1.488c.28 0 .506.232.506.5 0 .276-.23.5-.506.5H6.506A.508.508 0 0 1 6 6.5z" fill="#F5F5F5"/></g></svg>