<svg viewBox="0 0 16 16" xmlns="http://www.w3.org/2000/svg"><g fill="none" fill-rule="evenodd"><path d="M10.159 6.003h5.249c.553 0 .783.707.337 1.033l-4.236 3.091 1.653 5.048c.172.527-.432.966-.88.64l-4.283-3.126-4.282 3.125c-.449.327-1.053-.112-.88-.639l1.652-5.048L.253 7.036C-.193 6.71.037 6.003.59 6.003h5.25l1.616-4.939a.571.571 0 0 1 1.086 0l1.617 4.939z" fill="#FFA000"/><path d="M15.408 6.003h-5.25L8.543 1.064a.571.571 0 0 0-1.086 0L5.84 6.003H.59c-.553 0-.783.707-.337 1.033l4.236 3.091-1.652 5.048c-.173.527.431.966.88.64l4.282-3.126 3.51-2.562 4.236-3.091c.446-.326.216-1.033-.337-1.033z" fill="#FFB300"/><path d="M10.159 6.003l1.35 4.124L8 12.69l-3.51-2.562L.253 7.036C-.193 6.71.037 6.003.59 6.003h5.25l1.616-4.939a.571.571 0 0 1 1.086 0l1.617 4.939z" fill="#FFC107"/><path d="M.253 7.036l4.236 3.091 1.35-4.124H.59c-.553 0-.783.707-.337 1.033zm7.203-5.972L5.84 6.003h4.32L8.542 1.064a.571.571 0 0 0-1.086 0z" fill="#FFCA28"/></g></svg>