<svg viewBox="0 0 16 16" xmlns="http://www.w3.org/2000/svg"><g fill="none" fill-rule="evenodd"><path d="M8 1L4 8l4 7h4l3-3V2.146A1.15 1.15 0 0 0 13.848 1H8z" fill="#424242"/><path fill-opacity=".1" fill="#000" d="M8 1l7 6.929V11l-3 4H8L5 8z"/><path d="M8 15V8L4.5 7 1 8v5.854C1 14.484 1.512 15 2.145 15H8z" fill="#616161"/><path d="M5.073 1H8v7H1V2.146C1 1.513 1.515 1 2.146 1h2.927z" fill="#757575"/><circle fill="#1DE9B6" cx="11.429" cy="11.429" r="4.571"/><path d="M10 11.714h2.857v.572H10v-.572zm0-1.143h2.857v.572H10v-.572zm1.025-6l-.809.809.404.404.809-.809.808.809.404-.404-.808-.809.808-.808-.404-.404-.808.808-.809-.808-.404.404.809.808zm-6.74 6.572H3.144v.571h1.143v1.143h.571v-1.143H6v-.571H4.857V10h-.571v1.143zM3.144 4.286H6v.571H3.143v-.571z" fill="#F5F5F5"/></g></svg>