<svg viewBox="0 0 16 16" xmlns="http://www.w3.org/2000/svg"><g fill="none" fill-rule="evenodd"><path d="M1 1.335A1.34 1.34 0 0 1 2.342 0h11.316C14.399 0 15 .595 15 1.335V3.33H1V1.335z" fill="#BDBDBD"/><path d="M11.803.863l2.804 2.804h-1.88l-1.864-1.864.94-.94zm-6.666 0L7.94 3.667H6.06L4.197 1.803l.94-.94z" fill-opacity=".1" fill="#000"/><path d="M1.337 3h13.326c.739 0 1.278.592 1.204 1.333l-.534 5.334L8 12.5.667 9.667.133 4.333A1.186 1.186 0 0 1 1.337 3z" fill="#3367D6"/><path d="M6.831 9.333a2.33 2.33 0 0 0-.048-.016 1.68 1.68 0 0 0 .767-.628c.08-.126.14-.255.18-.387.04-.132.06-.258.06-.378 0-.299-.048-.56-.141-.786a1.537 1.537 0 0 0-.394-.565 1.684 1.684 0 0 0-.608-.343 2.534 2.534 0 0 0-.791-.116c-.296 0-.565.046-.807.138a1.907 1.907 0 0 0-.622.378 1.666 1.666 0 0 0-.54 1.25H4.7c0-.167.028-.318.083-.455a.978.978 0 0 1 .6-.566c.142-.052.3-.077.473-.077.378 0 .659.096.843.287.185.192.277.471.277.838 0 .158-.026.304-.079.437a.942.942 0 0 1-.237.347 1.115 1.115 0 0 1-.396.23 1.668 1.668 0 0 1-.553.084h-.58v.328h1.7zm4.169 0v-2.2l-1.783.65v-.738l2.33-.874h.127l-.004 3.162H11z" fill="#CFCFCF"/><path d="M.667 9.333h14.666l.267 5.334A1.258 1.258 0 0 1 14.333 16H1.667A1.253 1.253 0 0 1 .4 14.667l.267-5.334z" fill="#4285F4"/><path d="M8 9.333H.667L7.333 16h7c.733 0 1.304-.597 1.267-1.333l-.267-5.334H8z" fill-opacity=".1" fill="#000"/><path d="M6.831 9.333c.19.066.35.149.481.25a1.394 1.394 0 0 1 .52.793c.036.15.054.296.054.44 0 .299-.051.565-.154.797a1.644 1.644 0 0 1-.426.587 1.89 1.89 0 0 1-.642.363 2.488 2.488 0 0 1-.804.125 2.6 2.6 0 0 1-.787-.117 1.923 1.923 0 0 1-.646-.342 1.623 1.623 0 0 1-.437-.558 1.72 1.72 0 0 1-.16-.759h.817c0 .167.028.32.084.455a.98.98 0 0 0 .241.352c.106.098.233.173.383.226.15.053.318.08.505.08.188 0 .356-.025.505-.073a.993.993 0 0 0 .383-.222.97.97 0 0 0 .241-.374c.056-.15.084-.323.084-.523 0-.199-.032-.372-.097-.518a.944.944 0 0 0-.274-.363 1.189 1.189 0 0 0-.429-.213 2.081 2.081 0 0 0-.562-.07h-.58v-.336h1.7zm4.169 0v3.334h.667l.003-3.334H11zm.805-7.53a.662.662 0 0 0-.002-.94.664.664 0 1 0-.94.94.662.662 0 0 0 .942 0zm-6.667 0a.662.662 0 0 0-.001-.94.664.664 0 1 0-.94.94.662.662 0 0 0 .941 0z" fill="#F5F5F5"/></g></svg>