<svg viewBox="0 0 16 16" xmlns="http://www.w3.org/2000/svg"><g fill="none" fill-rule="evenodd"><path d="M0 12V3.147C0 2.514.514 2 1.15 2h13.7c.635 0 1.15.516 1.15 1.15v9.7A1.15 1.15 0 0 1 14.854 14H2l-2-2z" fill="#03A9F4"/><path d="M16 5.573V8H0V3.145C0 2.513.514 2 1.144 2h13.712C15.488 2 16 2.512 16 3.145v2.428z" fill="#039BE5"/><path d="M13.737 14L6.87 7.131 0 5v7.855C0 13.488.512 14 1.144 14h12.593z" fill-opacity=".1" fill="#000"/><path d="M7.429 14h2.285c0-5.365-4.349-9.714-9.714-9.714V6.57A7.429 7.429 0 0 1 7.429 14zM0 10V7.714A6.286 6.286 0 0 1 6.286 14H4a4 4 0 0 0-4-4zm2.857 4A2.857 2.857 0 0 0 0 11.143v1.712C0 13.488.512 14 1.144 14h1.713z" fill="#F5F5F5"/></g></svg>