<svg viewBox="0 0 16 16" xmlns="http://www.w3.org/2000/svg"><g fill="none" fill-rule="evenodd"><path d="M6.4 15.84V.16a8 8 0 1 1 0 15.68z" fill="#FBBC05"/><path fill-opacity=".1" fill="#BF360C" d="M5 2l9.93 2L8 6z"/><path d="M2.343 13.657L5 11l3-7h6.93a8 8 0 1 0-12.587 9.657z" fill="#EA4335"/><path fill-opacity=".1" fill="#000" d="M6.268 9L3.67 13l-2.6-9.001z"/><path d="M8 16l3.463-5.999-2.101-2.536L4.535 10 1.071 4A8 8 0 0 0 8 16z" fill="#34A853"/><path fill-opacity=".1" fill="#000" d="M11.463 10.001L8 16l1.732-7z"/><path d="M12 8a4 4 0 1 1-8 0 4 4 0 0 1 8 0z" fill="#F5F5F5"/><circle fill="#4285F4" cx="8" cy="8" r="3"/></g></svg>