<svg viewBox="0 0 16 16" xmlns="http://www.w3.org/2000/svg"><g fill="none" fill-rule="evenodd"><path d="M4 11a4 4 0 0 1-.603-7.955 5.001 5.001 0 0 1 9.508.978A3.5 3.5 0 0 1 12.5 11H4z" fill="#EEE"/><path d="M14 8c0 .552-.456 1-1.002 1H3.002A.999.999 0 0 1 2 8c0-.552.456-1 1.002-1h9.996A.999.999 0 0 1 14 8z" fill="#4D4D4D"/><path d="M13 15.002c0 .551-.456.998-.995.998h-8.01A.996.996 0 0 1 3 15.002V7h10v8.002z" fill="#4285F4"/><path d="M5 9v1h6V9H5zm0 2v1h6v-1H5z" fill="#FFF"/><path d="M15.424 9.424A3.5 3.5 0 0 1 13 10.964V7l2.424 2.424z" fill-opacity=".1" fill="#000"/></g></svg>