<svg viewBox="0 0 16 16" xmlns="http://www.w3.org/2000/svg"><g fill="none" fill-rule="evenodd"><path d="M12 3v10s3.266 2.894 3.494 2.714a1.33 1.33 0 0 0 .506-1.05V1.336c0-.417-.188-.79-.485-1.034C15.285.113 12 3 12 3z" fill="#EA4335"/><path d="M4 3v10S.733 15.893.507 15.715A1.333 1.333 0 0 1 0 14.663V1.337C0 .917.189.547.485.303.716.113 4 3 4 3z" fill="#34A853"/><path d="M1.337 0h13.326c.373 0 .707.149.947.39L11.996 4H4L.39.39C.632.148.967 0 1.337 0z" fill="#4285F4"/><path d="M15.608 15.612l-3.612-3.608H4L.391 15.612c.24.24.573.388.946.388h13.326c.37 0 .704-.147.945-.388z" fill="#FDC626"/></g></svg>