<svg viewBox="0 0 16 16" xmlns="http://www.w3.org/2000/svg"><g fill="none" fill-rule="evenodd"><path d="M1.537 5.647a4.11 4.11 0 0 1 4.11-4.11V0A5.647 5.647 0 0 0 0 5.647h1.537z" fill="#EA4335"/><path d="M15.848 13.983l-4.24-4.258h-.941l-.587-.586a5.618 5.618 0 0 0 1.214-3.492H9.757a4.11 4.11 0 0 1-4.11 4.11v1.537a5.62 5.62 0 0 0 3.492-1.214l.586.587v.94l4.251 4.24c.277.277.949.191 1.501-.36.556-.556.65-1.225.371-1.504z" fill="#4285F4"/><path d="M5.647 1.537a4.11 4.11 0 0 1 4.11 4.11h1.537A5.647 5.647 0 0 0 5.647 0v1.537z" fill="#FBBC05"/><path d="M0 5.647a5.647 5.647 0 0 0 5.647 5.647V9.757a4.11 4.11 0 0 1-4.11-4.11H0z" fill="#34A853"/></g></svg>