<svg viewBox="0 0 16 16" xmlns="http://www.w3.org/2000/svg"><g fill="none" fill-rule="evenodd"><path d="M8 0a6 6 0 0 1 6 6c0 4.314-6 10-6 10V0z" fill="#E0E0E0"/><path d="M8 0a6 6 0 0 0-6 6c0 4.314 6 10 6 10V0z" fill="#EEE"/><path d="M13.952 5.234c.032.25.048.507.048.766 0 2.852-2.623 6.305-4.4 8.317L4.64 9.359l6.72-6.719 2.593 2.593z" fill-opacity=".05" fill="#000"/><circle fill="#8BC34A" cx="8" cy="6" r="4.75"/><path d="M8 9a3 3 0 1 0 0-6 3 3 0 0 0 0 6zm0-.7a2.3 2.3 0 1 0 0-4.6 2.3 2.3 0 0 0 0 4.6zm0-.95a1.35 1.35 0 1 0 0-2.7 1.35 1.35 0 0 0 0 2.7z" fill="#F5F5F5"/></g></svg>