<svg viewBox="0 0 16 16" xmlns="http://www.w3.org/2000/svg"><path d="M4.083 9.667c1.243 0 2.25-1.045 2.25-2.334C6.333 6.045 5.326 5 4.083 5c-1.242 0-2.25 1.045-2.25 2.333 0 1.289 1.008 2.334 2.25 2.334zm0-.834c.69 0 1.25-.671 1.25-1.5 0-.828-.56-1.5-1.25-1.5s-1.25.672-1.25 1.5c0 .829.56 1.5 1.25 1.5zM7 9.667h1V7.333a1.333 1.333 0 0 1 1.651-1.295l.382-.954A1.735 1.735 0 0 0 9.5 5c-.597 0-1.134.306-1.5.79V5H7v4.667zm7-.65c-.39.402-.918.65-1.5.65-1.197 0-2.167-1.045-2.167-2.334 0-1.288.97-2.333 2.167-2.333.582 0 1.11.247 1.5.65V5h1v4.333c0 .644-.136 1.305-.514 1.818-.396.537-1.01.849-1.82.849-.55 0-1.021-.145-1.396-.424a2.434 2.434 0 0 1-.757-1.074l.945-.326c.094.284.198.452.408.598.177.131.43.226.8.226.525 0 .827-.188 1.015-.442.205-.28.319-.702.319-1.225v-.316zm0-1.684c0 .829-.597 1.5-1.333 1.5-.737 0-1.334-.671-1.334-1.5 0-.828.597-1.5 1.334-1.5.736 0 1.333.672 1.333 1.5zM.667 9.667a.667.667 0 1 0 0-1.334.667.667 0 0 0 0 1.334z" fill="#757575" fill-rule="evenodd"/></svg>