<svg viewBox="0 0 16 16" xmlns="http://www.w3.org/2000/svg"><g fill="none" fill-rule="evenodd"><path fill="#D84315" d="M9.806 3.25L13 8h3l-2.851 1.584L9.944 12.5 8 16v-4.056l-4.896-2.22L0 8h8V0z"/><path d="M8 14.5A6.5 6.5 0 0 0 14.5 8H16l-1.557-.865A6.501 6.501 0 0 0 8 1.5V0l-.865 1.557a6.504 6.504 0 0 0-5.578 5.578L0 8h1.5a6.501 6.501 0 0 0 5.635 6.443L8 16v-1.5z" fill="#FF5722"/><circle fill="#F5F5F5" cx="8" cy="8" r="5.75"/><path d="M13.743 8.293L10.5 5.05 6 6.5l-.85 5.35 1.715 1.788a5.75 5.75 0 0 0 6.878-5.345z" fill-opacity=".05" fill="#000"/><rect fill="#FF9C0A" x="5" y="4" width="1" height="8" rx=".5"/><path d="M10.203 5c.44 0 .544.253.23.568L9 7l1.432 1.432c.314.314.21.568-.229.568H5V5h5.203z" fill="#FF5722"/></g></svg>