<svg viewBox="0 0 16 16" xmlns="http://www.w3.org/2000/svg"><g fill="none" fill-rule="evenodd"><path d="M5.512.489a7.893 7.893 0 0 1 10.116 4.717l-7.417 2.7-2.7-7.417z" fill="#FDC626"/><path d="M5.512.489A7.893 7.893 0 0 0 .794 10.605l7.417-2.7L5.511.49z" fill="#3F51B5"/><path fill="#EA4335" d="M8.446 12.989l2.853-1.038 1.038 2.852-2.853 1.039z"/><path fill="#E0E0E0" d="M5.073 9.048l-.856.311 3.77 2.074-6.052-1.243-1.14.415 9.077 1.865 5.756-7.264-1.141.415-3.837 4.843 1.555-4.012-.856.312-1.833 4.728z"/><path d="M7.667.66l3.397 6.207 4.565-1.661a7.958 7.958 0 0 0-.473-1.054L7.667.66z" fill-opacity=".1" fill="#BF360C"/><path d="M5.512.489c-2.206.803-2.785 4.774-1.295 8.87l7.988-2.907C10.714 2.356 7.717-.314 5.512.489z" fill="#03A9F4"/></g></svg>