<svg viewBox="0 0 16 16" xmlns="http://www.w3.org/2000/svg"><g fill="none" fill-rule="evenodd"><path d="M6.32 3.643C6.32 5.166 7.332 6.4 8.878 6.4c1.552 0 2.722-1.234 2.722-2.757l-.022-.266A10.088 10.088 0 0 1 14 9.947c0 3.268-2.685 5.914-6 5.914s-6-2.646-6-5.913C2 5.964 3.943 2.408 6.875.095c0 0-.555 1.959-.555 3.548z" fill="#EA4335"/><path d="M11.383 11.323c0-1.198-.788-2.04-2.108-2.306-1.328-.267-2.7-.895-3.465-1.907a10.175 10.175 0 0 0-.442 2.986c0 1.958 1.612 3.547 3.6 3.547 1.335 0 2.415-1.034 2.415-2.32z" fill="#FBBC05"/></g></svg>