<svg viewBox="0 0 16 16" xmlns="http://www.w3.org/2000/svg"><g fill="none" fill-rule="evenodd"><path d="M6.667 6a3.333 3.333 0 0 1 4.735-3.025A1.333 1.333 0 1 0 12.598.592 6 6 0 0 0 4 6v9.667a.33.33 0 0 0 .327.333H6.34a.328.328 0 0 0 .327-.333V6z" fill="#34A853"/><path fill="#FBBC05" d="M10.667 10h2.667v6h-2.667z"/><rect fill="#00BCD4" x="1.333" y="6.667" width="12" height="2.667" rx="1.333"/><path d="M13.33 7.917l-.623-.624-1.414 1.414.626.626h.084a1.331 1.331 0 0 0 1.328-1.416z" fill-opacity=".1" fill="#000"/><path d="M12.707 8.707a1 1 0 1 0-1.414-1.414 1 1 0 0 0 1.414 1.414z" fill="#EEE"/></g></svg>