<svg viewBox="0 0 16 16" xmlns="http://www.w3.org/2000/svg"><g fill="none" fill-rule="evenodd"><rect fill="#4285F4" width="16" height="16" rx="1.333"/><path d="M3.858 6.026a1.248 1.248 0 0 0-.219.078c-.198.095-.324.321-.383.547v.078h-.014v.117c-.003 0 0 .174 0 .235a.726.726 0 0 1-.014.156c-.008.031.013.022-.04.039-.052-.01-.12.02-.152.026-.084-.006-.155.027-.219.04-.16-.005-.007.012-.15.012v.17h.561v2.643h.288V7.523h1.192v2.644h.287V7.289h-1.48v-.443h.015c.001-.346.174-.54.479-.599h.438v.013c.144.016.274.027.384.079.004.002.078.046.082.039.03-.058.032-.118.055-.183.006-.018.045-.043.027-.052a1.69 1.69 0 0 0-.383-.117h-.083v-.013L4.42 6h-.41v.013c-.141 0-.096 0-.15.013zm9.605 1.334h-.097v-.013h-.14v-.014h-.306v.014c-.401.016-.653.289-.794.557v-.133h-.014v-.265h-.014v-.12h-.265v2.947h.307V8.581h.014v-.106h.014c.028-.43.32-.77.71-.863h.084V7.6h.153v.013h.14v.013c.234.023.176.074.222-.146.014-.093.05-.089-.014-.12zM5.833 6v4.115c.218.018.192.038.213-.065 0-.026.033-.29.053-.35.005-.014.02.026.027.04.033.063.121.118.173.168.122.119.297.198.492.246h.08v.013h.425v-.013c.576-.028.875-.482.997-.958V9.12h.014v-.08h.013v-.13h.013v-.465H8.32v-.143h-.013v-.077h-.014c-.03-.562-.415-.922-.93-1.023h-.12V7.19h-.306v.013h-.106v.013c-.314.026-.603.228-.718.453v-.271h.013V6h-.293zm3.905 1.346h.11v-.013h.288v.013c.6.02.9.46 1.003.953v.09h.014v.17h.014v.327H8.983v.156h.013v.117h.014c.026.475.357.8.783.9h.082v.013h.138v.014h.165v-.014h.192v-.013c.275.035.442-.156.673-.156 0 .087.01.174 0 .26a7.8 7.8 0 0 1-.467.144h-.082v.013h-.124v.013h-.536v-.013h-.082v-.013c-.606-.036-.95-.529-1.058-1.043v-.092H8.68v-.156h-.013v-.313h.013v-.157h.014c.014-.219.156-.693.316-.77.142-.222.417-.37.728-.43zM6.167 8.534h.012V8.39h.013v-.092h.013c.017-.436.278-.708.654-.785h.077V7.5h.282v.013c.457.018.677.393.756.799v.078h.013v.118H8v.458h-.013v.105h-.013c-.02.481-.24.727-.64.829-.026 0-.385.004-.385 0-.471-.013-.675-.27-.757-.685 0-.03 0 0-.013-.118-.012-.092-.012-.056-.012-.144v-.419zm2.86-.152v.075h-.013c.022.175-.014.027-.014.126h1.833v-.1h-.013v-.126h-.014a.807.807 0 0 0-.665-.768c-.103.003-.13-.014-.177 0h-.136v.013c-.266.022-.526.182-.624.365a1.783 1.783 0 0 0-.177.415z" fill="#F5F5F5"/></g></svg>