<svg viewBox="0 0 16 16" xmlns="http://www.w3.org/2000/svg"><g fill="none" fill-rule="evenodd"><path d="M13 5H0V1.333C0 .597.598 0 1.333 0h13.334c.43 0 .812.204 1.056.52L13 5z" fill="#EEE"/><path fill="#E0E0E0" d="M0 5h13v6H0z"/><path fill="#BDBDBD" d="M0 11h2.667L0 14.5z"/><path d="M8 8H5l-5 5v1.667c0 .4.177.76.457 1.004l4.876-3.504L16 10.833v-9.5c0-.367-.15-.7-.39-.942L8 8z" fill="#34A853"/><path d="M16 7.333L11 11H5L.39 15.61c.242.24.575.39.943.39h13.334c.735 0 1.333-.597 1.333-1.333V7.333z" fill="#9CCC65"/></g></svg>