<svg viewBox="0 0 16 16" xmlns="http://www.w3.org/2000/svg"><g fill="none" fill-rule="evenodd"><circle fill="#3367D6" cx="8" cy="8" r="8"/><path d="M12.382 10.924c.359-.15.618-.508.618-.924 0-.556-.446-1-.995-1H8.23l4.153-2.076C12.74 6.774 13 6.416 13 6c0-.556-.446-1-.995-1H8.22a94.14 94.14 0 0 1 1.162-.576 1 1 0 1 0-.766-1.848c-.51.211-5 2.5-5 2.5A1.01 1.01 0 0 0 3 6c0 .556.446 1 .995 1H7.77L3.617 9.076C3.26 9.226 3 9.584 3 10c0 .556.446 1 .995 1H7.78a94.14 94.14 0 0 1-1.162.576 1 1 0 0 0 .766 1.848c.385-.16 5-2.5 5-2.5z" fill="#F5F5F5"/><path d="M9.257 8.487L12.23 7H7.77l1.487 1.487zM7.775 11h.004a.461.461 0 0 0-.006.003l1.493 1.494a903.326 903.326 0 0 0 2.963-1.495L12.23 11H7.775z" fill-opacity=".1" fill="#000"/></g></svg>