<svg viewBox="0 0 16 16" xmlns="http://www.w3.org/2000/svg" xmlns:xlink="http://www.w3.org/1999/xlink"><defs><rect id="a" x="10.6" y="11.517" width="2.667" height="2.667" rx=".741"/><mask id="b" x="-.593" y="-.593" width="3.852" height="3.852"><path fill="#fff" d="M10.007 10.924h3.852v3.852h-3.852z"/><use xlink:href="#a"/></mask></defs><g fill="none" fill-rule="evenodd"><path d="M5 2l1-1h4l1 1v1h5v10.998A1 1 0 0 1 15 15H1c-.552 0-1-.456-1-1.002V3h5V2zm1 .5c0-.276.215-.5.49-.5h3.02a.5.5 0 0 1 .49.5V3H6v-.5z" fill="#EEE"/><path fill="#4285F4" d="M4 4h8v11H4z"/><path fill="#3B4AAF" d="M7 4h2v.5H7z"/><path fill="#F5F5F5" d="M5 5h6v10H5z"/><path d="M7.993 8A.196.196 0 0 0 8 7.95c0-.414-1.343-.75-3-.75s-3 .336-3 .75c0 .017.002.033.007.05H2v7h6V8h-.007z" fill="#FF5722"/><path fill="#F5F5F5" d="M3 9h4v6H3z"/><path d="M13.182 15l.085-.669H10.6l.085.669h2.497zm-2.305-5.848a.179.179 0 0 1 .168-.154h1.776c.083 0 .157.058.169.154l.277 2.185H10.6l.277-2.185z" fill="#FBBC05"/><use fill="#F5F5F5" xlink:href="#a"/><use stroke="#F29400" mask="url(#b)" stroke-width="1.185" xlink:href="#a"/></g></svg>