<svg viewBox="0 0 16 16" xmlns="http://www.w3.org/2000/svg"><g fill="none" fill-rule="evenodd"><path fill="#EFEFEF" d="M14.815 2H1.185L2 14h12z"/><path fill-opacity=".05" fill="#000" d="M8 9.407L2 14l-.222-9.037z"/><path d="M8 6.889L1.185 2C.531 2 0 2.53 0 3.185v9.489C0 13.406.59 14 1.324 14H2s-.074-8.93 0-8.877l6 4.284 5.997-4.283L14 14h.666c.737 0 1.334-.597 1.334-1.326V3.185C16 2.531 15.47 2 14.815 2L8 6.889z" fill="#EA4335"/><path d="M0 3.695L10.2 14h4.47A1.33 1.33 0 0 0 16 12.676V3.712L8 9.407 0 3.695z" fill-opacity=".1" fill="#000"/></g></svg>