<svg viewBox="0 0 16 16" xmlns="http://www.w3.org/2000/svg"><g fill="none" fill-rule="evenodd"><path d="M8 16A8 8 0 1 0 8 0a8 8 0 0 0 0 16z" fill="#4A88F0"/><path d="M10.169 7.668c.646 0 1.164-.52 1.164-1.166a1.166 1.166 0 1 0-1.165 1.167zm-.002.855c-.943 0-2.834.473-2.834 1.416v1.063H13V9.939c0-.943-1.89-1.416-2.833-1.416z" fill-opacity=".5" fill="#F5F5F5"/><path d="M7.999 16L3 11l3.545-3-1.104-1.104 2.121-2.121 7.315 7.315A7.996 7.996 0 0 1 8 16h-.001z" fill-opacity=".1" fill="#000"/><path d="M6.5 8.002c-1.165 0-3.5.585-3.5 1.75v1.25h7v-1.25c0-1.165-2.335-1.75-3.5-1.75zm.003-.667c.832 0 1.498-.67 1.498-1.5s-.666-1.5-1.498-1.5a1.5 1.5 0 1 0 0 3z" fill="#F5F5F5"/></g></svg>