<svg viewBox="0 0 16 16" xmlns="http://www.w3.org/2000/svg"><g fill="none" fill-rule="evenodd"><path d="M9.68 3.643C9.68 5.166 8.668 6.4 7.122 6.4 5.57 6.4 4.4 5.166 4.4 3.643l.022-.266A10.088 10.088 0 0 0 2 9.947c0 3.268 2.685 5.914 6 5.914s6-2.646 6-5.913c0-3.984-1.943-7.54-4.875-9.853 0 0 .555 1.959.555 3.548z" fill="#EA4335"/><path d="M5.367 11.323c0-1.198.788-2.04 2.108-2.306 1.328-.267 2.7-.895 3.465-1.907.293.953.443 1.958.443 2.986 0 1.958-1.613 3.547-3.6 3.547-1.336 0-2.416-1.034-2.416-2.32z" fill="#F5F5F5"/></g></svg>