<svg viewBox="0 0 16 16" xmlns="http://www.w3.org/2000/svg"><g fill="none" fill-rule="evenodd"><path d="M15 13c.555 0 1-.446 1-1V1.002C16 .456 15.552 0 15 0H1a1 1 0 0 0-1 1.002V16l5-3h10z" fill="#E2E2E2"/><path d="M14 3.007A1.01 1.01 0 0 0 12.998 2H3.002A1 1 0 0 0 2 2.998v7.004c0 .551.444.998 1 .998h4l7 5V3.007z" fill="#4285F4"/><path d="M10.153 6.846a.923.923 0 1 0 0-1.845.923.923 0 0 0 0 1.845zM8.308 8.385V9h3.69v-.615c0-.616-1.23-.923-1.845-.923s-1.845.307-1.845.923z" fill="#A0C3FF"/><path d="M3.692 8.137v.861h5.54v-.86c0-.862-1.847-1.293-2.77-1.293s-2.77.43-2.77 1.292zm3.64-2.576c.481-.48.481-1.26-.002-1.738a1.225 1.225 0 0 0-1.738-.003c-.48.481-.48 1.26.002 1.739a1.225 1.225 0 0 0 1.739.002z" fill="#F7F7F7"/></g></svg>