<svg viewBox="0 0 16 16" xmlns="http://www.w3.org/2000/svg"><path d="M4.971 12.429L6.23 11.17a.245.245 0 0 0-.001-.343L3.372 7.972a.245.245 0 0 1 0-.344l2.856-2.856a.252.252 0 0 0 0-.343L4.972 3.17c-.094-.094-.254-.088-.353.011L.182 7.618a.26.26 0 0 0 0 .364l4.436 4.436c.1.1.268.096.353.01zm10.847-4.447a.26.26 0 0 0 0-.364l-4.436-4.436a.26.26 0 0 0-.364 0L6.582 7.618c-.1.1-.096.268-.01.353L7.828 9.23c.094.094.25.092.343-.001l2.856-2.856a.252.252 0 0 1 .343 0l1.258 1.257a.245.245 0 0 1-.001.343l-2.856 2.856a.252.252 0 0 0 0 .343l1.257 1.258c.094.094.254.088.353-.011l4.436-4.436z" fill="#EA4335" fill-rule="evenodd"/></svg>