<svg viewBox="0 0 16 16" xmlns="http://www.w3.org/2000/svg"><g fill="none" fill-rule="evenodd"><path d="M1.237 12.275L0 16l3.767-1.21a8 8 0 1 0-2.53-2.514z" fill="#4285F4"/><path d="M10.156 15.706L7.3 12.7l.751-1.7L7 10V8L5 6l5.1-2.1 5.733 5.733a8.012 8.012 0 0 1-5.677 6.073z" fill-opacity=".1" fill="#000"/><path d="M7 6H5v.122a3 3 0 0 1 2.998-3.116 2.987 2.987 0 0 1 2.985 3A2.995 2.995 0 0 1 9 8.832V10H7V7h1a1 1 0 1 0-1-1zm1.707 6.707a1 1 0 0 0-1.414-1.414.996.996 0 0 0 .003 1.41.996.996 0 0 0 1.411.004z" fill="#F5F5F5"/></g></svg>