<svg viewBox="0 0 16 16" xmlns="http://www.w3.org/2000/svg"><g fill="none" fill-rule="evenodd"><path d="M13.657 13.657a8 8 0 0 1-11.314 0L5 5l8.657-2.657a8 8 0 0 1 0 11.314z" fill="#8BC34A"/><path d="M2.343 13.657A8 8 0 0 1 13.657 2.343L2.343 13.657z" fill="#7CB342"/><path d="M12.71 6.29L8 7 6.88 5.87 6 6 4 4l-1 8 3.929 3.929a8.002 8.002 0 0 0 8.94-6.48L12.71 6.29z" fill-opacity=".07" fill="#000"/><path d="M6 8.001c.69 0 1.25-.56 1.248-1.247A1.247 1.247 0 0 0 6 5.5 1.25 1.25 0 0 0 6 8zM12 10H4v2H3V4h1v5h4V6h4a1 1 0 0 1 1 .99V12h-1v-2z" fill="#EFEFEF"/></g></svg>