<svg viewBox="0 0 16 16" xmlns="http://www.w3.org/2000/svg"><g fill="none" fill-rule="evenodd"><path d="M1 1.5c0-.276.252-.5.563-.5h1.875c.31 0 .562.224.562.5V3H1V1.5z" fill="#9E9E9E"/><path d="M14.72 2H1.28C.573 2 0 2.597 0 3.333v9.334C0 13.403.573 14 1.28 14h13.44c.707 0 1.28-.597 1.28-1.333V3.333C16 2.597 15.427 2 14.72 2z" fill="#E0E0E0"/><circle fill="#EA4335" cx="14.5" cy="3.5" r=".5"/><path d="M8.413 14l-3.277-3.277 5.928-5.927L16 9.733v2.934c0 .736-.573 1.333-1.28 1.333H8.413z" fill-opacity=".1" fill="#000"/><path d="M8.1 3.568a4.192 4.192 0 1 1 0 8.385 4.192 4.192 0 0 1 0-8.385z" fill="#F5F5F5"/><path d="M4.644 7.76a3.455 3.455 0 1 1 6.91-.001 3.455 3.455 0 0 1-6.91.001z" fill="#616161"/></g></svg>