<svg viewBox="0 0 16 16" xmlns="http://www.w3.org/2000/svg"><g fill="none" fill-rule="evenodd"><circle fill="#03A9F4" cx="8" cy="8" r="8"/><path d="M9.21 9.54H3.961l.342.943h4.928c.433 0 .798.36.798.787a.802.802 0 0 1-.798.786.802.802 0 0 1-.799-.786.89.89 0 0 1 .069-.337H7.475c-.023.112-.023.224-.023.337 0 .966.799 1.73 1.757 1.73.981 0 1.757-.787 1.757-1.73 0-.944-.776-1.73-1.757-1.73zm-.662-5.484c.228.247.433.54.547.877a2.146 2.146 0 0 1 1.78-.967c1.163 0 2.121.944 2.121 2.09s-.958 2.09-2.121 2.09H2l.342.944h8.555C12.608 9.09 14 7.72 14 6.034 13.977 4.37 12.586 3 10.875 3a3.06 3.06 0 0 0-2.327 1.056zM4.76 5.72c0 .202.023.382.092.562h1.05a.973.973 0 0 1-.183-.562c0-.562.456-1.011 1.026-1.011.57 0 1.027.45 1.027 1.011 0 .562-.456 1.011-1.027 1.011H2.958l.342.945h3.468c1.095 0 2.008-.877 2.008-1.978 0-1.057-.89-1.955-2.008-1.955-1.095 0-2.008.876-2.008 1.977z" fill="#FFF"/></g></svg>