<svg viewBox="0 0 16 16" xmlns="http://www.w3.org/2000/svg"><g fill="none" fill-rule="evenodd"><path d="M13.818 13.498a7.981 7.981 0 0 1-5.816 2.506 7.968 7.968 0 0 1-3.21-.671c-.11-.227-.573-1.264.062-1.556.941-.434 6.595 1.314 8.964-.28zM8.538 8.36C3.347 5.28.833 4.825.059 7.046a8.015 8.015 0 0 0 .345 3.468c.568-1.87 3.411.384 7.935 1.26 5.403 1.046 6.578.134 6.812-.174a7.96 7.96 0 0 0 .69-1.986c-.172.512-1.14 2.397-7.301-1.254zm-3.11-5.787c4.716 1.192 9.11 7.957 10.574 5.215a8.041 8.041 0 0 0-.304-1.99c-.116.277-.36.606-.847.433-1.08-.386-3.412-3.278-5.326-4.46C7.612.588 5.808.194 3.984 1.08a8.052 8.052 0 0 0-2.688 2.555c.789-.948 2.066-1.585 4.131-1.063z" fill="#F57C00"/><path d="M6.947 4.045L.472 5.285C.39 5.514.056 7.049.056 7.049l3.557 3.556L1.66 12.88a8 8 0 1 0 2.323-11.8l2.964 2.965z" fill-opacity=".1" fill="#000"/><path d="M8.002 0a8.006 8.006 0 0 1 7.695 5.799c-.116.275-.36.605-.847.431-1.08-.386-3.412-3.277-5.326-4.46C7.61.588 5.808.194 3.984 1.082A7.956 7.956 0 0 1 8.002 0zm.336 11.775c-4.524-.877-7.367-3.13-7.934-1.26a8.021 8.021 0 0 0 4.39 4.818c-.112-.227-.575-1.264.06-1.556.942-.434 6.595 1.314 8.964-.28.53-.561.981-1.2 1.332-1.896-.234.307-1.409 1.22-6.812.174zM5.427 2.573c-2.065-.523-3.342.115-4.131 1.062A7.943 7.943 0 0 0 .057 7.048C.832 4.825 3.347 5.28 8.54 8.36c6.16 3.651 7.13 1.766 7.302 1.254A8.033 8.033 0 0 0 16 7.788c-1.464 2.742-5.858-4.023-10.574-5.215z" fill="#FDC626"/></g></svg>