<svg viewBox="0 0 16 16" xmlns="http://www.w3.org/2000/svg"><g fill="none" fill-rule="evenodd"><path d="M0 4l8-.5 8 .5v10.67c0 .735-.588 1.33-1.337 1.33H1.337A1.333 1.333 0 0 1 0 14.67V4z" fill="#4285F4"/><path d="M0 1.332C0 .596.588 0 1.337 0h13.326C15.402 0 16 .59 16 1.332V4H0V1.332zM5.505 2A.508.508 0 0 0 5 2.5a.5.5 0 0 0 .491.5h5.018a.5.5 0 0 0-.014-1H9c0-.552-.444-1-1-1-.552 0-1 .453-1 1H5.505z" fill="#3F51B5"/><path d="M16 14l-5-5-4 4 3 3h4.663c.749 0 1.337-.595 1.337-1.33V14z" fill-opacity=".1" fill="#000"/><path d="M4 6.59A.59.59 0 0 1 4.59 6H7.7c.165 0 .394.094.517.217l3.86 3.86a.603.603 0 0 1-.005.851l-3.144 3.144a.606.606 0 0 1-.851.005l-3.86-3.86A.839.839 0 0 1 4 9.699V6.59zM5.5 8a.5.5 0 1 0 0-1 .5.5 0 0 0 0 1z" fill="#F5F5F5"/></g></svg>