<svg viewBox="0 0 16 16" xmlns="http://www.w3.org/2000/svg"><g fill="none" fill-rule="evenodd"><path fill="#BDBDBD" d="M0 6h16v1h-2v7h-1V7H8v7H7V7H2v7H1V7H0z"/><path d="M0 2.495C0 2.222.226 2 .494 2H13l3 2v1H0V2.495z" fill="#EA4335"/><path d="M15.001 2c.552 0 .999.444.999 1v1h-3V2h2.001zM1 3h5v1H1V3zm8 0h3v1H9V3z" fill="#E0E0E0"/><path d="M1 7h1v1.5l-1-1V7zm6 0h1v1.5l-1-1V7zm6 0h1v1.5l-1-1V7z" fill-opacity=".1" fill="#000"/><path fill="#424242" d="M0 5h16v1H0z"/><path fill-opacity=".1" fill="#000" d="M7 2h1v4H7z"/><path fill-opacity=".1" fill="#000" d="M7 2h1v4H7z"/></g></svg>