<svg viewBox="0 0 16 16" xmlns="http://www.w3.org/2000/svg"><g fill="none" fill-rule="evenodd"><path fill="#EEE" d="M8 2.26l.889-.89.857.879.92-.879.89.89.888-.89.89.89.888-.89.89.89.888-.89V11l-3 1-1 3H8V2.26z"/><path d="M8 2.26V15H1.333A1.333 1.333 0 0 1 0 13.667V1.37l.889.89.889-.89.889.89.889-.89.888.89.89-.89.888.89.89-.89.888.89z" fill="#E0E0E0"/><path fill="#3F51B5" d="M1 7v7h7V7z"/><path d="M9 11v1h4v-1H9zm0-2v1h6V9H9zm0-2v1h6V7H9z" fill="#BDBDBD"/><path fill="#03A9F4" d="M8 4h7v2H8z"/><path fill="#4285F4" d="M1 4v2h7V4z"/><path d="M12 15v-2.822c0-.65.523-1.178 1.178-1.178H16l-4 4z" fill="#9E9E9E"/><path d="M5.915 11a1.5 1.5 0 1 1-.634-1.78L6 8.5a2.5 2.5 0 1 0 .95 1.5H4.499v1h1.415z" fill="#F5F5F5"/></g></svg>