<svg viewBox="0 0 16 16" xmlns="http://www.w3.org/2000/svg"><g fill="none" fill-rule="evenodd"><path d="M8 16A8 8 0 1 0 8 0a8 8 0 0 0 0 16z" fill="#616161"/><path d="M6.914 8.599C7.63 7.83 8.093 7.317 8.298 7.06a4.07 4.07 0 0 0 .46-.717 1.36 1.36 0 0 0 .155-.615.849.849 0 0 0-.257-.615c-.153-.154-.41-.257-.717-.257-.308 0-.666.103-.974.257-.307.205-.717.461-1.127.82L4.3 4.14c.513-.461.974-.82 1.333-1.025a4.7 4.7 0 0 1 1.178-.461A6.16 6.16 0 0 1 8.246 2.5c.667 0 1.282.103 1.794.359.513.256.923.563 1.23 1.025.256.41.41.922.41 1.435 0 .41-.051.768-.154 1.127-.102.359-.256.666-.461 1.025-.205.308-.512.666-.82 1.025-.359.359-1.076 1.076-2.204 2.101v.052h3.639v2.357H4.505v-2.05L6.914 8.6z" fill="#FFF"/></g></svg>