<svg viewBox="0 0 16 16" xmlns="http://www.w3.org/2000/svg"><g fill="none" fill-rule="evenodd"><path fill="#E0E0E0" d="M10 16H6v-1H5v-3h6v3h-1z"/><path fill-opacity=".05" fill="#000" d="M6 15h4v1H7z"/><path d="M13.538 5.538A5.534 5.534 0 0 1 11 10.195V12H5v-1.805A5.538 5.538 0 0 1 8 0h.615c2.77.34 4.923 2.688 4.923 5.538z" fill="#FBBC05"/><path d="M11 11.097V12h-.558l-2.75-2.462v-1.23L5.846 6.462l2.462-4.924 5 5.588A5.55 5.55 0 0 1 11 10.195v.902z" fill-opacity=".1" fill="#BF360C"/><path fill="#F5F5F5" d="M8.308 4.615h1.846L7.692 9.538V6.462H5.846l2.462-4.924z"/></g></svg>