<svg viewBox="0 0 16 16" xmlns="http://www.w3.org/2000/svg"><g fill="none" fill-rule="evenodd"><path d="M9.143 8H16V1.143l-1.8 1.8A7.984 7.984 0 0 0 8 0L6 2l2 2c1.397 0 2.626.716 3.342 1.801L9.142 8z" fill="#3367D6"/><path d="M9.143 8H16L8 0 6 2l2 2c1.397 0 2.626.716 3.342 1.801L9.142 8z" fill-opacity=".1" fill="#000"/><path d="M8 6.857V0H1.143l1.8 1.8A7.984 7.984 0 0 0 0 8l2 2 2-2c0-1.397.716-2.626 1.801-3.342L8 6.858z" fill="#4285F4"/><path d="M4.658 10.199L6.858 8H0v6.857l1.8-1.8A7.984 7.984 0 0 0 8 16c2.21 0 4.21-.895 5.657-2.343l-2.829-2.829A3.987 3.987 0 0 1 8 12a3.996 3.996 0 0 1-3.342-1.801z" fill="#BDBDBD"/></g></svg>