<svg viewBox="0 0 16 16" xmlns="http://www.w3.org/2000/svg"><g fill="none" fill-rule="evenodd"><circle fill="#4285F4" cx="8" cy="8" r="8"/><path d="M9.736 15.811a8.012 8.012 0 0 0 6.049-5.96L10.135 4.2l-.922-.019-.938-.937-.9 1.318-1.25-.625-.938.626V5.5l.625.625h1.25v4.063l-.625 2.324 3.3 3.3z" fill-opacity=".1" fill="#000"/><path d="M9.24 7.227a.805.805 0 0 0-.303-.06h-.416v-.834h.729a1.25 1.25 0 1 0 0-2.499c-.313 0-.475.091-.73.312v-.313a.833.833 0 1 0-1.666 0v.313c-.254-.221-.417-.313-.729-.313a1.251 1.251 0 0 0 0 2.5h.73v3.465L4.95 9.4a.624.624 0 0 0-.573.169l-.44.444 2.744 2.743c.152.15.36.244.59.244h3.775c.419 0 .74-.308.798-.71l.418-2.927a.83.83 0 0 0-.5-.88L9.24 7.227zm-2.282-1.31h-.833a.833.833 0 1 1 .833-.834v.834zM9.25 4.25a.833.833 0 1 1 0 1.667h-.833v-.834c0-.46.373-.833.833-.833z" fill="#F5F5F5"/></g></svg>