<svg viewBox="0 0 16 16" xmlns="http://www.w3.org/2000/svg"><g fill="none" fill-rule="evenodd"><path d="M2 7.273V2L8 .727 14 2v5.273c0 1.454-.375 5.818-6 8.727-5.625-2.91-6-7.272-6-8.727z" fill="#34A853"/><path d="M9.875 6.545c0 1.005-.84 1.819-1.875 1.819-1.036 0-1.875-.814-1.875-1.819 0-1.004.84-1.818 1.875-1.818 1.036 0 1.875.814 1.875 1.818zm1.069 3.868A4.953 4.953 0 0 0 8 9.455a4.953 4.953 0 0 0-2.944.958c.113.207.24.418.386.63A4.189 4.189 0 0 1 8 10.182c.966 0 1.855.322 2.558.861.145-.212.273-.423.386-.63zm-.831 1.216A3.427 3.427 0 0 0 8 10.91c-.8 0-1.534.27-2.113.72.152.182.319.364.5.544A2.666 2.666 0 0 1 8 11.636c.608 0 1.168.2 1.613.537.181-.18.347-.362.5-.544zM6.94 12.681c.301-.2.666-.317 1.059-.317.393 0 .757.117 1.059.317-.315.266-.667.527-1.059.781a10.434 10.434 0 0 1-1.059-.78z" fill="#FFF"/><path d="M14 7.273V2H8v14c5.625-2.91 6-7.273 6-8.727z" fill-opacity=".1" fill="#000"/><path d="M2 1c0-.552.504-1 1.125-1h9.75C13.496 0 14 .448 14 1v1H2V1z" fill="#E0E0E0"/><path d="M3.875 1.09a.37.37 0 0 1-.375.365.37.37 0 0 1-.375-.364c0-.2.168-.364.375-.364a.37.37 0 0 1 .375.364zm1.542 0a.37.37 0 0 1-.375.365.37.37 0 0 1-.375-.364c0-.2.168-.364.375-.364a.37.37 0 0 1 .375.364z" fill="#FAFAFA"/></g></svg>