<svg viewBox="0 0 16 16" xmlns="http://www.w3.org/2000/svg"><g fill="none" fill-rule="evenodd"><circle fill="#EEE" cx="8" cy="8" r="8"/><path d="M5 8c0 .336.055.66.157.961l-1.633 1.27A4.98 4.98 0 0 1 3 8c0-.802.189-1.56.524-2.231l1.633 1.27A2.996 2.996 0 0 0 5 8z" fill="#FBBC05"/><path d="M11.263 11.788l-1.632-1.27a3.001 3.001 0 0 1-4.474-1.557l-1.633 1.27a5 5 0 0 0 7.74 1.557z" fill="#34A853"/><path d="M3.524 5.769a5 5 0 0 1 7.753-1.546l-1.42 1.42a3.001 3.001 0 0 0-4.7 1.396l-1.633-1.27z" fill="#EA4335"/><path d="M9.63 10.518c.551-.357.977-.89 1.2-1.518H8V7h4.9a4.989 4.989 0 0 1-1.637 4.788l-1.632-1.27z" fill="#4285F4"/></g></svg>