<svg viewBox="0 0 16 16" xmlns="http://www.w3.org/2000/svg"><g fill="none" fill-rule="evenodd"><path d="M0 5h10v9.802A1.2 1.2 0 0 1 8.794 16H1.206C.54 16 0 15.47 0 14.802V5z" fill="#E0E0E0"/><path d="M0 1.203C0 .54.538 0 1.203 0h5.2c.33 0 .787.19 1.017.42l8.237 8.237a1.191 1.191 0 0 1-.004 1.69L13 13H6L.422 7.422C.189 7.189 0 6.734 0 6.403v-5.2zM3 4a1 1 0 1 0 0-2 1 1 0 0 0 0 2z" fill="#4285F4"/><path d="M10 11l-4 2 2.985 2.985A1.2 1.2 0 0 0 10 14.802V11z" fill-opacity=".1" fill="#000"/><path d="M8.653 10.347a1.194 1.194 0 0 1 1.694 0L13 13H6l2.653-2.653z" fill="#A1C2FA"/></g></svg>