<svg viewBox="0 0 16 16" xmlns="http://www.w3.org/2000/svg"><g fill="none" fill-rule="evenodd"><path d="M16 8a8 8 0 1 0-8 8l8-8z" fill="#37474F"/><path d="M15.036 4.19A15.762 15.762 0 0 0 3.57 14.662 8 8 0 0 0 15.036 4.19z" fill="#4285F4"/><path d="M2.4 9.733a.2.2 0 1 0 0-.4.2.2 0 0 0 0 .4zm3.333-6.8a.2.2 0 1 0 0-.4.2.2 0 0 0 0 .4zM4.667 5a.2.2 0 1 0 0-.4.2.2 0 0 0 0 .4zm-1 4.467a.267.267 0 1 0 0-.534.267.267 0 0 0 0 .534zM8.2 3.533a.2.2 0 1 0 0-.4.2.2 0 0 0 0 .4zM9.4 2.4a.333.333 0 1 0 0-.667.333.333 0 0 0 0 .667z" fill="#BBDEFB"/><path d="M3.4 7.4L11 4.8l4.823 4.882a8.015 8.015 0 0 1-4.44 5.57L3.4 7.4z" fill-opacity=".1" fill="#000"/><path d="M11.067 4.933l-2.2 7.4a.143.143 0 0 1-.134.134h-.066c-.067 0-.134 0-.134-.067L6.667 9.2 3.4 7.4c-.067-.067-.067-.133-.067-.2s.067-.133.134-.133L10.8 4.733c.067 0 .133 0 .2.067 0 0 .072.117.067.133z" fill="#E0E0E0"/><path d="M11.033 4.834l.025.025.025.025-.016.05-2.2 7.4a.143.143 0 0 1-.134.133h-.066c-.067 0-.134 0-.134-.067L6.667 9.2l4.366-4.366z" fill="#F5F5F5"/></g></svg>