<svg viewBox="0 0 16 16" xmlns="http://www.w3.org/2000/svg"><g fill="none" fill-rule="evenodd"><path d="M5.508 13.974c.438.437 1.152.44 1.591 0l8.556-8.556c.44-.44.442-1.153 0-1.595l-1.788-1.788a1.125 1.125 0 0 0-1.594-.001l-5.97 5.97-.563-.564-3.383 3.383 3.15 3.15z" fill="#009688"/><path d="M5.508 13.974l-3.151-3.151L5.74 7.44l3.946 3.946L7.1 13.974c-.44.44-1.153.437-1.591 0z" fill-opacity=".1" fill="#000"/><path d="M2.123 5.418l-1.79 1.79a1.127 1.127 0 0 0 0 1.591l2.588 2.587 3.383-3.382-2.586-2.586a1.13 1.13 0 0 0-1.595 0z" fill="#00BFA5"/></g></svg>