<svg viewBox="0 0 16 16" xmlns="http://www.w3.org/2000/svg"><g fill="none" fill-rule="evenodd"><path d="M1.821 13.073C3.317 14.83 5.528 16 8 16c4.423 0 8-3.577 8-8a7.975 7.975 0 0 0-2.797-6.049C11.707 7.415 7.35 11.707 1.821 13.073z" fill="#616161"/><path d="M5.528 11.057c-.13-.26-.195-.585-.26-.91H2.862c.13.65.39 1.235.715 1.82.716-.26 1.301-.585 1.951-.91zm-3.252-.91H.26c.26.91.65 1.755 1.236 2.536.585-.195 1.106-.325 1.626-.52a7.839 7.839 0 0 1-.846-2.017z" fill="#1565C0"/><path d="M2.862 7.22a5.54 5.54 0 0 0-.195 1.495 4 4 0 0 0 .065.846h2.471v-.195c0-.39.065-.78.13-1.17L2.862 7.22zm-.716 1.43c0-.585.065-1.105.195-1.69L.195 6.113A8.83 8.83 0 0 0 0 8c0 .52.065 1.04.13 1.561h2.016v-.91z" fill="#1976D2"/><path d="M6.244 6.634L4.293 4.683a6.005 6.005 0 0 0-1.171 1.951l2.471 1.04c.13-.39.326-.78.65-1.04zM3.837 4.293l-1.69-1.691C1.365 3.382.78 4.422.39 5.528l2.147.911c.325-.846.715-1.561 1.3-2.146z" fill="#1E88E5"/><path d="M6.439 2.472L5.529.39c-1.106.39-2.147.976-2.927 1.756l1.69 1.691c.586-.585 1.301-1.04 2.147-1.365zm.195 3.707c.325-.26.65-.52 1.04-.65l-1.04-2.472c-.715.26-1.366.715-1.951 1.17L6.634 6.18z" fill="#42A5F5"/><path d="M12.228 3.057c.195-.455.39-.976.52-1.496a7.837 7.837 0 0 0-2.667-1.3v1.95c.78.196 1.496.456 2.147.846zm-1.106 2.406c.325-.585.65-1.235.91-1.886a9.602 9.602 0 0 0-1.886-.78v2.406c.326 0 .65.13.976.26z" fill="#90CAF9"/><path d="M8.715 2.081c.26 0 .456 0 .716.065L9.366.13C8.976.065 8.456 0 8 0c-.65 0-1.3.065-1.886.26l.91 2.081c.52-.195 1.106-.26 1.691-.26zM8.26 5.268c.39-.13.78-.195 1.17-.195h.066L9.43 2.602c-.195 0-.52-.065-1.17 0-.326.065-.521.13-1.041.26l1.04 2.406z" fill="#64B5F6"/></g></svg>