<svg viewBox="0 0 16 16" xmlns="http://www.w3.org/2000/svg"><g fill="none" fill-rule="evenodd"><path d="M15 9.23C15 13.084 11.983 16 8 16s-7-2.917-7-6.77V1.227C1 .549 1.549 0 2.23 0h11.54C14.45 0 15 .55 15 1.226V9.23z" fill="#34A853"/><path d="M9.452 15.866l-5.16-5.159L5 4l6.707-.707L15 6.586V9.23c0 3.368-2.306 6.021-5.548 6.635z" fill-opacity=".1" fill="#000"/><path d="M4.997 3C4.447 3 4 3.453 4 3.997v6.006c0 .55.444.997 1 .997h1v1.4L8 11h2.99c.558 0 1.01-.453 1.01-.997V3.997c0-.55-.453-.997-.997-.997H4.997zm3.839 4.663L8 9.429l-.836-1.766-1.83-.806 1.83-.806L8 4.286l.836 1.765 1.83.806-1.83.806z" fill="#FFF"/></g></svg>