<svg viewBox="0 0 16 16" xmlns="http://www.w3.org/2000/svg"><g fill="none" fill-rule="evenodd"><path d="M11 5L0 8a8 8 0 0 0 8 8l3-11z" fill="#4285F4"/><path d="M5 11L8 0a8 8 0 0 1 8 8L5 11z" fill="#FBBC05"/><path d="M8 16V8h8a8 8 0 0 1-8 8z" fill="#34A853"/><path d="M0 8h8V0a8 8 0 0 0-8 8z" fill="#EA4335"/><circle fill="#F5F5F5" cx="8" cy="8" r="6"/><path d="M11.592 15.15l-3.665-4.178 6.523-7.706A7.964 7.964 0 0 1 16 8a8 8 0 0 1-4.408 7.15z" fill-opacity=".1" fill="#000"/><path fill="#34A853" d="M7.885 10.963l6.634-7.704H12.86L7.885 8.257 4.74 6.452v.901z"/></g></svg>