<svg viewBox="0 0 16 16" xmlns="http://www.w3.org/2000/svg"><g fill="none" fill-rule="evenodd"><path d="M13.703 2.756a.52.52 0 0 1 .636.225l1.177 2.037a.525.525 0 0 1-.123.663l-1.117.863c-.194.15-.35.473-.35.706v1.5c0 .24.155.555.35.706l1.117.862a.52.52 0 0 1 .123.663l-1.177 2.037a.525.525 0 0 1-.636.224l-1.304-.535a1.023 1.023 0 0 0-.786.05l-1.3.75c-.208.12-.403.411-.436.656l-.189 1.398a.52.52 0 0 1-.512.439H6.823a.525.525 0 0 1-.512-.439l-.189-1.398a1.022 1.022 0 0 0-.435-.656l-1.3-.75a1.003 1.003 0 0 0-.786-.05l-1.305.535a.52.52 0 0 1-.636-.224L.484 10.981a.525.525 0 0 1 .124-.663l1.115-.862c.194-.15.35-.473.35-.706v-1.5c0-.24-.154-.555-.35-.706L.608 5.681a.52.52 0 0 1-.124-.663L1.66 2.982a.525.525 0 0 1 .636-.224l1.305.535c.226.093.584.067.786-.05l1.3-.75c.208-.12.402-.411.435-.656L6.311.439A.52.52 0 0 1 6.823 0h2.353c.25 0 .48.194.512.439l.189 1.398c.032.242.234.54.436.656l1.3.75c.208.12.557.143.786.05l1.304-.537z" fill="#EA4335"/><path d="M13.926 8.456l-2.698-2.697-3.969.982 2.963 2.963-5.452.684 4.949 4.948.158-1.173c.033-.245.228-.536.436-.656l1.3-.75c.201-.117.56-.143.786-.05l1.304.535a.525.525 0 0 0 .636-.224l1.177-2.037a.52.52 0 0 0-.123-.663l-1.117-.862a1.003 1.003 0 0 1-.35-.706v-.294z" fill-opacity=".1" fill="#000"/><path d="M4.77 10.388c-.364-.366-.474-1.202-.474-2.314 0-1.347.161-2.288.741-2.481C5.259 5.519 6.63 5.48 8 5.48s2.74.038 2.963.112c.1.033.189.09.265.166.366.366.476 1.202.476 2.315 0 1.347-.161 2.288-.741 2.482-.222.074-1.593.11-2.963.11s-2.74-.036-2.963-.11a.673.673 0 0 1-.266-.168zm4.563-2.314L7.26 6.741v2.666l2.074-1.333z" fill="#F1F1F1"/></g></svg>