<svg viewBox="0 0 32 32" xmlns="http://www.w3.org/2000/svg"><g fill="none" fill-rule="evenodd"><path d="M16 30c7.732 0 14-6.268 14-14S23.732 2 16 2 2 8.268 2 16s6.268 14 14 14z" fill="#4285F4"/><path d="M17.875 29.875L13 25l3.511-.365L16 13.742l1.58-.332-3-3 2.83-2.83 12.101 12.101c-1.457 5.36-6.02 9.443-11.636 10.194z" fill-opacity=".1" fill="#000"/><path d="M20 25l-2-2V13h-5l2 2v8l-2 2h7zm-4.008-14A1.997 1.997 0 0 0 18 9.01C18 7.904 17.1 7 15.992 7A1.999 1.999 0 0 0 14 9.01c0 1.104.884 1.99 1.992 1.99z" fill="#F5F5F5"/></g></svg>