<svg viewBox="0 0 32 32" xmlns="http://www.w3.org/2000/svg"><g fill="none" fill-rule="evenodd"><path fill="#263238" d="M29.64 22.84V3.66H2.37v21.18z"/><path fill="#EEE" d="M3.64 4.93h24.72v16.58H3.64z"/><path d="M20 23c-.18.43-.96.56-1.46.56h-5.13c-.49 0-1.22-.14-1.41-.56H0v.9c0 .59.48 1.07 1.07 1.07L26 25l-2-2h-4z" fill="#848484"/><path d="M23.72 11.84c-.58 0-1.05.47-1.05 1.05v13.08c0 .58.47 1.05 1.05 1.05h7.23c.58 0 1.05-.47 1.05-1.05V12.89c0-.58-.47-1.05-1.05-1.05h-7.23z" fill="#262626"/><path fill="#F1F1F1" d="M23.7 13h7.28v12H23.7z"/><path d="M20.259 21.51H3.64V4.93l16.52 16.52.099.06zm10.721-1.36V25H23.7V12.88l7.28 7.27z" fill-opacity=".05" fill="#000"/></g></svg>