<svg viewBox="0 0 32 32" xmlns="http://www.w3.org/2000/svg"><g fill="none" fill-rule="evenodd"><path d="M16 4h9.991A2.01 2.01 0 0 1 28 6.009V16H16V4z" fill="#EEE"/><path d="M11.002 4H6.005A2.005 2.005 0 0 0 4 6.005v19.99C4 27.103 4.898 28 6.005 28H16V4h-4.998z" fill="#2196F3"/><path d="M28 20.998v4.997A2.005 2.005 0 0 1 25.995 28H16V16h12v4.998z" fill="#00BCD4"/><path d="M24.323 10.126a2.403 2.403 0 0 1-.088.548 1.54 1.54 0 0 1-.239.497 1.257 1.257 0 0 1-.413.36c-.17.093-.373.139-.614.139a.7.7 0 0 1-.383-.105.67.67 0 0 1-.25-.296c-.185.261-.447.393-.786.393a.74.74 0 0 1-.366-.09.737.737 0 0 1-.264-.254 1.084 1.084 0 0 1-.144-.396 1.913 1.913 0 0 1-.017-.514 2.7 2.7 0 0 1 .143-.668 1.91 1.91 0 0 1 .271-.508c.11-.14.235-.248.374-.324A.952.952 0 0 1 22 8.794c.123 0 .233.008.327.024a1.394 1.394 0 0 1 .466.163c.065.038.13.078.193.12l-.01.01h.015l-.147 1.652a.897.897 0 0 0 .008.243.4.4 0 0 0 .053.144.174.174 0 0 0 .088.07.296.296 0 0 0 .099.017c.11 0 .207-.03.292-.088a.762.762 0 0 0 .217-.238c.059-.1.107-.218.14-.353.035-.134.056-.28.062-.432a3.205 3.205 0 0 0-.071-.893 1.741 1.741 0 0 0-.31-.673 1.42 1.42 0 0 0-.56-.426 2.024 2.024 0 0 0-.813-.149c-.294 0-.558.053-.796.158a1.738 1.738 0 0 0-.605.452 2.154 2.154 0 0 0-.392.708 3.296 3.296 0 0 0-.167.926c-.015.339.014.643.085.912.073.27.185.499.336.688.151.19.34.335.567.436.229.101.491.152.785.152a2.27 2.27 0 0 0 .515-.056c.083-.018.162-.039.237-.064a1.83 1.83 0 0 0 .204-.079l.111.441a1.157 1.157 0 0 1-.231.115 2.06 2.06 0 0 1-.274.079 2.664 2.664 0 0 1-.573.065 2.62 2.62 0 0 1-1.018-.188 1.959 1.959 0 0 1-.746-.535 2.253 2.253 0 0 1-.446-.848 3.507 3.507 0 0 1-.123-1.117c.018-.407.09-.777.215-1.11.127-.333.3-.618.519-.855.219-.237.483-.42.788-.55.306-.13.646-.195 1.023-.195.375 0 .706.061.995.182.289.121.53.295.722.52.191.225.335.499.427.82.093.322.131.683.116 1.084zm-2.92.282c-.021.242 0 .427.064.552a.319.319 0 0 0 .303.187.667.667 0 0 0 .128-.012.41.41 0 0 0 .127-.051.512.512 0 0 0 .12-.102.771.771 0 0 0 .11-.166v-.027l.003-.025.129-1.425a.867.867 0 0 0-.272-.043.543.543 0 0 0-.287.073.617.617 0 0 0-.207.214c-.055.094-.101.21-.138.348a3.063 3.063 0 0 0-.08.477z" fill="#455A64"/><path d="M21 18h2v2h-2v-2zm-3 3h2v2h-2v-2zm0-3h2v2h-2v-2zm6 0h2v2h-2v-2zm-3 3h2v2h-2v-2zm3 0h2v2h-2v-2zM6 18h2v2H6v-2zm6 0h2v2h-2v-2zm-3 0h2v2H9v-2zm-3-3h2v2H6v-2zm6 0h2v2h-2v-2zm-3 0h2v2H9v-2zm-3-3h2v2H6v-2zm6 0h2v2h-2v-2zm-3 0h2v2H9v-2zM6 9h2v2H6V9zm6 0h2v2h-2V9zM9 9h2v2H9V9zM6 6h2v2H6V6zm6 0h2v2h-2V6zM9 6h2v2H9V6z" fill="#1976D2"/><path d="M28 12.432l-4.44-4.446-1.253-.232-1.64.392-.58 1.207-.125.826.125 2.017L23.879 16H28v-3.568zm-.587 14.98L16 16v12h9.995c.554 0 1.055-.224 1.418-.587z" fill-opacity=".1" fill="#000" opacity=".5"/></g></svg>