<svg viewBox="0 0 32 32" xmlns="http://www.w3.org/2000/svg"><g fill="none" fill-rule="evenodd"><path d="M25.624 7.151a.872.872 0 0 1 1.062.359l2.01 3.478a.872.872 0 0 1-.22 1.099l-1.885 1.456c-.327.252-.592.798-.592 1.21v2.495c0 .415.262.954.592 1.208l1.884 1.455a.87.87 0 0 1 .22 1.099l-2.01 3.478a.872.872 0 0 1-1.061.359l-2.201-.904c-.382-.156-.987-.112-1.343.093l-2.161 1.248c-.36.208-.696.703-.752 1.116l-.318 2.36a.872.872 0 0 1-.841.74H13.99a.872.872 0 0 1-.841-.74l-.318-2.36c-.056-.409-.396-.91-.752-1.116L9.92 24.036c-.36-.208-.958-.25-1.343-.093l-2.2.904a.872.872 0 0 1-1.063-.36L3.305 21.01a.872.872 0 0 1 .22-1.099l1.883-1.455c.327-.252.591-.797.591-1.208v-2.496c0-.415-.261-.954-.59-1.209l-1.884-1.456a.872.872 0 0 1-.22-1.099l2.008-3.476a.872.872 0 0 1 1.062-.359l2.201.904c.382.156.986.112 1.343-.093l2.161-1.248c.36-.208.696-.703.752-1.116l.318-2.36a.872.872 0 0 1 .841-.74h4.017c.41 0 .785.327.841.74l.318 2.36c.055.409.395.91.752 1.116l2.161 1.248c.36.208.957.25 1.343.092l2.2-.905z" fill="#9E9E9E"/><path d="M18.822 28.884l-7.848-7.848 10.062-10.062L26 15.937v1.31c0 .416.262.955.592 1.21l1.884 1.454a.87.87 0 0 1 .22 1.099l-2.01 3.478a.872.872 0 0 1-1.061.359l-2.201-.904c-.382-.156-.987-.112-1.343.093l-2.161 1.248c-.36.208-.696.703-.752 1.116l-.318 2.36a.799.799 0 0 1-.027.124z" fill-opacity=".1" fill="#000"/><path d="M21.171 20.887a7.095 7.095 0 0 1-5.17 2.227 7.083 7.083 0 0 1-2.852-.596c-.098-.202-.51-1.123.054-1.383.837-.386 5.862 1.168 7.968-.248zM16.48 16.32c-4.616-2.737-6.85-3.142-7.539-1.168a7.124 7.124 0 0 0 .307 3.083c.505-1.663 3.032.341 7.054 1.12 4.802.93 5.847.119 6.054-.155a7.073 7.073 0 0 0 .614-1.765c-.153.455-1.014 2.13-6.49-1.115zm-2.766-5.144c4.192 1.06 8.098 7.073 9.399 4.635a7.148 7.148 0 0 0-.27-1.767c-.103.245-.32.537-.753.383-.96-.343-3.033-2.913-4.734-3.964-1.7-1.051-3.303-1.402-4.924-.613a7.157 7.157 0 0 0-2.39 2.27c.7-.842 1.837-1.408 3.672-.944z" fill="#4285F4"/><path d="M16.002 8.889a7.117 7.117 0 0 1 6.84 5.154c-.103.245-.32.538-.753.384-.96-.343-3.033-2.913-4.735-3.964-1.7-1.051-3.302-1.402-4.923-.613A7.072 7.072 0 0 1 16 8.89zm.299 10.466c-4.022-.779-6.549-2.782-7.053-1.12a7.13 7.13 0 0 0 3.901 4.283c-.098-.202-.51-1.123.055-1.383.837-.386 5.862 1.168 7.968-.248.47-.5.872-1.067 1.184-1.687-.208.274-1.253 1.085-6.055.155zm-6.26-7.235a7.06 7.06 0 0 0-1.101 3.033c.689-1.975 2.924-1.57 7.539 1.167 5.476 3.246 6.337 1.57 6.49 1.115a7.14 7.14 0 0 0 .143-1.624c-1.301 2.438-5.207-3.575-9.4-4.635-1.835-.465-2.97.102-3.671.944z" fill="#EEE"/></g></svg>