<svg viewBox="0 0 32 32" xmlns="http://www.w3.org/2000/svg"><g fill="none" fill-rule="evenodd"><ellipse fill="#4285F4" cx="16" cy="23" rx="14" ry="6"/><path d="M13.42 7.32c0 2.381 1.555 4.311 3.927 4.311 2.384 0 4.18-1.93 4.18-4.31l-.034-.416a15.943 15.943 0 0 1 3.72 10.273c0 5.107-4.123 9.244-9.213 9.244-5.09 0-9.212-4.137-9.212-9.244 0-6.229 2.982-11.787 7.485-15.404 0 0-.852 3.062-.852 5.547z" fill="#EA4335"/><path d="M21.193 19.327c0-1.872-1.209-3.19-3.235-3.605-2.039-.416-4.146-1.398-5.32-2.982a16.152 16.152 0 0 0-.68 4.669c0 3.062 2.476 5.547 5.527 5.547 2.05 0 3.708-1.618 3.708-3.629z" fill="#FBBC05"/></g></svg>