<svg viewBox="0 0 32 32" xmlns="http://www.w3.org/2000/svg"><g fill="none" fill-rule="evenodd"><circle fill="#03A9F4" cx="16" cy="16" r="14"/><path d="M25.9 6.1L6.1 25.9A13.956 13.956 0 0 1 2 16C2 8.268 8.268 2 16 2a13.96 13.96 0 0 1 9.9 4.1z" fill="#039BE5"/><path d="M30 15.86l-6.93-6.93L17.5 14 6.45 12.11l7 7-7 1.49 9.4 9.4H16c7.732 0 14-6.268 14-14v-.14z" fill-opacity=".07" fill="#000"/><path d="M21.303 24.132l-2.121-9.193 3.89-3.889a1.497 1.497 0 0 0 0-2.12 1.497 1.497 0 0 0-2.122-.001l-3.89 3.889-9.192-2.121-1.414 1.413L13.88 16l-3.89 3.89-2.474-.354-1.06 1.064 3.181 1.764 1.768 3.182 1.06-1.06-.353-2.476L16 18.121l3.89 7.425 1.413-1.414z" fill="#F5F5F5"/><path fill="#E0E0E0" d="M21.303 24.132l-2.121-9.193L16 18.121l3.89 7.425z"/></g></svg>