<svg viewBox="0 0 32 32" xmlns="http://www.w3.org/2000/svg"><g fill="none" fill-rule="evenodd"><path d="M16 30c7.732 0 14-6.268 14-14S23.732 2 16 2 2 8.268 2 16s6.268 14 14 14z" fill="#4A88F0"/><path d="M20.337 14.337a2.326 2.326 0 0 0 2.33-2.334 2.326 2.326 0 0 0-2.33-2.333 2.332 2.332 0 1 0 0 4.667zm-.004 1.708c-1.886 0-5.666.947-5.666 2.833v2.125H26v-2.125c0-1.886-3.78-2.833-5.667-2.833z" fill-opacity=".5" fill="#F5F5F5"/><path d="M14.96 29.962L6 21.002l7.091-6-2.208-2.21 4.242-4.242 13.502 13.504C26.369 26.754 21.563 30 16 30a14.2 14.2 0 0 1-1.04-.038z" fill-opacity=".1" fill="#000"/><path d="M13 15.003c-2.33 0-6.999 1.17-6.999 3.5v2.5H20v-2.5c0-2.33-4.67-3.5-7-3.5zm.006-1.333a2.99 2.99 0 0 0 2.995-3c0-1.66-1.332-3-2.995-3a2.998 2.998 0 0 0-3.005 3c0 1.66 1.342 3 3.005 3z" fill="#F5F5F5"/></g></svg>