<svg viewBox="0 0 32 32" xmlns="http://www.w3.org/2000/svg"><g fill="none" fill-rule="evenodd"><path d="M30 28V11.005A2.003 2.003 0 0 0 27.995 9H9.001A2.003 2.003 0 0 0 7 11.006v9.988A2 2 0 0 0 8.995 23H25l5 5z" fill="#DCE775"/><path d="M9 9c-1.104 0-2 .897-2 2.006v9.988A2 2 0 0 0 8.995 23H25l5 5V14l-5-5H9z" fill-opacity=".1" fill="#000"/><path d="M4 4h19c1.104 0 2 .897 2 2.006v9.988A2 2 0 0 1 23.005 18H7l-5 5V5.997C2 4.894 2.902 4 4 4z" fill="#34A853"/><circle fill="#F5F5F5" cx="13.5" cy="11" r="3.25"/></g></svg>