<svg viewBox="0 0 32 32" xmlns="http://www.w3.org/2000/svg"><g fill="none" fill-rule="evenodd"><path d="M4.165 23.482L2 30l6.592-2.119A13.934 13.934 0 0 0 16 30c7.732 0 14-6.268 14-14S23.732 2 16 2 2 8.268 2 16c0 2.752.794 5.318 2.165 7.482z" fill="#4285F4"/><path d="M18.9 29.7l-4.3-4.3L17 23l-3-3v-4l-4-4 10.2-4.2 9.719 9.719c-.653 6.05-5.162 10.947-11.02 12.18z" fill-opacity=".1" fill="#000"/><path d="M17.414 25.414a2 2 0 0 0-2.828-2.828 1.991 1.991 0 0 0 .007 2.821c.78.781 2.04.788 2.821.007zM14 12h-4v.243a6 6 0 0 1 5.996-6.232c3.313 0 5.97 2.686 5.97 6A5.99 5.99 0 0 1 18 17.666V20h-4v-6h2a2 2 0 1 0-2-2z" fill="#F5F5F5"/></g></svg>