<svg viewBox="0 0 32 32" xmlns="http://www.w3.org/2000/svg"><g fill="none" fill-rule="evenodd"><path d="M20.993 1c.556 0 1.174.417 1.378.927L28 16H13L7.37 1.927C7.167 1.415 7.45 1 8.008 1h12.986z" fill="#EA4335"/><path d="M19.518 30.137c-.286.477-.967.863-1.525.863H5.007c-.556 0-.775-.386-.497-.85L13 16l7 4 .895 7.842-1.377 2.295z" fill="#4285F4"/><path fill="#34A853" d="M20.895 27.842L28 16H13z"/><path d="M17.993 4c.556 0 1.276.36 1.611.806L28 16H13L4.604 4.806C4.271 4.361 4.45 4 5.007 4h12.986z" fill="#FDC626"/></g></svg>