<svg viewBox="0 0 32 32" xmlns="http://www.w3.org/2000/svg"><g fill="none" fill-rule="evenodd"><rect fill="#0B3D65" x="4" y="4" width="24" height="24" rx="2"/><path d="M15.327 14.485c.598.553.964 1.372.964 2.248 0 1.676-1.33 3.047-2.988 3.047a3.022 3.022 0 0 1-3.026-3.028c0-.876.366-1.695.964-2.267l-1.06-1.028a4.447 4.447 0 0 0-1.446 3.276c0 2.514 2.043 4.438 4.55 4.438 2.524 0 4.53-1.962 4.53-4.438 0-1.314-.54-2.476-1.427-3.276l-1.06 1.028zm7.249 3.581c0-1.066-.579-1.295-1.157-1.295-.578 0-1.157.229-1.157 1.276v2.972h-1.445v-5.524h1.445v.4c.309-.229.714-.515 1.465-.515 1.215 0 2.275.705 2.275 2.439v3.18h-1.426v.02-2.953z" fill="#FFF"/><path d="M13.265 12.276a4.63 4.63 0 0 0-3.104 1.18l1.06 1.03a2.952 2.952 0 0 1 2.044-.82 2.9 2.9 0 0 1 2.043.82l1.06-1.03c-.79-.742-1.889-1.18-3.103-1.18zm-5.205-.857l1.08 1.047a6.202 6.202 0 0 1 4.183-1.619c1.561 0 3.007.572 4.106 1.6l1.08-1.047c-1.389-1.315-3.24-2.039-5.186-2.039A7.686 7.686 0 0 0 8.06 11.42zm4.106 3.961l1.099 1.067 1.118-1.067a1.748 1.748 0 0 0-1.099-.38c-.424 0-.81.133-1.118.38z" fill="#90CAF9"/></g></svg>