<svg viewBox="0 0 32 32" xmlns="http://www.w3.org/2000/svg"><g fill="none" fill-rule="evenodd"><path d="M2 8v19.005C2 28.107 2.9 29 3.991 29H28.01c1.1 0 1.991-.902 1.991-1.995V8h-8V6l-2-2h-8l-2 2v2H2zm10-1c0-.552.453-1 .997-1h6.006c.55 0 .997.444.997 1v1h-8V7z" fill="#EEE"/><path d="M9.482 10.545l9.396 7.955-9.396 7.955A.72.72 0 0 1 9 25.776V11.224c0-.325.21-.58.482-.68z" fill="#0DF"/><path d="M17.415 22.47v-7.94l6.203 3.336c.51.274.51.994 0 1.268l-6.203 3.336z" fill="#FD0"/><path d="M20.007 21.076L17.415 18.5l-7.983 7.935a.737.737 0 0 0 .655-.025l9.92-5.334z" fill="#F1304C"/><path d="M20.007 15.924L17.415 18.5l-7.983-7.935a.737.737 0 0 1 .655.025l9.92 5.334z" fill="#00F076"/></g></svg>