<svg viewBox="0 0 32 32" xmlns="http://www.w3.org/2000/svg"><g fill="none" fill-rule="evenodd"><path d="M2 8v19.005C2 28.107 2.9 29 3.991 29H28.01c1.1 0 1.991-.902 1.991-1.995V8h-8V6l-2-2h-8l-2 2v2H2zm10-1c0-.552.453-1 .997-1h6.006c.55 0 .997.444.997 1v1h-8V7z" fill="#EEE"/><path d="M22 22.998C22 23.55 21.551 24 20.998 24h-9.996A1.002 1.002 0 0 1 10 22.998V15h12v7.998z" fill="#D03CE0"/><path fill="#9C0ED6" d="M10 13h12v2H10z"/><path d="M11 17h3v3h-3v-3zm4 2h6v1h-6v-1zm6-2v1h-6v-1h6z" fill="#FFF"/></g></svg>