<svg viewBox="0 0 32 32" xmlns="http://www.w3.org/2000/svg"><g fill="none" fill-rule="evenodd"><circle fill="#4285F4" cx="16" cy="16" r="14"/><path d="M29.993 16.453L22.77 9.23 11 10l-1.77 4.77 3 3L10 19l-.77 3.77 7.223 7.223c7.372-.234 13.306-6.168 13.54-13.54z" fill-opacity=".1" fill="#000"/><path d="M9.778 17c-.428 0-.778.337-.778.75v4.5c0 .413.35.75.778.75h12.444c.428 0 .778-.337.778-.75v-4.5c0-.413-.35-.75-.778-.75H9.778zM12 21.5c-.825 0-1.5-.675-1.5-1.5s.675-1.5 1.5-1.5 1.5.675 1.5 1.5-.675 1.5-1.5 1.5zM22.222 9H9.778C9.35 9 9 9.338 9 9.75v4.5c0 .412.35.75.778.75h12.444c.428 0 .778-.338.778-.75v-4.5c0-.412-.35-.75-.778-.75zM12 13.5c-.825 0-1.5-.675-1.5-1.5s.675-1.5 1.5-1.5 1.5.675 1.5 1.5-.675 1.5-1.5 1.5z" fill="#F5F5F5"/></g></svg>