<svg viewBox="0 0 32 32" xmlns="http://www.w3.org/2000/svg"><g fill="none" fill-rule="evenodd"><path d="M6 14.727V5.818l10-2.545 10 2.545v8.91c0 2.545-.625 10.181-10 15.272C6.625 24.91 6 17.274 6 14.727z" fill="#34A853"/><path d="M19.125 13.455c0 1.757-1.4 3.181-3.125 3.181-1.726 0-3.125-1.424-3.125-3.181 0-1.758 1.4-3.182 3.125-3.182 1.726 0 3.125 1.424 3.125 3.182zm1.781 6.768A7.996 7.996 0 0 0 16 18.545a7.996 7.996 0 0 0-4.906 1.678c.187.363.4.731.643 1.103A6.77 6.77 0 0 1 16 19.818a6.77 6.77 0 0 1 4.263 1.508c.243-.372.456-.74.643-1.103zm-1.385 2.128A5.54 5.54 0 0 0 16 21.091a5.54 5.54 0 0 0-3.521 1.26c.253.318.53.636.833.953a4.307 4.307 0 0 1 2.688-.94 4.3 4.3 0 0 1 2.688.94c.303-.317.58-.635.833-.953zm-5.286 1.84A3.072 3.072 0 0 1 16 23.637a3.07 3.07 0 0 1 1.765.556c-.525.465-1.11.922-1.765 1.367a17.47 17.47 0 0 1-1.765-1.367z" fill="#FFF"/><path d="M26 14.727V5.818H16V30c9.375-5.09 10-12.727 10-15.273z" fill-opacity=".1" fill="#000"/><path d="M6 4c0-1.105.84-2 1.875-2h16.25C25.161 2 26 2.895 26 4v2H6V4z" fill="#E0E0E0"/><path d="M9.125 3.996a.63.63 0 0 1-.625.637.63.63 0 0 1-.625-.637.63.63 0 0 1 .625-.636.63.63 0 0 1 .625.636zm2.57 0a.63.63 0 0 1-.625.637.63.63 0 0 1-.625-.637.63.63 0 0 1 .625-.636.63.63 0 0 1 .625.636z" fill="#FAFAFA"/></g></svg>