<svg viewBox="0 0 32 32" xmlns="http://www.w3.org/2000/svg"><g fill="none" fill-rule="evenodd"><circle fill="#FBBC05" cx="16" cy="16" r="14"/><path d="M30 16.11l-3.55-3.55-2.45.74-8-8-3.23 6.26-7.22 1L9 15l1.77 2.47L12 19l-2.46 5.3 5.679 5.679c.258.014.519.021.781.021 7.695 0 13.94-6.209 14-13.89z" fill-opacity=".1" fill="#BF360C"/><path d="M9.54 24.298l1.227-6.828 4.158-.254 1.032 3.858-6.417 3.224zM5.55 12.56l7.173-1 1.538 3.702-3.52 2.13L5.55 12.56zM16 5.3l3.208 6.212L16 14.054l-3.208-2.542L16 5.3zm10.45 7.26l-5.19 4.832-3.52-2.13 1.537-3.702 7.173 1zm-3.992 11.738l-6.415-3.224 1.032-3.858 4.158.254 1.225 6.828z" fill="#F5F5F5"/></g></svg>