<svg viewBox="0 0 32 32" xmlns="http://www.w3.org/2000/svg"><g fill="none" fill-rule="evenodd"><path d="M6 3.991C6 2.891 6.893 2 8.003 2h10.996L21 6l5 3v19.005A1.997 1.997 0 0 1 24.01 30H7.99C6.892 30 6 29.1 6 28.009V3.99z" fill="#34A853"/><path d="M11 18h10v7H11v-7zm1 1h3v1h-3v-1zm0 2h3v1h-3v-1zm0 2h3v1h-3v-1zm4-4h4v1h-4v-1zm0 2h4v1h-4v-1zm0 2h4v1h-4v-1z" fill="#F5F5F5"/><path fill-opacity=".1" fill="#000" d="M19.585 8.415L21 9h5v5.83z"/><path d="M19 2l7 7h-4.994A1.999 1.999 0 0 1 19 6.994V2z" fill="#8CD2B0"/></g></svg>