<svg viewBox="0 0 32 32" xmlns="http://www.w3.org/2000/svg"><g fill="none" fill-rule="evenodd"><path d="M22 4h-4.5L16 5.5 14.5 4H6a2 2 0 0 0-2 2v8.5L5.5 16 4 17.5V26a2 2 0 0 0 2 2h8.5l1.5-1.5 1.5 1.5H26a2 2 0 0 0 2-2v-8.5L26.5 16l1.5-1.5V10l-6-6z" fill="#424242"/><path fill-opacity=".1" fill="#000" d="M25 7l-2.414 2.414 5.25 5.25L28 14.5V10z"/><path d="M28 10h-4.002A2 2 0 0 1 22 8.002V4l6 6z" fill="#9E9E9E"/><path fill="#FBBC05" d="M16 8.75L17.75 14H23l-4.25 3.25 1.66 5.25L16 19.323 11.589 22.5l1.661-5.25L9 14h5.25z"/></g></svg>