<svg viewBox="0 0 32 32" xmlns="http://www.w3.org/2000/svg"><g fill="none" fill-rule="evenodd"><path d="M4 26L27 5H6c-1.098 0-2 .896-2 2v19z" fill="#34A853"/><path fill="#D2D2D2" d="M6 28h10l11-11V5z"/><path d="M4 26c0 .644 0 0 0 0 0 1.105.891 2 1.995 2H6L27 7l-2-2L4 26zm8.459-16a3 3 0 1 1-1.102-1.857l-.715.715A2 2 0 1 0 11.437 11H9.5v-1h2.959z" fill="#F5F5F5"/><path fill-opacity=".1" fill="#000" d="M19.494 13.927L27 21.433V14z"/><circle fill="#FBBC05" cx="23.737" cy="9.684" r="6"/><path d="M27 26c0 1.105-.9 2-1.992 2H16v-7.72c0-.604.283-1.157.72-1.504a11.96 11.96 0 0 1 2.11-1.262l8.17.306V26z" fill="#FBBC05"/><path d="M27 16.903a11.546 11.546 0 0 0-3.28-.482c-1.737 0-3.4.398-4.89 1.093l4.696 4.697 3.475-3.475v-1.833z" fill="#FB8C00"/></g></svg>