<svg viewBox="0 0 32 32" xmlns="http://www.w3.org/2000/svg"><g fill="none" fill-rule="evenodd"><path d="M11.589 26.589c.776.776 2.043.78 2.822 0l15.175-15.175a1.998 1.998 0 0 0 0-2.828l-3.172-3.172a1.995 1.995 0 0 0-2.826-.002L13 16l-1-1-6 6 5.589 5.589z" fill="#009688"/><path d="M11.589 26.589L7 22l2-4 4-2 6 6-4.589 4.589c-.78.78-2.046.776-2.822 0z" fill-opacity=".1" fill="#000"/><path d="M5.586 11.414L2.41 14.59a1.999 1.999 0 0 0 0 2.822L7 22l6-6-4.586-4.586a2.005 2.005 0 0 0-2.828 0z" fill="#00BFA5"/></g></svg>