<svg viewBox="0 0 32 32" xmlns="http://www.w3.org/2000/svg"><g fill="none" fill-rule="evenodd"><path d="M11 20.473l-7.13-4.115c-.48-.278-.485-.726 0-1.006L11 11.237l8 1.823V6.618l7.127-4.115c.481-.278.872-.057.872.503v8.23l-4.854 4.619 4.854 4.618v8.23c0 .557-.386.784-.872.504l-7.128-4.115-1.815-7.411L11 20.473z" fill="#FFE082"/><path fill="#FF9100" d="M18.998 25.092L11 20.473v-9.236l10.08 3.472z"/><path fill="#FF6D00" d="M18.998 15.855v9.237l8-4.619v-9.236l-5.935.294z"/><path fill="#FFAB00" d="M18.998 6.618l8 4.619-8 4.618L11 11.237l8-4.619z"/></g></svg>