<svg viewBox="0 0 32 32" xmlns="http://www.w3.org/2000/svg"><g fill="none" fill-rule="evenodd"><path d="M30 25.006C30 26.107 29.1 27 28.009 27H3.99A1.993 1.993 0 0 1 2 25.006V11l14-2.5L30 11v14.006z" fill="#424242"/><path d="M30 11H2V7c0-1.104.912-2 2.036-2H30v6z" fill="#212121"/><path d="M15.49 5l2.825 3-2.825 3h2.545l2.8-3-2.8-3H15.49zm-5.6 0l2.825 3-2.825 3h2.545l2.8-3-2.8-3H9.89zm13.745 0H21.09l2.825 3-2.825 3h2.545l2.8-3-2.8-3zm5.6 3l-2.8 3H30V5h-3.564l2.8 3zM5 9.25a1.25 1.25 0 1 0 0-2.5 1.25 1.25 0 0 0 0 2.5z" fill="#EEE"/></g></svg>