<svg viewBox="0 0 32 32" xmlns="http://www.w3.org/2000/svg"><g fill="none" fill-rule="evenodd"><path fill="#FFB40A" d="M16 5h11v11L16 27H5V16z"/><path fill="#FFCF3C" d="M5 5h11L5 16z"/><path fill="#FDBE10" d="M16 .444l7.778 7.778L8.222 23.778.444 16z"/><path fill="#FF9A04" d="M23.778 8.222L31.556 16 16 31.556l-7.778-7.778z"/><circle fill="#FFCD33" cx="15.875" cy="15.875" r="11.125"/><path d="M23.5 27h-7a3.5 3.5 0 0 1 0-7h1.707a5.5 5.5 0 1 1 5.293 7z" fill="#F5F5F5"/><path d="M13 15a2.25 2.25 0 1 1 1.171-4.171l1.08-1.08A3.75 3.75 0 1 0 16.675 12l-1.115.001H13v1.5h2.122A2.25 2.25 0 0 1 13 15z" fill="#FFF"/></g></svg>