<svg viewBox="0 0 32 32" xmlns="http://www.w3.org/2000/svg"><g fill="none" fill-rule="evenodd"><path d="M26.95 15.175c.035-.428.05-.87.05-1.328v-7.89C27 4.877 26.15 4 25.105 4H6.895C5.857 4 5 4.878 5 5.957v7.89c0 .458.022.9.05 1.328C5.858 25.218 15.667 27.91 16 28c.341-.09 10.143-2.782 10.95-12.825z" fill="#C6D3DA"/><path d="M16 26l8.56-19.56L27 8.336v5.51c0 .458-.015.9-.05 1.328-.604 7.52-6.253 10.92-9.195 12.19L16 26z" fill-opacity=".05" fill="#000"/><path d="M16 6v9h8.977c.014-.258.023-.523.023-.794l-.034-6.7A1.509 1.509 0 0 0 23.462 6H16z" fill="#CFD3D5"/><path d="M24.977 15H16v11c.273-.075 8.299-2.319 8.958-10.688l.02-.312z" fill="#7B8D96"/><path d="M7.02 15H16V6H8.538c-.816 0-1.5.674-1.504 1.505L7 14.206c0 .271.006.536.02.794z" fill="#EFF2F3"/><path d="M7.02 15H16v11c-.28-.075-8.299-2.319-8.958-10.688A10.978 10.978 0 0 1 7.02 15z" fill="#90A4AE"/><path d="M24.969 8.024L16 15h8.977c.014-.258.023-.523.023-.794l-.031-6.182z" fill="#C4C9CB"/><path d="M8.76 20.631L16 15H7.02c.006.105.013.21.022.313.17 2.157.829 3.907 1.718 5.318z" fill="#A6B6BE"/></g></svg>