<svg viewBox="0 0 32 32" xmlns="http://www.w3.org/2000/svg"><g fill="none" fill-rule="evenodd"><path d="M25.624 7.151a.872.872 0 0 1 1.062.359l2.01 3.478a.872.872 0 0 1-.22 1.099l-1.885 1.456c-.327.252-.592.798-.592 1.21v2.495c0 .415.262.954.592 1.208l1.884 1.455a.87.87 0 0 1 .22 1.099l-2.01 3.478a.872.872 0 0 1-1.061.359l-2.201-.904c-.382-.156-.987-.112-1.343.093l-2.161 1.248c-.36.208-.696.703-.751 1.113L19 27.639l-6 .011-.168-1.249c-.055-.41-.396-.912-.752-1.117l-2.16-1.248c-.36-.208-.958-.25-1.343-.093l-2.2.904a.872.872 0 0 1-1.063-.36L3.305 21.01a.872.872 0 0 1 .22-1.099l1.883-1.455c.327-.252.591-.797.591-1.208v-2.496c0-.415-.261-.954-.59-1.209l-1.884-1.456a.872.872 0 0 1-.22-1.099l2.008-3.476a.872.872 0 0 1 1.062-.359l2.201.904c.382.156.986.112 1.343-.093l2.161-1.248c.36-.208.696-.703.752-1.116l.318-2.36a.872.872 0 0 1 .841-.74h4.017c.41 0 .785.327.841.74l.318 2.36c.055.409.395.91.752 1.116l2.161 1.248c.36.208.957.25 1.343.092l2.2-.905z" fill="#00897B"/><path d="M13 20.5h6v8.002a1 1 0 0 1-.99.998h-4.02a.994.994 0 0 1-.99-.998V20.5z" fill="#F5F5F5"/><path d="M16.455 26l-5.16-5.16L13 9.95l7 7 .84-5.655 5.16 5.16v.793c0 .415.26.954.59 1.208l1.885 1.455a.87.87 0 0 1 .22 1.099l-2.01 3.478a.872.872 0 0 1-1.061.359l-2.201-.904c-.382-.156-.987-.112-1.343.093l-2.161 1.248c-.36.208-.696.703-.752 1.116L19 27.64v1.101-.247l-.001.05L16.455 26z" fill-opacity=".1" fill="#000"/><path d="M19 9.952a6.75 6.75 0 1 1-6 0v5.998l3 1.3 3-1.3V9.952z" fill="#F5F5F5"/></g></svg>