<svg viewBox="0 0 32 32" xmlns="http://www.w3.org/2000/svg"><g fill="none"><circle fill="#F7991C" cx="16" cy="16" r="14"/><path d="M30 16v-.754l-5.385-5.384-14.43 14.323L16 30c7.646 0 14-6.354 14-14z" fill="#F05721"/><path d="M20.846 22.354c.323-.216.646-.539 1.077-.862.323-.323.646-.646.862-1.077l2.261.431.646-.43.862-3.447-.43-.754-2.155-.861c-.107-.97-.323-1.83-.754-2.692l1.4-1.939v-.861l-2.584-2.585h-.862l-1.83 1.4c-.862-.43-1.724-.754-2.693-.754l-.861-2.154-.862-.538-3.446.861-.43.754L11.368 9a7.545 7.545 0 0 0-1.077.862c-.323.323-.538.753-.861 1.076l-2.262-.323-.754.431-.861 3.446.43.754 2.154.862c.108.969.324 1.83.754 2.692l-1.4 1.723v.862l2.585 2.584h.861l1.724-1.4c.861.431 1.723.646 2.692.754l.861 2.154.754.43 3.446-.86.431-.647v-2.046z" fill="#FFF"/><path d="M19.554 12.338c-.97-.969-2.154-1.507-3.554-1.507a4.94 4.94 0 0 0-4.954 4.954c0 1.4.646 2.584 1.508 3.553l7-7z" fill="#F7991C"/><path d="M19.23 15.677c0 1.723-1.4 3.123-3.122 3.123a3.125 3.125 0 0 1-3.123-3.123c0-1.723 1.4-3.123 3.123-3.123 1.723 0 3.123 1.4 3.123 3.123z" fill="#F05721"/></g></svg>