<svg viewBox="0 0 32 32" xmlns="http://www.w3.org/2000/svg"><g fill="none" fill-rule="evenodd"><path d="M2 8v19.005C2 28.107 2.9 29 3.991 29H28.01c1.1 0 1.991-.902 1.991-1.995V8h-8V6l-2-2h-8l-2 2v2H2zm10-1c0-.552.453-1 .997-1h6.006c.55 0 .997.444.997 1v1h-8V7z" fill="#EEE"/><path d="M8 16.249C8 15.559 8.56 15 9.24 15H19v5H8v-3.751z" fill="#4285F4"/><path fill="#FDC626" d="M13 26h11v3H13z"/><path d="M19 15h3.751c.69 0 1.249.56 1.249 1.24V26h-5V15z" fill="#EA4335"/><path fill="#34A853" d="M8 20h5v9H8z"/></g></svg>