<svg viewBox="0 0 32 32" xmlns="http://www.w3.org/2000/svg"><g fill="none" fill-rule="evenodd"><path d="M2 22v-2l2-2-2-2 15-5 13 5v9.008c0 1.1-.9 1.992-1.992 1.992H19l-2-2-2 2h-2l-2-2-2 2H7l-5-5z" fill="#03A9F4"/><path d="M30 16H2v-2l3-2-3-2V6.991C2 5.891 2.9 5 3.991 5H28.01C29.109 5 30 5.89 30 6.991V16z" fill="#039BE5"/><path fill-opacity=".1" fill="#000" d="M26.04 27L14.02 14.98 2 11.25V24l3 3h10.016z"/><path d="M7 27a5 5 0 0 0-5-5v3.009A1.99 1.99 0 0 0 3.991 27H7zm6 0c0-6.075-4.925-11-11-11v4a7 7 0 0 1 7 7h4zm2 0h4c0-9.389-7.611-17-17-17v4c7.18 0 13 5.82 13 13z" fill="#F5F5F5"/></g></svg>