<svg viewBox="0 0 32 32" xmlns="http://www.w3.org/2000/svg"><g fill="none" fill-rule="evenodd"><rect fill="#FBBC05" x="2" y="5" width="28" height="22" rx="2"/><path fill="#34A853" d="M4 7h24v18H4z"/><path d="M11.111 18.39c-1.037 0-3.111.524-3.111 1.572v1.048h6.222v-1.048c0-1.048-2.075-1.572-3.11-1.572zm0-1.047c.859 0 1.556-.703 1.556-1.572 0-.867-.697-1.571-1.555-1.571-.86 0-1.556.704-1.556 1.571 0 .869.697 1.572 1.556 1.572zm9.8 0c.859 0 1.556-.703 1.556-1.572 0-.867-.697-1.571-1.556-1.571-.86 0-1.556.704-1.556 1.571 0 .869.696 1.572 1.556 1.572zM17.8 19.962v1.048h6.222v-1.048c0-1.048-2.075-1.572-3.11-1.572-1.038 0-3.112.524-3.112 1.572z" fill="#8ED088"/><path d="M16 17.362c-1.556 0-4.667.734-4.667 2.2v1.467h9.334v-1.467c0-1.466-3.112-2.2-4.667-2.2zm0-1.572a2.085 2.085 0 0 0 2.074-2.095A2.085 2.085 0 0 0 16 11.6a2.085 2.085 0 0 0-2.074 2.095c0 1.157.929 2.095 2.074 2.095zM20 24v1.048h4V24h-4z" fill="#FFF"/><path fill-opacity=".1" fill="#BF360C" d="M20 25l2 2h4l-2-2z"/></g></svg>