<svg viewBox="0 0 32 32" xmlns="http://www.w3.org/2000/svg"><g fill="none" fill-rule="evenodd"><circle fill="#3367D6" cx="16" cy="16" r="14"/><path d="M16.368 29.995c6.228-.16 11.445-4.389 13.09-10.127L18.25 8.66l-4.5 4.5 6.66 6.66-11.224 2.995 7.182 7.181z" fill-opacity=".1" fill="#000"/><path d="M16 14.09a3.182 3.182 0 1 0 0-6.363 3.182 3.182 0 0 0 0 6.364zM22.362 23H9.638A.637.637 0 0 1 9 22.358v-1.903C9 17.995 12.134 16 16 16s7 1.994 7 4.455v1.903c0 .354-.28.642-.638.642z" fill="#F5F5F5"/></g></svg>