<svg viewBox="0 0 32 32" xmlns="http://www.w3.org/2000/svg"><g fill="none" fill-rule="evenodd"><path d="M9 8v16l-4.346 3.477A2 2 0 0 1 4 25.995V6.005a2 2 0 0 1 .654-1.482L9 8z" fill="#34A853"/><path d="M27.346 4.523L23 8v16l4.346 3.477A2 2 0 0 0 28 25.995V6.005a2 2 0 0 0-.654-1.482z" fill="#EA4335"/><path d="M9 9.005L22.995 9l4.418-4.413A1.999 1.999 0 0 0 25.995 4H6.005c-.554 0-1.055.224-1.418.587L9 9.005z" fill="#4285F4"/><path d="M4.59 27.415L9 23v.005h13.995l4.415 4.41a1.999 1.999 0 0 1-1.415.585H6.005a1.999 1.999 0 0 1-1.416-.585z" fill="#FDC626"/></g></svg>