<svg viewBox="0 0 32 32" xmlns="http://www.w3.org/2000/svg"><g fill="none" fill-rule="evenodd"><path d="M6 3.991C6 2.891 6.893 2 8.003 2h10.996L21 7l5 2v19.005A1.997 1.997 0 0 1 24.01 30H7.99C6.892 30 6 29.1 6 28.009V3.99z" fill="#EA4335"/><path d="M14.5 21a3.5 3.5 0 1 0 0-7 3.5 3.5 0 0 0 0 7zm4.244-2H22v6h-6v-3.256A4.513 4.513 0 0 0 18.744 19zM14.5 20a2.5 2.5 0 1 0 0-5 2.5 2.5 0 0 0 0 5z" fill="#F5F5F5"/><path fill-opacity=".1" fill="#000" d="M19.585 8.415L21 9h5v5.83z"/><path d="M19 2l7 7h-4.994A1.999 1.999 0 0 1 19 6.994V2z" fill="#ECA5A0"/></g></svg>