<svg viewBox="0 0 32 32" xmlns="http://www.w3.org/2000/svg"><g fill="none" fill-rule="evenodd"><path d="M25.624 7.151a.872.872 0 0 1 1.062.359l2.01 3.478a.872.872 0 0 1-.22 1.099l-1.885 1.456c-.327.252-.592.798-.592 1.21v2.495c0 .415.262.954.592 1.208l1.884 1.455a.87.87 0 0 1 .22 1.099l-2.01 3.478a.872.872 0 0 1-1.061.359l-2.201-.904c-.382-.156-.987-.112-1.343.093l-2.161 1.248c-.36.208-.696.703-.752 1.116l-.318 2.36a.872.872 0 0 1-.841.74H13.99a.872.872 0 0 1-.841-.74l-.318-2.36c-.056-.409-.396-.91-.752-1.116L9.92 24.036c-.36-.208-.958-.25-1.343-.093l-2.2.904a.872.872 0 0 1-1.063-.36L3.305 21.01a.872.872 0 0 1 .22-1.099l1.883-1.455c.327-.252.591-.797.591-1.208v-2.496c0-.415-.261-.954-.59-1.209l-1.884-1.456a.872.872 0 0 1-.22-1.099l2.008-3.476a.872.872 0 0 1 1.062-.359l2.201.904c.382.156.986.112 1.343-.093l2.161-1.248c.36-.208.696-.703.752-1.116l.318-2.36a.872.872 0 0 1 .841-.74h4.017c.41 0 .785.327.841.74l.318 2.36c.055.409.395.91.752 1.116l2.161 1.248c.36.208.957.25 1.343.092l2.2-.905z" fill="#9E9E9E"/><path d="M18.822 28.884l-7.848-7.848 10.062-10.062L26 15.937v1.31c0 .416.262.955.592 1.21l1.884 1.454a.87.87 0 0 1 .22 1.099l-2.01 3.478a.872.872 0 0 1-1.061.359l-2.201-.904c-.382-.156-.987-.112-1.343.093l-2.161 1.248c-.36.208-.696.703-.752 1.116l-.318 2.36a.799.799 0 0 1-.027.124z" fill-opacity=".1" fill="#000"/><path d="M21.947 19.878s-13.865-7.918-12.41-.905A7.085 7.085 0 0 0 16 23.11a7.088 7.088 0 0 0 5.947-3.198v-.034z" fill="#255FDB" fill-rule="nonzero"/><path d="M23.11 16c0 .33-.022.654-.065.971C21.655 23.756 9.084 13.027 8.89 16a7.09 7.09 0 0 1 1.616-4.526c2.585-2.26 4.524-2.1 4.524-2.1s7.101 7.339 8.073 6.31c.005.105.007.21.007.316z" fill="#91BFFF"/><path d="M21.947 19.912a7.072 7.072 0 0 0 1.098-2.94c-.519 2.39-4.137 3.616-7.045-.843-3.361-5.106-6.916-3.102-7.11-.129a7.122 7.122 0 0 0 .646 2.973c-.452-2.068 1.746-3.62 4.202-.388 2.908 3.814 6.528 3.362 8.209 1.293v.034z" fill="#4285F4" fill-rule="nonzero"/><path d="M13.779 9.24A7.158 7.158 0 0 1 16 8.89a7.088 7.088 0 0 1 6.829 5.113C21.494 16 13.779 9.24 13.779 9.24z" fill="#F5F5F5" fill-rule="nonzero"/><path d="M10.506 11.474c2.585-2.26 5.235-1.68 7.692 2.458 1.999 3.16 3.933 2.78 4.905 1.752a7.148 7.148 0 0 0-.274-1.68c-.83.25-1.474.172-2.498-1.43-1.49-2.297-3.636-4.057-6.552-3.334a7.077 7.077 0 0 0-3.273 2.234z" fill="#C4E1FF" fill-rule="nonzero"/></g></svg>