<svg viewBox="0 0 32 32" xmlns="http://www.w3.org/2000/svg"><g fill="none" fill-rule="evenodd"><path d="M27.71 23.636S.41 8.046 3.272 21.855A13.95 13.95 0 0 0 16 30c4.912 0 9.212-2.496 11.71-6.296v-.068z" fill="#255FDB" fill-rule="nonzero"/><path d="M30 16c0 .65-.044 1.288-.128 1.913C27.136 31.273 2.382 10.145 2 16a13.96 13.96 0 0 1 3.182-8.913c5.09-4.45 8.909-4.132 8.909-4.132s13.982 14.449 15.896 12.423c.009.206.013.413.013.622z" fill="#91BFFF"/><path d="M27.71 23.704a13.925 13.925 0 0 0 2.162-5.791C28.85 22.619 21.726 25.034 16 16.255 9.382 6.2 2.382 10.145 2 16c0 2.11.46 4.106 1.287 5.895a.218.218 0 0 0-.014-.04c-.891-4.073 3.436-7.128 8.272-.764C17.273 28.6 24.4 27.709 27.71 23.636v.068z" fill="#4285F4" fill-rule="nonzero"/><path d="M11.627 2.69A14.094 14.094 0 0 1 16 2a13.957 13.957 0 0 1 13.446 10.068C26.818 16 11.626 2.69 11.626 2.69z" fill="#F5F5F5" fill-rule="nonzero"/><path d="M5.182 7.087c5.09-4.45 10.309-3.305 15.145 4.84 3.937 6.222 7.746 5.477 9.66 3.45a14.076 14.076 0 0 0-.54-3.309c-1.634.493-2.902.34-4.92-2.813-2.933-4.523-7.158-7.99-12.9-6.565a13.935 13.935 0 0 0-6.445 4.397z" fill="#C4E1FF" fill-rule="nonzero"/></g></svg>