<svg viewBox="0 0 32 32" xmlns="http://www.w3.org/2000/svg"><g fill="none" fill-rule="evenodd"><path d="M16 9.636c5.624 0 10.182 4.56 10.182 10.182 0 1.831-.484 3.55-1.33 5.034A10.178 10.178 0 0 0 30 16c0-5.623-4.559-10.182-10.182-10.182S9.637 10.376 9.636 16A6.364 6.364 0 0 1 16 9.637z" fill="#FFC107"/><path d="M22.364 16c0 5.624-4.56 10.182-10.182 10.182-1.831 0-3.55-.484-5.034-1.33A10.178 10.178 0 0 0 16 30c5.623 0 10.182-4.559 10.182-10.182S21.624 9.637 16 9.636A6.364 6.364 0 0 1 22.364 16z" fill="#3367D6"/><path d="M29.558 18.977L23.2 12.619a10.15 10.15 0 0 1 2.982 7.2c0 1.83-.484 3.549-1.33 5.033a10.209 10.209 0 0 0 4.706-5.875z" fill-opacity=".1" fill="#BF360C"/><path d="M16 22.364c-5.624 0-10.182-4.56-10.182-10.182 0-1.831.484-3.55 1.33-5.034A10.178 10.178 0 0 0 2 16c0 5.623 4.559 10.182 10.182 10.182S22.363 21.624 22.364 16A6.364 6.364 0 0 1 16 22.364z" fill="#4FC3F7"/><path d="M19.818 5.818c1.831 0 3.55.484 5.034 1.33A10.178 10.178 0 0 0 16 2C10.377 2 5.818 6.559 5.818 12.182S10.376 22.363 16 22.364A6.364 6.364 0 0 1 9.636 16c0-5.623 4.559-10.182 10.182-10.182z" fill="#4285F4"/></g></svg>