<svg viewBox="0 0 32 32" xmlns="http://www.w3.org/2000/svg"><g fill="none" fill-rule="evenodd"><circle fill="#3367D6" cx="16" cy="16" r="14"/><path d="M15.447 18h7.048a1.499 1.499 0 0 1 .708 2.826l-7.515 4.064a1.497 1.497 0 0 1-2.035-.606 1.503 1.503 0 0 1 .615-2.033L16.59 21H9.505a1.499 1.499 0 0 1-.656-2.852L16.553 14H9.505a1.499 1.499 0 0 1-.498-2.917l7.32-3.941a1.499 1.499 0 1 1 1.42 2.64L15.484 11h7.01a1.499 1.499 0 0 1 .657 2.852L15.447 18z" fill="#F5F5F5"/><path d="M16.59 21h6.323L18.8 23.215l-2.213-2.213.003-.002zm6.286-7h-6.291l2.202 2.202L22.876 14z" fill-opacity=".1" fill="#000"/></g></svg>