<svg viewBox="0 0 32 32" xmlns="http://www.w3.org/2000/svg"><g fill="none" fill-rule="evenodd"><circle fill="#34A853" cx="16" cy="16" r="14"/><path d="M22.417 16.04c.965 0 1.75-.785 1.75-1.75s-.785-1.75-1.75-1.75c-.966 0-1.75.785-1.75 1.75s.784 1.75 1.75 1.75zm-12.834 0c.966 0 1.75-.785 1.75-1.75s-.784-1.75-1.75-1.75c-.965 0-1.75.785-1.75 1.75s.785 1.75 1.75 1.75zm0 1.167c-1.933 0-4.083.98-4.083 2.269v1.522h8.167v-1.522c0-1.29-2.15-2.27-4.084-2.27zm12.834 0c-1.934 0-4.084.98-4.084 2.269v1.522H26.5v-1.522c0-1.29-2.15-2.27-4.083-2.27z" fill-opacity=".5" fill="#FFF"/><path d="M18.383 29.798l-8.8-8.8 7.86-4.054-3.505-3.509 4.124-4.124 11.196 11.197c-1.628 4.792-5.782 8.417-10.875 9.29z" fill-opacity=".1" fill="#000"/><path d="M16 14.29a2.918 2.918 0 0 0 0-5.833 2.918 2.918 0 0 0 0 5.833zm-6.417 5.314v1.394h12.834v-1.394c0-2.027-3.378-3.564-6.417-3.564-3.04 0-6.417 1.537-6.417 3.564z" fill="#F5F5F5"/></g></svg>