<svg viewBox="0 0 32 32" xmlns="http://www.w3.org/2000/svg"><g fill="none" fill-rule="evenodd"><rect fill="#EEE" x="4" y="4" width="24" height="24" rx="2"/><path fill="#EA4335" d="M4 4h24v8H4z"/><path d="M24.379 12l-2.94-2.94 2.122-2.12L28 11.378V12h-3.621zm-13 0l-2.94-2.94 2.122-2.12L15.62 12h-4.24z" fill-opacity=".1" fill="#000"/><path d="M22.5 9.5a1.5 1.5 0 1 0 0-3 1.5 1.5 0 0 0 0 3zm-13 0a1.5 1.5 0 1 0 0-3 1.5 1.5 0 0 0 0 3z" fill="#F5F5F5"/><path fill="#EA4335" d="M16 18h6v4h-6z"/></g></svg>