<svg viewBox="0 0 32 32" xmlns="http://www.w3.org/2000/svg"><g fill="none" fill-rule="evenodd"><path d="M2 13.929A1.92 1.92 0 0 1 3.91 12h24.18A1.92 1.92 0 0 1 30 13.929V28.07A1.919 1.919 0 0 1 28.09 30H3.91A1.919 1.919 0 0 1 2 28.071V13.93z" fill="#616161"/><path d="M8 24.25c0-.138.15-.25.333-.25h15.334c.184 0 .333.112.333.25v1.5c0 .138-.15.25-.333.25H8.333C8.15 26 8 25.888 8 25.75v-1.5zm-1-4a.25.25 0 0 1 .25-.25h1.5a.25.25 0 0 1 .25.25v1.5a.25.25 0 0 1-.25.25h-1.5a.25.25 0 0 1-.25-.25v-1.5zm4 0a.25.25 0 0 1 .25-.25h1.5a.25.25 0 0 1 .25.25v1.5a.25.25 0 0 1-.25.25h-1.5a.25.25 0 0 1-.25-.25v-1.5zm4 0a.25.25 0 0 1 .25-.25h1.5a.25.25 0 0 1 .25.25v1.5a.25.25 0 0 1-.25.25h-1.5a.25.25 0 0 1-.25-.25v-1.5zm4 0a.25.25 0 0 1 .25-.25h1.5a.25.25 0 0 1 .25.25v1.5a.25.25 0 0 1-.25.25h-1.5a.25.25 0 0 1-.25-.25v-1.5zm4 0a.25.25 0 0 1 .25-.25h1.5a.25.25 0 0 1 .25.25v1.5a.25.25 0 0 1-.25.25h-1.5a.25.25 0 0 1-.25-.25v-1.5zm-16-4a.25.25 0 0 1 .25-.25h1.5a.25.25 0 0 1 .25.25v1.5a.25.25 0 0 1-.25.25h-1.5a.25.25 0 0 1-.25-.25v-1.5zm16 0a.25.25 0 0 1 .25-.25h1.5a.25.25 0 0 1 .25.25v1.5a.25.25 0 0 1-.25.25h-1.5a.25.25 0 0 1-.25-.25v-1.5z" fill="#BDBDBD"/><path d="M26.182 30L16 22l8.273-10h3.818c1.054 0 1.909.863 1.909 1.929V28.07A1.919 1.919 0 0 1 28.09 30h-1.908z" fill-opacity=".1" fill="#000"/><path d="M8 4.004A2 2 0 0 1 9.994 2h12.012C23.107 2 24 2.905 24 4.004V14.3c0 .585-.252 1.138-.686 1.506L16 22l-7.314-6.193A1.973 1.973 0 0 1 8 14.3V4.004z" fill="#EEE"/><path d="M13 10c0 .336.055.66.157.961l-1.633 1.27A4.98 4.98 0 0 1 11 10c0-.802.189-1.56.524-2.231l1.633 1.27A2.996 2.996 0 0 0 13 10z" fill="#FBBC05"/><path d="M19.263 13.788l-1.632-1.27a3.001 3.001 0 0 1-4.474-1.557l-1.633 1.27a5 5 0 0 0 7.74 1.557z" fill="#34A853"/><path d="M11.524 7.769a5 5 0 0 1 7.753-1.546l-1.42 1.42a3.001 3.001 0 0 0-4.7 1.396l-1.633-1.27z" fill="#EA4335"/><path d="M17.63 12.518c.551-.357.977-.89 1.2-1.518H16V9h4.9a4.989 4.989 0 0 1-1.637 4.788l-1.632-1.27z" fill="#4285F4"/></g></svg>