<svg viewBox="0 0 32 32" xmlns="http://www.w3.org/2000/svg"><g fill="none" fill-rule="evenodd"><circle fill="#424242" cx="16" cy="16" r="14"/><path d="M21.2 18.208a.798.798 0 0 0-.798.798v.63a.8.8 0 0 0 .799.798.8.8 0 0 1 .799.8c0 .462-.358.82-.8.82h-.177a.976.976 0 0 0-.658.288.933.933 0 0 0-.288.657v.18c-.002.24-.066.442-.211.587a.75.75 0 0 1-.534.209.763.763 0 0 1-.053.002h-.18a.993.993 0 0 0-.657.288.974.974 0 0 0-.289.657v.18c0 .44-.357.797-.797.797a.795.795 0 0 1-.822-.797.8.8 0 0 0-.8-.8h-.628a.799.799 0 0 0-.8.799.797.797 0 0 1-.799.798.804.804 0 0 1-.82-.798.8.8 0 0 0-.8-.8h-1.106a.343.343 0 0 1-.343-.343v-1.105a.8.8 0 0 0-.799-.8.8.8 0 0 1-.799-.799c0-.462.358-.82.8-.82.462 0 .82.358.82.8a.8.8 0 0 0 .799.798h.628a.8.8 0 0 0 .8-.799.8.8 0 0 1 .799-.799c.463 0 .82.358.82.8a.8.8 0 0 0 .8.798h.628a.8.8 0 0 0 .8-.799c0-.441.357-.799.799-.799a.8.8 0 0 0 .799-.799v-.629a.799.799 0 0 0-.8-.798.8.8 0 0 1-.799-.8c0-.462.358-.82.8-.82a.8.8 0 0 0 .799-.799v-.628a.8.8 0 0 0-.8-.8.799.799 0 0 1-.799-.798v-3.06c0-.44.358-.797.798-.797a.79.79 0 0 0 .805-.801V6.97c0-.614.493-1.111 1.106-1.111h.05c.612 0 1.11.497 1.11 1.11v.339a.8.8 0 0 0 .799.799.8.8 0 0 1 .799.8v1.616h-.788a.343.343 0 0 0-.343.343v1.106a.8.8 0 0 1-.8.799.799.799 0 0 0-.798.799c0 .462.357.82.798.82a.804.804 0 0 0 .821-.799.8.8 0 0 1 .8-.8H22v4.595c0 .463-.358.82-.8.82z" fill="#F5F5F5"/></g></svg>