<svg viewBox="0 0 32 32" xmlns="http://www.w3.org/2000/svg"><g fill="none" fill-rule="evenodd"><path d="M4 11l12-1 12 1v15.005A2 2 0 0 1 25.995 28H6.005A2 2 0 0 1 4 26.005V11z" fill="#94C856"/><path d="M4 5.987C4 4.89 4.897 4 6.005 4h19.99C27.102 4 28 4.887 28 5.987V11H4V5.987zM14.5 7h-2.506A.994.994 0 0 0 11 8c0 .552.456 1 .995 1h8.01c.55 0 .995-.444.995-1 0-.552-.458-1-.994-1H17.5c0-.828-.666-1.5-1.5-1.5-.828 0-1.5.68-1.5 1.496V7z" fill="#34A853"/><path d="M28 19.5l-6-6L10 24l4 4h11.995A2 2 0 0 0 28 26.005V19.5z" fill-opacity=".1" fill="#000"/><path fill="#F5F5F5" d="M10 16.5l4.005-3v3l3.99-3v3l4.005-3V24H10z"/></g></svg>