<svg viewBox="0 0 32 32" xmlns="http://www.w3.org/2000/svg"><g fill="none" fill-rule="evenodd"><path fill="#BDBDBD" d="M0 12h32v2h-4v14h-2V14H16v14h-2V14H4v14H2V14H0z"/><path d="M0 4.99C0 4.445.451 4 1.003 4H26l6 4v2H0V4.99z" fill="#EA4335"/><path d="M30.002 4C31.106 4 32 4.888 32 6v2h-6V4h4.002zM2 6h10v2H2V6zm16 0h6v2h-6V6z" fill="#E0E0E0"/><path d="M2 14h2v3l-2-2v-1zm12 0h2v3l-2-2v-1zm12 0h2v3l-2-2v-1z" fill-opacity=".1" fill="#000"/><path fill="#424242" d="M0 10h32v2H0z"/><path fill-opacity=".1" fill="#000" d="M14 4h2v8h-2z"/><path fill-opacity=".1" fill="#000" d="M14 4h2v8h-2z"/></g></svg>