<svg viewBox="0 0 32 32" xmlns="http://www.w3.org/2000/svg"><g fill="none" fill-rule="evenodd"><rect fill="#4E8DF8" x="4" y="4" width="24" height="24" rx="2"/><path d="M25.996 28H14.56l-5.28-5.28L22.72 9.28 28 14.56v11.437A2.005 2.005 0 0 1 25.996 28z" fill-opacity=".1" fill="#000"/><circle fill="#F5F5F5" cx="16" cy="16" r="9.5"/><path d="M25.5 26.5a1 1 0 1 0 0-2 1 1 0 0 0 0 2zm-19 0a1 1 0 1 0 0-2 1 1 0 0 0 0 2zm19-19a1 1 0 1 0 0-2 1 1 0 0 0 0 2zm-19 0a1 1 0 1 0 0-2 1 1 0 0 0 0 2z" fill="#A1C2FA"/><path d="M18.83 17a3.001 3.001 0 1 1-1.268-3.562L19 12a5 5 0 1 0 1.9 3H16v2h2.83z" fill="#4285F4"/></g></svg>