<svg viewBox="0 0 32 32" xmlns="http://www.w3.org/2000/svg"><g fill="none" fill-rule="evenodd"><path d="M2 8v19.005C2 28.107 2.9 29 3.991 29H28.01c1.1 0 1.991-.902 1.991-1.995V8h-8V6l-2-2h-8l-2 2v2H2zm10-1c0-.552.453-1 .997-1h6.006c.55 0 .997.444.997 1v1h-8V7z" fill="#EEE"/><path d="M9 13.996A1 1 0 0 1 10.007 13h11.986a1 1 0 0 1 1.007.996v9.008a1 1 0 0 1-1.007.996H10.007A1 1 0 0 1 9 23.004v-9.008zm1.25 7.504h1.25v1.25h-1.25V21.5zm0-2.5h1.25v1.25h-1.25V19zm0-2.25h1.25V18h-1.25v-1.25zm0-2.5h1.25v1.25h-1.25v-1.25zM20.5 21.5h1.25v1.25H20.5V21.5zm0-2.5h1.25v1.25H20.5V19zm0-2.25h1.25V18H20.5v-1.25zm0-2.5h1.25v1.25H20.5v-1.25z" fill="#EA4335"/><path d="M23 15.998V18H9v-4.004A1 1 0 0 1 10.007 13h11.986a1 1 0 0 1 1.007.996v2.002zm-12.75.752h1.25V18h-1.25v-1.25zm0-2.5h1.25v1.25h-1.25v-1.25zm10.25 2.5h1.25V18H20.5v-1.25zm0-2.5h1.25v1.25H20.5v-1.25z" fill="#D23C2F"/></g></svg>