<svg viewBox="0 0 32 32" xmlns="http://www.w3.org/2000/svg"><g fill="none" fill-rule="evenodd"><path d="M14.245 19.865a18.281 18.281 0 0 1-.925-.85 17.538 17.538 0 0 1-.462-.468 18.26 18.26 0 0 1-.898-.997 19.142 19.142 0 0 1-1.18-1.543c-1.215-1.81 2.343-4.514 2.372-5.826.017-.766 7.05-2.606 7.609-3.703.558-1.097-5.877-.896-4.985-1.283l.223-.097C12.052 3.452 8.189 3.612 5.9 5.9c-2.286 2.287-2.446 6.15-.8 10.097.197.473 1.38 6.35 1.38 6.35l9.514 3.175s-1.162-3.52 0-4.303a18.486 18.486 0 0 1-1.543-1.178 20.063 20.063 0 0 1-.205-.176z" fill="#EA4335"/><path d="M20.375 17.14c-.109.138-.22.275-.335.41l-.175.205a19.243 19.243 0 0 1-.85.925 17.617 17.617 0 0 1-.468.462c-.26.251-.525.492-.792.723l-.205.176c-.135.114-.272.225-.41.335-.374.301-.752.582-1.132.844-2.73 1.83-5.319 2.417-6.482 1.253-1.94-1.94-3.4-4.102-4.331-6.249a11.496 11.496 0 0 1-.097-.223c-1.646 3.947-1.486 7.81.802 10.098 2.287 2.287 6.15 2.447 10.097.802 1.8-.749 8.467-2.523 8.467-2.523l1.587-7.238s-4.225-.233-4.831-1.132c-.262.38-.543.759-.845 1.132z" fill="#34A853"/><path d="M25.522 10.181c-.342-.396-.148-1.735-.53-2.116-.858-.859-5.551-1.375-7.442-.529-1.891.847-.833 2.766-1.543 3.245a19.139 19.139 0 0 1 1.543 1.18c.069.057.135.115.205.174a20.382 20.382 0 0 1 1.387 1.318c.25.26.491.525.723.792.059.07.118.137.175.206a18.885 18.885 0 0 1 1.18 1.543c1.83 2.729 2.417 5.317 1.253 6.48-1.94 1.94-4.102 3.4-6.249 4.331a8.829 8.829 0 0 1-.223.097c3.947 1.647 7.81 1.486 10.098-.802 2.287-2.287 2.448-6.151.802-10.099-.75-1.798.09-4.127-1.38-5.82z" fill="#FBBC05"/><path d="M26.1 5.9c-2.289-2.286-6.153-2.446-10.1-.8-1.798.75-3.617 1.875-5.31 3.343a23.06 23.06 0 0 0-1.164 1.085c-1.162 1.163-.579 3.75 1.254 6.466a19.702 19.702 0 0 1 1.179-1.542c.057-.069.116-.136.175-.206a19.21 19.21 0 0 1 .851-.924 8.81 8.81 0 0 1 .335-.335 19.188 19.188 0 0 1 .924-.851c.07-.059.136-.117.205-.174A19.431 19.431 0 0 1 16 10.775l.007.007c2.716-1.832 5.304-2.419 6.467-1.255 1.94 1.94 3.4 4.102 4.331 6.249l.097.223c1.645-3.947 1.485-7.811-.803-10.098z" fill="#4285F4"/><path d="M26.896 15.997c-.032-.075-.063-.15-.097-.223l-.014-.035a16.356 16.356 0 0 0-.36-.77 15.127 15.127 0 0 0-.398-.76l-.06-.108a19.517 19.517 0 0 0-.952-1.522l-.012-.021a15.23 15.23 0 0 0-.257-.362c-.016-.025-.032-.045-.05-.068-.063-.088-.13-.177-.197-.265a20.168 20.168 0 0 0-.355-.462l-.172-.211a16.161 16.161 0 0 0-.42-.5c-.05-.058-.1-.116-.152-.172-.057-.064-.114-.13-.173-.193-.04-.044-.078-.09-.12-.132a11.289 11.289 0 0 0-.331-.352c-.1-.106-.204-.212-.308-.316a1.79 1.79 0 0 0-.235-.198l5.56 3.721a14.78 14.78 0 0 1-.897 2.949zm-10.903-10.9l-.257.111c-.257.111-.513.233-.77.36a13.66 13.66 0 0 0-.868.458 19.357 19.357 0 0 0-2.237 1.467 19.505 19.505 0 0 0-.674.528 14.064 14.064 0 0 0-.67.572 6.378 6.378 0 0 0-.195.174 4.868 4.868 0 0 0-.132.119c-.066.06-.132.12-.196.184a3.635 3.635 0 0 0-.155.147c-.106.1-.212.203-.317.307a1.802 1.802 0 0 0-.198.237l3.722-5.56c.96.18 1.95.48 2.947.895zM9.521 22.47c.073.073.152.138.236.198l-5.559-3.722c.18-.96.48-1.951.896-2.948l.097.223.016.035c.11.256.231.514.359.77.124.255.256.507.397.76.02.034.04.073.061.108a18.94 18.94 0 0 0 .95 1.522l.013.02c.083.12.169.241.257.363.016.024.033.045.05.067.064.089.13.178.197.265a19.505 19.505 0 0 0 .527.673c.136.17.275.336.421.502.05.056.098.113.151.17.057.064.115.13.174.194a15.869 15.869 0 0 0 .303.329 15.19 15.19 0 0 0 .454.472zm13.145-.236l-3.721 5.56c-.96-.18-1.952-.48-2.95-.897.087-.038.174-.073.26-.112.255-.11.513-.231.77-.358.254-.125.507-.257.759-.398l.109-.06.336-.194c.397-.234.794-.487 1.185-.758.006-.004.014-.01.02-.012a13.987 13.987 0 0 0 .43-.308c.09-.062.178-.13.265-.197a16.951 16.951 0 0 0 .463-.356c.07-.054.14-.113.212-.17.167-.136.335-.276.5-.42.058-.051.115-.1.171-.152.065-.057.13-.114.194-.175.044-.038.088-.077.132-.118.065-.061.131-.12.196-.184a15.363 15.363 0 0 0 .472-.456c.073-.072.137-.15.197-.235z" fill-opacity=".1" fill="#000"/></g></svg>