<svg viewBox="0 0 32 32" xmlns="http://www.w3.org/2000/svg"><g fill="none" fill-rule="evenodd"><path d="M3 11h16v16.005A1.996 1.996 0 0 1 17.006 29H4.994A1.994 1.994 0 0 1 3 27.005V11z" fill="#E0E0E0"/><path d="M4.955 3h8.45c.536 0 1.278.308 1.653.683l13.385 13.385a1.935 1.935 0 0 1-.007 2.746L24.25 24H12.623l-8.937-8.94C3.307 14.682 3 13.943 3 13.405v-8.45C3 3.875 3.874 3 4.955 3zm2.92 6.5a1.625 1.625 0 1 0 0-3.25 1.625 1.625 0 0 0 0 3.25z" fill="#4285F4"/><path d="M17.55 28.925a1.997 1.997 0 0 0 1.45-1.92v-5.006l-6.377 2 4.927 4.926z" fill-opacity=".1" fill="#000"/><path d="M17.07 19.649a2.031 2.031 0 0 1 2.844.015l4.337 4.335H12.623l4.447-4.35z" fill="#A1C2FA"/></g></svg>