<svg viewBox="0 0 32 32" xmlns="http://www.w3.org/2000/svg"><g fill="none" fill-rule="evenodd"><path d="M6 3.991C6 2.891 6.893 2 8.003 2h10.996L21 6l5 3v19.005A1.997 1.997 0 0 1 24.01 30H7.99C6.892 30 6 29.1 6 28.009V3.99z" fill="#FBBC05"/><path fill-opacity=".1" fill="#BF360C" d="M19.585 8.415L21 9h5v5.83z"/><path d="M19 2l7 7h-4.994A1.999 1.999 0 0 1 19 6.994V2z" fill="#FBDD81"/><path d="M11 15.995c0-.55.456-.995.995-.995h8.01c.55 0 .995.456.995.995v8.01c0 .55-.456.995-.995.995h-8.01c-.55 0-.995-.456-.995-.995v-8.01zM12 17h8v5h-8v-5z" fill="#F5F5F5"/></g></svg>