<svg viewBox="0 0 32 32" xmlns="http://www.w3.org/2000/svg"><g fill="none" fill-rule="evenodd"><path d="M5.187 24.878C7.805 27.951 11.675 30 16 30c7.74 0 14-6.26 14-14 0-4.211-1.935-8.081-4.894-10.585-2.618 9.56-10.244 17.073-19.919 19.463z" fill="#616161"/><path d="M11.675 21.35c-.228-.456-.342-1.025-.455-1.594H7.008c.228 1.138.683 2.163 1.252 3.187 1.252-.455 2.277-1.024 3.415-1.593zm-5.691-1.594H2.455c.456 1.594 1.138 3.073 2.163 4.44 1.024-.342 1.935-.57 2.845-.911-.683-1.139-1.138-2.277-1.48-3.529z" fill="#1565C0"/><path d="M7.008 14.634c-.228.797-.341 1.707-.341 2.618 0 .455 0 .91.113 1.48h4.326v-.342c0-.683.114-1.366.227-2.049l-4.325-1.707zm-1.252 2.504c0-1.024.114-1.935.342-2.96L2.34 12.7A15.452 15.452 0 0 0 2 16c0 .91.114 1.821.228 2.732h3.528v-1.594z" fill="#1976D2"/><path d="M12.927 13.61l-3.415-3.415a10.51 10.51 0 0 0-2.049 3.415l4.326 1.82c.227-.682.569-1.365 1.138-1.82zM8.715 9.512l-2.959-2.96C4.39 7.92 3.366 9.74 2.683 11.676l3.756 1.593c.57-1.48 1.252-2.731 2.276-3.756z" fill="#1E88E5"/><path d="M13.268 6.325l-1.593-3.642C9.74 3.366 7.919 4.39 6.553 5.756l2.96 2.96c1.024-1.025 2.276-1.822 3.755-2.39zm.342 6.488c.569-.455 1.138-.91 1.82-1.138L13.61 7.35c-1.252.455-2.39 1.252-3.415 2.048l3.415 3.415z" fill="#42A5F5"/><path d="M23.398 7.35c.342-.797.683-1.708.91-2.618a13.714 13.714 0 0 0-4.666-2.277V5.87c1.366.341 2.618.797 3.756 1.48zm-1.935 4.211a29.49 29.49 0 0 0 1.594-3.3c-1.024-.57-2.163-1.025-3.3-1.367v4.212c.568 0 1.137.227 1.706.455z" fill="#90CAF9"/><path d="M17.252 5.642c.455 0 .797 0 1.252.114l-.114-3.528C17.707 2.114 16.797 2 16 2c-1.138 0-2.276.114-3.3.455l1.593 3.643c.91-.342 1.935-.456 2.959-.456zm-.797 5.578a6.445 6.445 0 0 1 2.05-.342h.113l-.114-4.325c-.341 0-.91-.114-2.049 0-.569.114-.91.227-1.82.455l1.82 4.212z" fill="#64B5F6"/></g></svg>