<svg viewBox="0 0 32 32" xmlns="http://www.w3.org/2000/svg"><g fill="none" fill-rule="evenodd"><path d="M25.624 7.151a.872.872 0 0 1 1.062.359l2.01 3.478a.872.872 0 0 1-.22 1.099l-1.885 1.456c-.327.252-.592.798-.592 1.21v2.495c0 .415.262.954.592 1.208l1.884 1.455a.87.87 0 0 1 .22 1.099l-2.01 3.478a.872.872 0 0 1-1.061.359l-2.201-.904c-.382-.156-.987-.112-1.343.093l-2.161 1.248c-.36.208-.696.703-.752 1.116l-.318 2.36a.872.872 0 0 1-.841.74H13.99a.872.872 0 0 1-.841-.74l-.318-2.36c-.056-.409-.396-.91-.752-1.116L9.92 24.036c-.36-.208-.958-.25-1.343-.093l-2.2.904a.872.872 0 0 1-1.063-.36L3.305 21.01a.872.872 0 0 1 .22-1.099l1.883-1.455c.327-.252.591-.797.591-1.208v-2.496c0-.415-.261-.954-.59-1.209l-1.884-1.456a.872.872 0 0 1-.22-1.099l2.008-3.476a.872.872 0 0 1 1.062-.359l2.201.904c.382.156.986.112 1.343-.093l2.161-1.248c.36-.208.696-.703.752-1.116l.318-2.36a.872.872 0 0 1 .841-.74h4.017c.41 0 .785.327.841.74l.318 2.36c.055.409.395.91.752 1.116l2.161 1.248c.36.208.957.25 1.343.092l2.2-.905z" fill="#EA4335"/><path d="M26 16.77l-4.552-4.553-6.698 1.658 5 5-9.2 1.155 8.35 8.35.267-1.98c.056-.413.392-.908.752-1.116l2.161-1.248c.356-.205.961-.25 1.343-.093l2.2.904a.872.872 0 0 0 1.063-.36l2.01-3.477a.87.87 0 0 0-.22-1.099l-1.885-1.455c-.33-.254-.592-.793-.592-1.208v-.479z" fill-opacity=".1" fill="#000"/><path d="M10.55 20.03c-.615-.618-.8-2.029-.8-3.905 0-2.273.272-3.861 1.25-4.188.375-.124 2.688-.187 5-.187 2.313 0 4.625.063 5 .188.17.056.319.15.448.28.616.618.802 2.03.802 3.907 0 2.273-.272 3.861-1.25 4.188-.375.125-2.688.187-5 .187-2.313 0-4.625-.063-5-.188a1.135 1.135 0 0 1-.45-.282zm7.7-3.905l-3.5-2.25v4.5l3.5-2.25z" fill="#F1F1F1"/></g></svg>