<?xml version="1.0" encoding="UTF-8" standalone="no"?>
<svg width="40px" height="40px" viewBox="0 0 40 40" version="1.1" xmlns="http://www.w3.org/2000/svg" xmlns:xlink="http://www.w3.org/1999/xlink">
    <!-- Generator: Sketch 40 (33762) - http://www.bohemiancoding.com/sketch -->
    <title>Artboard</title>
    <desc>Created with Sketch.</desc>
    <defs></defs>
    <g id="Page-1" stroke="none" stroke-width="1" fill="none" fill-rule="evenodd">
        <g id="Artboard">
            <rect id="Rectangle" fill-opacity="0.349807518" fill="#000000" x="0" y="0" width="40" height="40"></rect>
            <polygon id="Combined-Shape" fill-opacity="0.07" fill="#000000" points="10.5900002 28.4142136 11 14 29 14 30 11 40 21 40 40 22.1800003 40"></polygon>
            <path d="M26.665,11 L25,12.665 L23.335,11 L21.67,12.665 L20,11 L18.335,12.665 L16.665,11 L15,12.665 L13.335,11 L11.665,12.665 L10,11 L10,27 C10,28.105 10.895,29 12,29 L28,29 C29.105,29 29.99,28.105 29.99,27 L30,11 L28.335,12.665 L26.665,11 Z M20,27 L12,27 L12,20 L20,20 L20,27 L20,27 Z M28,27 L21,27 L21,26 L28,26 L28,27 L28,27 Z M28,25 L21,25 L21,24 L28,24 L28,25 L28,25 Z M28,23 L21,23 L21,22 L28,22 L28,23 L28,23 Z M28,21 L21,21 L21,20 L28,20 L28,21 L28,21 Z M28,19 L12,19 L12,16 L28,16 L28,19 L28,19 Z" id="Shape" fill="#FFFFFF"></path>
        </g>
    </g>
</svg>