<svg viewBox="0 0 48 48" xmlns="http://www.w3.org/2000/svg"><g fill="none" fill-rule="evenodd"><path d="M24 46c12.15 0 22-9.85 22-22S36.15 2 24 2 2 11.85 2 24s9.85 22 22 22z" fill="#4285F4"/><path d="M26.82 45.82L19 38l6-3 1.88-13.886-5.194-5.212 4.436-4.03 18.837 18.836c-2.56 8.006-9.58 14.018-18.138 15.113z" fill-opacity=".1" fill="#000"/><path d="M30 38l-3-3V20h-8l3 3v12l-3 3h11zm-6.012-21C25.65 17 27 15.67 27 14.014A3.018 3.018 0 0 0 23.988 11C22.326 11 21 12.357 21 14.014A2.975 2.975 0 0 0 23.988 17z" fill="#F5F5F5"/></g></svg>