<svg viewBox="0 0 48 48" xmlns="http://www.w3.org/2000/svg"><g fill="none" fill-rule="evenodd"><path fill="#6D4C41" d="M4 18l7-3h26l7 3-20 2.5z"/><path d="M29 4H12.995C11.893 4 11 4.89 11 6.004V29h26l-.047-17L31 10l-2-6z" fill="#FDD835"/><path fill-opacity=".1" fill="#BF360C" d="M36.972 18.8l-.02-6.8-4.52-1.519-2.846.933 7.386 7.386z"/><path d="M29 4v6.002c0 1.103.887 1.998 1.998 1.998H37l-8-8z" fill="#FFF9C4"/><path d="M4 18v22.992A3.005 3.005 0 0 0 7.007 44h33.986A3.005 3.005 0 0 0 44 40.992V18H4zm27 6.5c0 .828-.675 1.5-1.498 1.5H18.498A1.495 1.495 0 0 1 17 24.5c0-.828.675-1.5 1.498-1.5h11.004c.827 0 1.498.666 1.498 1.5z" fill="#8D6E63"/><path fill="#F5F5F5" d="M32 34.5l-5-5V33H17v3h10v3.5z"/></g></svg>