<svg viewBox="0 0 48 48" xmlns="http://www.w3.org/2000/svg"><g fill="none" fill-rule="evenodd"><path d="M5 8.007A3.009 3.009 0 0 1 7.998 5h32.004A2.997 2.997 0 0 1 43 8.01V21L5 28V8.007z" fill="#EEE"/><path fill="#66BB6A" d="M11 8h19v35H11z"/><path fill-opacity=".1" fill="#000" opacity=".5" d="M30 8l13 13-13 22H14l5-17 11 10z"/><path d="M5 40a3 3 0 0 0 3.003 3H19V26H5v14z" fill="#2196F3"/><path d="M43 21H24v22h16a3 3 0 0 0 3-3.001V21z" fill="#FFC107"/><path d="M8 38h3v3H8v-3zm5-10h3v3h-3v-3zm-5 5h3v3H8v-3zm5 0h3v3h-3v-3zm0 5h3v3h-3v-3zM8 28h3v3H8v-3z" fill="#1976D2"/><path d="M24 11h3v3h-3v-3zm0 5h3v3h-3v-3zm-10 5h3v3h-3v-3zm5-10h3v3h-3v-3zm-5 5h3v3h-3v-3zm5 0h3v3h-3v-3zm0 5h3v3h-3v-3zm-5-10h3v3h-3v-3z" fill="#388E3C"/><path d="M37 24h3v3h-3v-3zm0 5h3v3h-3v-3zm-5-5h3v3h-3v-3zm-5 5h3v3h-3v-3zm5 0h3v3h-3v-3zm-5-5h3v3h-3v-3z" fill="#CC9200"/></g></svg>