<svg viewBox="0 0 48 48" xmlns="http://www.w3.org/2000/svg"><g fill="none" fill-rule="evenodd"><path d="M24 5h16c1.657 0 3 1.336 3 3v16H24V5z" fill="#EEE"/><path d="M5 40.002A2.994 2.994 0 0 0 8 43h16V5H8C6.343 5 5 6.352 5 7.998v32.004z" fill="#2196F3"/><path d="M43 40c0 1.657-1.336 3-3 3H24V24h19v16z" fill="#00BCD4"/><path d="M37.178 14.699a3.805 3.805 0 0 1-.14.867 2.44 2.44 0 0 1-.378.787 1.99 1.99 0 0 1-.654.572c-.269.146-.591.22-.973.22-.23 0-.429-.057-.605-.168a1.06 1.06 0 0 1-.396-.468c-.293.413-.709.622-1.244.622-.218 0-.413-.049-.58-.142a1.167 1.167 0 0 1-.417-.403 1.717 1.717 0 0 1-.229-.626 3.029 3.029 0 0 1-.027-.813c.037-.39.113-.744.227-1.059.115-.315.26-.583.43-.805.174-.22.37-.392.59-.512.226-.12.465-.18.719-.18.195 0 .368.012.517.038a2.206 2.206 0 0 1 .738.259c.102.059.205.121.305.189l-.015.016h.024l-.234 2.616a1.42 1.42 0 0 0 .012.384.67.67 0 0 0 .086.229.276.276 0 0 0 .139.11.47.47 0 0 0 .156.027.794.794 0 0 0 .462-.14 1.21 1.21 0 0 0 .344-.377c.093-.158.169-.345.222-.559.056-.212.088-.442.098-.684a5.075 5.075 0 0 0-.113-1.413 2.757 2.757 0 0 0-.49-1.066 2.248 2.248 0 0 0-.886-.675c-.362-.157-.79-.235-1.288-.235-.466 0-.884.083-1.26.25a2.752 2.752 0 0 0-.958.716 3.41 3.41 0 0 0-.622 1.121c-.15.437-.24.926-.264 1.466a4.776 4.776 0 0 0 .135 1.444c.115.426.293.79.532 1.09.24.3.537.53.898.69.362.16.777.24 1.243.24.135 0 .27-.006.409-.022a4.084 4.084 0 0 0 .781-.167c.117-.038.226-.08.323-.125l.176.698c-.108.07-.23.13-.366.181-.138.05-.283.093-.433.125a4.218 4.218 0 0 1-.908.102c-.603 0-1.14-.099-1.612-.296a3.102 3.102 0 0 1-1.18-.847 3.568 3.568 0 0 1-.707-1.342 5.553 5.553 0 0 1-.196-1.77c.03-.644.143-1.23.342-1.757a4.14 4.14 0 0 1 .821-1.354 3.613 3.613 0 0 1 1.248-.87 4.113 4.113 0 0 1 1.619-.31c.594 0 1.118.097 1.577.288.457.192.838.467 1.142.824.304.356.53.79.677 1.299.147.51.208 1.08.183 1.715zm-4.622.447c-.034.383 0 .676.1.873.1.198.26.297.48.297.066 0 .134-.005.203-.019a.65.65 0 0 0 .2-.08.81.81 0 0 0 .19-.163 1.22 1.22 0 0 0 .175-.263v-.041c0-.012.002-.026.004-.041l.204-2.255a1.373 1.373 0 0 0-.43-.068.86.86 0 0 0-.454.115.977.977 0 0 0-.328.339c-.087.149-.16.333-.22.55a4.85 4.85 0 0 0-.124.756z" fill="#455A64"/><path d="M27 32h3v3h-3v-3zm5 0h3v3h-3v-3zm-5-5h3v3h-3v-3zm5 0h3v3h-3v-3zm5 0h3v3h-3v-3zm0 5h3v3h-3v-3zM8 8h3v3H8V8zm5 0h3v3h-3V8zm5 0h3v3h-3V8zM8 13h3v3H8v-3zm10 0h3v3h-3v-3zm-5 0h3v3h-3v-3zm-5 5h3v3H8v-3zm5 0h3v3h-3v-3zm-5 5h3v3H8v-3zm5 0h3v3h-3v-3zm5 0h3v3h-3v-3zM8 28h3v3H8v-3zm5 0h3v3h-3v-3zm5 0h3v3h-3v-3zm0-10h3v3h-3v-3z" fill="#1976D2"/><path d="M43 18.351l-7.03-7.04-1.984-.368-2.597.622-.919 1.911-.198 1.307.198 3.194L36.475 24H43v-5.649zM24 24l18.122 18.122A2.988 2.988 0 0 1 40 43H24V24z" fill-opacity=".1" fill="#000" opacity=".5"/></g></svg>