<svg viewBox="0 0 48 48" xmlns="http://www.w3.org/2000/svg"><g fill="none" fill-rule="evenodd"><path d="M5 8a3 3 0 0 1 3-3h32a3 3 0 0 1 3 3v16c0 9.851-7.738 17.762-17.894 21.789L24 46.227l-1.106-.438C12.738 41.762 5 33.85 5 24V8z" fill="#C6D3DA"/><path d="M23.995 46.225L12.63 35.37 40 8l3 3v13c0 9.851-7.738 17.762-17.894 21.789L24 46.227l-.005-.002z" fill-opacity=".1" fill="#000"/><path d="M40 24c0 8.119-6.435 15.207-16 19-9.565-3.793-16-10.881-16-19l16-7 16 7z" fill="#90A4AE"/><path fill="#ECEFF1" d="M8 8h32v16H8z"/><path d="M40 24V8H24v35c9.565-3.793 16-10.881 16-19z" fill-opacity=".2" fill="#263238"/><path d="M8 8v16c0 4.163 1.692 8.055 4.63 11.37L40 8H8z" fill-opacity=".2" fill="#FFF"/></g></svg>