<svg viewBox="0 0 48 48" xmlns="http://www.w3.org/2000/svg"><g fill="none" fill-rule="evenodd"><path d="M24 46h19a3 3 0 0 0 3-3V24c0-12.15-9.85-22-22-22S2 11.85 2 24s9.85 22 22 22z" fill="#FBBC05"/><path d="M16.222 31.778L30.444 46H43c1.657 0 3-1.34 3-3V30.445L31.778 16.222 16.222 31.778z" fill-opacity=".1" fill="#BF360C"/><path d="M35 23.987v10.137c0 .936-.54 1.156-1.201.495l-2.455-2.452A10.967 10.967 0 0 1 24 34.974c-6.075 0-11-4.92-11-10.987 0-6.068 22 0 22 0z" fill="#F5F5F5"/><path d="M35 24H13c0-6.075 4.925-11 11-11s11 4.925 11 11z" fill="#E0E0E0"/></g></svg>