<svg viewBox="0 0 48 48" xmlns="http://www.w3.org/2000/svg"><g fill="none" fill-rule="evenodd"><path d="M2 9v29.999A3 3 0 0 0 5.007 42h37.986A2.998 2.998 0 0 0 46 38.999V9H32V6l-3-3H19l-3 3v3L2 9.24V9zm17-2.001c0-.552.456-.999.995-.999h8.01c.55 0 .995.443.995.999V9H19V6.999z" fill="#EEE"/><path d="M29 20h6.002c1.103 0 1.998.893 1.998 1.995V38l-4 2-4-2V28l-2-4 2-4z" fill="#EA4335"/><path fill="#FDC626" d="M19 38h18v4H19l-2-2z"/><path fill="#34A853" d="M11 28l4-2 4 2v14h-8z"/><path d="M11 21.998c0-1.103.893-1.998 1.995-1.998H29v8H11v-6.002z" fill="#4285F4"/></g></svg>