<svg viewBox="0 0 48 48" xmlns="http://www.w3.org/2000/svg"><g fill="none" fill-rule="evenodd"><path d="M24 2c-1.375 0-2.7.125-4 .35L6 36.65C9.975 42.3 16.55 46 24 46c12.15 0 22-9.85 22-22S36.15 2 24 2z" fill="#34A853"/><path d="M24 15c0-4.7-1.475-9.05-4-12.65C9.775 4.25 2 13.225 2 24c0 4.7 1.475 9.05 4 12.65C16.225 34.75 24 25.775 24 15z" fill="#64DD17"/><path d="M45.625 28L20.05 2.425C22.55 6 24 10.325 24 15c0 10.775-7.775 19.75-18 21.65l.025.025 5.3 5.3A21.91 21.91 0 0 0 24 46c10.775 0 19.75-7.75 21.625-18z" fill-opacity=".1" fill="#000"/></g></svg>