<svg viewBox="0 0 48 48" xmlns="http://www.w3.org/2000/svg"><g fill="none" fill-rule="evenodd"><path d="M43.015 21c0-10.492-8.523-19-19.015-19S5 10.508 5 21c0 9.94 9.06 18 19 18v7c11.545-5.855 19.015-15.277 19.015-25z" fill="#009688"/><path d="M42.791 23.924L31.593 12.725 22 10.5 15 16l1.347 11.815L30.53 41.998c6.772-4.989 11.24-11.38 12.261-18.074z" fill-opacity=".1" fill="#000"/><path d="M26.852 15h2.444v6.973c0 1.316.438 1.91 1.343 1.91 1.092 0 1.667-1.157 1.667-3.611 0-2.274-.802-4.208-2.41-5.817-1.61-1.61-3.562-2.411-5.872-2.411s-4.262.802-5.871 2.41c-1.61 1.61-2.411 3.544-2.411 5.818 0 2.292.802 4.235 2.41 5.844 1.591 1.59 3.544 2.384 5.872 2.384 1.258 0 2.362-.243 3.316-.729l.241-.123.952 2.312-.222.098c-1.329.59-2.758.882-4.287.882-1.969 0-3.793-.466-5.47-1.406-1.64-.94-2.95-2.24-3.928-3.901a11.107 11.107 0 0 1-1.077-2.624 10.864 10.864 0 0 1-.014-5.486c.231-.895.586-1.758 1.066-2.587a10.51 10.51 0 0 1 1.728-2.24 10.153 10.153 0 0 1 2.242-1.675c.819-.45 1.688-.8 2.607-1.048.921-.249 1.87-.373 2.846-.373 1.951 0 3.75.47 5.388 1.41 1.66.94 2.961 2.241 3.9 3.898.958 1.64 1.438 3.43 1.438 5.364 0 1.776-.373 3.195-1.127 4.25-.767 1.073-1.833 1.616-3.173 1.616-1.32 0-2.345-.593-3.052-1.757-.914 1.168-2.172 1.757-3.752 1.757-1.58 0-2.897-.55-3.934-1.644-1.036-1.092-1.554-2.468-1.554-4.114 0-1.629.518-2.995 1.554-4.087 1.054-1.111 2.335-1.671 3.826-1.671 1.297 0 2.406.445 3.314 1.328V15zm-6.034 5.38c0 .474.076.907.226 1.301a2.932 2.932 0 0 0 1.595 1.669c.363.157.761.236 1.196.236a2.987 2.987 0 0 0 2.159-.886 2.8 2.8 0 0 0 .632-.992c.15-.393.226-.836.226-1.328a3.72 3.72 0 0 0-.227-1.316c-.15-.4-.36-.734-.631-1.005a3.061 3.061 0 0 0-.962-.649 2.985 2.985 0 0 0-1.197-.236c-.435 0-.833.079-1.197.236a2.954 2.954 0 0 0-.96.66 2.935 2.935 0 0 0-.634 1.009c-.15.394-.226.827-.226 1.301z" fill="#F5F5F5" fill-rule="nonzero"/></g></svg>