<svg viewBox="0 0 48 48" xmlns="http://www.w3.org/2000/svg"><g fill="none" fill-rule="evenodd"><path d="M24 2c12.15 0 22 9.85 22 22s-9.85 22-22 22c-1.366 0-2.703-.124-4-.363C20 45.637 22.634 2 24 2z" fill="#FBBC05"/><path fill-opacity=".1" fill="#BF360C" d="M24 19L17 9l26.601 5z"/><path d="M16 32l8-18h19.601C39.96 6.877 32.55 2 24 2 15.763 2 8.584 6.527 4.813 13.228 3.022 16.412 16 32 16 32z" fill="#EA4335"/><path fill-opacity=".1" fill="#000" d="M5.54 12.027L16 36l3.67-9.5z"/><path d="M22.862 45.971l9.796-16.968-5.253-6.34-12.067 6.335L5.54 12.027A21.897 21.897 0 0 0 2 24c0 11.769 9.24 21.379 20.862 21.971z" fill="#34A853"/><path fill-opacity=".1" fill="#000" d="M32.658 29.003l-9.796 16.968L28.33 26.5z"/><path d="M34 24c0 5.523-4.476 10-9.998 10C18.476 34 14 29.523 14 24s4.476-10 10.002-10C29.524 14 34 18.477 34 24z" fill="#F5F5F5"/><circle fill="#4285F4" cx="24" cy="24" r="8"/></g></svg>