<svg viewBox="0 0 48 48" xmlns="http://www.w3.org/2000/svg"><g fill="none" fill-rule="evenodd"><rect fill="#FBBC05" x="2" y="8" width="44" height="32" rx="3"/><path fill="#34A853" d="M5 11h38v26H5z"/><path fill-opacity=".1" fill="#BF360C" d="M28 37h9l3 3h-9z"/><path d="M32 25.444A2.222 2.222 0 1 0 32 21a2.222 2.222 0 0 0 0 4.444zm0 1.667c-1.667 0-5 .779-5 2.334V31h10v-1.555c0-1.555-3.334-2.334-5-2.334zm-16-1.667A2.222 2.222 0 1 0 16 21a2.222 2.222 0 0 0 0 4.444zm0 1.667c-1.667 0-5 .779-5 2.334V31h10v-1.555c0-1.555-3.334-2.334-5-2.334z" fill="#8ED088"/><path d="M28 35h9v2h-9v-2zm-4-9.444c-2.333 0-7 1.09-7 3.267V31h14v-2.177c0-2.177-4.668-3.267-7-3.267zm0-2.334A3.111 3.111 0 1 0 24 17a3.111 3.111 0 0 0 0 6.222z" fill="#F5F5F5"/></g></svg>