<svg viewBox="0 0 48 48" xmlns="http://www.w3.org/2000/svg"><g fill="none" fill-rule="evenodd"><path d="M17.997 6.912V2.766c-8.412 0-15.23 6.82-15.23 15.23h4.145c0-6.12 4.962-11.084 11.085-11.084z" fill="#EA4335"/><path d="M45.51 40.48L34.074 28.996h-2.539l-1.583-1.583a15.152 15.152 0 0 0 3.276-9.417h-4.146c0 6.121-4.963 11.085-11.085 11.085v4.146c3.559 0 6.824-1.23 9.417-3.276l1.583 1.583v2.539L40.46 45.505c.748.75 2.56.518 4.05-.971 1.497-1.498 1.75-3.303 1-4.055z" fill="#4285F4"/><path d="M17.997 6.912c6.121 0 11.085 4.963 11.085 11.085h4.146c0-8.412-6.82-15.23-15.231-15.23v4.145z" fill="#FBBC05"/><path d="M17.997 33.228v-4.146c-6.122 0-11.085-4.963-11.085-11.085H2.766c0 8.412 6.82 15.23 15.23 15.23z" fill="#34A853"/></g></svg>