<svg viewBox="0 0 48 48" xmlns="http://www.w3.org/2000/svg"><g fill="none" fill-rule="evenodd"><circle fill="#2196F3" cx="24" cy="24" r="22"/><path d="M27.589 45.709c9.272-1.522 16.593-8.84 18.118-18.111l-8.904-8.901L30 19.5 27 24l-6-6-9 1.5-.81 9.81 16.399 16.399z" fill-opacity=".1" fill="#000"/><path d="M20.744 25.5A4.502 4.502 0 0 1 12 24a4.5 4.5 0 0 1 6.843-3.843L21 18a7.5 7.5 0 1 0 2.85 4.5H16.5v3h4.244zm6.256 6h4.5a7.5 7.5 0 0 0 0-15H27v15zm9-7.5a4.5 4.5 0 0 0-4.5-4.5H30v9h1.5A4.5 4.5 0 0 0 36 24z" fill="#F5F5F5"/></g></svg>