<svg viewBox="0 0 48 48" xmlns="http://www.w3.org/2000/svg"><g fill="none" fill-rule="evenodd"><path d="M18.962 3.73A2 2 0 0 1 20.944 2h5.508a2 2 0 0 1 1.982 1.73l.472 3.462a2 2 0 0 0 .981 1.462l4.006 2.313a2 2 0 0 0 1.757.119l3.234-1.322a2 2 0 0 1 2.49.85l2.753 4.771a2 2 0 0 1-.507 2.581l-2.832 2.194a2 2 0 0 0-.775 1.581v4.518a2 2 0 0 0 .775 1.58l2.832 2.195a2 2 0 0 1 .507 2.58l-2.754 4.771a2 2 0 0 1-2.489.852l-3.234-1.323a2 2 0 0 0-1.757.12l-4.006 2.312a2 2 0 0 0-.981 1.462l-.472 3.462A2 2 0 0 1 26.452 46h-5.508a2 2 0 0 1-1.982-1.73l-.448-3.288a2 2 0 0 0-.982-1.462L13.34 37.1a2 2 0 0 0-1.757-.12L8.51 38.238a2 2 0 0 1-2.489-.852l-2.754-4.77a2 2 0 0 1 .507-2.581l2.554-1.979a2 2 0 0 0 .775-1.58v-4.95a2 2 0 0 0-.775-1.58l-2.554-1.979a2 2 0 0 1-.507-2.58l2.754-4.771a2 2 0 0 1 2.49-.851l3.07 1.255a2 2 0 0 0 1.758-.119l4.192-2.42a2 2 0 0 0 .982-1.462l.448-3.288z" fill="#9E9E9E"/><path d="M40.013 23.345v2.914a2 2 0 0 0 .775 1.58l2.832 2.195a2 2 0 0 1 .507 2.58l-2.754 4.771a2 2 0 0 1-2.489.852l-3.234-1.323a2 2 0 0 0-1.757.12l-4.006 2.312a2 2 0 0 0-.981 1.462l-.472 3.462c-.052.38-.208.722-.437 1L15.213 32.485l16.97-16.97 7.83 7.83z" fill-opacity=".1" fill="#000"/><path d="M34.036 30.545s-23.4-13.363-20.945-1.527A11.958 11.958 0 0 0 24 36c4.21 0 7.896-2.14 10.036-5.397v-.058z" fill="#255FDB" fill-rule="nonzero"/><path d="M36 24c0 .556-.037 1.104-.11 1.64C33.545 37.09 12.327 18.981 12 24c0-2.909 1.021-5.568 2.727-7.64 4.364-3.815 7.637-3.542 7.637-3.542s11.984 12.385 13.625 10.649c.007.177.011.354.011.533z" fill="#91BFFF"/><path d="M34.036 30.603a11.936 11.936 0 0 0 1.854-4.964c-.875 4.035-6.982 6.105-11.89-1.42C18.327 15.6 12.327 18.981 12 24c0 1.808.395 3.52 1.103 5.053a.187.187 0 0 0-.012-.035c-.764-3.49 2.945-6.109 7.09-.654 4.91 6.436 11.019 5.672 13.855 2.181v.058z" fill="#4285F4" fill-rule="nonzero"/><path d="M20.252 12.591A12.08 12.08 0 0 1 24 12c5.483 0 10.078 3.63 11.525 8.63C33.273 24 20.252 12.59 20.252 12.59z" fill="#F5F5F5" fill-rule="nonzero"/><path d="M14.727 16.36c4.364-3.815 8.837-2.833 12.982 4.15 3.374 5.332 6.64 4.693 8.28 2.957a12.065 12.065 0 0 0-.464-2.837c-1.4.422-2.486.29-4.216-2.412-2.514-3.876-6.136-6.847-11.057-5.627a11.944 11.944 0 0 0-5.525 3.77z" fill="#C4E1FF" fill-rule="nonzero"/></g></svg>