<svg viewBox="0 0 48 48" xmlns="http://www.w3.org/2000/svg"><g fill="none" fill-rule="evenodd"><path fill="#D84315" d="M29.417 9.75L39 24h9l-8.554 4.752-9.613 8.748L24 48V35.833l-14.69-6.66L0 24h24V0z"/><path d="M43.5 24H48l-4.671-2.595C42.059 11.862 33.889 4.5 24 4.5V0l-2.595 4.671C12.71 5.827 5.827 12.711 4.67 21.405L0 24h4.5c0 9.89 7.362 18.06 16.905 19.329L24 48v-4.5c10.77 0 19.5-8.73 19.5-19.5z" fill="#FF5722"/><circle fill="#F5F5F5" cx="24" cy="24" r="17.25"/><path d="M20.824 40.958L16.43 36.56l1.065-17.06 15.15-4.2 8.605 8.605V24c0 9.527-7.723 17.25-17.25 17.25-1.085 0-2.147-.1-3.176-.292z" fill-opacity=".05" fill="#000"/><rect fill="#FF9800" x="16" y="13" width="3" height="24" rx="1.5"/><path d="M31.61 15c1.32 0 1.63.76.687 1.703L28 21l4.297 4.297c.94.94.63 1.703-.687 1.703H16V15h15.61z" fill="#FF5722"/></g></svg>