<svg viewBox="0 0 48 48" xmlns="http://www.w3.org/2000/svg"><g fill="none" fill-rule="evenodd"><path d="M19 18.75a8.75 8.75 0 0 1 12.43-7.941 3.5 3.5 0 1 0 3.14-6.255A15.616 15.616 0 0 0 27.75 3C19.052 3 12 10.052 12 18.75v25.377c0 .482.384.873.858.873h5.284a.86.86 0 0 0 .858-.873V18.75z" fill="#34A853"/><path d="M30 32.491A3.498 3.498 0 0 1 33.5 29c1.933 0 3.5 1.563 3.5 3.491v11.626a.882.882 0 0 1-.872.883h-5.256a.878.878 0 0 1-.872-.883V32.491z" fill="#FBBC05"/><rect fill="#00BCD4" x="5" y="20" width="32" height="7" rx="3.5"/><path d="M36.993 23.281l-1.637-1.637-3.712 3.712L33.288 27h.22a3.495 3.495 0 0 0 3.485-3.719z" fill-opacity=".1" fill="#000"/><path d="M35.356 25.356a2.625 2.625 0 1 0-3.712-3.712 2.625 2.625 0 0 0 3.712 3.712z" fill="#EEE"/></g></svg>