<svg viewBox="0 0 48 48" xmlns="http://www.w3.org/2000/svg"><g fill="none" fill-rule="evenodd"><rect fill="#4285F4" x="5" y="5" width="38" height="38" rx="3.167"/><path d="M14.164 19.312c-.13.03-.346.102-.521.185-.472.225-.77.763-.91 1.3v.185H12.7v.278c-.007 0 .002.414 0 .557a1.724 1.724 0 0 1-.033.37c-.02.074.03.053-.097.094-.123-.025-.285.048-.358.061-.201-.014-.37.065-.52.093-.383-.01-.02.031-.359.031v.402h1.334v6.278h.683v-6.278h2.83v6.278h.684v-6.834H13.35V21.26h.033c.003-.821.414-1.285 1.138-1.422h1.041v.03c.34.038.652.063.911.186.01.005.186.111.195.093.073-.138.077-.28.13-.433.016-.044.109-.103.066-.124a4.013 4.013 0 0 0-.911-.278h-.195v-.031l-.26-.031h-.977v.03c-.335 0-.227 0-.357.032zm22.811 3.168h-.231v-.032h-.331v-.031h-.728v.031c-.952.04-1.552.687-1.886 1.324v-.315h-.033v-.63h-.033v-.284h-.629v6.999h.728V25.38h.033v-.252h.033c.068-1.02.76-1.828 1.688-2.05h.198v-.03h.364v.03h.331v.032c.557.053.42.174.53-.347.033-.22.118-.211-.034-.283zm-18.12-3.23v9.773c.516.044.454.091.504-.154 0-.061.079-.69.127-.83.012-.035.046.06.063.093.078.151.288.28.41.4.291.282.708.47 1.17.583h.189v.03h1.01v-.03c1.369-.065 2.079-1.145 2.369-2.274v-.184h.032v-.185h.031v-.307h.032v-1.107h-.032v-.338h-.031v-.184h-.032c-.071-1.335-.988-2.19-2.21-2.428h-.285v-.03h-.726v.03h-.253v.03c-.745.062-1.431.542-1.706 1.076v-.645h.032V19.25h-.695zm9.273 3.198h.261v-.031h.685v.03c1.424.047 2.135 1.092 2.382 2.262v.217h.032v.403h.033v.774h-5.187v.372h.032v.279h.033c.06 1.126.847 1.897 1.86 2.137h.195v.031h.326v.031h.392v-.03h.457v-.032c.653.083 1.05-.372 1.598-.372 0 .207.022.414 0 .62-.001.012-1.011.322-1.109.34h-.196v.032h-.293v.03h-1.273v-.03h-.195v-.031c-1.439-.086-2.255-1.257-2.512-2.479v-.216h-.033v-.372h-.033v-.744h.033v-.371h.033c.033-.52.37-1.647.75-1.828.338-.529.99-.882 1.729-1.022zm-8.482 2.82h.03v-.342h.03v-.217h.031c.041-1.036.66-1.683 1.553-1.865h.183v-.032h.67v.032c1.086.041 1.607.933 1.796 1.896v.186h.03v.28H24v1.088h-.03v.249h-.03c-.051 1.144-.57 1.726-1.523 1.97-.061 0-.914.01-.914 0-1.118-.03-1.603-.643-1.796-1.628 0-.073 0 0-.03-.28-.031-.218-.031-.133-.031-.342v-.995zm6.794-.36v.179h-.033c.053.414-.032.062-.032.298h4.354v-.239h-.032v-.299h-.032c-.053-.933-.685-1.657-1.58-1.823-.246.008-.307-.034-.42 0h-.323v.03c-.632.052-1.25.434-1.483.867a4.24 4.24 0 0 0-.42.986z" fill="#F5F5F5"/></g></svg>