<svg viewBox="0 0 48 48" xmlns="http://www.w3.org/2000/svg"><g fill="none" fill-rule="evenodd"><path d="M5 7.998v8.877h30.875s5.005-7.296 6.677-10.45A3 3 0 0 0 40.002 5H7.998A3.004 3.004 0 0 0 5 7.998z" fill="#EEE"/><path fill="#E0E0E0" d="M5 16.875h30.875v14.25H5z"/><path fill="#BDBDBD" d="M5 31.125h6.333L5 37.438z"/><path d="M5 35.875L16.875 24H24L42.12 5.88A2.99 2.99 0 0 1 43 7.998v22.731L11.662 43H7.998A3.004 3.004 0 0 1 5 40.002v-4.127z" fill="#34A853"/><path d="M5.88 42.12l10.995-10.995h14.25L43 22.417v17.585A3.004 3.004 0 0 1 40.002 43H7.998a2.986 2.986 0 0 1-2.118-.88z" fill="#9CCC65"/></g></svg>