<svg viewBox="0 0 48 48" xmlns="http://www.w3.org/2000/svg"><g fill="none" fill-rule="evenodd"><circle fill="#03A9F4" cx="24" cy="24" r="22"/><path d="M39.556 8.444L8.444 39.556A21.931 21.931 0 0 1 2 24C2 11.85 11.85 2 24 2a21.931 21.931 0 0 1 15.556 6.444z" fill="#039BE5"/><path d="M45.975 22.932L35.52 12.479l-9.077 8.262-18.007-3.08 11.407 11.407-11.407 2.428 14.477 14.478c.36.017.722.026 1.086.026 12.15 0 22-9.85 22-22 0-.358-.009-.714-.025-1.068z" fill-opacity=".07" fill="#000"/><path fill="#E0E0E0" d="M29.185 22.272H24v5.185l6.338 12.1 2.304-2.305z"/><path d="M35.523 15.934a2.44 2.44 0 0 0 0-3.455 2.44 2.44 0 0 0-3.457-.002l-6.338 6.338-14.98-3.457-2.304 2.303L20.543 24l-6.338 6.338-4.033-.576-1.728 1.734 5.185 2.875 2.88 5.185 1.73-1.728-.577-4.033 17.861-17.861z" fill="#F5F5F5"/></g></svg>