<svg viewBox="0 0 48 48" xmlns="http://www.w3.org/2000/svg"><g fill="none" fill-rule="evenodd"><circle fill="#3367D6" cx="24" cy="24" r="22"/><path d="M34 27H22.472l12.386-6.193A2 2 0 0 0 34 17H22.472l4.384-2.192a2 2 0 1 0-1.786-3.579l-11.926 5.963A2 2 0 0 0 14 21h11.528l-12.386 6.193A2 2 0 0 0 14 31h11.528l-4.384 2.192a2 2 0 1 0 1.786 3.579l11.926-5.963A2 2 0 0 0 34 27z" fill="#F5F5F5"/><path d="M28.51 33.981L34.471 31h-8.944l2.981 2.981zm0-10L34.471 21h-8.944l2.981 2.981z" fill-opacity=".1" fill="#000"/></g></svg>