<svg viewBox="0 0 48 48" xmlns="http://www.w3.org/2000/svg"><g fill="none" fill-rule="evenodd"><path d="M42.993 16a3.006 3.006 0 0 1 3.006 3l-.004 27L38 38H12.996A2.999 2.999 0 0 1 10 34.999V16h32.993z" fill="#DCE775"/><path d="M10 30v4.998A3.005 3.005 0 0 0 12.996 38H38l8 8V24l-8-8-28 14z" fill-opacity=".1" fill="#000"/><path d="M2 11c0-1.657 1.346-3 3.007-3h29.986A3.004 3.004 0 0 1 38 11.001v15.995a3.005 3.005 0 0 1-2.996 3.001H10L2 38V11z" fill="#34A853"/><circle fill="#F5F5F5" cx="20.069" cy="18.999" r="5.107"/></g></svg>