<svg viewBox="0 0 48 48" xmlns="http://www.w3.org/2000/svg"><g fill="none" fill-rule="evenodd"><circle fill="#424242" cx="24" cy="24" r="22"/><path d="M32.68 27.334c-.726 0-1.315.588-1.315 1.315v1.035c0 .727.59 1.316 1.316 1.316.726 0 1.316.589 1.316 1.316 0 .762-.59 1.35-1.316 1.35h-.293a1.607 1.607 0 0 0-1.083.476c-.361.36-.475.77-.475 1.082v.296c-.003.396-.109.727-.347.966a1.236 1.236 0 0 1-.878.345 1.255 1.255 0 0 1-.088.003h-.296c-.257 0-.721.114-1.083.474a1.605 1.605 0 0 0-.474 1.083v.296c0 .725-.589 1.313-1.314 1.313-.403 0-.731-.147-.97-.385a1.309 1.309 0 0 1-.384-.928c0-.73-.588-1.318-1.315-1.318h-1.035c-.727 0-1.316.589-1.316 1.316 0 .726-.589 1.316-1.315 1.315-.763 0-1.352-.59-1.352-1.315 0-.727-.589-1.316-1.316-1.316h-1.82a.565.565 0 0 1-.565-.565v-1.821c0-.727-.59-1.316-1.316-1.316-.727 0-1.316-.59-1.316-1.316 0-.762.59-1.35 1.316-1.35.762 0 1.35.588 1.35 1.315s.59 1.315 1.317 1.315h1.034c.727 0 1.316-.588 1.316-1.315S19.253 31 19.98 31c.762 0 1.351.589 1.351 1.316 0 .727.59 1.315 1.316 1.315h1.035c.727 0 1.316-.588 1.316-1.315S25.586 31 26.312 31c.727 0 1.316-.59 1.316-1.316V28.65c0-.727-.589-1.315-1.316-1.315-.726 0-1.316-.59-1.316-1.316 0-.762.59-1.352 1.316-1.352.727 0 1.316-.588 1.316-1.315v-1.035c0-.727-.589-1.316-1.316-1.316a1.316 1.316 0 0 1-1.316-1.315v-5.038c0-.726.589-1.313 1.314-1.313a1.3 1.3 0 0 0 1.325-1.32V8.83c0-1.01.811-1.829 1.821-1.829h.08a1.83 1.83 0 0 1 1.829 1.829v.557c0 .727.59 1.316 1.316 1.316.726 0 1.316.59 1.316 1.316v2.662h-1.298a.565.565 0 0 0-.565.565v1.821c0 .727-.59 1.316-1.316 1.316-.726 0-1.315.589-1.315 1.316 0 .761.589 1.35 1.315 1.35.762 0 1.352-.589 1.352-1.315 0-.727.588-1.316 1.316-1.316h.51v7.565c0 .762-.589 1.352-1.315 1.352z" fill="#F5F5F5"/></g></svg>