<svg viewBox="0 0 48 48" xmlns="http://www.w3.org/2000/svg"><g fill="none" fill-rule="evenodd"><path d="M5 14l19-1 19 1v26.006A3.003 3.003 0 0 1 40.002 43H7.998A2.996 2.996 0 0 1 5 40.006V14z" fill="#94C856"/><path d="M43 29v11.006A3.003 3.003 0 0 1 40.002 43H22l-7-7 18-17 10 10z" fill-opacity=".1" fill="#000"/><path d="M5 7.997A3.004 3.004 0 0 1 7.998 5h32.004A3 3 0 0 1 43 7.997V14H5V7.997zm13.46.961a1.58 1.58 0 0 0-1.585 1.584c0 .874.707 1.583 1.58 1.583h11.09c.873 0 1.58-.703 1.58-1.583 0-.875-.716-1.584-1.586-1.584h-3.56a1.98 1.98 0 0 0-3.958 0h-3.56z" fill="#34A853"/><path fill="#F5F5F5" d="M27 24l6-5v17H15V24l6-5v5l6-5z"/></g></svg>