<svg viewBox="0 0 48 48" xmlns="http://www.w3.org/2000/svg"><g fill="none" fill-rule="evenodd"><path d="M43.015 21c0-10.492-8.523-19-19.015-19S5 10.508 5 21c0 9.94 9.06 18 19 18v7c11.545-5.855 19.015-15.277 19.015-25z" fill="#009688"/><path d="M43.015 21.015L36 14l-.879 4.879-5-5L13.88 28.12 28.9 43.14c8.71-5.82 14.11-13.864 14.116-22.126z" fill-opacity=".1" fill="#000"/><path d="M13 21v4.998A3.006 3.006 0 0 0 15.993 29h12.014A2.998 2.998 0 0 0 31 26v-3l5 5v-7l-14.5-3.5L13 21z" fill="#F5F5F5"/><path d="M13 16.002A3.006 3.006 0 0 1 15.993 13h12.014A2.998 2.998 0 0 1 31 16v3l5-5v7H13v-4.998z" fill="#E0E0E0"/></g></svg>