<svg viewBox="0 0 48 48" xmlns="http://www.w3.org/2000/svg"><g fill="none" fill-rule="evenodd"><path d="M5 14l19-1 19 1v26.006A3.003 3.003 0 0 1 40.002 43H7.998A2.996 2.996 0 0 1 5 40.006V14z" fill="#4285F4"/><path d="M43 38.5v1.506A3.003 3.003 0 0 1 40.002 43H28.5l-5.999-5.999 9.5-9.5L43 38.5z" fill-opacity=".1" fill="#000"/><path d="M5 7.997A3.004 3.004 0 0 1 7.998 5h32.004A3 3 0 0 1 43 7.997V14H5V7.997zm13.46.961a1.58 1.58 0 0 0-1.585 1.584c0 .874.707 1.583 1.58 1.583h11.09c.873 0 1.58-.703 1.58-1.583 0-.875-.716-1.584-1.586-1.584h-3.56a1.98 1.98 0 0 0-3.958 0h-3.56z" fill="#3F51B5"/><path d="M14 20.422c0-.785.638-1.422 1.422-1.422h7.364c.394 0 .937.223 1.215.501l9.181 9.181a1.424 1.424 0 0 1-.002 2.013l-7.485 7.485a1.42 1.42 0 0 1-2.013.002l-9.18-9.18c-.278-.278-.502-.818-.502-1.216v-7.364zm3.563 3.328a1.188 1.188 0 1 0 0-2.375 1.188 1.188 0 0 0 0 2.375z" fill="#F5F5F5"/></g></svg>