<svg viewBox="0 0 48 48" xmlns="http://www.w3.org/2000/svg"><g fill="none" fill-rule="evenodd"><path d="M31.397 4c.885 0 1.87.665 2.198 1.487L41 24H21L13.595 5.487C13.266 4.666 13.712 4 14.603 4h16.794z" fill="#EA4335"/><path d="M29.827 42.621c-.457.762-1.539 1.379-2.43 1.379H10.603c-.885 0-1.23-.62-.778-1.375L21 24l8 4.8 2.526 10.99-1.699 2.831z" fill="#4285F4"/><path fill="#34A853" d="M41 24l-12-7-8 7 10.526 15.79z"/><path d="M27.397 8c.885 0 2.03.57 2.565 1.282L41 24H21L9.962 9.282C9.43 8.574 9.712 8 10.602 8h16.795z" fill="#FDC626"/></g></svg>