<svg viewBox="0 0 48 48" xmlns="http://www.w3.org/2000/svg"><g fill="none" fill-rule="evenodd"><path d="M24 2C11.808 2 2 11.808 2 24s9.808 22 22 22 22-9.808 22-22S36.192 2 24 2" fill="#9E9E9E"/><path d="M39.125 24c0 8.342-6.783 15.125-15.125 15.125-8.342 0-15.125-6.783-15.125-15.125 0-8.342 6.783-15.125 15.125-15.125 8.342 0 15.125 6.783 15.125 15.125" fill="#616161"/><path d="M21.892 25.108c1.283-1.375 2.108-2.291 2.475-2.75.366-.458.641-.916.825-1.283a2.44 2.44 0 0 0 .275-1.1 1.52 1.52 0 0 0-.459-1.1c-.275-.275-.733-.458-1.283-.458-.55 0-1.192.183-1.742.458-.55.367-1.283.825-2.016 1.467l-2.75-3.209c.916-.825 1.741-1.466 2.383-1.833a8.408 8.408 0 0 1 2.108-.825c.734-.183 1.65-.275 2.567-.275 1.192 0 2.292.183 3.208.642.917.458 1.65 1.008 2.2 1.833.459.733.734 1.65.734 2.567 0 .733-.092 1.375-.275 2.016-.184.642-.459 1.192-.825 1.834-.367.55-.917 1.191-1.467 1.833-.642.642-1.925 1.925-3.942 3.758v.092h6.509v4.217H17.583v-3.667l4.309-4.217zm-2.659-21l-1.191.275-.184 3.667 1.009-.275v-.642l1.1-.275.275.642 1.008-.275-2.017-3.117zM18.775 6.4V4.933c0 .092.092.184.183.367.092.183.184.367.275.458l.275.55-.733.092zm-2.933.642c-.275-.55-.642-.825-1.009-.917-.366-.092-.825 0-1.375.275-.458.183-.733.55-.825.917-.091.458 0 .916.275 1.375.275.55.642.825 1.1.916.367.092.825 0 1.284-.275.458-.183.825-.55.916-.916.092-.459 0-.917-.366-1.375zm-.917 1.741c-.367.275-.825.092-1.1-.55-.367-.55-.275-1.008.092-1.283.183-.092.366-.092.55-.092.183.184.366.367.55.642.183.275.275.55.275.733-.092.184-.184.367-.367.55zm19.617 30.525c-.275-.55-.642-.825-1.1-.916-.367-.092-.825 0-1.284.275a2.375 2.375 0 0 0-.916 1.008c-.092.367 0 .917.275 1.375.275.55.641.825 1.008.917.367.091.825 0 1.375-.275.458-.275.733-.642.825-1.009.183-.458.092-.916-.183-1.375zm-1.009 1.742c-.183.092-.366.092-.55.092-.183-.092-.366-.275-.55-.55-.183-.275-.275-.55-.275-.734 0-.183.092-.366.367-.458.367-.275.825-.092 1.1.55.367.458.367.825-.092 1.1zm-4.858-.917v.642l-1.1.275-.367-.55-1.008.275 2.017 3.117 1.191-.275.184-3.667-.917.183zm-.183 2.659c-.092-.184-.184-.367-.275-.459l-.275-.55.733-.183v1.558l-.183-.366zm3.941-37.309l.825.459-.641 1.1.916.55.642-1.1.825.458-1.742 3.025-.825-.458.734-1.284-.917-.55-.733 1.284-.825-.459 1.741-3.025zm-4.675-1.558l2.567.733-.183.734-.825-.184-.734 2.659-.916-.275.733-2.659-.825-.183.183-.825zm-5.316-.367h.916v2.017c0 .275 0 .458.092.55.092.092.183.183.367.183a.7.7 0 0 0 .458-.183c.092-.092.092-.275.183-.55V3.558h.917v2.109c0 .458-.183.825-.367 1.1-.275.275-.641.366-1.1.366-.458 0-.825-.091-1.1-.366-.275-.275-.366-.642-.366-1.1V3.558zm-7.425 38.959l-.825-.459.641-1.1-.916-.55-.642 1.1-.825-.458 1.742-3.025.825.458-.734 1.284.917.55.733-1.284.825.459-1.741 3.025zm4.675 1.558l-2.567-.733.183-.734.825.184.734-2.659.916.275-.733 2.659.825.183-.183.825zm5.316.367h-.916v-2.017c0-.275 0-.458-.092-.55-.092-.092-.183-.183-.367-.183a.7.7 0 0 0-.458.183c-.092.092-.092.275-.183.55v2.017h-.917v-2.109c0-.458.183-.825.367-1.1.275-.275.641-.366 1.1-.366.458 0 .825.091 1.1.366.275.275.366.642.366 1.1v2.109z" fill="#FFF"/></g></svg>