<svg viewBox="0 0 48 48" xmlns="http://www.w3.org/2000/svg"><g fill="none" fill-rule="evenodd"><rect fill="#0B3D65" x="5" y="5" width="38" height="38" rx="3"/><path d="M22.935 21.652c.946.874 1.526 2.171 1.526 3.558 0 2.654-2.106 4.826-4.73 4.826a4.784 4.784 0 0 1-4.793-4.795c0-1.388.58-2.685 1.526-3.59l-1.678-1.628c-1.404 1.297-2.29 3.137-2.29 5.187 0 3.981 3.236 7.027 7.204 7.027 3.998 0 7.173-3.106 7.173-7.027 0-2.08-.855-3.92-2.26-5.187l-1.678 1.629zm9.645 3.619c-.916 0-1.831.362-1.831 2.02v4.705h-2.29V23.25h2.29v.633c.488-.362 1.13-.814 2.32-.814 1.922 0 3.601 1.116 3.601 3.86v5.037h-2.259v.03-4.675c0-1.688-.915-2.05-1.83-2.05z" fill="#FFF"/><path d="M19.67 18.153a7.332 7.332 0 0 0-4.915 1.87l1.679 1.629a4.674 4.674 0 0 1 3.235-1.297c1.252 0 2.412.482 3.236 1.297l1.678-1.629c-1.251-1.176-2.99-1.87-4.914-1.87zm-8.242-1.357l1.71 1.659a9.82 9.82 0 0 1 6.623-2.564c2.472 0 4.761.905 6.501 2.534l1.71-1.66c-2.198-2.08-5.128-3.226-8.211-3.226a12.17 12.17 0 0 0-8.333 3.257zm6.502 6.273l1.74 1.689 1.77-1.689a2.767 2.767 0 0 0-1.74-.603 2.79 2.79 0 0 0-1.77.603z" fill="#90CAF9"/></g></svg>