<svg viewBox="0 0 48 48" xmlns="http://www.w3.org/2000/svg"><g fill="none" fill-rule="evenodd"><path d="M24 46c12.15 0 22-9.85 22-22S36.15 2 24 2 2 11.85 2 24s9.85 22 22 22z" fill="#03A9F4"/><path d="M24 41c9.389 0 17-7.611 17-17S33.389 7 24 7 7 14.611 7 24s7.611 17 17 17z" fill="#F5F5F5"/><path d="M40.526 27.993l-13.26-13.26-8.536 3.535 6 6-1 10 5.809 5.809a17.034 17.034 0 0 0 10.987-12.084z" fill-opacity=".05" fill="#000"/><path d="M28 32.509A2.49 2.49 0 0 1 25.5 35c-1.38 0-2.5-1.125-2.5-2.5V19h-2.5c-1.38 0-2.5-1.11-2.5-2.5 0-1.38 1.128-2.5 2.498-2.5h5.004C26.882 14 28 15.13 28 16.491V32.51z" fill="#03A9F4"/></g></svg>