<svg viewBox="0 0 48 48" xmlns="http://www.w3.org/2000/svg"><g fill="none" fill-rule="evenodd"><path d="M2 9v29.999A3 3 0 0 0 5.007 42h37.986A2.998 2.998 0 0 0 46 38.999V9H32V6l-3-3H19l-3 3v3L2 9.24V9zm17-2.001c0-.552.456-.999.995-.999h8.01c.55 0 .995.443.995.999V9H19V6.999z" fill="#EEE"/><circle fill="#FFCA28" cx="24" cy="25.5" r="11"/><circle fill="#FB8C00" cx="24" cy="25.5" r="7"/><path d="M23.25 29c-.966 0-1.75-.672-1.75-1.5s.784-1.5 1.75-1.5a2 2 0 0 1 .75.144V22h3v2h-2v3.537c-.023.811-.798 1.463-1.75 1.463z" fill="#FFF"/></g></svg>