<svg viewBox="0 0 48 48" xmlns="http://www.w3.org/2000/svg"><g fill="none" fill-rule="evenodd"><path d="M2 9v29.999A3 3 0 0 0 5.007 42h37.986A2.998 2.998 0 0 0 46 38.999V9H32V6l-3-3H19l-3 3v3L2 9.24V9zm17-2.001c0-.552.456-.999.995-.999h8.01c.55 0 .995.443.995.999V9H19V6.999z" fill="#EEE"/><path d="M14 25.078v8.35c0 .868.711 1.572 1.57 1.572h16.86c.868 0 1.57-.714 1.57-1.572v-8.35c0-3.35-1.672-6.313-4.234-8.11l1.445-2.295a.615.615 0 0 0-.2-.853.632.632 0 0 0-.86.196l-1.449 2.3A10.018 10.018 0 0 0 24 15.153c-1.7 0-3.3.42-4.703 1.163l-1.448-2.3a.632.632 0 0 0-.86-.196.615.615 0 0 0-.2.853l1.445 2.295C15.672 18.765 14 21.728 14 25.078z" fill="#8BC34A"/><path d="M34 25H14l10 10h8.415A1.58 1.58 0 0 0 34 33.415V25z" fill-opacity=".05" fill="#000"/><path d="M28.166 22.183c.69 0 1.25-.555 1.25-1.24 0-.686-.56-1.241-1.25-1.241s-1.25.555-1.25 1.24c0 .686.56 1.241 1.25 1.241zm-8.333 0c.69 0 1.25-.555 1.25-1.24 0-.686-.56-1.241-1.25-1.241s-1.25.555-1.25 1.24c0 .686.56 1.241 1.25 1.241z" fill="#F5F5F5"/></g></svg>