<svg viewBox="0 0 48 48" xmlns="http://www.w3.org/2000/svg"><g fill="none" fill-rule="evenodd"><path d="M2 9v29.999A3 3 0 0 0 5.007 42h37.986A2.998 2.998 0 0 0 46 38.999V9H32V6l-3-3H19l-3 3v3L2 9.24V9zm17-2.001c0-.552.456-.999.995-.999h8.01c.55 0 .995.443.995.999V9H19V6.999z" fill="#EEE"/><path d="M13 19.493c0-.825.67-1.493 1.495-1.493h19.01c.826 0 1.495.664 1.495 1.493v12.014c0 .825-.67 1.493-1.495 1.493h-19.01A1.491 1.491 0 0 1 13 31.507V19.493zM15 20h2v2h-2v-2zm0 3h2v2h-2v-2zm16-3h2v2h-2v-2zm0 3h2v2h-2v-2zm0 3h2v2h-2v-2zm0 3h2v2h-2v-2zm-16 0h2v2h-2v-2zm0-3h2v2h-2v-2z" fill="#EA4335"/><path d="M15 20h2v2h-2v-2zm0 3h2v2h-2v-2zm16-3h2v2h-2v-2zm0 3h2v2h-2v-2zm-18-3.495c0-.831.67-1.505 1.503-1.505h18.994A1.5 1.5 0 0 1 35 19.505V26H13v-6.495z" fill-opacity=".1" fill="#000"/></g></svg>