<svg viewBox="0 0 48 48" xmlns="http://www.w3.org/2000/svg"><g fill="none" fill-rule="evenodd"><path d="M2 9v29.999A3 3 0 0 0 5.007 42h37.986A2.998 2.998 0 0 0 46 38.999V9H32V6l-3-3H19l-3 3v3L2 9.24V9zm17-2.001c0-.552.456-.999.995-.999h8.01c.55 0 .995.443.995.999V9H19V6.999z" fill="#EEE"/><path d="M34 33.507c0 .825-.665 1.493-1.503 1.493H15.503c-.83 0-1.503-.664-1.503-1.493V20l10-2 10 2v13.507z" fill="#D03CE0"/><path fill="#9C0ED6" d="M14 16h20v4H14z"/><path d="M22 24v5h-5v-5h5zm9 3v2h-8v-2h8zm0-3v2h-8v-2h8z" fill="#FFF"/></g></svg>