<svg viewBox="0 0 48 48" xmlns="http://www.w3.org/2000/svg"><g fill="none" fill-rule="evenodd"><path fill="#54A4EB" d="M9.384 19.636L5.431 16l4.641-8 5.158 2.91-.517 5.09z"/><path fill="#0D47A1" d="M38.615 19.636L33.277 16l-.508-5.09L37.919 8l4.64 8z"/><path fill="#F75279" d="M23.995 16l4.641-8 4.133 2.91.508 5.09-3.431.727z"/><path fill="#1E88E5" d="M41.538 28.364L37.918 24l.697-4.364L42.559 16l4.646 8z"/><path fill="#2B8FE7" d="M.79 24l4.641-8 3.953 3.636.688 4.364-3.61 1.455z"/><path fill="#F97D9A" d="M19.354 24l4.641-8 5.85.727L28.637 24l-4.64 4.364z"/><path fill="#429BE9" d="M33.277 32l4.641-8 3.62 1.455L42.56 32l-3.944 2.182z"/><path fill="#66AEED" d="M28.636 40l4.641-8 5.338 2.182L37.918 40z"/><path fill="#2055A8" d="M12.307 34.182L5.431 32l1.03-6.545L10.072 24l4.641 8z"/><path fill="#F8688A" d="M14.713 32l4.641-8 4.641 1.455V32l-5.842 2.182z"/><path fill="#F52757" d="M10.072 40l-.688-5.818L14.714 32l6.363 2.182L19.354 40z"/><path fill="#66AEED" d="M14.78 8h-4.708l4.641 8 4.641-8H14.78z"/><path fill="#F52757" d="M33.344 8h-4.708l4.641 8 4.641-8h-4.574z"/><path fill="#429BE9" d="M10.139 16H5.431l4.641 8 4.641-8H10.14z"/><path fill="#F8688A" d="M28.703 16h-4.708l4.641 8 4.641-8h-4.574z"/><path fill="#2055A8" d="M37.985 16h-4.708l4.641 8 4.641-8h-4.574z"/><path fill="#54A4EB" d="M37.985 32h-4.708l4.641 8 4.641-8h-4.574z"/><path fill="#2B8FE7" d="M37.918 24l4.641 8 4.641-8z"/><path fill="#0D47A1" d="M10.139 32H5.431l4.641 8 4.641-8H10.14z"/><path fill="#F75279" d="M19.421 32h-4.708l4.641 8 4.641-8h-4.574z"/><path fill="#1E88E5" d="M.79 24l4.641 8 4.641-8z"/><path fill="#F87292" d="M24.062 24h-4.708l4.641 8 4.641-8h-4.574z"/></g></svg>