<svg viewBox="0 0 48 48" xmlns="http://www.w3.org/2000/svg"><g fill="none" fill-rule="evenodd"><path d="M2 19.005c0-.831.544-1.9 1.214-2.388L22.786 2.383c.67-.488 1.758-.487 2.428 0l19.572 14.234c.67.488 1.214 1.551 1.214 2.388V27H2v-7.995z" fill="#C9C9C9"/><path fill="#D1D1D1" d="M2 19h44L24 39z"/><path d="M22 36h-5V20h-4v18h22V21h-4v15h-5V16h-4v20z" fill="#3F51B5"/><path d="M2 19v21.009A2.994 2.994 0 0 0 4.998 43H43L2 19z" fill="#E0E0E0"/><path d="M46 19v21.009A2.994 2.994 0 0 1 43.002 43H5l41-24z" fill="#EEE"/><path d="M35.283 16.047a2.273 2.273 0 1 1-4.314.216l-5.243-2.935a2.267 2.267 0 0 1-1.659.719 2.27 2.27 0 0 1-1.788-.87l-5.069 2.28a2.273 2.273 0 1 1-.448-.995l5.068-2.28a2.273 2.273 0 1 1 4.43.194l5.242 2.936a2.267 2.267 0 0 1 1.66-.72c.572 0 1.095.212 1.495.561l3.658-2.56a2.273 2.273 0 1 1 .626.894l-3.658 2.56z" fill="#E91E63"/></g></svg>