<svg viewBox="0 0 48 48" xmlns="http://www.w3.org/2000/svg"><g fill="none" fill-rule="evenodd"><path d="M26.857 24H44V6.857l-4.501 4.501C35.83 6.868 30.25 4 24 4l-5 5 5 5a9.991 9.991 0 0 1 8.355 4.503L26.857 24z" fill="#3367D6"/><path d="M26.857 24H44L24 4l-5 5 5 5a9.991 9.991 0 0 1 8.355 4.503L26.857 24z" fill-opacity=".1" fill="#000"/><path d="M24 21.143V4H6.857l4.501 4.501C6.868 12.17 4 17.75 4 24l5 6 5-6a9.991 9.991 0 0 1 4.503-8.355L24 21.143z" fill="#4285F4"/><path d="M15.645 29.497L21.143 24H4v17.143l4.501-4.501C12.17 41.132 17.75 44 24 44a19.937 19.937 0 0 0 14.142-5.858l-7.07-7.07A9.969 9.969 0 0 1 24 34a9.991 9.991 0 0 1-8.355-4.503z" fill="#BDBDBD"/></g></svg>