<svg viewBox="0 0 48 48" xmlns="http://www.w3.org/2000/svg"><g fill="none" fill-rule="evenodd"><circle fill="#4285F4" cx="24" cy="24" r="22"/><path d="M30.265 45.095a22.05 22.05 0 0 0 14.692-14.381L29.12 14.879l-2.367.047-2.34-2.34-2.535 2.293-4.929.071-.071 4.171 5 5 2.53 5.87L14 28.83l16.265 16.265z" fill-opacity=".1" fill="#000"/><path d="M26.73 22.14c-.23-.09-.47-.14-.73-.14h-1v-2h2c1.66 0 3-1.34 3-3s-1.34-3-3-3c-.75 0-1.39.22-2 .75V14c0-1.1-.9-2-2-2s-2 .9-2 2v.75c-.61-.53-1.25-.75-2-.75-1.66 0-3 1.34-3 3s1.34 3 3 3h2v8.31l-4.57-.95c-.1-.02-.21-.03-.32-.03-.41 0-.79.17-1.06.44L14 28.83l6.59 6.59c.36.36.86.58 1.41.58h9.06c1 0 1.77-.74 1.92-1.7l1-7.03c.01-.09.02-.18.02-.27 0-.83-.5-1.54-1.22-1.84l-6.05-3.02zM21 19h-1.875c-1.1 0-2.125-.9-2.125-2s.9-2 2-2 2 .9 2 2v2zm4-2c0-1.1.9-2 2-2s2 .9 2 2-.9 2-2 2h-2v-2z" fill="#F5F5F5"/></g></svg>