<svg viewBox="0 0 48 48" xmlns="http://www.w3.org/2000/svg"><g fill="none" fill-rule="evenodd"><path d="M21.075 30.441a30.469 30.469 0 0 1-1.32-1.205c-.074-.07-.15-.14-.222-.212l-.28-.277-.277-.28a8.956 8.956 0 0 1-.212-.222 30.434 30.434 0 0 1-1.497-1.661 27.93 27.93 0 0 1-.56-.682 31.904 31.904 0 0 1-1.407-1.889c-2.025-3.02 3.905-7.525 3.953-9.711.029-1.277 11.751-4.343 12.682-6.172.93-1.828-9.796-1.493-8.308-2.139l.371-.162C17.42 3.087 10.981 3.354 7.168 7.166c-3.812 3.812-4.079 10.252-1.336 16.83.328.787 2.298 10.584 2.298 10.584l15.858 5.29s-1.937-5.866 0-7.172a30.81 30.81 0 0 1-1.89-1.405 32.034 32.034 0 0 1-1.023-.852z" fill="#EA4335"/><path d="M31.292 25.9c-.181.23-.368.458-.559.684-.096.114-.193.225-.292.341a32.19 32.19 0 0 1-1.206 1.321 8.653 8.653 0 0 1-.21.22l-.278.28-.28.278a8.956 8.956 0 0 1-.222.212c-.434.419-.874.82-1.32 1.205l-.342.294c-.224.19-.452.376-.683.558a30.93 30.93 0 0 1-1.887 1.407c-4.55 3.05-8.864 4.028-10.803 2.089-3.233-3.233-5.667-6.838-7.219-10.416-.054-.12-.108-.246-.162-.371-2.742 6.578-2.475 13.017 1.337 16.83 3.812 3.812 10.252 4.079 16.83 1.336 2.998-1.248 14.11-4.204 14.11-4.204L40.751 25.9s-7.04-.39-8.051-1.888a30.977 30.977 0 0 1-1.408 1.888z" fill="#34A853"/><path d="M39.87 14.302c-.57-.66-.247-2.892-.882-3.527-1.432-1.431-9.254-2.292-12.405-.881-3.152 1.41-1.388 4.61-2.571 5.408a31.898 31.898 0 0 1 2.57 1.966c.116.095.227.192.343.29a33.97 33.97 0 0 1 1.54 1.42c.095.089.19.184.282.275.093.094.187.188.276.281a33.84 33.84 0 0 1 1.418 1.54c.099.117.198.23.292.344A31.474 31.474 0 0 1 32.7 23.99c3.05 4.549 4.029 8.862 2.09 10.801-3.234 3.234-6.838 5.667-10.416 7.219-.12.054-.248.11-.371.162 6.579 2.743 13.017 2.475 16.83-1.337 3.812-3.812 4.08-10.253 1.337-16.832-1.25-2.997.149-6.88-2.3-9.7z" fill="#FBBC05"/><path d="M40.832 7.168C37.02 3.356 30.58 3.088 24.002 5.83c-2.997 1.25-6.028 3.126-8.85 5.573a37.455 37.455 0 0 0-1.94 1.808c-1.938 1.939-.965 6.25 2.09 10.776a32.836 32.836 0 0 1 1.965-2.57c.094-.114.193-.227.292-.343.386-.445.787-.887 1.206-1.319.07-.074.14-.15.212-.222.09-.094.184-.188.276-.28.093-.093.187-.187.281-.277.072-.072.148-.142.222-.212.433-.42.874-.82 1.319-1.206.116-.099.227-.196.342-.291a32.385 32.385 0 0 1 2.571-1.966c4.55-3.051 8.863-4.03 10.802-2.09 3.234 3.233 5.667 6.837 7.219 10.415l.162.371c2.74-6.578 2.473-13.018-1.339-16.83z" fill="#4285F4"/><path d="M42.16 23.994c-.053-.124-.105-.249-.161-.371l-.025-.058a27.26 27.26 0 0 0-.598-1.283 25.211 25.211 0 0 0-.665-1.268l-.099-.18a32.528 32.528 0 0 0-1.586-2.537l-.022-.034c-.137-.2-.28-.402-.427-.602a20.68 20.68 0 0 0-.411-.555c-.041-.064-.086-.12-.132-.178-.15-.197-.304-.396-.46-.592-.094-.118-.192-.235-.288-.353-.226-.28-.459-.559-.7-.834-.084-.096-.166-.192-.252-.286a22.79 22.79 0 0 0-.289-.322c-.065-.073-.13-.148-.2-.22-.1-.11-.202-.219-.306-.329a8.036 8.036 0 0 0-.246-.258c-.166-.176-.34-.352-.514-.526a2.982 2.982 0 0 0-.39-.33l9.265 6.203c-.299 1.6-.8 3.25-1.493 4.913zM23.99 5.827c-.142.063-.288.125-.43.187-.428.185-.854.387-1.28.599a22.767 22.767 0 0 0-1.448.764 32.261 32.261 0 0 0-3.174 2.032 1.392 1.392 0 0 0-.115.086 18.51 18.51 0 0 0-.44.327 32.507 32.507 0 0 0-1.123.88 24.749 24.749 0 0 0-1.119.953c-.108.093-.217.19-.323.29-.075.064-.148.13-.221.198-.11.102-.22.202-.327.306-.09.08-.174.162-.258.246-.176.166-.353.339-.527.512a3.004 3.004 0 0 0-.33.394l6.202-9.266c1.601.3 3.252.8 4.913 1.492zM13.202 34.786c.121.121.252.23.393.33l-9.264-6.204c.298-1.601.8-3.252 1.493-4.914.052.125.107.25.16.372l.027.058c.184.427.386.856.598 1.283.207.426.427.846.663 1.266.034.058.067.123.102.181a31.566 31.566 0 0 0 1.585 2.536c.008.014.012.023.02.033a28.013 28.013 0 0 0 .84 1.159c.04.064.085.12.131.178a32.507 32.507 0 0 0 .747.944c.226.282.459.56.701.837.084.094.164.189.253.284.093.106.19.215.288.322.066.075.13.148.2.222.1.108.2.218.307.327.079.089.16.175.244.259.166.176.338.353.512.527zm21.908-.394l-6.202 9.266c-1.6-.3-3.253-.801-4.915-1.494.143-.064.288-.123.432-.187a27.77 27.77 0 0 0 1.282-.597c.425-.209.847-.429 1.266-.663.06-.032.122-.068.181-.102.186-.103.373-.212.56-.321.663-.39 1.324-.813 1.975-1.265l.035-.02a23.312 23.312 0 0 0 .716-.512c.149-.104.297-.216.441-.328.06-.04.12-.084.18-.13.196-.151.396-.305.591-.463.118-.092.235-.189.354-.285.28-.226.56-.46.833-.7.098-.085.192-.166.287-.252.107-.095.215-.191.322-.292.074-.064.146-.129.22-.198.109-.1.219-.2.327-.306.09-.08.176-.161.26-.245.177-.168.353-.34.527-.515.122-.12.229-.25.328-.39z" fill-opacity=".1" fill="#000"/></g></svg>