<svg viewBox="0 0 48 48" xmlns="http://www.w3.org/2000/svg"><g fill="none" fill-rule="evenodd"><path d="M8 22V8l16-4 16 4v14c0 4-1 16-16 24C9 38 8 26.003 8 22z" fill="#34A853"/><path d="M29 20a5 5 0 1 1-10 0 5 5 0 0 1 10 0zm2.85 10.637A12.943 12.943 0 0 0 24 28c-2.95 0-5.669.982-7.85 2.637.3.569.64 1.148 1.03 1.732A10.953 10.953 0 0 1 24 30c2.576 0 4.946.886 6.82 2.37.389-.585.73-1.164 1.03-1.733zm-2.217 3.344A8.962 8.962 0 0 0 24 32a8.962 8.962 0 0 0-5.634 1.98c.406.5.849 1 1.333 1.497A6.97 6.97 0 0 1 24 34a6.97 6.97 0 0 1 4.301 1.477c.484-.498.927-.997 1.332-1.496zm-8.456 2.892A4.977 4.977 0 0 1 24 36c1.048 0 2.02.322 2.823.873A27.89 27.89 0 0 1 24 39.02a27.893 27.893 0 0 1-2.823-2.148z" fill="#FFF"/><path d="M40 22V8H24v38c15-8 16-20 16-24z" fill-opacity=".1" fill="#000"/><path d="M8 5a3 3 0 0 1 3-3h26a3 3 0 0 1 3 3v3H8V5z" fill="#E0E0E0"/><path d="M13 5a1 1 0 1 1-2 0 1 1 0 0 1 2 0zm4.113 0a1 1 0 1 1-2 0 1 1 0 0 1 2 0z" fill="#FAFAFA"/></g></svg>