<svg viewBox="0 0 48 48" xmlns="http://www.w3.org/2000/svg"><g fill="none" fill-rule="evenodd"><circle fill="#34A853" cx="24" cy="24" r="22"/><circle fill="#FB8C00" cx="31.125" cy="23.25" r="1.875"/><circle fill="#FB8C00" cx="18.375" cy="23.25" r="1.875"/><circle fill="#CCA58B" cx="24.75" cy="24.75" r="7.125"/><path d="M21.277 18.527a7.123 7.123 0 0 0-3.652 6.223c0 .997.205 1.945.574 2.807C19.723 29.039 22.018 30 24 30a6 6 0 1 0 0-12c-.878 0-1.817.188-2.723.527z" fill="#F9CAAA"/><path d="M27.75 37.5a6.75 6.75 0 1 0 0-13.5H13.5c0 7.456 6.38 13.5 14.25 13.5z" fill="#F5F5F5"/><ellipse fill="#FB8C00" cx="24.75" cy="24" rx="2.25" ry="1.5"/><circle fill="#424242" cx="21.3" cy="22.5" r=".6"/><circle fill="#424242" cx="28.2" cy="22.5" r=".6"/><circle fill="#F5F5F5" cx="15" cy="12" r="2.25"/><path d="M29.317 16.5H18V12c5.225 0 9.67 1.878 11.317 4.5z" fill="#EA4335"/><rect fill="#F5F5F5" x="17" y="16" width="15" height="5" rx="1.125"/><path d="M22.875 26h3.75a1.875 1.875 0 0 1-3.75 0z" fill="#424242"/></g></svg>