<svg viewBox="0 0 48 48" xmlns="http://www.w3.org/2000/svg"><g fill="none" fill-rule="evenodd"><circle fill="#FBBC05" cx="24" cy="24" r="22"/><path d="M45.894 26.17l-6.064-6.065-3.79 1.145L23.665 8.875l-4.997 9.683L7.5 20.105l5.337 3.775 2.738 3.82 1.902 2.367-3.805 8.199 7.562 7.562c.906.113 1.83.172 2.766.172 11.418 0 20.804-8.698 21.894-19.83z" fill-opacity=".1" fill="#BF360C"/><path d="M13.672 38.263L15.57 27.7l6.432-.393 1.597 5.969-9.927 4.987zM7.5 20.105l11.096-1.546 2.379 5.726-5.446 3.295L7.5 20.105zm16.165-11.23l4.962 9.61-4.962 3.932-4.962-3.932 4.962-9.61zm16.165 11.23L31.8 27.58l-5.445-3.295 2.379-5.726 11.096 1.546zm-6.175 18.158l-9.924-4.987 1.597-5.969 6.432.393 1.895 10.563z" fill="#F5F5F5"/></g></svg>