<svg viewBox="0 0 48 48" xmlns="http://www.w3.org/2000/svg"><g fill="none" fill-rule="evenodd"><path fill="gray" d="M30 4H18l-3 3.083V10h3V7.083L30 7v3h3V7z"/><path d="M8.975 10.167L3 16.09v21.905C3 39.655 4.35 41 6.004 41h35.992A3 3 0 0 0 45 37.997V16.103l-5.99-5.936H8.975z" fill="#EEE"/><path fill="#FFF" d="M8 22h32v19H8z"/><path fill="#E0E0E0" d="M39 10H9l-6 6v6h42v-6z"/><path d="M8 17.998C8 16.894 8.89 16 10.002 16h27.996c1.106 0 2.002.898 2.002 1.998V22H8v-4.002z" fill="#4285F4"/><path d="M11 20a1 1 0 1 0 0-2 1 1 0 0 0 0 2zm4 0a1 1 0 1 0 0-2 1 1 0 0 0 0 2z" fill="#EEE"/><path fill="#FFF" d="M8 22h32v19H8z"/><path fill="#BDBDBD" d="M10 38h14v3H10z"/><path fill-opacity=".1" fill="#000" d="M30.6 41H40V30.6l-5.05-5.05-1.287 5.287L27 24.174 25.05 35.45 30.6 41z"/><path d="M33 24.174a7 7 0 0 1 0 12.652V41h-6v-4.174a7 7 0 0 1 0-12.652V31l3 1.5 3-1.5v-6.826z" fill="#424242"/><path fill="#BDBDBD" d="M10 24v12h11V24z"/></g></svg>