<svg viewBox="0 0 48 48" xmlns="http://www.w3.org/2000/svg"><path d="M8.25 17.864c.657-.12 1.204-.565 1.51-1.16a16.267 16.267 0 0 1 .802-1.388c.362-.563.474-1.259.249-1.888l-1.579-4.41a2 2 0 0 1 .883-2.405l5.77-3.331a2 2 0 0 1 2.525.438l3.028 3.57c.433.511 1.094.762 1.763.728a15.987 15.987 0 0 1 1.602-.001c.668.033 1.328-.218 1.761-.729L29.59 3.72a2 2 0 0 1 2.525-.438l5.77 3.33a2 2 0 0 1 .883 2.407l-1.577 4.405c-.226.63-.113 1.327.25 1.89.29.45.557.913.8 1.387.304.597.852 1.043 1.512 1.163l4.605.837A2 2 0 0 1 46 20.67v6.662a2 2 0 0 1-1.642 1.968l-4.607.837c-.658.12-1.205.565-1.51 1.16a16.267 16.267 0 0 1-.802 1.388c-.363.563-.475 1.259-.25 1.888l1.579 4.41a2 2 0 0 1-.883 2.405l-5.77 3.331a2 2 0 0 1-2.525-.438l-3.027-3.57c-.434-.511-1.095-.762-1.764-.728-.532.027-1.067.028-1.602.001-.668-.033-1.328.218-1.76.729L18.41 44.28a2 2 0 0 1-2.525.438l-5.77-3.33a2 2 0 0 1-.883-2.407l1.577-4.405c.226-.63.113-1.327-.25-1.89a15.99 15.99 0 0 1-.8-1.387c-.304-.597-.852-1.043-1.512-1.163l-4.605-.837A2 2 0 0 1 2 27.33v-6.662A2 2 0 0 1 3.642 18.7l4.607-.837zM24 32a8 8 0 1 0 0-16 8 8 0 0 0 0 16z" fill="#616161" fill-rule="evenodd"/></svg>