<svg viewBox="0 0 48 48" xmlns="http://www.w3.org/2000/svg"><g fill="none" fill-rule="evenodd"><path d="M4 18.997c0-.55.451-.997 1.003-.997h23.994a.996.996 0 0 1 1.003.997v24.007A3 3 0 0 1 26.992 46H7.008A3.008 3.008 0 0 1 4 43.004V18.997z" fill="#E0E0E0"/><path d="M30 34v9.004A3 3 0 0 1 27 46l-8-8 11-4z" fill-opacity=".1" fill="#000"/><path d="M38.197 38l6.93-6.89a2.976 2.976 0 0 0 0-4.22L23.09 4.98c-.544-.541-1.609-.98-2.376-.98H7.01A3 3 0 0 0 4 7v14.603c0 .771.452 1.846.99 2.381L19.087 38l10.058-4 9.052 4zm-26.15-23a3.009 3.009 0 0 0 3.017-3c0-1.657-1.351-3-3.018-3a3.009 3.009 0 0 0-3.017 3c0 1.657 1.351 3 3.017 3z" fill="#4285F4"/><path d="M26.38 30.62a2.995 2.995 0 0 1 4.24 0L38 38H19l7.38-7.38z" fill="#A1C2FA"/></g></svg>