<svg viewBox="0 0 48 48" xmlns="http://www.w3.org/2000/svg"><g fill="none" fill-rule="evenodd"><path d="M7.998 5H43L5 40.002V7.998A3.004 3.004 0 0 1 7.998 5z" fill="#34A853"/><path fill="#D2D2D2" d="M43 24L24 43H8L43 5z"/><path d="M40 5l3 3L7.998 43A3.004 3.004 0 0 1 5 40.002L40 5zM13 16a3 3 0 1 1 1.562-5.562L16 9a5 5 0 1 0 1.9 3H13v2h2.83A3.001 3.001 0 0 1 13 16z" fill="#F5F5F5"/><path fill-opacity=".1" fill="#000" d="M29.929 18.071L43.004 13v18.146z"/><circle fill="#FBBC05" cx="37" cy="11" r="10"/><path d="M43.001 39.997a2.997 2.997 0 0 1-3 3.003H24V29.667c0-1.044.489-2 1.245-2.6a20.614 20.614 0 0 1 3.642-2.18l14.114.529v14.581z" fill="#FBBC05"/><path d="M43.001 23.832A19.944 19.944 0 0 0 37.334 23a20 20 0 0 0-8.447 1.887L37 33l6.001-6.001v-3.167z" fill="#FB8C00"/></g></svg>