<svg viewBox="0 0 48 48" xmlns="http://www.w3.org/2000/svg"><g fill="none" fill-rule="evenodd"><path d="M32.028 16.48A10.962 10.962 0 0 1 35 24c0 6.075-4.925 11-11 11v-4l-10 7.5L24 46v-4c9.941 0 18-8.059 18-18a17.93 17.93 0 0 0-4.352-11.736l-5.62 4.215z" fill="#3F51B5"/><path d="M15.972 31.52A10.962 10.962 0 0 1 13 24c0-6.075 4.925-11 11-11v4l10-7.5L24 2v4C14.059 6 6 14.059 6 24a17.93 17.93 0 0 0 4.352 11.736l5.62-4.215z" fill="#4285F4"/><path d="M20.155 13.69A10.977 10.977 0 0 1 24 13V6l-3.845 7.69zM24 35v7l3.845-7.69c-1.197.446-2.492.69-3.845.69z" fill-opacity=".1" fill="#000"/></g></svg>