<svg viewBox="0 0 48 48" xmlns="http://www.w3.org/2000/svg"><g fill="none" fill-rule="evenodd"><path d="M16 31.5L4.726 24.996c-.953-.55-.952-1.443 0-1.992L16 16.5l13 2.961V9l11.274-6.504c.953-.55 1.726-.103 1.726.996V16.5L34.112 24 42 31.5v13.008c0 1.1-.774 1.545-1.726.996L29 39l-2.951-12.035L16 31.5z" fill="#FFE082"/><path fill="#FF9100" d="M29 39l-13-7.5v-15l16.382 5.638z"/><path fill="#FF6D00" d="M29 24v15l13-7.5v-15l-9.644.478z"/><path fill="#FFAB00" d="M29 9l13 7.5L29 24l-13-7.5L29 9z"/></g></svg>