<svg viewBox="0 0 48 48" xmlns="http://www.w3.org/2000/svg"><g fill="none" fill-rule="evenodd"><path d="M7.008 37.951C11.122 42.781 17.203 46 24 46c12.163 0 22-9.837 22-22 0-6.618-3.04-12.7-7.691-16.634-4.114 15.024-16.098 26.83-31.3 30.585z" fill="#616161"/><path d="M17.203 32.407c-.357-.716-.536-1.61-.715-2.505H9.87c.358 1.79 1.073 3.399 1.967 5.009 1.968-.716 3.578-1.61 5.366-2.504zM8.26 29.902H2.715c.716 2.505 1.79 4.83 3.399 6.976 1.61-.537 3.04-.894 4.471-1.43-1.073-1.79-1.788-3.578-2.325-5.546z" fill="#1565C0"/><path d="M9.87 21.854c-.358 1.252-.537 2.683-.537 4.113 0 .716 0 1.431.18 2.326h6.796v-.537c0-1.073.179-2.146.358-3.22L9.87 21.855zm-1.968 3.935c0-1.61.18-3.041.537-4.65l-5.902-2.326C2.179 20.423 2 22.211 2 24c0 1.43.179 2.862.358 4.293h5.544v-2.504z" fill="#1976D2"/><path d="M19.17 20.244l-5.365-5.366a16.515 16.515 0 0 0-3.22 5.366l6.797 2.862c.358-1.073.894-2.147 1.789-2.862zm-6.617-6.44l-4.65-4.65c-2.147 2.147-3.757 5.009-4.83 8.05l5.903 2.503c.894-2.325 1.967-4.292 3.577-5.902z" fill="#1E88E5"/><path d="M19.707 8.797l-2.504-5.724c-3.04 1.073-5.902 2.683-8.049 4.83l4.65 4.65c1.61-1.61 3.578-2.862 5.903-3.756zm.537 10.195c.894-.716 1.789-1.431 2.862-1.789l-2.862-6.796c-1.968.715-3.756 1.967-5.366 3.219l5.366 5.366z" fill="#42A5F5"/><path d="M35.626 10.407c.537-1.253 1.073-2.683 1.43-4.114a21.551 21.551 0 0 0-7.332-3.578v5.366c2.146.537 4.113 1.252 5.902 2.326zm-3.04 6.617c.894-1.61 1.788-3.398 2.503-5.187-1.61-.894-3.398-1.61-5.187-2.146v6.618c.895 0 1.79.358 2.683.715z" fill="#90CAF9"/><path d="M25.967 7.724c.716 0 1.253 0 1.968.178l-.179-5.544C26.683 2.178 25.252 2 24 2c-1.789 0-3.577.179-5.187.715l2.504 5.724c1.431-.537 3.04-.715 4.65-.715zm-1.252 8.764a10.128 10.128 0 0 1 3.22-.537h.179l-.179-6.797c-.537 0-1.43-.178-3.22 0-.894.18-1.43.358-2.861.716l2.861 6.618z" fill="#64B5F6"/></g></svg>