<svg viewBox="0 0 48 48" xmlns="http://www.w3.org/2000/svg"><g fill="none" fill-rule="evenodd"><path d="M5 37h38V7.996A3.004 3.004 0 0 0 40.002 5H7.998A2.992 2.992 0 0 0 5 7.996V37z" fill="#EEE"/><path d="M5 37h38v3c0 1.657-1.352 3-2.998 3H7.998A3.001 3.001 0 0 1 5 40v-3z" fill="#4285F4"/><path d="M34.288 43H28.75l-9.5-9.5L27 19.25l11.25-4.75L43 19.25v20.576A3.174 3.174 0 0 1 39.826 43h-5.538z" fill-opacity=".1" fill="#000"/><path fill="#757575" d="M9.75 24l9.5 9.5 19-19-4.75-4.75L19.25 24l-4.75-4.75z"/></g></svg>