<svg viewBox="0 0 48 48" xmlns="http://www.w3.org/2000/svg"><g fill="none" fill-rule="evenodd"><path d="M22 10h21.009A2.999 2.999 0 0 1 46 13.007v29.986A3.003 3.003 0 0 1 43.006 46H26l-4-36z" fill="#EEE"/><path d="M33.135 29.75l-5.212 5.154 1.404 1.404 5.173-5.173 5.173 5.173 1.404-1.404-5.212-5.154c1.731-1.98 3.077-4.327 3.693-6.75H42v-2h-6.5v-2h-2v2H27v2h10.5s-.654 2.52-3 5.27A16.623 16.623 0 0 1 32.314 25h-2.195c.718 1.701 1.767 3.32 3.016 4.75z" fill="#607D8B"/><path d="M46.003 42.993A3.003 3.003 0 0 1 43.01 46H26.003L24.67 10l21.333 21.333v11.66z" fill-opacity=".05" fill="#000"/><path fill="#546E7A" d="M34 38l-6-2-4.667 2L26 46z"/><path d="M2 5.007A3.003 3.003 0 0 1 4.994 2H22l12 36H4.996A3.001 3.001 0 0 1 2 34.993V5.007z" fill="#78909C"/><path d="M16.33 16.394l-2 1.334-2-1.334v-4.217a4.667 4.667 0 0 0 0 8.435v8.768c0 .558.443 1.01 1.01 1.01h1.98c.558 0 1.01-.446 1.01-1.01v-8.768a4.667 4.667 0 0 0 0-8.435v4.217z" fill="#F5F5F5"/></g></svg>