<svg viewBox="0 0 48 48" xmlns="http://www.w3.org/2000/svg"><g fill="none" fill-rule="evenodd"><path d="M22 10h21.009A2.999 2.999 0 0 1 46 13.007v29.986A3.003 3.003 0 0 1 43.006 46H26l-4-36z" fill="#EEE"/><path d="M33.135 29.75l-5.212 5.154 1.404 1.404 5.173-5.173 5.173 5.173 1.404-1.404-5.212-5.154c1.731-1.98 3.077-4.327 3.693-6.75H42v-2h-6.5v-2h-2v2H27v2h10.5s-.654 2.52-3 5.27A16.623 16.623 0 0 1 32.314 25h-2.195c.718 1.701 1.767 3.32 3.016 4.75z" fill="#607D8B"/><path d="M46.003 42.993A3.003 3.003 0 0 1 43.01 46H26.003L24.67 10l21.333 21.333v11.66z" fill-opacity=".05" fill="#000"/><path fill="#118147" d="M34 38l-6-2-4.667 2L26 46z"/><path d="M2 5.007A3.003 3.003 0 0 1 4.994 2H22l12 36H4.996A3.001 3.001 0 0 1 2 34.993V5.007z" fill="#34A853"/><path d="M20 20a2.001 2.001 0 1 0-.002-4.002A2.001 2.001 0 0 0 20 20zm0 2c-2.367 0-5 1.17-5 2.75V27h10v-2.25c0-1.58-2.633-2.75-5-2.75z" fill-opacity=".505" fill="#FFF"/><path d="M12 19c1.655 0 3-1.345 3-3s-1.345-3-3-3-3 1.345-3 3 1.345 3 3 3zm0 2c-3.375 0-7 1.79-7 4v2h14v-2c0-2.21-3.625-4-7-4z" fill="#F5F5F5"/></g></svg>