<svg viewBox="0 0 48 48" xmlns="http://www.w3.org/2000/svg"><g fill="none" fill-rule="evenodd"><path d="M3 46V7.998A3.004 3.004 0 0 1 6.004 5h35.992A2.995 2.995 0 0 1 45 7.996v26.008A3.004 3.004 0 0 1 42 37H14L3 46z" fill="#4285F4"/><path d="M45 28L29 12l-2 5-5-5-1.36 6.44L15 19l5 5-5 2 11 11h16c1.657 0 3-1.347 3-2.997V28z" fill-opacity=".1" fill="#000"/><path d="M26 23v-4h-4v4h4zm-11 0v3h4v4h3v-4h4v4h3v-4h4v-3h-3.96L29 19h4v-3h-4l.04-4H26v4h-4v-4h-3.04v4H15v3h4l-.04 4H15z" fill="#F5F5F5"/></g></svg>