<svg viewBox="0 0 48 48" xmlns="http://www.w3.org/2000/svg"><g fill="none" fill-rule="evenodd"><circle fill="#00BCD4" cx="24" cy="24" r="22"/><path d="M39.556 8.444L8.444 39.556A21.931 21.931 0 0 1 2 24C2 11.85 11.85 2 24 2a21.931 21.931 0 0 1 15.556 6.444z" fill="#00ACC1"/><path d="M25.693 45.936c10.197-.776 18.45-8.503 20.033-18.453L35.12 16.88l-2.585.585-5-5H21l-8.121 20.657 12.814 12.815z" fill-opacity=".1" fill="#000"/><path d="M26.5 15.948a2.5 2.5 0 0 0-5 0h5zM24 11a5 5 0 0 0-5 5h-4.009A2.993 2.993 0 0 0 12 18.993v12.014A3 3 0 0 0 14.991 34H33.01c1.649 0 2.99-1.34 2.99-2.993V18.993A3 3 0 0 0 33.009 16H29a5 5 0 0 0-5-5z" fill="#F5F5F5"/></g></svg>