<svg viewBox="0 0 48 48" xmlns="http://www.w3.org/2000/svg"><g fill="none" fill-rule="evenodd"><path d="M20 18l26 6c0 12.15-9.85 22-22 22l-4-28z" fill="#34A853"/><path d="M31 31L24 2C11.85 2 2 11.85 2 24l29 7z" fill="#EA4335"/><path d="M46 24H24V2c12.15 0 22 9.85 22 22z" fill="#FBBC05"/><path d="M24 24H2c0 12.15 9.85 22 22 22V24z" fill="#4285F4"/><circle fill="#F5F5F5" cx="24" cy="24" r="16"/><path d="M41.774 11.032L31 20l-7 12 11.036 11.036C41.592 39.227 46 32.128 46 24c0-4.849-1.569-9.331-4.226-12.968z" fill-opacity=".1" fill="#000"/><path fill="#34A853" d="M24 32l17.74-21h-4.56L24 24l-9-5v4z"/></g></svg>