<svg viewBox="0 0 48 48" xmlns="http://www.w3.org/2000/svg"><g fill="none" fill-rule="evenodd"><path fill="#FFB40A" d="M23.995 7.996L39.549 8H40v16L23.995 40H7.996V24z"/><path fill="#FFCF3C" d="M7.996 7.996h15.999L7.996 23.995z"/><path fill="#FDBE10" d="M23.995 1.369l11.313 11.313-22.626 22.626L1.369 23.995z"/><path fill="#FF9A04" d="M35.308 12.682l11.313 11.313-22.626 22.626-11.313-11.313z"/><circle fill="#FFCD33" cx="23.813" cy="23.813" r="16.181"/><path d="M24.722 39.994a5.09 5.09 0 0 1 0-10.181h2.483a8 8 0 1 1 7.698 10.181h-10.18z" fill="#F5F5F5"/><path d="M19 22a3 3 0 1 1 1.562-5.562L22 15a5 5 0 1 0 1.9 3H19v2h2.83A3.001 3.001 0 0 1 19 22z" fill="#FFF"/></g></svg>