<svg viewBox="0 0 48 48" xmlns="http://www.w3.org/2000/svg"><g fill="none" fill-rule="evenodd"><path d="M41 20h-6a6 6 0 0 1-6 6v6c6.627 0 12-5.373 12-12z" fill="#E0E0E0"/><path d="M28 5v8a7 7 0 0 1 7 7h8c0-8.284-6.716-15-15-15z" fill="#EA4335"/><path d="M8 22C8 10.954 16.954 2 28 2v11a9 9 0 0 0-9 9H8z" fill="#4285F4"/><path d="M29 46V32c-5.523 0-10-4.477-10-10H5c0 13.255 10.745 24 24 24z" fill="#FBBC05"/><path d="M8 22h11L8.215 19.06A20.066 20.066 0 0 0 8 22zM30.14 5.152A15.1 15.1 0 0 0 28 5v8l2.14-7.848zM35 20l5.893 1.607c.07-.525.107-1.062.107-1.607h-6z" fill-opacity=".1" fill="#000"/></g></svg>