<svg viewBox="0 0 48 48" xmlns="http://www.w3.org/2000/svg"><g fill="none" fill-rule="evenodd"><circle fill="#34A853" cx="24" cy="24" r="22"/><path d="M45.775 27.157L30.302 11.684l-15.3 6.3 6 6v6l4.5 4.5-3.6 3.6 7.286 7.285c8.645-2.088 15.297-9.283 16.587-18.212z" fill-opacity=".1" fill="#000"/><path d="M26.124 38.105a3 3 0 1 0-4.243-4.242 2.987 2.987 0 0 0 .01 4.232 2.987 2.987 0 0 0 4.233.01zm-5.122-20.121h-6v.364A9 9 0 0 1 23.995 9c4.971 0 8.955 4.03 8.955 9a8.985 8.985 0 0 1-5.948 8.484v3.5h-6v-9h3a3 3 0 1 0-3-3z" fill="#F5F5F5"/></g></svg>