<svg viewBox="0 0 48 48" xmlns="http://www.w3.org/2000/svg"><g fill="none" fill-rule="evenodd"><path d="M5 40.001A2.999 2.999 0 0 0 7.999 43H18l25-25V7.999A2.999 2.999 0 0 0 40.001 5H30L5 30v10.001z" fill="#8BC34A"/><path fill="#FFEB3B" d="M43 18v12L30 43H18V18z"/><path d="M30 30h13v10.001A2.999 2.999 0 0 1 40.001 43H30V30z" fill="#FF9800"/><path d="M30 5l13 13H30l13 12v10.001A2.999 2.999 0 0 1 40.001 43H30L18 30v13L5 30 30 5z" fill-opacity=".1" fill="#000"/><path fill="#00BCD4" d="M30 5H18L5 18v12h13l12-12z"/><path fill="#F5F5F5" d="M18 18h12v12H18z"/><path d="M18 5v13H5V7.999A2.999 2.999 0 0 1 7.999 5H18z" fill="#2196F3"/></g></svg>