<svg viewBox="0 0 48 48" xmlns="http://www.w3.org/2000/svg"><g fill="none" fill-rule="evenodd"><path d="M5 10a2 2 0 0 1 2-2h34a2 2 0 0 1 2 2v25a2 2 0 0 1-2 2H7a2 2 0 0 1-2-2V10z" fill="#263238"/><path fill="#EEE" d="M7 10h34v23H7z"/><path fill-opacity=".05" fill="#000" d="M41 33V10L18 33z"/><path d="M19 35H2v1.5A1.5 1.5 0 0 0 3.5 38h41a1.5 1.5 0 0 0 1.5-1.5V35H29a1 1 0 0 1-1 1h-8a1 1 0 0 1-1-1z" fill="#848484"/><path d="M33 21a2 2 0 0 1 2-2h9a2 2 0 0 1 2 2v18a2 2 0 0 1-2 2h-9a2 2 0 0 1-2-2V21z" fill="#263238"/><path fill="#EEE" d="M35 22h9v16h-9z"/><path fill-opacity=".05" fill="#000" d="M44 38V22l-9 9v7z"/></g></svg>