<svg viewBox="0 0 48 48" xmlns="http://www.w3.org/2000/svg"><g fill="none" fill-rule="evenodd"><path d="M5 7.998A3.004 3.004 0 0 1 7.998 5h32.004A3.004 3.004 0 0 1 43 7.998v32.004A3.004 3.004 0 0 1 40.002 43H7.998A3.004 3.004 0 0 1 5 40.002V7.998z" fill="#34A853"/><path d="M43 29.929L27.536 14.464 21 15l-4.414 18.414L26.172 43h13.83A3.004 3.004 0 0 0 43 40.002V29.93z" fill-opacity=".1" fill="#000"/><path d="M30 20h-1v-2c0-2.76-2.24-5-5-5s-5 2.24-5 5v2h-1c-1.1 0-2 .9-2 2v10c0 1.1.9 2 2 2h12c1.1 0 2-.9 2-2V22c0-1.1-.9-2-2-2zm-6 9c-1.1 0-2-.9-2-2s.9-2 2-2 2 .9 2 2-.9 2-2 2zm3-9h-6v-2c0-1.71 1.29-3 3-3s3 1.29 3 3v2z" fill="#F5F5F5"/></g></svg>