<svg viewBox="0 0 48 48" xmlns="http://www.w3.org/2000/svg"><g fill="none"><circle fill="#F7991C" cx="24" cy="24" r="22"/><path d="M46 24v-1.185l-8.462-8.461-22.676 22.508L24 46c12.015 0 22-9.985 22-22z" fill="#F05721"/><path d="M31.615 33.985c.508-.339 1.016-.847 1.693-1.354.507-.508 1.015-1.016 1.354-1.693l3.553.677 1.016-.677 1.354-5.415-.677-1.185-3.385-1.353c-.17-1.523-.508-2.877-1.185-4.231l2.2-3.046v-1.354l-4.061-4.062h-1.354l-2.877 2.2c-1.354-.677-2.708-1.184-4.23-1.184l-1.354-3.385-1.354-.846-5.416 1.354-.677 1.184.508 3.385c-.508.338-1.185.846-1.692 1.354-.508.508-.846 1.184-1.354 1.692l-3.554-.508-1.185.677-1.353 5.416.677 1.184 3.384 1.354c.17 1.523.508 2.877 1.185 4.231l-2.2 2.708v1.354l4.061 4.061h1.354l2.708-2.2c1.354.677 2.708 1.015 4.23 1.185l1.354 3.384 1.185.677 5.415-1.354.677-1.015v-3.215z" fill="#FFF"/><path d="M29.585 18.246c-1.523-1.523-3.385-2.37-5.585-2.37-4.23 0-7.785 3.386-7.785 7.786 0 2.2 1.016 4.061 2.37 5.584l11-11z" fill="#F7991C"/><path d="M29.077 23.492c0 2.708-2.2 4.908-4.908 4.908a4.911 4.911 0 0 1-4.907-4.908 4.91 4.91 0 0 1 4.907-4.907c2.708 0 4.908 2.2 4.908 4.907z" fill="#F05721"/></g></svg>