<svg viewBox="0 0 48 48" xmlns="http://www.w3.org/2000/svg"><g fill="none" fill-rule="evenodd"><path d="M27.847 38.577a8 8 0 1 0 14.31-7.156l-11-21.998c-1.977-3.951-16.286 3.205-14.31 7.156l11 21.998c-.3-.6-.517-1.219-.657-1.845.155.656.373 1.278.657 1.845z" fill="#FF5722"/><path d="M5.847 31.42a8 8 0 0 0 14.31 7.157l11-21.997a8 8 0 1 0-14.31-7.157l-11 21.998z" fill="#FF9800"/><path d="M17 35a4 4 0 1 1-8 0 4 4 0 0 1 8 0zm22 0a4 4 0 1 1-8 0 4 4 0 0 1 8 0zM28 13a4 4 0 1 1-8 0 4 4 0 0 1 8 0z" fill="#FFF"/></g></svg>