<svg viewBox="0 0 48 48" xmlns="http://www.w3.org/2000/svg"><g fill="none" fill-rule="evenodd"><path d="M24 46c12.15 0 22-9.85 22-22S36.15 2 24 2 2 11.85 2 24s9.85 22 22 22z" fill="#16B0F5"/><path d="M45.94 25.642C45.1 37.026 35.598 46 24 46c-.343 0-.684-.008-1.023-.023L12 35l3-5v-8.586c0-.068-1.138-1.166-1.707-1.707L13 19l-1-1 23.707-2.59L45.94 25.642z" fill-opacity=".1" fill="#000"/><path d="M19 30V20h3v10h-3zm-4-10h-1a1 1 0 0 1-1-1v-1l11-3 11 3v1a1 1 0 0 1-1 1h-1v10h1a1 1 0 0 1 1 1v1l-11 2-11-2v-1a1 1 0 0 1 1-1h1V20zm14 10V20h-3v10h3z" fill="#F7F7F7"/><path d="M33 24l-4-4h4v4zm-14 0l-4-4h4v4zm3-4l4 4v-4h-4z" fill-opacity=".1" fill="#000"/><path d="M12.553 15.224a1 1 0 0 0-.553.894V18h24v-1.882a1 1 0 0 0-.553-.894l-11-5.5a1 1 0 0 0-.894 0l-11 5.5zM13 32a1 1 0 0 0-1 1v2h24v-2a1 1 0 0 0-1-1H13z" fill="#FFF"/><path d="M24 9.618a1 1 0 0 0-.447.106l-11 5.5a1 1 0 0 0-.553.894V18h1v1a1 1 0 0 0 1 1h10V9.618zM12 33v2h12v-5H13.989A1 1 0 0 0 13 31v1a1 1 0 0 0-1 1z" fill-opacity=".05" fill="#000"/></g></svg>