<svg viewBox="0 0 48 48" xmlns="http://www.w3.org/2000/svg"><g fill="none" fill-rule="evenodd"><path d="M34.049 44H13.951c-.827 0-1.83-.577-2.246-1.297L1.655 25.297c-.413-.716-.415-1.874 0-2.594l10.05-17.406C12.118 4.58 13.12 4 13.95 4h20.098c.827 0 1.83.577 2.246 1.297l10.05 17.406c.413.716.415 1.874 0 2.594l-10.05 17.406c-.207.358-.56.682-.966.917-.406.235-.864.38-1.28.38z" fill="#4285F4"/><path d="M29.84 44h4.209c.416 0 .874-.145 1.28-.38.406-.235.76-.559.966-.917l7.528-13.04L31.08 16.92 26 16h-6l-4 4v8l.92 3.08L29.84 44z" fill-opacity=".1" fill="#000"/><path d="M35.828 34.414l-1.414 1.414-4.085-4.085c-3.928 3.219-9.733 2.995-13.4-.663-3.905-3.914-3.905-10.246 0-14.151 3.905-3.905 10.237-3.905 14.142-.009a10.013 10.013 0 0 1 .672 13.409l4.085 4.085zM24 32a8 8 0 1 0 0-16 8 8 0 0 0 0 16zm5-4.682V26h-2v3.197a6.03 6.03 0 0 0 2-1.88zm-8 1.88V24h-2v3.318a6.03 6.03 0 0 0 2 1.88zm4 .719V22h-2v7.917a6.04 6.04 0 0 0 2 0z" fill="#F5F5F5"/></g></svg>