<svg viewBox="0 0 48 48" xmlns="http://www.w3.org/2000/svg"><g fill="none" fill-rule="evenodd"><path d="M43 40.286A2.716 2.716 0 0 1 40.286 43H7.714A2.716 2.716 0 0 1 5 40.286V7.714A2.716 2.716 0 0 1 7.714 5h32.572A2.716 2.716 0 0 1 43 7.714v32.572z" fill="#FF9800"/><path d="M23.394 43l-9.199-9.195L16.5 16.5l13.305-2.305L43 27.395v12.89A2.716 2.716 0 0 1 40.286 43H23.394z" fill-opacity=".1" fill="#000"/><path d="M34.5 21h-1c-.83 0-1.5-.67-1.5-1.5 0-4.14-3.36-7.5-7.5-7.5h-5c-4.14 0-7.5 3.36-7.5 7.5v9c0 4.14 3.36 7.5 7.5 7.5h9c4.14 0 7.5-3.36 7.5-7.5v-6c0-.83-.67-1.5-1.5-1.5zm-15-3h6c.83 0 1.5.67 1.5 1.5s-.67 1.5-1.5 1.5h-6c-.83 0-1.5-.67-1.5-1.5s.67-1.5 1.5-1.5zm9 12h-9c-.83 0-1.5-.67-1.5-1.5s.67-1.5 1.5-1.5h9c.83 0 1.5.67 1.5 1.5s-.67 1.5-1.5 1.5z" fill="#F5F5F5"/></g></svg>