<svg viewBox="0 0 48 48" xmlns="http://www.w3.org/2000/svg"><g fill="none" fill-rule="evenodd"><path d="M29.67 16h13.78c1.452 0 2.057 1.856.885 2.712l-11.12 8.115 4.338 13.253c.453 1.384-1.133 2.537-2.31 1.678L24 33.552l-11.243 8.206c-1.177.859-2.763-.294-2.31-1.678l4.338-13.253-11.12-8.115C2.493 17.856 3.098 16 4.55 16h13.78l4.244-12.965c.451-1.378 2.4-1.378 2.852 0L29.67 16z" fill="#FFA000"/><path d="M43.45 16H29.67L25.426 3.035c-.451-1.378-2.4-1.378-2.852 0L18.33 16H4.55c-1.452 0-2.057 1.856-.885 2.712l11.12 8.115-4.338 13.253c-.453 1.384 1.133 2.537 2.31 1.678L24 33.552l9.215-6.725 11.12-8.115c1.172-.856.567-2.712-.885-2.712z" fill="#FFB300"/><path d="M29.67 16l3.545 10.827L24 33.553l-9.215-6.726-11.12-8.115C2.493 17.856 3.098 16 4.55 16h13.78l4.244-12.965c.451-1.378 2.4-1.378 2.852 0L29.67 16z" fill="#FFC107"/><path d="M3.665 18.712l11.12 8.115L18.33 16H4.55c-1.452 0-2.057 1.856-.885 2.712zM22.574 3.035L18.33 16h11.34L25.426 3.035c-.451-1.378-2.4-1.378-2.852 0z" fill="#FFCA28"/></g></svg>