<svg viewBox="0 0 48 48" xmlns="http://www.w3.org/2000/svg"><g fill="none" fill-rule="evenodd"><path d="M24 5l-4 14 4 24h11l8-8V8c0-1.657-1.336-3-3-3H24z" fill="#424242"/><path d="M24 5l-3 19 3 19h15.826A3.174 3.174 0 0 0 43 39.826V23.24L24 5z" fill-opacity=".1" fill="#000"/><path d="M24 43V24l-9.5-5L5 24v16c0 1.657 1.336 3 3 3h16z" fill="#616161"/><path d="M24 5v19H5V8c0-1.657 1.336-3 3-3h16z" fill="#757575"/><circle fill="#1DE9B6" cx="33.5" cy="33.5" r="12"/><path d="M29.5 34h8v2h-8v-2zm0-3h8v2h-8v-2zm2.88-16.5l-2.239 2.24 1.12 1.119 2.239-2.24 2.24 2.24 1.119-1.12-2.24-2.239 2.24-2.24-1.12-1.119-2.239 2.24-2.24-2.24-1.119 1.12 2.24 2.239zm-18.88 18h-3v2h3v3h2v-3h3v-2h-3v-3h-2v3zm5-19v2h-8v-2h8z" fill="#F5F5F5"/></g></svg>