<svg viewBox="0 0 48 48" xmlns="http://www.w3.org/2000/svg"><g fill="none" fill-rule="evenodd"><path d="M5 10.996A3.004 3.004 0 0 1 7.998 8h32.004A3.003 3.003 0 0 1 43 10.996V36H5V10.996z" fill="#8F5829"/><path d="M2 13.994A2.997 2.997 0 0 1 5.007 11h37.986A3 3 0 0 1 46 13.994v23.012A2.998 2.998 0 0 1 43 40H31.85c-.864 0-1.798-.672-2.094-1.521l-2.604-7.475c-.439-1.26-1.841-2.282-3.152-2.282-1.302 0-2.713 1.02-3.152 2.282l-2.604 7.475c-.293.84-1.246 1.521-2.094 1.521H5c-1.656 0-3-1.34-3-2.994V13.994zM14 30a5 5 0 1 0 0-10 5 5 0 0 0 0 10zm20 0a5 5 0 1 0 0-10 5 5 0 0 0 0 10z" fill="#D9A048"/></g></svg>