<svg viewBox="0 0 48 48" xmlns="http://www.w3.org/2000/svg"><g fill="none" fill-rule="evenodd"><path d="M46 24v12.99c0 1.663-1.353 3.01-2.993 3.01H28l-4-5.5-2 5.5h-3l-4-4.5-2 4.5h-3l-8-8v-3l5-3-5-3 44 1z" fill="#03A9F4"/><path d="M46 24H4l-2-1v-3l2-3-2-3v-3a3 3 0 0 1 3.007-3h37.986A3.001 3.001 0 0 1 46 11.01V24z" fill="#039BE5"/><path fill-opacity=".1" fill="#000" d="M38.77 40H28l-2.5-4-3.5 4h-3l-4-3-2 3h-3l-8-8v-3l4-2-4-4v-3l5-3 13.385 4.615z"/><path d="M10 40H5.001A3.005 3.005 0 0 1 2 37.004V32a8 8 0 0 1 8 8zm9 0c0-9.389-7.611-17-17-17v6c6.075 0 11 4.925 11 11h6zm9 0c0-14.36-11.64-26-26-26v6c11.046 0 20 8.954 20 20h6z" fill="#F5F5F5"/></g></svg>