<svg viewBox="0 0 48 48" xmlns="http://www.w3.org/2000/svg"><g fill="none" fill-rule="evenodd"><path d="M5.526 16l6.928 12 6.927-12 11.547-4h9.237l-3.87-6.703C35.88 4.577 34.876 4 34.05 4H13.951c-.831 0-1.833.58-2.246 1.297L5.525 16z" fill="#4285F4"/><path fill-opacity=".1" fill="#000" d="M5.526 16l12.37 12.371H5.527z"/><path d="M26.31 44l6.927-12H19.381l-9.237-8-4.618-8-3.87 6.703c-.416.72-.414 1.878 0 2.594l10.049 17.406c.415.72 1.419 1.297 2.246 1.297h12.358z" fill="#FBBC05"/><path d="M40.165 12H26.309l6.928 8.99L30.927 36l-4.618 8h7.74c.831 0 1.833-.58 2.246-1.297l10.05-17.406c.415-.72.413-1.878 0-2.594L40.164 12z" fill="#EA4335"/><path d="M25.072 44l-8-8 15.175-7.505L30.927 12l14.641 14.64-9.273 16.063C35.882 43.42 34.88 44 34.05 44h-8.977z" fill-opacity=".1" fill="#000"/><path d="M37.856 24l-6.928 12H17.072l-6.928-12 6.928-12h13.856l6.928 12zM24.02 30.02a6 6 0 1 0 0-12 6 6 0 0 0 0 12z" fill="#EEE"/></g></svg>