<svg viewBox="0 0 48 48" xmlns="http://www.w3.org/2000/svg"><g fill="none" fill-rule="evenodd"><path d="M.405 13.905A14.961 14.961 0 0 1 11.5 9c1.059 0 2.092.11 3.09.319A14.937 14.937 0 0 1 24 6c7.281 0 13.351 5.188 14.714 12.07C43.94 18.67 48 23.111 48 28.5 48 34.299 43.299 39 37.5 39H12C5.373 39 0 33.627 0 27a11.97 11.97 0 0 1 4.298-9.202A11.952 11.952 0 0 1 12 15c2.932 0 5.618 1.051 7.702 2.798l1.844-1.844A13.458 13.458 0 0 0 12 12a13.458 13.458 0 0 0-9.546 3.954L.405 13.905zM12 18a10.45 10.45 0 0 0-5.772 1.728l2.067 2.067A8.968 8.968 0 0 1 12 21c1.32 0 2.575.284 3.705.795l2.067-2.067A10.451 10.451 0 0 0 12 18z" fill="#F1F1F1"/><rect fill="#4D4D4D" x="12" y="27" width="24" height="3" rx="1.5"/><path d="M34 27l-2 12h5.5c2.39 0 4.593-.798 6.357-2.143L34 27z" fill-opacity=".1" fill="#000"/><path d="M14 27h20v16.005A1.997 1.997 0 0 1 32.01 45H15.99A1.992 1.992 0 0 1 14 43.005V27z" fill="#4285F4"/><path d="M18 32h12v2H18v-2zm0 4h12v2H18v-2z" fill="#F5F5F5"/></g></svg>