<svg viewBox="0 0 48 48" xmlns="http://www.w3.org/2000/svg"><g fill="none" fill-rule="evenodd"><path d="M6.01 42.243L13 37V11L6.01 5.757A2.99 2.99 0 0 0 5 7.997v32.005c0 .888.39 1.69 1.01 2.24z" fill="#34A853"/><path d="M41.99 42.243L35 37V11l6.99-5.243A2.993 2.993 0 0 1 43 7.997v32.005a2.99 2.99 0 0 1-1.01 2.24z" fill="#EA4335"/><path d="M42.12 5.88L35 13H13L5.88 5.88A2.99 2.99 0 0 1 7.998 5h32.004c.827 0 1.576.337 2.118.88z" fill="#4285F4"/><path d="M42.12 42.12L35 35H13l-7.12 7.12c.542.543 1.29.88 2.118.88h32.004a2.99 2.99 0 0 0 2.118-.88z" fill="#FDC626"/></g></svg>