<svg viewBox="0 0 48 48" xmlns="http://www.w3.org/2000/svg"><g fill="none" fill-rule="evenodd"><path d="M6 18c0 12.941 18 30 18 30l6-24-6-24C14.059 0 6 8.059 6 18z" fill="#EEE"/><path d="M24 0c9.941 0 18 8.059 18 18 0 12.941-18 30-18 30V0z" fill="#E0E0E0"/><path d="M41.9 16.102c.066.624.1 1.257.1 1.898 0 8.469-7.71 18.701-13.037 24.762L14.1 27.9 33.899 8.101l8.002 8.001z" fill-opacity=".05" fill="#000"/><circle fill="#8BC34A" cx="24" cy="18" r="14"/><path d="M25 9.055V7h-2v2.055A9.004 9.004 0 0 0 15.055 17H13v2h2.055A9.004 9.004 0 0 0 23 26.945V29h2v-2.055A9.004 9.004 0 0 0 32.945 19H35v-2h-2.055A9.004 9.004 0 0 0 25 9.055zM24 25a7 7 0 1 0 0-14 7 7 0 0 0 0 14zm0-3a4 4 0 1 0 0-8 4 4 0 0 0 0 8z" fill="#F5F5F5"/></g></svg>