<svg viewBox="0 0 48 48" xmlns="http://www.w3.org/2000/svg"><g fill="none" fill-rule="evenodd"><path d="M24 2C11.85 2 2 11.85 2 24s9.85 22 22 22V2z" fill="#D0DCF2"/><path d="M24 2c12.15 0 22 9.85 22 22s-9.85 22-22 22V2z" fill="#555AAC"/><path d="M13 24c0 12.15 4.925 22 11 22l6-22-6-22c-6.075 0-11 9.85-11 22z" fill="#6B85C7"/><path d="M45.827 21.225L28.914 4.313 24 46c12.15 0 22-9.85 22-22 0-.94-.059-1.866-.173-2.775z" fill-opacity=".1" fill="#000"/><path d="M24 2c6.075 0 11 9.85 11 22s-4.925 22-11 22V2z" fill="#6CBF8C"/></g></svg>