<svg viewBox="0 0 48 48" xmlns="http://www.w3.org/2000/svg"><path d="M14.25 31c3.728 0 6.75-3.134 6.75-7s-3.022-7-6.75-7-6.75 3.134-6.75 7 3.022 7 6.75 7zm0-2.5c2.071 0 3.75-2.015 3.75-4.5s-1.679-4.5-3.75-4.5c-2.071 0-3.75 2.015-3.75 4.5s1.679 4.5 3.75 4.5zM23 31h3v-7a4 4 0 0 1 4.954-3.885L32.1 17.25a5.206 5.206 0 0 0-1.6-.25c-1.792 0-3.4.917-4.5 2.37V17h-3v14zm20-1.949C41.832 30.258 40.246 31 38.5 31c-3.59 0-6.5-3.134-6.5-7s2.91-7 6.5-7c1.746 0 3.332.742 4.5 1.949V17h3v13c0 1.93-.409 3.914-1.542 5.452C43.27 37.062 41.426 38 39 38c-1.654 0-3.066-.434-4.191-1.27-1.024-.791-1.848-2.03-2.271-3.224l2.836-.977c.281.852.595 1.354 1.225 1.793.529.393 1.286.678 2.401.678 1.574 0 2.479-.563 3.042-1.327.617-.837.958-2.104.958-3.673v-.949zM43 24c0 2.485-1.79 4.5-4 4.5s-4-2.015-4-4.5 1.79-4.5 4-4.5 4 2.015 4 4.5zM4 31a2 2 0 1 0 0-4 2 2 0 0 0 0 4z" fill="#757575" fill-rule="evenodd"/></svg>