<svg viewBox="0 0 48 48" xmlns="http://www.w3.org/2000/svg"><g fill="none" fill-rule="evenodd"><path d="M28.1 40.457c9.057 0 16.4-7.368 16.4-16.457S37.157 7.543 28.1 7.543c-9.057 0-16.4 7.368-16.4 16.457s7.343 16.457 16.4 16.457zm0-8.228c4.529 0 4.529-16.458 0-16.458S19.9 19.455 19.9 24c0 4.545 3.671 8.229 8.2 8.229z" fill="#34A853"/><path d="M19.9 40.457c9.057 0 16.4-7.368 16.4-16.457S28.957 7.543 19.9 7.543C10.843 7.543 3.5 14.91 3.5 24s7.343 16.457 16.4 16.457zm0-8.228c4.529 0 8.2-3.684 8.2-8.229 0-4.545-3.671-8.229-8.2-8.229S11.7 19.455 11.7 24c0 4.545 3.671 8.229 8.2 8.229z" fill="#AEEA00"/><path d="M19.9 24h-8.2c0 9.089 7.343 16.457 16.4 16.457 9.057 0 16.4-7.368 16.4-16.457h-8.2c0 4.545-3.671 8.229-8.2 8.229S19.9 28.545 19.9 24z" fill="#34A853"/></g></svg>