<svg viewBox="0 0 48 48" xmlns="http://www.w3.org/2000/svg"><g fill="none" fill-rule="evenodd"><path d="M28 2H11C9.35 2 8 3.35 8 5v38c0 1.65 1.35 3 3 3h26c1.65 0 3-1.35 3-3V14l-7-5-5-7z" fill="#EA4335"/><path fill-opacity=".1" fill="#000" d="M28.878 13.123L40 24.242V14z"/><path d="M28 2v9a3 3 0 0 0 3 3h9L28 2z" fill="#ECA5A0"/><path d="M26 26.5a5.5 5.5 0 1 0-11 0 5.5 5.5 0 0 0 11 0zM20.5 30c-1.93 0-3.5-1.57-3.5-3.5s1.57-3.5 3.5-3.5 3.5 1.57 3.5 3.5-1.57 3.5-3.5 3.5zm7.073-1A7.514 7.514 0 0 1 24 33.133V38h9v-9h-5.427z" fill="#F1F1F1"/></g></svg>