<svg viewBox="0 0 48 48" xmlns="http://www.w3.org/2000/svg"><g fill="none" fill-rule="evenodd"><path fill="#E0E0E0" d="M27.762 34.225l13.463-17.103-1.15-.965-10.363 13.166 3.748-9.413-1.47-.3-4.942 12.653-11.918-6.515-.935 1.172 8.92 4.802-16.4-3.422-.26 1.477z"/><path d="M33.46 19.913l7.752-2.823C37.46 7.537 26.96 2.595 17.508 6.03 20.457 4.96 22.5 14 22.5 14s9.553 2.047 10.96 5.913z" fill="#FDC626"/><path fill-opacity=".1" fill="#BF360C" d="M25.88 8.575l7.115 11.51 6.577-2.395z"/><path d="M17.495 6.037c-9.45 3.443-14.318 13.98-11.05 23.71l7.752-2.822C12.902 23.367 19 16 19 16s-4.61-8.831-1.505-9.963z" fill="#3F51B5"/><path d="M33.46 19.913c-3.51-9.646-11.03-15.668-15.953-13.88l-.005.002H17.5c-.003 0-.003 0-.005.002-4.92 1.793-6.81 11.243-3.298 20.888l9.633-3.505 9.63-3.508z" fill="#03A9F4"/><path fill="#EA4335" d="M24.003 35.595l7.517-2.736 2.737 7.517-7.518 2.737z"/></g></svg>