<svg viewBox="0 0 48 48" xmlns="http://www.w3.org/2000/svg"><g fill="none" fill-rule="evenodd"><ellipse fill="#4285F4" cx="24" cy="36.571" rx="22" ry="9.429"/><path d="M19.947 11.933c0 3.74 2.443 6.773 6.17 6.773 3.746 0 6.569-3.032 6.569-6.773l-.055-.654c3.656 4.358 5.845 10.006 5.845 16.143 0 8.026-6.478 14.527-14.476 14.527-7.998 0-14.476-6.5-14.476-14.527 0-9.787 4.686-18.522 11.762-24.205 0 0-1.34 4.812-1.34 8.716z" fill="#EA4335"/><path d="M32.161 30.8c0-2.942-1.9-5.012-5.085-5.666-3.203-.653-6.514-2.197-8.36-4.685a25.42 25.42 0 0 0-1.067 7.336c0 4.812 3.89 8.717 8.685 8.717 3.221 0 5.827-2.543 5.827-5.702z" fill="#FBBC05"/></g></svg>