<svg viewBox="0 0 48 48" xmlns="http://www.w3.org/2000/svg"><g fill="none" fill-rule="evenodd"><path d="M20.278 8.622c-4.41-4.41-11.56-4.412-15.969-.003-4.41 4.41-4.407 11.558.003 15.968l18.62 18.62c.295.295.682.443 1.068.444l5-26.311-8.722-8.718z" fill="#EA4335"/><path d="M25.068 43.207l18.62-18.62c4.41-4.41 4.411-11.56.003-15.968-4.41-4.41-11.56-4.407-15.97.005L24 43.65a1.51 1.51 0 0 0 1.068-.444z" fill="#880E4F"/><path d="M37.075 7.34L24 43.65a1.51 1.51 0 0 0 1.068-.443l18.62-18.62a11.254 11.254 0 0 0 3.29-7.345L37.075 7.34z" fill-opacity=".1" fill="#000"/><path d="M24.769 43.207l13.406-18.62c3.176-4.41 3.177-11.56.002-15.968-3.175-4.41-8.322-4.407-11.498.005L24 43.65c.278-.001.556-.149.769-.444z" fill="#C51162"/><path d="M31.445 6.27L24 43.65c.278 0 .556-.148.769-.443l13.406-18.62c1.821-2.529 2.598-5.958 2.331-9.256l-9.06-9.06z" fill-opacity=".1" fill="#000"/><path d="M24.49 43.207l8.53-18.62c2.021-4.41 2.022-11.56.002-15.968-2.02-4.41-5.296-4.407-7.317.005L24 12.344v31.307c.177-.001.354-.149.49-.444z" fill="#FB8C00"/></g></svg>