<svg viewBox="0 0 48 48" xmlns="http://www.w3.org/2000/svg"><g fill="none" fill-rule="evenodd"><path d="M24 14c8.837 0 16 7.164 16 16 0 2.878-.76 5.578-2.09 7.91C42.743 35.158 46 29.96 46 24c0-8.837-7.163-16-16-16-8.836 0-16 7.163-16 16 0-5.523 4.477-10 10-10z" fill="#FFC107"/><path d="M34 24v.001C34 32.837 26.836 40 18 40c-2.878 0-5.578-.76-7.91-2.09C12.842 42.743 18.04 46 24 46c8.837 0 16-7.163 16-16 0-8.836-7.163-16-16-16 5.523 0 10 4.477 10 10z" fill="#3367D6"/><path d="M45.305 28.678l-9.991-9.992A15.95 15.95 0 0 1 40 30c0 2.878-.76 5.578-2.09 7.91a16.042 16.042 0 0 0 7.395-9.232z" fill-opacity=".1" fill="#BF360C"/><path d="M24 34c-8.837 0-16-7.164-16-16 0-2.878.76-5.578 2.09-7.91C5.257 12.842 2 18.04 2 24c0 8.837 7.163 16 16 16 8.836 0 16-7.163 16-16 0 5.523-4.477 10-10 10z" fill="#4FC3F7"/><path d="M30 8c2.878 0 5.578.76 7.91 2.09C35.158 5.257 29.96 2 24 2 15.163 2 8 9.163 8 18c0 8.836 7.163 16 16 16-5.523 0-10-4.477-10-10 0-8.837 7.163-16 16-16z" fill="#4285F4"/></g></svg>