<svg viewBox="0 0 48 48" xmlns="http://www.w3.org/2000/svg"><g fill="none" fill-rule="evenodd"><path d="M2 9v29.999A3 3 0 0 0 5.007 42h37.986A2.998 2.998 0 0 0 46 38.999V9H32V6l-3-3H19l-3 3v3L2 9.24V9zm17-2.001c0-.552.456-.999.995-.999h8.01c.55 0 .995.443.995.999V9H19V6.999z" fill="#EEE"/><path d="M15 15.744c0-.41.33-.744.76-.744h18.48c.42 0 .76.337.76.744V29.21H15V15.744z" fill="#4285F4"/><path d="M25.25 17.813a.562.562 0 1 0 0-1.125.562.562 0 0 0 0 1.125zM21 15h8v1h-8v-1z" fill="#3B4AAF"/><path fill="#F5F5F5" d="M17 18h16v24H17z"/><path d="M15.5 22.5c-4.142 0-7.5.84-7.5 1.875L8.003 42H10l5.5-4 5.5 4h2V24.376c0-1.037-3.358-1.876-7.5-1.876z" fill="#FF5722"/><path fill="#F5F5F5" d="M10 26h11v16H10z"/><ellipse fill="#D84315" cx="15.683" cy="24.375" rx=".549" ry=".563"/><path d="M31.921 28.988A1.095 1.095 0 0 1 33.009 28h1.982c.557 0 1.053.444 1.108.988L36.5 33h-4.9l.321-4.012zM36.2 42l.3-3h-4.9l.24 3h4.36z" fill="#FBBC05"/><path d="M38 35h1v2h-1v.247A2.753 2.753 0 0 1 35.247 40h-2.494A2.753 2.753 0 0 1 30 37.247v-2.494A2.753 2.753 0 0 1 32.753 32h2.494A2.753 2.753 0 0 1 38 34.753V35z" fill="#F29400"/><rect fill="#F5F5F5" x="31" y="33" width="6" height="6" rx="1.875"/></g></svg>