<svg viewBox="0 0 48 48" xmlns="http://www.w3.org/2000/svg"><g fill="none" fill-rule="evenodd"><path d="M5 17l19-3 19 3v22.992A3.01 3.01 0 0 1 40.002 43H7.998A3 3 0 0 1 5 39.992V17z" fill="#EEE"/><path fill="#EA4335" d="M5 5h38v12H5z"/><path d="M36.464 17l-4.232-4.232 3.536-3.536L43 16.464V17h-6.536zm-20 0l-4.232-4.232 3.536-3.536L23.536 17h-7.072z" fill-opacity=".1" fill="#000"/><path d="M14 13.5a2.5 2.5 0 1 0 0-5 2.5 2.5 0 0 0 0 5zm20 0a2.5 2.5 0 1 0 0-5 2.5 2.5 0 0 0 0 5z" fill="#F5F5F5"/><path fill="#EA4335" d="M25 29h10v6H25z"/></g></svg>