<svg viewBox="0 0 48 48" xmlns="http://www.w3.org/2000/svg"><g fill="none" fill-rule="evenodd"><path d="M24 46c12.15 0 22-9.85 22-22S36.15 2 24 2 2 11.85 2 24s9.85 22 22 22z" fill="#4A88F0"/><path d="M30.506 22A3.488 3.488 0 0 0 34 18.5c0-1.937-1.554-3.5-3.494-3.5A3.498 3.498 0 0 0 27 18.5c0 1.937 1.566 3.5 3.506 3.5zm-.006 2.563c-2.83 0-8.5 1.42-8.5 4.25V32h17v-3.188c0-2.829-5.67-4.25-8.5-4.25z" fill-opacity=".5" fill="#F5F5F5"/><path d="M43.521 34.154C39.852 41.194 32.487 46 24 46c-.343 0-.684-.008-1.023-.024L9 32l10.638-9-3.312-3.313 6.364-6.364 20.83 20.831z" fill-opacity=".1" fill="#000"/><path d="M19.5 23c-3.494 0-10.498 1.755-10.498 5.25V32H30v-3.75C30 24.755 22.995 23 19.5 23zm.01-2a4.485 4.485 0 0 0 4.492-4.5c0-2.49-1.998-4.5-4.493-4.5a4.498 4.498 0 0 0-4.507 4.5c0 2.49 2.013 4.5 4.507 4.5z" fill="#F5F5F5"/></g></svg>