<svg viewBox="0 0 48 48" xmlns="http://www.w3.org/2000/svg"><g fill="none" fill-rule="evenodd"><circle fill="#34A853" cx="24" cy="24" r="22"/><path d="M7 29.534V32h13v-2.466c0-2.088-3.422-3.675-6.5-3.675S7 27.446 7 29.534zm6.5-5.565c1.537 0 2.786-1.27 2.786-2.835 0-1.563-1.25-2.834-2.786-2.834-1.537 0-2.786 1.27-2.786 2.834s1.25 2.835 2.786 2.835zM28 29.534V32h13v-2.466c0-2.088-3.422-3.675-6.5-3.675S28 27.446 28 29.534zm6.5-5.565c1.537 0 2.786-1.27 2.786-2.835 0-1.563-1.25-2.834-2.786-2.834-1.537 0-2.786 1.27-2.786 2.834s1.25 2.835 2.786 2.835z" fill-opacity=".5" fill="#FFF"/><path d="M27.69 45.692c8.06-1.361 14.628-7.104 17.173-14.693L27.182 13.318l-6.364 6.364 6.494 6.494L14 32.001l13.69 13.69z" fill-opacity=".1" fill="#000"/><path d="M24 21c2.484 0 4.5-2.016 4.5-4.5S26.484 12 24 12a4.502 4.502 0 0 0-4.5 4.5c0 2.484 2.016 4.5 4.5 4.5zm-10 8.789V32h20v-2.212c0-3.217-5.264-5.656-10-5.656s-10 2.44-10 5.656z" fill="#F5F5F5"/></g></svg>