<svg viewBox="0 0 48 48" xmlns="http://www.w3.org/2000/svg"><path d="M14.915 38.377l3.773-3.773a.734.734 0 0 0-.002-1.03l-8.569-8.569a.736.736 0 0 1 0-1.032l8.569-8.568a.755.755 0 0 0 .002-1.03l-3.773-3.773c-.284-.284-.764-.264-1.06.033L.546 23.942a.778.778 0 0 0 0 1.094l13.307 13.308c.302.302.805.289 1.061.033zm32.543-13.34a.778.778 0 0 0 0-1.095L34.15 10.635a.778.778 0 0 0-1.094 0L19.75 23.942c-.302.302-.29.805-.033 1.061l3.773 3.773a.734.734 0 0 0 1.03-.002l8.568-8.569c.285-.285.774-.258 1.03-.002l3.773 3.773a.734.734 0 0 1-.003 1.03l-8.568 8.568c-.285.285-.258.774-.003 1.03l3.773 3.773c.284.284.764.264 1.061-.033l13.308-13.308z" fill="#EA4335" fill-rule="evenodd"/></svg>