<svg viewBox="0 0 48 48" xmlns="http://www.w3.org/2000/svg"><g fill="none" fill-rule="evenodd"><path d="M5.402 35.757L2 46l10.358-3.33A21.897 21.897 0 0 0 24 46c12.15 0 22-9.85 22-22S36.15 2 24 2 2 11.85 2 24c0 4.324 1.247 8.356 3.402 11.757z" fill="#4285F4"/><path d="M45.773 27.173L30.3 11.7 15 18l6 6v6l4.5 4.5-3.6 3.6 7.285 7.285c8.645-2.088 15.298-9.283 16.588-18.212z" fill-opacity=".1" fill="#000"/><path d="M26.121 38.121a3 3 0 1 0-4.242-4.242 2.987 2.987 0 0 0 .01 4.232 2.987 2.987 0 0 0 4.232.01zM21 18h-6v.364a9 9 0 0 1 8.993-9.348c4.97 0 8.955 4.03 8.955 9A8.985 8.985 0 0 1 27 26.5V30h-6v-9h3a3 3 0 1 0-3-3z" fill="#F5F5F5"/></g></svg>