<svg viewBox="0 0 48 48" xmlns="http://www.w3.org/2000/svg"><g fill="none" fill-rule="evenodd"><path d="M39.556 39.556c-8.591 8.592-22.52 8.592-31.112 0l9.27-23.413 21.842-7.7c8.592 8.592 8.592 22.522 0 31.113z" fill="#8BC34A"/><path d="M8.444 39.556c-8.592-8.591-8.592-22.52 0-31.112 8.591-8.592 22.52-8.592 31.112 0L8.444 39.556z" fill="#7CB342"/><path d="M24 46L12 34l2-20 6 6 1.121-1.121 10 10 4.293-10.293 10.088 10.088C43.36 38.579 34.546 46 24 46z" fill-opacity=".1" fill="#000"/><path d="M19 24a3 3 0 1 0 0-6 3 3 0 0 0 0 6zm-5 6v4h-2V14h2v12h10v-8h9.991c1.11 0 2.009.895 2.009 1.994V34h-2v-4H14z" fill="#F5F5F5"/></g></svg>