<svg viewBox="0 0 48 48" xmlns="http://www.w3.org/2000/svg"><g fill="none" fill-rule="evenodd"><path d="M5 6.5A1.5 1.5 0 0 1 6.5 5h5A1.5 1.5 0 0 1 13 6.5V11H5V6.5z" fill="#9E9E9E"/><path d="M2 11a3 3 0 0 1 3-3h38a3 3 0 0 1 3 3v26a3 3 0 0 1-3 3H5a3 3 0 0 1-3-3V11z" fill="#E0E0E0"/><path d="M14.807 33.193l18.385-18.385L46 27.616V37a3 3 0 0 1-3 3H21.615l-6.808-6.807z" fill-opacity=".1" fill="#000"/><path d="M37 24c0 7.18-5.82 13-13 13s-13-5.82-13-13 5.82-13 13-13 13 5.82 13 13z" fill="#F5F5F5"/><path d="M34 24c0 5.523-4.477 10-10 10s-10-4.477-10-10 4.477-10 10-10 10 4.477 10 10z" fill="#616161"/><path d="M43 13a2 2 0 1 1-4 0 2 2 0 0 1 4 0z" fill="#EA4335"/></g></svg>