<svg viewBox="0 0 48 48" xmlns="http://www.w3.org/2000/svg"><g fill="none" fill-rule="evenodd"><path d="M2 19.005c0-.831.544-1.9 1.214-2.388L22.786 2.383c.67-.488 1.758-.487 2.428 0l19.572 14.234c.67.488 1.214 1.551 1.214 2.388V27H2v-7.995z" fill="#335CCC"/><path fill="#3E6EDC" d="M2 19h44L24 39z"/><path d="M2 19v21.009A2.994 2.994 0 0 0 4.998 43H43L2 19z" fill="#25B8F9"/><path d="M24 24l8-11 4.134-2.675 8.652 6.292c.67.488 1.214 1.551 1.214 2.388L35.857 35.857 24 24z" fill-opacity=".1" fill="#000"/><path d="M16 16l2.5-2.5 5.5 5.25L38 5l2.5 2.5L24 24l-8-8z" fill="#EEE"/><path d="M46 19v21.009A2.994 2.994 0 0 1 43.002 43H5l41-24z" fill="#80D4FC"/></g></svg>