<svg viewBox="0 0 48 48" xmlns="http://www.w3.org/2000/svg"><g fill="none" fill-rule="evenodd"><path d="M2 21a3 3 0 0 1 3-3h38a3 3 0 0 1 3 3v22a3 3 0 0 1-3 3H5a3 3 0 0 1-3-3V21z" fill="#616161"/><path d="M12 38.5a.5.5 0 0 1 .5-.5h23a.5.5 0 0 1 .5.5v3a.5.5 0 0 1-.5.5h-23a.5.5 0 0 1-.5-.5v-3zm-4-7a.5.5 0 0 1 .5-.5h3a.5.5 0 0 1 .5.5v3a.5.5 0 0 1-.5.5h-3a.5.5 0 0 1-.5-.5v-3zm7 0a.5.5 0 0 1 .5-.5h3a.5.5 0 0 1 .5.5v3a.5.5 0 0 1-.5.5h-3a.5.5 0 0 1-.5-.5v-3zm7 0a.5.5 0 0 1 .5-.5h3a.5.5 0 0 1 .5.5v3a.5.5 0 0 1-.5.5h-3a.5.5 0 0 1-.5-.5v-3zm7 0a.5.5 0 0 1 .5-.5h3a.5.5 0 0 1 .5.5v3a.5.5 0 0 1-.5.5h-3a.5.5 0 0 1-.5-.5v-3zm7 0a.5.5 0 0 1 .5-.5h3a.5.5 0 0 1 .5.5v3a.5.5 0 0 1-.5.5h-3a.5.5 0 0 1-.5-.5v-3zm-28-7a.5.5 0 0 1 .5-.5h3a.5.5 0 0 1 .5.5v3a.5.5 0 0 1-.5.5h-3a.5.5 0 0 1-.5-.5v-3zm7 0a.5.5 0 0 1 .5-.5h3a.5.5 0 0 1 .5.5v3a.5.5 0 0 1-.5.5h-3a.5.5 0 0 1-.5-.5v-3zm7 0a.5.5 0 0 1 .5-.5h3a.5.5 0 0 1 .5.5v3a.5.5 0 0 1-.5.5h-3a.5.5 0 0 1-.5-.5v-3zm7 0a.5.5 0 0 1 .5-.5h3a.5.5 0 0 1 .5.5v3a.5.5 0 0 1-.5.5h-3a.5.5 0 0 1-.5-.5v-3zm7 0a.5.5 0 0 1 .5-.5h3a.5.5 0 0 1 .5.5v3a.5.5 0 0 1-.5.5h-3a.5.5 0 0 1-.5-.5v-3z" fill="#BDBDBD"/><path d="M40 46L24 33l13-15h6a3 3 0 0 1 3 3v22a3 3 0 0 1-3 3h-3z" fill-opacity=".1" fill="#000"/><path d="M11 5a3 3 0 0 1 3-3h20a3 3 0 0 1 3 3v16.067a3 3 0 0 1-1.115 2.334L24 33l-11.885-9.6A3 3 0 0 1 11 21.068V5z" fill="#EEE"/><path d="M18.6 14.8c0 .605.1 1.187.283 1.73l-2.94 2.286A8.963 8.963 0 0 1 15 14.8c0-1.443.34-2.807.944-4.016l2.939 2.286a5.394 5.394 0 0 0-.283 1.73z" fill="#FBBC05"/><path d="M29.874 21.619l-2.938-2.286a5.402 5.402 0 0 1-8.052-2.803l-2.94 2.286A9 9 0 0 0 24 23.8a8.965 8.965 0 0 0 5.874-2.181z" fill="#34A853"/><path d="M15.944 10.784A9 9 0 0 1 24 5.8c2.256 0 4.319.83 5.898 2.202l-2.556 2.556a5.402 5.402 0 0 0-8.459 2.512l-2.94-2.286z" fill="#EA4335"/><path d="M29.093 16.6H24V13h8.82c.118.582.18 1.184.18 1.8a8.98 8.98 0 0 1-3.126 6.819l-2.938-2.286a5.416 5.416 0 0 0 2.157-2.733z" fill="#4285F4"/></g></svg>