<svg viewBox="0 0 48 48" xmlns="http://www.w3.org/2000/svg"><g fill="none" fill-rule="evenodd"><path d="M7.998 5H43L5 40.002V7.998A3.004 3.004 0 0 1 7.998 5z" fill="#34A853"/><path fill="#E0E0E0" d="M43 40L24 24 43 7z"/><path fill-opacity=".1" fill="#000" d="M36.6 34.274L43 40V19h-6.4z"/><path fill="#4285F4" d="M8 43l15-19 17 19z"/><path d="M23 26l3-3 17 17c0 1.658-1.352 3-2.998 3L23 26z" fill="#F5F5F5"/><path d="M32 19L7.998 43A3.004 3.004 0 0 1 5 40.002L29 16l3 3z" fill="#FFC62F"/><path d="M37 1c-5.525 0-10 4.475-10 10 0 7.535 8.415 11.46 9.41 22.215a.592.592 0 1 0 1.18 0C38.585 22.46 47 18.535 47 11c0-5.525-4.475-10-10-10z" fill="#EA4335"/><circle fill="#972722" cx="37" cy="11" r="3.5"/><path d="M13 16a3 3 0 1 1 1.562-5.562L16 9a5 5 0 1 0 1.9 3H13v2h2.83A3.001 3.001 0 0 1 13 16z" fill="#F5F5F5"/></g></svg>