<svg viewBox="0 0 48 48" xmlns="http://www.w3.org/2000/svg"><g fill="none" fill-rule="evenodd"><path fill="#424242" d="M46 16H2v4h44z"/><path fill="#BDBDBD" d="M46 19H2v3h3v18h4V22h11v18h4V22h11v18h4V22h7z"/><path d="M39 22h-4v3l4 4v-7zm-15 0h-4v3l4 4v-7zM9 22H5v3l4 4v-7z" fill-opacity=".1" fill="#000"/><path d="M39 8H5a3 3 0 0 0-3 3v6h44v-3l-7-6z" fill="#EA4335"/><path fill-opacity=".2" fill="#000" d="M23 8h1v11h-1z"/><path d="M39 8h2a5 5 0 0 1 5 5v1h-7V8zm-12 3h8v3h-8v-3zm-7 0H5v3h15v-3z" fill="#E0E0E0"/></g></svg>