<svg viewBox="0 0 48 48" xmlns="http://www.w3.org/2000/svg"><g fill="none" fill-rule="evenodd"><rect fill="#4285F4" x="5" y="5" width="38" height="38" rx="3.167"/><path d="M39.827 43H21.72l-8.36-8.36 21.28-21.28L43 21.72v18.108A3.174 3.174 0 0 1 39.827 43z" fill-opacity=".1" fill="#000"/><circle fill="#F5F5F5" cx="24" cy="24" r="15.042"/><path d="M8.75 10.5a1.75 1.75 0 1 0 0-3.5 1.75 1.75 0 0 0 0 3.5zm0 30.5a1.75 1.75 0 1 0 0-3.5 1.75 1.75 0 0 0 0 3.5zm30.5-30.5a1.75 1.75 0 1 0 0-3.5 1.75 1.75 0 0 0 0 3.5zm0 30.5a1.75 1.75 0 1 0 0-3.5 1.75 1.75 0 0 0 0 3.5z" fill="#A1C2FA"/><path d="M24 28.5a4.5 4.5 0 1 1 2.343-8.343L28.5 18a7.5 7.5 0 1 0 2.85 4.5H24v3h4.244a4.502 4.502 0 0 1-4.244 3z" fill="#4285F4"/></g></svg>