<svg viewBox="0 0 48 48" xmlns="http://www.w3.org/2000/svg"><g fill="none" fill-rule="evenodd"><path d="M28 2H11C9.35 2 8 3.35 8 5v38c0 1.65 1.35 3 3 3h26c1.65 0 3-1.35 3-3V14l-7-5-5-7z" fill="#EA4335"/><path fill-opacity=".1" fill="#000" d="M28.878 13.123L40 24.242V14z"/><path d="M28 2v9a3 3 0 0 0 3 3h9L28 2z" fill="#ECA5A0"/><path d="M24 40a.413.413 0 0 1-.413-.373C22.783 31.277 17 28.333 17 23a7 7 0 0 1 7-7 7 7 0 0 1 7 7c0 5.333-5.783 8.277-6.587 16.627A.413.413 0 0 1 24 40zm0-14.667a2.333 2.333 0 1 0 0-4.666 2.333 2.333 0 0 0 0 4.666z" fill="#F5F5F5"/></g></svg>