<svg viewBox="0 0 48 48" xmlns="http://www.w3.org/2000/svg"><g fill="none" fill-rule="evenodd"><path fill="#EEE" d="M36 43l3-7 7-3V5l-3.143 3-3.143-3-3.143 3-3.142-3-3.143 3-3.143-3L24 8l-4 18 4 17z"/><path d="M24 43H5.002A2.996 2.996 0 0 1 2 39.998V5l3.143 3 3.143-3 3.143 3 3.142-3 3.143 3 3.143-3L24 8v35z" fill="#E0E0E0"/><path fill="#3F51B5" d="M5 21h19v19H5z"/><path d="M14.5 34a3.5 3.5 0 1 1 1.924-6.424l1.433-1.433a5.5 5.5 0 1 0 2.052 3.357H14.5v2h3.355A3.502 3.502 0 0 1 14.5 34z" fill="#F5F5F5"/><path fill="#4285F4" d="M5 13h19l2 3-2 2H5z"/><path fill="#03A9F4" d="M24 13h19v5H24z"/><path d="M27 21h16v2H27v-2zm0 4h16v2H27v-2zm0 4h16v2H27v-2zm0 4h12v2H27v-2zm0 4h11v2H27v-2z" fill="#BDBDBD"/><path d="M36 43v-7c0-1.657 1.349-3 3-3h7L36 43z" fill="#9E9E9E"/></g></svg>