<svg viewBox="0 0 48 48" xmlns="http://www.w3.org/2000/svg"><g fill="none" fill-rule="evenodd"><circle fill="#4285F4" cx="24" cy="24" r="22"/><path d="M15.613 21.154c-.3.9-.47 1.86-.47 2.85s.17 1.95.47 2.85h-.001c1.181 3.552 4.492 6.193 8.392 6.193 2.016 0 3.733-.529 5.072-1.425v-.017c1.619-1.08 2.68-2.7 3.01-4.61h-8.082v-5.751h14.123c.18.99.28 2.02.28 3.1 0 4.571-1.641 8.421-4.48 11.022h-.005l.014.01c-2.491 2.291-5.881 3.631-9.932 3.631-5.86 0-10.922-3.37-13.393-8.27a14.942 14.942 0 0 1-1.61-6.732c0-2.42.59-4.702 1.61-6.732 2.471-4.9 7.532-8.272 13.393-8.272 4.051 0 7.44 1.491 10.041 3.912l-4.3 4.3c-1.56-1.48-3.54-2.24-5.74-2.24-3.901 0-7.212 2.63-8.392 6.181z" fill="#FAFAFA"/></g></svg>