<svg viewBox="0 0 48 48" xmlns="http://www.w3.org/2000/svg"><g fill="none" fill-rule="evenodd"><path d="M0 0h48v48H0z"/><path d="M46 11v29a3 3 0 0 1-3 3H5a3 3 0 0 1-3-3V11h44z" fill="#E0E0E0"/><path d="M5 5h38a3 3 0 0 1 3 3v3H2V8a3 3 0 0 1 3-3z" fill="#BDBDBD"/><path d="M23.983 20c-8.84 0-15.976 7.163-15.976 16 0 .335-.02.75 0 1h6.97c-.037-.25 0-.663 0-1 0-4.97 4.033-9 9.006-9 1.73 0 3.347.49 4.72 1.335l5.024-5.025A15.935 15.935 0 0 0 23.983 20z" fill="#4285F4"/><path d="M33.727 23.31l-5.024 5.025A8.995 8.995 0 0 1 32.986 36c0 .337.038.75 0 1h7.003c.02-.25 0-.665 0-1 0-5.17-2.455-9.765-6.263-12.69z" fill="#EA4335"/><path d="M6 9a1 1 0 1 0 0-2 1 1 0 0 0 0 2zm4 0a1 1 0 1 0 0-2 1 1 0 0 0 0 2z" fill="#EEE"/><path d="M33.78 23.918a.501.501 0 0 0-.405-.793.491.491 0 0 0-.307.11l-10.903 8.393a3 3 0 1 0 4.395 3.927l.003.002 7.217-11.64z" fill="#9E9E9E"/><path d="M33.773 23.325a.489.489 0 0 1 .007.593l-7.218 11.64-.002-.003a2.997 2.997 0 0 1-4.508.727L28.77 43H43a3 3 0 0 0 3-3v-4.447L33.773 23.325z" fill-opacity=".1" fill="#000"/></g></svg>