<svg viewBox="0 0 48 48" xmlns="http://www.w3.org/2000/svg"><g fill="none" fill-rule="evenodd"><path fill="#FF9800" d="M26 13H13l11 12z"/><path fill="#AD1457" d="M35 26V13L23 24z"/><path fill="#3367D6" d="M35 35H22l2-12z"/><path fill="#34A853" d="M13 22v13l12-11z"/><path fill="#EA4335" d="M35 13L24 2v22z"/><path fill="#8BC34A" d="M13 35l11 11V28.125l-.031-4.094z"/><path fill="#FFBC00" d="M2 24l11-11 11 11z"/><path fill="#4285F4" d="M46 24L35 35 24 24z"/><path fill="#F5F5F5" d="M23 23l1-3 1 3 3 1-3 1-1 3-1-3-3-1z"/></g></svg>