<svg viewBox="0 0 48 48" xmlns="http://www.w3.org/2000/svg"><g fill="none" fill-rule="evenodd"><path d="M2 9v29.999A3 3 0 0 0 5.007 42h37.986A2.998 2.998 0 0 0 46 38.999V9H32V6l-3-3H19l-3 3v3L2 9.24V9zm17-2.001c0-.552.456-.999.995-.999h8.01c.55 0 .995.443.995.999V9H19V6.999z" fill="#EEE"/><path d="M27.5 25.5L14.66 36.438a.99.99 0 0 1-.66-.934V15.497a.99.99 0 0 1 .66-.934L27.5 25.5z" fill="#0DF"/><path d="M25.5 30.959V20.04l8.477 4.587a.99.99 0 0 1 0 1.744L25.5 30.96z" fill="#FD0"/><path d="M29.042 29.042L25.5 25.5 14.59 36.41c.271.122.598.128.896-.033l13.556-7.335z" fill="#F1304C"/><path d="M29.042 21.958L25.5 25.5 14.59 14.59c.271-.122.598-.128.896.033l13.556 7.335z" fill="#00F076"/></g></svg>