<svg viewBox="0 0 48 48" xmlns="http://www.w3.org/2000/svg"><g fill="none" fill-rule="evenodd"><path d="M2 9v29.999A3 3 0 0 0 5.007 42h37.986A2.998 2.998 0 0 0 46 38.999V9H32V6l-3-3H19l-3 3v3L2 9.24V9zm17-2.001c0-.552.456-.999.995-.999h8.01c.55 0 .995.443.995.999V9H19V6.999z" fill="#EEE"/><path d="M18 14h7l2 3 2-3h2.5c.828 0 1.5.664 1.5 1.51v19.98c0 .834-.664 1.51-1.493 1.51H18l-1-12 1-11z" fill="#03A9F4"/><path fill="#0277BD" d="M18 14h-3v23h3z"/><path fill-opacity=".1" fill="#000" d="M29 14l-4 9 8 8V18z"/><path fill="#F5F5F5" d="M25 14v9l2-1 2 1v-9z"/></g></svg>