<svg viewBox="0 0 48 48" xmlns="http://www.w3.org/2000/svg"><g fill="none" fill-rule="evenodd"><path d="M2 10.996A2.998 2.998 0 0 1 5.007 8h37.986A2.997 2.997 0 0 1 46 10.996v26.008A2.998 2.998 0 0 1 42.993 40H5.007A2.997 2.997 0 0 1 2 37.004V10.996zM6 12h3v3H6v-3zm0 7h3v3H6v-3zm33-7h3v3h-3v-3zm0 7h3v3h-3v-3zm0 7h3v3h-3v-3zm0 7h3v3h-3v-3zM6 33h3v3H6v-3zm0-7h3v3H6v-3z" fill="#EA4335"/><path d="M6 12h3v3H6v-3zm0 7h3v3H6v-3zm33-7h3v3h-3v-3zm0 7h3v3h-3v-3zM2 11.01C2 9.346 3.34 8 5.007 8h37.986A3.001 3.001 0 0 1 46 11.01V24H2V11.01z" fill-opacity=".1" fill="#000"/></g></svg>