<svg viewBox="0 0 48 48" xmlns="http://www.w3.org/2000/svg"><g fill="none" fill-rule="evenodd"><path d="M43 40c0 1.657-1.352 3-2.998 3H7.998A3.002 3.002 0 0 1 5 40V13l19-5 19 5v27z" fill="#7DA1B3"/><path fill="#607D8B" d="M5 5h38v8H5z"/><path d="M37 22.273a2.37 2.37 0 0 1-2.364 2.363 2.01 2.01 0 0 1-.602-.082l-4.208 4.195c.06.19.083.402.083.615a2.37 2.37 0 0 1-2.364 2.363 2.37 2.37 0 0 1-2.363-2.363c0-.213.023-.426.083-.615l-3.014-3.014c-.19.06-.402.083-.615.083-.212 0-.425-.023-.614-.083l-5.377 5.39c.059.189.082.39.082.602a2.37 2.37 0 0 1-2.363 2.364A2.37 2.37 0 0 1 11 31.727a2.37 2.37 0 0 1 2.364-2.363c.212 0 .413.023.602.082l5.39-5.377a2.088 2.088 0 0 1-.083-.614 2.37 2.37 0 0 1 2.363-2.364A2.37 2.37 0 0 1 24 23.455c0 .212-.024.425-.083.614l3.014 3.014c.189-.06.402-.083.614-.083.213 0 .426.024.615.083l4.195-4.208a2.01 2.01 0 0 1-.082-.602 2.37 2.37 0 0 1 2.363-2.364A2.37 2.37 0 0 1 37 22.273z" fill="#F5F5F5"/></g></svg>