<svg viewBox="0 0 48 48" xmlns="http://www.w3.org/2000/svg"><g fill="none" fill-rule="evenodd"><path d="M5 24.148v15.844A3.01 3.01 0 0 0 7.996 43h32.006A2.999 2.999 0 0 0 43 39.992V24.148c0-6.366-3.178-11.995-8.046-15.41L37.7 4.38a1.17 1.17 0 0 0-.38-1.622 1.2 1.2 0 0 0-1.634.373L32.934 7.5A19.034 19.034 0 0 0 24 5.29c-3.23 0-6.272.8-8.935 2.211L12.313 3.13a1.2 1.2 0 0 0-1.635-.373 1.17 1.17 0 0 0-.38 1.622l2.746 4.36c-4.867 3.414-8.045 9.042-8.045 15.409z" fill="#8BC34A"/><path d="M43 24H5l19 19h16c1.656 0 3-1.336 3-3V24z" fill-opacity=".05" fill="#000"/><path d="M31.916 18.648a2.366 2.366 0 0 0 2.375-2.357 2.366 2.366 0 0 0-2.375-2.357 2.366 2.366 0 0 0-2.375 2.357 2.366 2.366 0 0 0 2.375 2.357zm-15.833 0a2.366 2.366 0 0 0 2.375-2.357 2.366 2.366 0 0 0-2.375-2.357 2.366 2.366 0 0 0-2.375 2.357 2.366 2.366 0 0 0 2.375 2.357z" fill="#F5F5F5"/></g></svg>