<svg viewBox="0 0 48 48" xmlns="http://www.w3.org/2000/svg"><g fill="none" fill-rule="evenodd"><circle fill="#4285F4" cx="24" cy="24" r="22"/><path d="M28.188 45.602c8.791-1.694 15.72-8.623 17.414-17.414L32.707 15.293 17 17l-1.707 5.707L18 25.414l-2.707 7.293 12.895 12.895z" fill-opacity=".1" fill="#000"/><path d="M32 25H16c-.55 0-1 .45-1 1v6c0 .55.45 1 1 1h16c.55 0 1-.45 1-1v-6c0-.55-.45-1-1-1zm-13 6c-1.1 0-2-.9-2-2s.9-2 2-2 2 .9 2 2-.9 2-2 2zm13-16H16c-.55 0-1 .45-1 1v6c0 .55.45 1 1 1h16c.55 0 1-.45 1-1v-6c0-.55-.45-1-1-1zm-13 6c-1.1 0-2-.9-2-2s.9-2 2-2 2 .9 2 2-.9 2-2 2z" fill="#F5F5F5"/></g></svg>