<svg viewBox="0 0 48 48" xmlns="http://www.w3.org/2000/svg"><g fill="none" fill-rule="evenodd"><path d="M32 5h-5.625L24 7.375 21.625 5H7.991A2.996 2.996 0 0 0 5 7.991v13.634L7.375 24 5 26.375v13.634A2.996 2.996 0 0 0 7.991 43h13.634L24 40.625 26.375 43h13.634A2.996 2.996 0 0 0 43 40.009V26.375L40.625 24 43 21.625V16l-8-3-3-8z" fill="#424242"/><path fill-opacity=".1" fill="#000" d="M43 21.625V16l-10.121-.879 8.312 8.313z"/><path d="M43 16h-7.994A3.008 3.008 0 0 1 32 12.994V5l11 11z" fill="#9E9E9E"/><path fill="#FBBC05" d="M24.002 12.69l2.77 8.312h8.315l-6.73 5.146 2.629 8.313-6.984-5.03-6.985 5.03 2.63-8.313-6.73-5.146h8.313z"/></g></svg>