<svg viewBox="0 0 48 48" xmlns="http://www.w3.org/2000/svg"><g fill="none" fill-rule="evenodd"><path d="M45.123 18.262L37.945 25.5l-9.297 9.375-7.175 7.24a2.982 2.982 0 0 1-4.24 0l-7.178-7.24-7.178-7.238a3.042 3.042 0 0 1 0-4.274l5.058-5.1a2.977 2.977 0 0 1 4.24 0l7.177 7.237 9.296-9.375 7.177-7.24a2.982 2.982 0 0 1 4.24 0l5.058 5.1a3.045 3.045 0 0 1 0 4.277z" fill="#009688"/><path d="M21.515 42.068a2.997 2.997 0 0 1-4.255.005L2.88 27.636a3.042 3.042 0 0 1 0-4.274l5.058-5.1a2.982 2.982 0 0 1 4.24 0l16.51 16.572-7.173 7.233z" fill-opacity=".1" fill="#000"/><path d="M10.055 34.875l-7.178-7.238a3.042 3.042 0 0 1 0-4.274l5.058-5.1a2.982 2.982 0 0 1 4.24 0l7.177 7.237-9.297 9.375z" fill="#00BFA5"/></g></svg>