<svg viewBox="0 0 48 48" xmlns="http://www.w3.org/2000/svg"><g fill="none" fill-rule="evenodd"><path d="M21.81 45.088a3.102 3.102 0 0 0 4.38 0L45.088 26.19a3.102 3.102 0 0 0 0-4.38L31.76 8.481l-9.31 9.311L28.655 24 24 28.656l-1.552-1.552-9.311 9.311 8.673 8.673z" fill="#4285F4"/><path d="M26.19 45.088a3.102 3.102 0 0 1-4.38 0l-8.673-8.673 9.311-9.311 10.863 10.863-7.121 7.121z" fill-opacity=".1" fill="#000"/><path d="M26.19 2.912a3.102 3.102 0 0 0-4.38 0L2.912 21.81a3.102 3.102 0 0 0 0 4.38l11.777 11.777L24 28.656 19.344 24 24 19.344l9.311-9.311-7.121-7.121z" fill="#4FC3F7"/></g></svg>