<svg viewBox="0 0 48 48" xmlns="http://www.w3.org/2000/svg"><g fill="none" fill-rule="evenodd"><path d="M41 27c0 9.389-7.611 17-17 17S7 36.389 7 27V7.007A3.004 3.004 0 0 1 10.002 4h27.996A2.998 2.998 0 0 1 41 7.007V27z" fill="#34A853"/><path d="M27.615 43.615L17 33l.586-1.586-2-2L17 14l15.414-1.414L41 21.172V27c0 8.148-5.733 14.958-13.385 16.615z" fill-opacity=".1" fill="#000"/><path d="M31 12H17c-1.1 0-2 .9-2 2v14c0 1.1.9 2 2 2v3l4-3h10c1.1 0 2-.9 2-2V14c0-1.1-.9-2-2-2zm-5.12 10.88L24 27l-1.88-4.12L18 21l4.12-1.88L24 15l1.88 4.12L30 21l-4.12 1.88z" fill="#FFF"/></g></svg>