<svg viewBox="0 0 48 48" xmlns="http://www.w3.org/2000/svg"><g fill="none" fill-rule="evenodd"><path d="M5 8.01A3.01 3.01 0 0 1 7.998 5h32.004A3.004 3.004 0 0 1 43 7.998v32.004A3.004 3.004 0 0 1 40.002 43H7.998A3.005 3.005 0 0 1 5 39.99V36H2.999C2.447 36 2 35.547 2 35.003v-6.006c0-.55.443-.997.999-.997H5v-8H2.999C2.447 20 2 19.547 2 19.003v-6.006c0-.55.443-.997.999-.997H5V8.01z" fill="#4285F4"/><path d="M37 20.497c0-.827.666-1.497 1.5-1.497a1.5 1.5 0 0 1 1.5 1.497v7.006C40 28.33 39.334 29 38.5 29a1.5 1.5 0 0 1-1.5-1.497v-7.006z" fill="#F5F5F5"/><path d="M43 19.879v20.123A3.004 3.004 0 0 1 40.002 43H19.88l-7.44-7.44 7.558-7.557L20 20h8l7.56-7.56L43 19.878z" fill-opacity=".1" fill="#000"/><path d="M20.225 18.104l-5.664-5.665a1.5 1.5 0 0 0-2.122 2.122l5.665 5.664A6.967 6.967 0 0 0 17 24c0 1.39.405 2.686 1.104 3.775l-5.665 5.664a1.5 1.5 0 0 0 2.122 2.122l5.664-5.665A6.967 6.967 0 0 0 24 31c1.39 0 2.686-.405 3.775-1.104l5.664 5.665a1.5 1.5 0 0 0 2.122-2.122l-5.665-5.664A6.967 6.967 0 0 0 31 24c0-1.39-.405-2.686-1.104-3.775l5.665-5.664a1.5 1.5 0 0 0-2.122-2.122l-5.664 5.665A6.967 6.967 0 0 0 24 17c-1.39 0-2.686.405-3.775 1.104zM24 27a3 3 0 1 0 0-6 3 3 0 0 0 0 6z" fill="#F5F5F5"/></g></svg>