<svg viewBox="0 0 48 48" xmlns="http://www.w3.org/2000/svg"><g fill="none" fill-rule="evenodd"><path d="M45.998 38.992A3.004 3.004 0 0 1 42.991 42H5.007A3.005 3.005 0 0 1 2 38.992V16l23-4 20.998 4v22.992z" fill="#424242"/><path d="M40 16H2V9a3 3 0 0 1 2.999-3H15l4 2V6h4l4 2V6h5l3 2 1-2h4l5.5 5-5.5 5z" fill="#212121"/><path d="M28 11l-5 5h4l5-5-5-5h-4l5 5zm-8 0l-5 5h4l5-5-5-5h-4l5 5zm12-5l4.436 5L32 16h4l5-5-5-5h-4zm13 5l-5 5h5.997V6H40l5 5zM7 13a2 2 0 1 0 0-4 2 2 0 0 0 0 4z" fill="#EEE"/></g></svg>