<svg viewBox="0 0 48 48" xmlns="http://www.w3.org/2000/svg"><g fill="none" fill-rule="evenodd"><path d="M42 5H6C4.35 5 3 6.35 3 8v36.5a.501.501 0 0 0 .81.392L13.742 37H42c1.65 0 3-1.35 3-3V8c0-1.65-1.35-3-3-3z" fill="#4285F4"/><path d="M44.952 34.537A3 3 0 0 1 42 37H29.5L18.738 26.262l-2.958-6.977 3.928-9.992 25.244 25.244z" fill-opacity=".1" fill="#000"/><path d="M12 10c0 12.703 10.297 23 23 23a1 1 0 0 0 1-1v-6a1 1 0 0 0-1-1c-1.715 0-3.367-.295-4.902-.825a1 1 0 0 0-1.028.24l-3.323 3.32a20.088 20.088 0 0 1-8.465-8.45l3.305-3.355a.998.998 0 0 0 .24-1.027A14.947 14.947 0 0 1 20 10a1 1 0 0 0-1-1h-6a1 1 0 0 0-1 1z" fill="#F5F5F5"/></g></svg>