<svg viewBox="0 0 48 48" xmlns="http://www.w3.org/2000/svg"><g fill="none" fill-rule="evenodd"><path d="M41.191 5.745a.986.986 0 0 0-.96-.745H31.75a.75.75 0 0 0-.716.958C32.679 11.687 33.5 17.74 33.5 24c0 6.61-.666 12.99-2.5 19h10c1.606-6.063 2-12.432 2-19 0-6.3-.362-12.416-1.809-18.255z" fill="#4A88F0"/><path fill-opacity=".1" fill="#1A237E" d="M33.315 18.91l9.612 9.611L41 43z"/><path d="M28 12h-9c.048 8.298-2.308 16.566-6 24h10c3.219-7.577 5.194-15.753 5-24z" fill="#FDC626"/><path fill-opacity=".1" fill="#BF360C" d="M23 36l-5.26-13.05 7.387 7.387z"/><path d="M29 12H19c6.418 8.944 10.611 19.527 12 31h10c-1.384-11.362-5.535-21.911-12-31z" fill="#EA4335"/><path d="M5.446 19a.447.447 0 0 0-.342.729C8.894 24.419 11.496 29.95 13 36h10c-1.555-6.136-3.95-11.772-7.702-16.62a.985.985 0 0 0-.78-.38H5.446z" fill="#34A853"/></g></svg>