<svg viewBox="0 0 48 48" xmlns="http://www.w3.org/2000/svg"><g fill="none" fill-rule="evenodd"><path d="M7.291 26.561c.51-.433.762-1.091.729-1.76a16.267 16.267 0 0 1 0-1.603c.033-.668-.218-1.326-.729-1.76l-3.57-3.028a2 2 0 0 1-.439-2.525l3.33-5.77a2 2 0 0 1 2.407-.883l4.407 1.578c.63.226 1.329.113 1.891-.251.447-.29.91-.558 1.386-.802.596-.306 1.042-.853 1.162-1.512l.836-4.603A2 2 0 0 1 20.67 2h6.662A2 2 0 0 1 29.3 3.642l.837 4.603c.12.659.565 1.206 1.16 1.512.477.244.94.512 1.387.802.563.364 1.26.477 1.891.25l4.407-1.577a2 2 0 0 1 2.406.883l3.331 5.77a2 2 0 0 1-.438 2.525l-3.571 3.029c-.51.433-.762 1.091-.729 1.76a16.267 16.267 0 0 1 0 1.603c-.033.668.219 1.326.729 1.76l3.57 3.028a2 2 0 0 1 .439 2.525l-3.33 5.77a2 2 0 0 1-2.407.883l-4.407-1.578c-.63-.226-1.328-.113-1.891.251-.447.29-.91.558-1.386.802-.596.306-1.042.853-1.162 1.512l-.836 4.603A2 2 0 0 1 27.33 46h-6.662a2 2 0 0 1-1.968-1.642l-.836-4.603c-.12-.659-.566-1.206-1.162-1.512a15.99 15.99 0 0 1-1.386-.802c-.563-.364-1.26-.477-1.891-.25l-4.407 1.577a2 2 0 0 1-2.406-.883l-3.331-5.77a2 2 0 0 1 .438-2.525l3.571-3.029z" fill="#EA4335"/><path d="M39.98 25.01c.023.595.272 1.164.729 1.551l3.57 3.03a2 2 0 0 1 .44 2.524l-3.332 5.77a2 2 0 0 1-2.406.883l-4.407-1.578c-.63-.226-1.328-.113-1.891.251-.447.29-.91.558-1.386.802-.596.306-1.041.853-1.161 1.512l-.823 4.525-14.026-14.026L22 27.5l4.421-2.579-4.42-4.421 10.716-2.752 7.262 7.262z" fill-opacity=".1" fill="#000"/><path d="M14 24c0 3.002.297 5.259 1.28 6.248.209.209.447.361.72.452.6.2 4.3.3 8 .3s7.4-.1 8-.3c1.565-.522 2-3.064 2-6.7 0-3.005-.297-5.262-1.283-6.252A1.831 1.831 0 0 0 32 17.3c-.6-.2-4.3-.3-8-.3s-7.4.1-8 .3c-1.565.522-2 3.064-2 6.7zm8-3.6l5.6 3.6-5.6 3.6v-7.2z" fill="#F1F1F1"/></g></svg>