<?xml version="1.0" encoding="UTF-8" standalone="no"?>
<svg width="75px" height="31px" viewBox="0 0 75 31" version="1.1" xmlns="http://www.w3.org/2000/svg" xmlns:xlink="http://www.w3.org/1999/xlink">
    <!-- Generator: Sketch 39 (31667) - http://www.bohemiancoding.com/sketch -->
    <title>Artboard 2</title>
    <desc>Created with Sketch.</desc>
    <defs></defs>
    <g id="Page-1" stroke="none" stroke-width="1" fill="none" fill-rule="evenodd">
        <g id="Artboard-2">
            <path d="M6.66708125,16.942675 L6.66708125,25.0913375 L3.70393375,25.0913375 L3.70393375,16.942675 C3.70393375,16.942675 0.63337275,6.952275 0,5.0900875 L3.111305,5.0900875 L5.19069375,12.894425 L7.25971125,5.0900875 L10.3710163,5.0900875 L6.66708125,16.942675 L6.66708125,16.942675 L6.66708125,16.942675 Z M14.9639,20.6466125 C15.11205,22.1281875 14.6524625,22.86335 13.7783375,22.86335 C12.9043625,22.86335 12.4452187,22.1281875 12.593375,20.6466125 L12.593375,14.720325 C12.4452187,13.23875 12.9045125,12.5443375 13.7786375,12.5443375 C14.6527625,12.5443375 15.1135375,13.23875 14.965375,14.720325 L14.9639,20.6466125 L14.9639,20.6466125 L14.9639,20.6466125 L14.9639,20.6466125 Z M17.7788875,15.0166375 C17.7788875,13.417575 17.457675,12.2167625 16.8899375,11.4608625 C16.1399625,10.4373875 14.9639,10.0184 13.7786375,10.0184 C12.43707,10.0184 11.4161175,10.4373875 10.6673312,11.4608625 C10.0905537,12.2167625 9.78120125,13.4306125 9.78120125,15.029675 L9.77838625,20.3503 C9.77838625,21.940475 10.053515,23.0392125 10.63044,23.7877 C11.3792262,24.8080625 12.593375,25.3486875 13.7786375,25.3486875 C14.9639,25.3486875 16.199375,24.8080625 16.9492,23.7877 C17.5169375,23.0392125 17.7788875,21.940475 17.7788875,20.3503 L17.7788875,15.0166375 L17.7788875,15.0166375 L17.7788875,15.0166375 L17.7788875,15.0166375 Z M24.8904375,25.0913375 L24.8904375,23.4616 C23.8232625,24.6847875 22.9186125,25.3026125 21.932475,25.3026125 C21.0672375,25.3026125 20.4664625,24.8944375 20.16555,24.15705 C19.982725,23.7085875 19.8530875,23.0085375 19.8530875,21.980025 L19.8530875,10.1274375 L22.668075,10.1274375 L22.668075,21.23925 L22.668075,22.27635 C22.7337125,22.692225 22.9103125,22.8440875 23.2682625,22.8440875 C23.8071125,22.8440875 24.2947,22.3759125 24.8904375,21.5355625 L24.8904375,10.1274375 L27.705425,10.1274375 L27.705425,25.0913375 L24.8904375,25.0913375 L24.8904375,25.0913375 L24.8904375,25.0913375 Z" id="Shape" fill-opacity="0.54" fill="#000"></path>
            <path d="M66.489625,22.8440875 C67.1499625,22.8440875 67.534875,22.48495 67.6879125,21.7680125 C67.7128125,21.6217875 67.7080625,20.9820375 67.7080625,19.905825 L70.5229125,19.905825 L70.5229125,20.3257 C70.5229125,21.19005 70.4517875,21.8018 70.4276375,22.0704125 C70.337125,22.6649625 70.1264375,23.202925 69.80035,23.677475 C69.058375,24.7525 67.9577125,25.2823125 66.5562875,25.2823125 C65.1530875,25.2823125 64.085025,24.7773875 63.309575,23.765775 C62.7397625,23.0249875 62.37425,21.9235875 62.37425,20.3503 L62.37425,15.1647875 C62.37425,13.582475 62.7067125,12.3592875 63.2765375,11.6105 C64.0522875,10.5974 65.12035,10.0612125 66.489625,10.0612125 C67.8351875,10.0612125 68.90325,10.5974 69.65515,11.6105 C70.215925,12.3592875 70.5275,13.5168375 70.5275,15.0991625 L70.5281,18.1279375 L65.1892375,18.1279375 L65.1892375,20.78855 C65.1800625,22.15575 65.568975,22.8440875 66.489625,22.8440875 L66.489625,22.8440875 L66.489625,22.8440875 L66.489625,22.8440875 Z M60.5963625,20.6466125 C60.5963625,22.0158875 60.479175,22.9821625 60.30005,23.6097625 C59.9421,24.710575 59.1616125,25.2823125 58.0935375,25.2823125 C57.13985,25.2823125 56.1626125,24.7085 55.2664,23.5996875 L55.2627,25.0913375 L52.5958625,25.0913375 L52.5958625,5.23825 L55.2627,5.23825 L55.2595875,11.71095 C56.1260125,10.6448125 57.1068125,10.03795 58.0935375,10.03795 C59.1616125,10.03795 59.879575,10.6548875 60.237525,11.7638375 C60.41665,12.3592875 60.5963625,13.3180125 60.5963625,14.720325 L60.5963625,20.6466125 L60.5963625,20.6466125 L60.5963625,20.6466125 L60.5963625,20.6466125 Z M50.3735,25.0913375 L47.5585125,25.0913375 L47.5585125,23.4616 C46.4913375,24.6847875 45.5866875,25.3026125 44.60055,25.3026125 C43.7353125,25.3026125 43.1345375,24.8944375 42.833625,24.15705 C42.6508,23.7085875 42.5211625,23.0085375 42.5211625,21.980025 L42.5211625,10.2756 L45.33615,10.2756 L45.33615,21.23925 L45.33615,22.27635 C45.4017875,22.692225 45.5783875,22.8440875 45.9363375,22.8440875 C46.4751875,22.8440875 46.962775,22.3759125 47.5585125,21.5355625 L47.5585125,10.2756 L50.3735,10.2756 L50.3735,25.0913375 L50.3735,25.0913375 L50.3735,25.0913375 L50.3735,25.0913375 Z M39.706175,25.0913375 L36.743025,25.0913375 L36.743025,8.0532375 L33.631725,8.0532375 L33.631725,5.2413625 L42.9656375,5.23825 L42.9656375,8.0532375 L39.706175,8.0532375 L39.706175,25.0913375 L39.706175,25.0913375 L39.706175,25.0913375 L39.706175,25.0913375 Z M73.78845,6.7061875 C73.78845,6.7061875 73.356125,3.6711875 72.029675,2.3346625 C70.3474875,0.580625 68.46145,0.5717375 67.5968,0.4692125 C61.40605,0.0237 52.1195375,0.0237 52.1195375,0.0237 L52.1001375,0.0237 C52.1001375,0.0237 42.813475,0.0237 36.622725,0.4692125 C35.7577875,0.5717375 33.872475,0.580625 32.18985,2.3346625 C30.86325,3.6711875 30.431525,6.7061875 30.431525,6.7061875 C30.431525,6.7061875 29.989125,10.2701125 29.989125,13.8343375 L29.989125,17.1757375 C29.989125,20.7395125 30.431525,24.3034375 30.431525,24.3034375 C30.431525,24.3034375 30.86325,27.3382875 32.18985,28.6749625 C33.872475,30.42945 36.083575,30.3735875 37.0679375,30.5573 C40.6072625,30.89555 52.1097625,31 52.1097625,31 C52.1097625,31 61.40605,30.986075 67.5968,30.5408625 C68.46145,30.4380375 70.3474875,30.42945 72.029675,28.6749625 C73.356125,27.3382875 73.78845,24.3034375 73.78845,24.3034375 C73.78845,24.3034375 74.23025,20.7395125 74.23025,17.1757375 L74.23025,13.8343375 C74.23025,10.2701125 73.78845,6.7061875 73.78845,6.7061875 L73.78845,6.7061875 L73.78845,6.7061875 L73.78845,6.7061875 Z M56.6586375,12.5074375 C56.216975,12.5074375 55.711175,12.7404875 55.2627,13.1831875 L55.2595875,22.1683375 C55.7082125,22.6168125 56.216975,22.8440875 56.6586375,22.8440875 C57.4321625,22.8440875 57.781375,22.27635 57.781375,20.794775 L57.781375,14.424 C57.781375,12.9424375 57.4321625,12.5074375 56.6586375,12.5074375 L56.6586375,12.5074375 L56.6586375,12.5074375 Z M67.7079125,14.2882875 C67.7079125,12.918875 67.353975,12.5074375 66.464725,12.5074375 C65.568975,12.5074375 65.1892375,12.8851 65.1892375,14.269775 L65.1892375,15.9084 L67.7079125,15.905575 L67.7079125,14.2882875 L67.7079125,14.2882875 L67.7079125,14.2882875 Z" id="Shape" fill="#ea4335"></path>
        </g>
    </g>
</svg>