<svg viewBox="0 0 32 32" xmlns="http://www.w3.org/2000/svg"><g fill="none" fill-rule="evenodd"><path d="M16 30c7.732 0 14-6.268 14-14S23.732 2 16 2 2 8.268 2 16s6.268 14 14 14z" fill="#34A853"/><path d="M18.902 29.683l-4.3-4.299 2.4-2.4-3-3v-4l-4-4 10.2-4.2 9.719 9.719c-.653 6.05-5.162 10.947-11.02 12.18z" fill-opacity=".1" fill="#000"/><path d="M17.416 25.398a2 2 0 0 0-2.828-2.828 1.991 1.991 0 0 0 .007 2.821c.781.781 2.04.788 2.821.007zm-3.414-13.414h-4v.243a6 6 0 0 1 5.996-6.232c3.314 0 5.97 2.686 5.97 6a5.99 5.99 0 0 1-3.966 5.655v2.334h-4v-6h2a2 2 0 1 0-2-2z" fill="#F5F5F5"/></g></svg>