<svg viewBox="0 0 32 32" xmlns="http://www.w3.org/2000/svg"><g fill="none" fill-rule="evenodd"><circle fill="#16B0F5" cx="16" cy="16" r="14"/><path d="M16.492 29.992L9 22.5l3-3.085.5-8.415 10.24-.585 7.171 7.171c-.77 6.826-6.447 12.165-13.42 12.406z" fill-opacity=".1" fill="#000"/><path d="M23 21.505V23H9v-1.495A.5.5 0 0 1 9.498 21l.001-.507c0-.272.222-.493.509-.493H11v-7h-.998a.5.5 0 0 1-.502-.5V12H9v-1c0-.276.202-.601.449-.724l6.102-3.052c.248-.124.65-.123.898 0l6.102 3.052a.883.883 0 0 1 .449.723V12h-.5v.5c0 .276-.226.5-.502.5H21v7h.998a.5.5 0 0 1 .502.5v.5a.5.5 0 0 1 .5.505zM19 20v-7h-6v7h2v-7h2v7h2z" fill="#FFF"/><path d="M9 23v-1.495A.5.5 0 0 1 9.498 21l.002-.5c0-.276.226-.5.502-.5H16v3H9zm1.5-10h-.498a.5.5 0 0 1-.502-.5V12H9v-1c0-.276.202-.601.449-.724l6.102-3.052c.124-.062.287-.092.449-.092V13h-5.5z" fill-opacity=".05" fill="#000"/><path d="M17 13h2v7h-2v-7zm-2 0h-2v7h2v-7zm6.998 0a.501.501 0 0 0 .502-.5V12h-13v.5a.5.5 0 0 0 .502.5H11v7h-.998a.5.5 0 0 0-.502.5v.5h13v-.5c0-.276-.226-.5-.502-.5H21v-7h.998z" fill-opacity=".03" fill="#000"/><path d="M15 13h2v2l-2-2zm4 0h2v2l-2-2zm-8 0h2v2l-2-2z" fill-opacity=".1" fill="#000"/></g></svg>