<svg viewBox="0 0 32 32" xmlns="http://www.w3.org/2000/svg"><g fill="none" fill-rule="evenodd"><path d="M16 4l-4 12 4 12h4.998L28 22V6.005A2.005 2.005 0 0 0 25.995 4H16z" fill="#424242"/><path d="M16 4l-4 12 4 12h9.995A2.005 2.005 0 0 0 28 25.995V15.52L16 4z" fill-opacity=".1" fill="#000"/><path d="M16 28V16l-6-3-6 3v9.995C4 27.103 4.898 28 6.005 28H16z" fill="#616161"/><path d="M11.002 4H16v12H4V6.005C4 4.898 4.897 4 6.005 4h4.997z" fill="#757575"/><circle fill="#1DE9B6" cx="22" cy="22" r="8"/><path d="M19.5 22.5h5v1h-5v-1zm0-2h5v1h-5v-1zM21.293 10l-1.414 1.414.707.707L22 10.707l1.414 1.414.707-.707L22.707 10l1.414-1.414-.707-.707L22 9.293l-1.414-1.414-.707.707L21.293 10zM9.5 21.5h-2v1h2v2h1v-2h2v-1h-2v-2h-1v2zm-2-12h5v1h-5v-1z" fill="#F5F5F5"/></g></svg>