<svg viewBox="0 0 32 32" xmlns="http://www.w3.org/2000/svg"><g fill="none" fill-rule="evenodd"><path d="M16 2C8.268 2 2 8.268 2 16s6.268 14 14 14V2z" fill="#D0DCF2"/><path d="M16 2c7.732 0 14 6.268 14 14s-6.268 14-14 14V2z" fill="#555AAC"/><path d="M9 16c0 7.732 3.134 14 7 14l5.5-14L16 2c-3.866 0-7 6.268-7 14z" fill="#6B85C7"/><path d="M29.89 14.234L19.127 3.472 16 30c7.732 0 14-6.268 14-14 0-.598-.038-1.187-.11-1.766z" fill-opacity=".1" fill="#000"/><path d="M16 2c3.866 0 7 6.268 7 14s-3.134 14-7 14V2z" fill="#6CBF8C"/></g></svg>