<svg viewBox="0 0 32 32" xmlns="http://www.w3.org/2000/svg"><path d="M9.942 24.858l2.516-2.516a.49.49 0 0 0-.002-.686l-5.712-5.712a.49.49 0 0 1 0-.688l5.712-5.712a.503.503 0 0 0 .002-.686L9.942 6.342c-.189-.189-.509-.175-.707.023l-8.87 8.87a.519.519 0 0 0 0 .73l8.87 8.87c.202.202.537.193.707.023zm21.693-8.893a.519.519 0 0 0 0-.73l-8.87-8.87a.519.519 0 0 0-.73 0l-8.87 8.87c-.202.202-.193.537-.023.707l2.516 2.516c.189.189.5.184.686-.002l5.712-5.712a.503.503 0 0 1 .686-.002l2.516 2.516c.189.189.184.5-.002.686l-5.712 5.712a.503.503 0 0 0-.002.686l2.516 2.516c.189.189.509.175.707-.023l8.87-8.87z" fill="#EA4335" fill-rule="evenodd"/></svg>