<svg viewBox="0 0 32 32" xmlns="http://www.w3.org/2000/svg"><g fill="none" fill-rule="evenodd"><path d="M5 6c0-.552.504-1 1.125-1h3.75C10.496 5 11 5.448 11 6v3H5V6z" fill="#9E9E9E"/><path d="M26.92 7H5.08C3.931 7 3 7.896 3 9v14c0 1.105.931 2 2.08 2h21.84c1.149 0 2.08-.895 2.08-2V9c0-1.104-.931-2-2.08-2z" fill="#E0E0E0"/><circle fill="#EA4335" cx="26" cy="10" r="1"/><path d="M15.739 25H26.92c1.149 0 2.08-.895 2.08-2v-3.262l-8.369-8.368-9.262 9.26 4.37 4.37z" fill-opacity=".1" fill="#000"/><path d="M16 9.45c3.618 0 6.55 2.93 6.55 6.55a6.55 6.55 0 1 1-13.1 0A6.55 6.55 0 0 1 16 9.45z" fill="#F5F5F5"/><path d="M10.6 16a5.4 5.4 0 0 1 5.4-5.4 5.4 5.4 0 1 1-5.4 5.4z" fill="#616161"/></g></svg>