<svg viewBox="0 0 32 32" xmlns="http://www.w3.org/2000/svg"><g fill="none" fill-rule="evenodd"><path d="M16 2C8.242 2 2 8.242 2 16s6.242 14 14 14 14-6.242 14-14S23.758 2 16 2" fill="#9E9E9E"/><path d="M25.398 16.292c0 5.308-4.317 9.625-9.625 9.625S6.148 21.6 6.148 16.292c0-5.309 4.317-9.625 9.625-9.625s9.625 4.316 9.625 9.625" fill="#616161"/><path d="M14.575 16.982c.817-.875 1.342-1.459 1.575-1.75.233-.292.408-.584.525-.817.117-.233.175-.467.175-.7a.966.966 0 0 0-.292-.7c-.175-.175-.466-.292-.816-.292-.35 0-.759.117-1.109.292-.35.233-.816.525-1.283.933l-1.75-2.041c.583-.525 1.108-.934 1.517-1.167a5.35 5.35 0 0 1 1.341-.525c.467-.117 1.05-.175 1.634-.175.758 0 1.458.117 2.041.408.584.292 1.05.642 1.4 1.167.292.467.467 1.05.467 1.633 0 .467-.058.875-.175 1.284-.117.408-.292.758-.525 1.166-.233.35-.583.759-.933 1.167-.409.408-1.225 1.225-2.509 2.392v.058H20v2.683h-8.167v-2.333l2.742-2.683zM13.057 3.387l-.758.175-.117 2.333.642-.175v-.408l.7-.175.175.408.642-.175-1.284-1.983zm-.291 1.458v-.933c0 .058.058.117.116.233.059.117.117.234.175.292l.175.35-.466.058zm-1.867.409c-.175-.35-.408-.525-.642-.584-.233-.058-.525 0-.875.175a.86.86 0 0 0-.525.584c-.058.291 0 .583.175.875.175.35.409.525.7.583.234.058.525 0 .817-.175.292-.117.525-.35.583-.583.059-.292 0-.584-.233-.875zm-.583 1.108c-.234.175-.525.058-.7-.35-.234-.35-.175-.642.058-.817.117-.058.233-.058.35-.058.117.117.233.233.35.408.117.175.175.35.175.467a1.226 1.226 0 0 1-.233.35zm12.483 19.425c-.175-.35-.408-.525-.7-.583-.233-.059-.525 0-.817.175a1.511 1.511 0 0 0-.583.641c-.058.234 0 .584.175.875.175.35.408.525.642.584.233.058.525 0 .875-.175.291-.175.466-.409.525-.642.116-.292.058-.583-.117-.875zm-.642 1.108c-.116.059-.233.059-.35.059-.116-.059-.233-.175-.35-.35-.116-.175-.175-.35-.175-.467 0-.117.059-.233.234-.292.233-.175.525-.058.7.35.233.292.233.525-.059.7zm-3.091-.583v.408l-.7.175-.234-.35-.641.175 1.283 1.984.758-.175.117-2.334-.583.117zm-.117 1.692a1.264 1.264 0 0 0-.175-.292l-.175-.35.467-.117v.992l-.117-.233zm2.508-23.742l.525.292-.408.7.583.35.409-.7.525.291-1.109 1.925-.525-.291.467-.817-.583-.35-.467.817-.525-.292 1.108-1.925zm-2.975-.992l1.634.467-.117.467-.525-.117-.467 1.692-.583-.175.467-1.692-.525-.117.116-.525zM15.1 3.037h.583V4.32c0 .175 0 .292.059.35.058.059.116.117.233.117a.446.446 0 0 0 .292-.117c.058-.058.058-.175.116-.35V3.037h.584v1.342c0 .291-.117.525-.234.7-.175.175-.408.233-.7.233-.291 0-.525-.058-.7-.233-.175-.175-.233-.409-.233-.7V3.037zm-4.725 24.792l-.525-.292.408-.7-.583-.35-.408.7-.525-.292L9.85 24.97l.525.292-.467.817.584.35.466-.817.525.292-1.108 1.925zm2.975.991l-1.633-.466.116-.467.525.117.467-1.692.583.175-.466 1.692.525.116-.117.525zm3.383.234h-.583V27.77c0-.175 0-.291-.058-.35-.059-.058-.117-.116-.234-.116a.446.446 0 0 0-.291.116c-.059.059-.059.175-.117.35v1.284h-.583v-1.342c0-.292.116-.525.233-.7.175-.175.408-.233.7-.233s.525.058.7.233c.175.175.233.408.233.7v1.342z" fill="#FFF"/></g></svg>