<svg viewBox="0 0 32 32" xmlns="http://www.w3.org/2000/svg"><g fill="none" fill-rule="evenodd"><path fill="#D1D1D1" d="M16 9L4 14l12 11 12-11z"/><path d="M16.595 4.446c-.329-.246-.868-.241-1.19 0l-10.81 8.108C4.266 12.8 4 13.339 4 13.748V14h24v-.252c0-.413-.273-.953-.595-1.194l-10.81-8.108z" fill="#C9C9C9"/><path fill="#3F51B5" d="M12 15h-2v8h12v-7h-2v6h-3v-9h-2v9h-3z"/><path d="M15.75 28H26L4 14v12.499C4 27.328 4.667 28 5.501 28h10.25z" fill="#E0E0E0"/><path d="M16.25 28H6l22-14v12.499c0 .834-.672 1.501-1.501 1.501h-10.25z" fill="#EEE"/><path d="M22.166 12.6a1.25 1.25 0 1 1-2.372.119l-2.882-1.614a1.248 1.248 0 0 1-1.896-.083l-2.786 1.254a1.25 1.25 0 1 1-.246-.547l2.786-1.255a1.25 1.25 0 1 1 2.436.107l2.882 1.614a1.247 1.247 0 0 1 1.734-.087l2.012-1.408a1.25 1.25 0 1 1 .344.491L22.166 12.6z" fill="#E91E63"/></g></svg>