<svg viewBox="0 0 32 32" xmlns="http://www.w3.org/2000/svg"><g fill="none" fill-rule="evenodd"><circle fill="#4285F4" cx="16" cy="16" r="14"/><path d="M19.767 29.487a14.029 14.029 0 0 0 9.67-9.545L19.415 9.92l-1.475-.03-1.5-1.5L15 10.5l-2-1-1.5 1V12l1 1h2v6.5l-1 3.72 6.267 6.267z" fill-opacity=".1" fill="#000"/><path d="M17.983 14.763c-.15-.06-.31-.096-.483-.096h-.667v-1.334H18a2 2 0 1 0 0-3.998c-.5-.002-.76.145-1.167.498v-.5a1.333 1.333 0 1 0-2.666 0v.5c-.407-.353-.667-.5-1.167-.5-1.103 0-2 .897-2 2 0 1.104.897 2 2 2h1.167v5.544l-3.047-.637a.998.998 0 0 0-.917.27l-.703.71 4.39 4.39c.243.24.577.39.943.39h6.04c.67 0 1.184-.493 1.277-1.137l.67-4.683a1.33 1.33 0 0 0-.8-1.407l-4.037-2.01zm-3.65-2.096H13a1.333 1.333 0 1 1 1.333-1.334v1.334zM18 10a1.333 1.333 0 1 1 0 2.667h-1.333v-1.334c0-.736.596-1.333 1.333-1.333z" fill="#F5F5F5"/></g></svg>