<svg viewBox="0 0 32 32" xmlns="http://www.w3.org/2000/svg"><g fill="none" fill-rule="evenodd"><path d="M27 18c0 6.26-4.74 11-11 11S5 24.26 5 18V4.992C5 3.892 5.89 3 6.991 3H25.01C26.109 3 27 3.893 27 4.992V18z" fill="#34A853"/><path d="M27 13.781l-5.39-5.39-10.277.942-.942 10.276 1.851 1.852L12 22l6.693 6.693C23.57 27.55 27 23.324 27 18v-4.219z" fill-opacity=".1" fill="#000"/><path d="M20.667 8h-9.334C10.6 8 10 8.6 10 9.333v9.334C10 19.4 10.6 20 11.333 20H12v2l3-2h5.667C21.4 20 22 19.4 22 18.667V9.333C22 8.6 21.4 8 20.667 8zm-3.414 7.253L16 18l-1.253-2.747L12 14l2.747-1.253L16 10l1.253 2.747L20 14l-2.747 1.253z" fill="#FFF"/></g></svg>