<svg viewBox="0 0 32 32" xmlns="http://www.w3.org/2000/svg"><g fill="none" fill-rule="evenodd"><circle fill="#08BED5" cx="16" cy="16" r="14"/><path d="M25.9 6.1L6.1 25.9A13.956 13.956 0 0 1 2 16C2 8.268 8.268 2 16 2a13.96 13.96 0 0 1 9.9 4.1z" fill="#00ACC1"/><path d="M29.92 17.506l-6.213-6.213-1.186.571-3.693-3.692H14L8.293 22.707l7.287 7.287c.14.004.28.006.42.006 7.223 0 13.169-5.47 13.92-12.494z" fill-opacity=".1" fill="#000"/><path d="M17.998 11c0-1.112-.895-2-2-2-1.112 0-2 .895-2 2h4zm-2-4A3.998 3.998 0 0 0 12 11H9.01A1.01 1.01 0 0 0 8 12.002v9.996A1 1 0 0 0 9 23h14c.552 0 1-.456 1-1.002v-9.996A.999.999 0 0 0 23 11h-3.003c0-2.21-1.795-4-3.999-4z" fill="#F5F5F5"/></g></svg>