<?xml version="1.0" encoding="utf-8"?>
<!-- Generator: Adobe Illustrator 17.1.0, SVG Export Plug-In . SVG Version: 6.00 Build 0)  -->
<!DOCTYPE svg PUBLIC "-//W3C//DTD SVG 1.1//EN" "http://www.w3.org/Graphics/SVG/1.1/DTD/svg11.dtd">
<svg version="1.1" id="Layer_2" xmlns="http://www.w3.org/2000/svg" xmlns:xlink="http://www.w3.org/1999/xlink" x="0px" y="0px"
	 width="200px" height="200px" viewBox="0 0 200 200" enable-background="new 0 0 200 200" xml:space="preserve">
<linearGradient id="SVGID_1_" gradientUnits="userSpaceOnUse" x1="153.7" y1="150.3" x2="93.6" y2="90.2">
	<stop  offset="0.2" style="stop-color:#000000;stop-opacity:0"/>
	<stop  offset="1" style="stop-color:#000000;stop-opacity:0.1"/>
</linearGradient>
<path fill="url(#SVGID_1_)" d="M131.5,60.5L131.5,60.5L131.5,60.5v52.1c0,4.1-0.5,7.2-1.5,9.4c-1,2-2.8,3.8-5.4,5.2s-5.4,2-8.6,2
	c-3.6,0-6.6-1-8.8-3.2c-2.2-2-3.2-4.8-3.2-8c0-3.3,1.3-6.2,3.9-8.6s5.9-3.7,10.1-3.7c1.3,0,2.6,0.1,3.6,0.4s2.7,0.9,5,1.8V78.1
	c0,0-6.1,0-14.1,2.5s-16,6.7-16,6.7v35.4c0,4.1-0.5,7.1-1.7,9.4c-1,2.3-3,4.1-5.6,5.3c-2.6,1.3-5.6,2-8.6,2c-3.1,0-5.7-0.7-7.8-2.2
	l47,47l67.8-67.8L131.5,60.5z"/>
<path fill="#FFFFFF" d="M71.7,136.5c0.3,0.3,0.7,0.6,1,0.8l-2.4-2.4C70.7,135.4,71.2,136,71.7,136.5z"/>
<path fill="#FFFFFF" d="M89.2,137.5c2.6-1.3,4.5-3,5.6-5.3c1.2-2.3,1.7-5.3,1.7-9.4V87.4c0,0,8-4.2,16-6.7s14.1-2.5,14.1-2.5V108
	c-2.3-0.9-4-1.5-5-1.8s-2.3-0.4-3.6-0.4c-4.1,0-7.5,1.3-10.1,3.7c-2.6,2.4-3.9,5.3-3.9,8.6c0,3.2,1,6,3.2,8c2.2,2.2,5.2,3.2,8.8,3.2
	c3.2,0,6.1-0.6,8.6-2c2.6-1.4,4.4-3.2,5.4-5.2c1-2.2,1.5-5.3,1.5-9.4V60.5c0,0-12,1.3-21.7,4.3c-9.7,3-18.6,8-18.6,8v45.6
	c-3.2-1.5-6.2-2.3-8.8-2.3c-4.1,0-7.5,1.1-10.1,3.6c-2.6,2.3-3.9,5.2-3.9,8.7c0,2.5,0.6,4.6,1.8,6.4l2.4,2.4
	c2.1,1.5,4.7,2.2,7.8,2.2C83.6,139.5,86.6,138.7,89.2,137.5z"/>
</svg>
