<?xml version="1.0" encoding="utf-8"?>
<!-- Generator: Adobe Illustrator 19.0.1, SVG Export Plug-In . SVG Version: 6.00 Build 0)  -->
<svg version="1.1" id="Layer_1" xmlns="http://www.w3.org/2000/svg" xmlns:xlink="http://www.w3.org/1999/xlink" x="0px" y="0px"
	 width="100px" height="100px" viewBox="-429 231 100 100" style="enable-background:new -429 231 100 100;" xml:space="preserve">
<style type="text/css">
	.st0{fill-rule:evenodd;clip-rule:evenodd;fill:#FFFFFF;}
</style>
<path class="st0" d="M-350,283.7l-11,6.5l-5.2,3.1l-10.7-8.2l-10.7,8.2l-5.2-3l-11.2-6.6l11.3-8.5l-11.3-8.6l16.4-10.6l10.7,9.1
	l11-9.1l15.9,10.1l-10.5,8.7L-350,283.7z M-376.8,265.6l-15.7,9.3l15.5,9.8l15.6-10.3L-376.8,265.6z M-387.5,297.3l0.5-0.4l10.2-7.8
	l10.2,7.8l0.5,0.4l0.4-0.4l4.8-2.9v2.6L-377,307l-15.7-10.4v-2.4l4.7,2.8L-387.5,297.3z"/>
</svg>
