<?xml version="1.0" encoding="utf-8"?>
<!-- Generator: Adobe Illustrator 19.0.1, SVG Export Plug-In . SVG Version: 6.00 Build 0)  -->
<svg version="1.1" id="Layer_1" xmlns="http://www.w3.org/2000/svg" xmlns:xlink="http://www.w3.org/1999/xlink" x="0px" y="0px"
	 width="100px" height="100px" viewBox="-429 231 100 100" style="enable-background:new -429 231 100 100;" xml:space="preserve">
<style type="text/css">
	.st0{fill:#FFFFFF;}
</style>
<g>
	<polygon class="st0" points="-386.5,287.1 -386.8,287.1 -386.9,287.3 -393.7,299.2 -394.1,299.9 -393.3,299.9 -361.7,299.9 
		-361.4,299.9 -361.3,299.6 -354.6,287.8 -354.1,287.1 -355,287.1 	"/>
	<polygon class="st0" points="-369,284.1 -368.9,284.3 -368.6,284.3 -355,284.3 -354.1,284.3 -354.6,283.6 -370.3,256.3 -370.5,256 
		-370.7,256 -384.3,256.1 -385.2,256.1 -384.8,256.8 	"/>
	<polygon class="st0" points="-380.3,270.2 -380.5,270 -387.3,258.2 -387.7,257.5 -388.1,258.2 -403.9,285.5 -404,285.8 -403.9,286 
		-397.1,297.8 -396.6,298.5 -396.2,297.8 -380.5,270.5 	"/>
</g>
</svg>
