<?xml version="1.0" encoding="utf-8"?>
<!-- Generator: Adobe Illustrator 19.0.1, SVG Export Plug-In . SVG Version: 6.00 Build 0)  -->
<svg version="1.1" id="Layer_1" xmlns="http://www.w3.org/2000/svg" xmlns:xlink="http://www.w3.org/1999/xlink" x="0px" y="0px"
	 width="100px" height="100px" viewBox="-429 231 100 100" style="enable-background:new -429 231 100 100;" xml:space="preserve">
<style type="text/css">
	.st0{fill:#FFFFFF;}
</style>
<path id="VK" class="st0" d="M-377.3,298c1.7,0,1.7-2.4,1.7-3.3c0-1.7,1.7-3.3,3.3-3.3c1.7,0,4.5,2.9,6.7,5c1.7,1.7,1.7,1.7,3.3,1.7
	c1.7,0,5,0,5,0s3.3-0.1,3.3-3.3c0-1-1.1-2.8-5-6.7c-3.3-3.3-5-1.6,0-8.3c3.1-4.1,5.3-7.8,4.9-8.9c-0.4-1-8.9-2.6-9.9-1.1
	c-3.3,5-3.9,6.2-5,8.3c-1.7,3.3-1.8,5-3.3,5c-1.5,0-1.7-3.2-1.7-5c0-5.5,0.8-9.4-1.7-10c0,0-3.3,0-5,0c-2.7,0-5,1.7-5,1.7
	s-2.1,1.6-1.7,1.7c0.5,0.1,3.3-0.7,3.3,1.7c0,1.7,0,3.3,0,3.3s0,6.7-1.7,6.7c-1.7,0-5-6.7-8.3-11.7c-1.3-2-1.7-1.7-3.3-1.7
	c-1.8,0-3.3,0.1-5,0.1c-1.7,0-1.9,1.1-1.7,1.6c3.3,8.3,5.7,13.5,12,20.1c5.8,6,9.7,6.4,12.9,6.5C-378.1,298-379,298-377.3,298z"/>
</svg>
