<svg viewBox="0 0 16 16" xmlns="http://www.w3.org/2000/svg"><g fill="none" fill-rule="evenodd"><rect fill="#34A853" width="16" height="16" rx="1.333"/><path d="M7.215 16L4 12.843 4.8 4.2l1.6-1.571H8l2.832.518L16 8.223v6.44A1.33 1.33 0 0 1 14.663 16H7.215z" fill-opacity=".1" fill="#000"/><path d="M5.118 6.086c0-1.563 1.29-2.83 2.882-2.83s2.882 1.267 2.882 2.83v.628H5.118v-.628zm6.882 0c0-2.17-1.791-3.929-4-3.929s-4 1.76-4 3.929V13h8V6.086zM7.022 11.43l.387-1.505a1 1 0 0 1-.434-.822c0-.555.459-1.006 1.024-1.006.566 0 1.024.45 1.024 1.006 0 .34-.171.64-.433.821l.387 1.506H7.022z" fill="#F5F5F5"/></g></svg>