<svg viewBox="0 0 16 16" xmlns="http://www.w3.org/2000/svg"><g fill="none" fill-rule="evenodd"><path fill="#6D4C41" d="M0 6.035L8 3l8 3z"/><path d="M10 0H3.697A.697.697 0 0 0 3 .703V10h10V3l-1.86-1.01L10 0z" fill="#FDD835"/><path fill-opacity=".1" fill="#BF360C" d="M13 5.583l-2.795-2.788L13 3z"/><path d="M10 2.304c0 .384.321.696.696.696H13l-3-3v2.304z" fill="#FFF9C4"/><path d="M0 14.672C0 15.405.588 16 1.337 16h13.326c.739 0 1.337-.596 1.337-1.328V6H0v8.672zm9.98-5.837H6.02a.66.66 0 1 1 0-1.32h3.96a.66.66 0 1 1 0 1.32z" fill="#8D6E63"/><path d="M14.966 15.966L11 12l-6 .6L8.4 16h6.263c.104 0 .206-.012.303-.034z" fill-opacity=".1" fill="#000"/><path fill="#F5F5F5" d="M11 12l-2-2v1.4H5v1.2h4V14z"/></g></svg>