<svg viewBox="0 0 16 16" xmlns="http://www.w3.org/2000/svg"><g fill="none" fill-rule="evenodd"><path d="M8 0h6.661C15.401 0 16 .601 16 1.339V8H8V0z" fill="#EEE"/><path d="M4.668 0H1.337C.598 0 0 .598 0 1.337v13.326C0 15.402.598 16 1.337 16H8V0H4.668z" fill="#2196F3"/><path d="M16 11.332v3.331c0 .739-.598 1.337-1.337 1.337H8V8h8v3.332z" fill="#00BCD4"/><path d="M13.549 4.084a1.602 1.602 0 0 1-.059.365 1.027 1.027 0 0 1-.16.331.838.838 0 0 1-.275.241.841.841 0 0 1-.41.092.446.446 0 0 1-.422-.267.605.605 0 0 1-.523.262.494.494 0 0 1-.244-.06.491.491 0 0 1-.176-.17.723.723 0 0 1-.096-.263 1.275 1.275 0 0 1-.011-.343 1.8 1.8 0 0 1 .095-.445c.049-.133.11-.246.181-.34a.818.818 0 0 1 .249-.215.634.634 0 0 1 .302-.076c.082 0 .155.005.218.016a1.022 1.022 0 0 1 .31.11c.044.024.087.05.13.079l-.007.007h.01l-.098 1.101a.598.598 0 0 0 .005.162c.008.041.02.073.036.096a.116.116 0 0 0 .058.046.197.197 0 0 0 .066.012c.073 0 .138-.02.194-.059a.508.508 0 0 0 .145-.159.894.894 0 0 0 .094-.235c.023-.09.037-.186.041-.288.01-.221-.005-.42-.047-.595a1.16 1.16 0 0 0-.207-.449.947.947 0 0 0-.373-.284 1.349 1.349 0 0 0-.542-.1 1.29 1.29 0 0 0-.53.106 1.159 1.159 0 0 0-.404.302c-.11.13-.2.287-.262.472-.063.184-.1.39-.111.617-.01.225.009.428.057.608s.123.332.224.459a.992.992 0 0 0 .378.29c.152.068.327.102.523.102a1.513 1.513 0 0 0 .343-.038 1.708 1.708 0 0 0 .294-.095l.074.294a.771.771 0 0 1-.154.076 1.776 1.776 0 0 1-.565.096c-.253 0-.48-.042-.678-.125a1.306 1.306 0 0 1-.497-.356 1.502 1.502 0 0 1-.298-.566 2.338 2.338 0 0 1-.082-.745c.012-.271.06-.517.144-.74.085-.222.2-.412.346-.57a1.51 1.51 0 0 1 .525-.366c.204-.087.43-.13.682-.13.25 0 .47.04.664.121.192.08.353.196.48.347.128.15.224.332.286.547.061.214.087.455.077.722zm-1.947.188c-.014.161 0 .285.042.368.043.083.11.125.203.125a.445.445 0 0 0 .085-.008.273.273 0 0 0 .085-.034.341.341 0 0 0 .08-.069.514.514 0 0 0 .073-.11v-.018l.002-.017.086-.95a.686.686 0 0 0-.181-.028.362.362 0 0 0-.192.048.411.411 0 0 0-.138.143.953.953 0 0 0-.092.232 2.042 2.042 0 0 0-.053.318z" fill="#455A64"/><path d="M11.333 9.333h1.334v1.334h-1.334V9.333zm-2 2h1.334v1.334H9.333v-1.334zm0-2h1.334v1.334H9.333V9.333zm4 0h1.334v1.334h-1.334V9.333zm-2 2h1.334v1.334h-1.334v-1.334zm2 0h1.334v1.334h-1.334v-1.334zm-12-2h1.334v1.334H1.333V9.333zm4 0h1.334v1.334H5.333V9.333zm-2 0h1.334v1.334H3.333V9.333zm-2-2h1.334v1.334H1.333V7.333zm4 0h1.334v1.334H5.333V7.333zm-2 0h1.334v1.334H3.333V7.333zm-2-2h1.334v1.334H1.333V5.333zm4 0h1.334v1.334H5.333V5.333zm-2 0h1.334v1.334H3.333V5.333zm-2-2h1.334v1.334H1.333V3.333zm4 0h1.334v1.334H5.333V3.333zm-2 0h1.334v1.334H3.333V3.333zm-2-2h1.334v1.334H1.333V1.333zm4 0h1.334v1.334H5.333V1.333zm-2 0h1.334v1.334H3.333V1.333z" fill="#1976D2"/><path d="M16 5.622l-2.96-2.965-.835-.155-1.094.262-.387.805-.083.55.083 1.345L13.253 8H16V5.622zm-.391 9.987L8 8v8h6.663c.37 0 .704-.15.946-.391z" fill-opacity=".1" fill="#000" opacity=".5"/></g></svg>