<svg viewBox="0 0 16 16" xmlns="http://www.w3.org/2000/svg"><g fill="none" fill-rule="evenodd"><path d="M13.703 2.756a.52.52 0 0 1 .636.225l1.177 2.037a.525.525 0 0 1-.123.663l-1.117.863c-.194.15-.35.473-.35.706v1.5c0 .24.155.555.35.706l1.117.862a.52.52 0 0 1 .123.663l-1.177 2.037a.525.525 0 0 1-.636.224l-1.304-.535a1.023 1.023 0 0 0-.786.05l-1.3.75c-.208.12-.403.411-.436.656l-.189 1.398a.52.52 0 0 1-.512.439H6.823a.525.525 0 0 1-.512-.439l-.189-1.398a1.022 1.022 0 0 0-.435-.656l-1.3-.75a1.003 1.003 0 0 0-.786-.05l-1.305.535a.52.52 0 0 1-.636-.224L.484 10.981a.525.525 0 0 1 .124-.663l1.115-.862c.194-.15.35-.473.35-.706v-1.5c0-.24-.154-.555-.35-.706L.608 5.681a.52.52 0 0 1-.124-.663L1.66 2.982a.525.525 0 0 1 .636-.224l1.305.535c.226.093.584.067.786-.05l1.3-.75c.208-.12.402-.411.435-.656L6.311.439A.52.52 0 0 1 6.823 0h2.353c.25 0 .48.194.512.439l.189 1.398c.032.242.234.54.436.656l1.3.75c.208.12.557.143.786.05l1.304-.537z" fill="#00897B"/><path d="M6 11h4v4.407a.59.59 0 0 1-.59.593H6.59a.594.594 0 0 1-.59-.593V11z" fill="#F5F5F5"/><path d="M13.926 8.504V8.27l-3.058-3.057L10 8.56 6 4.41l-.788 6.458s2.81 2.802 4.754 4.737a.598.598 0 0 0 .034-.198v-1.573a.94.94 0 0 1 .313-.327l.65-.375.64-.37c.211-.122.57-.148.796-.055l.652.268.652.267a.525.525 0 0 0 .636-.224l1.177-2.037a.52.52 0 0 0-.123-.663l-.559-.431-.558-.431a1.017 1.017 0 0 1-.35-.717v-.235z" fill-opacity=".1" fill="#000"/><path d="M10 4.42c1.095.65 2 2.01 2 3.58a4 4 0 1 1-8 0c0-1.57.905-2.93 2-3.58v3.55l2 .77 2-.77V4.42z" fill="#F5F5F5"/></g></svg>