<svg viewBox="0 0 16 16" xmlns="http://www.w3.org/2000/svg"><g fill="none" fill-rule="evenodd"><path d="M14.933 16H1.067C.477 16 0 15.522 0 14.933V1.067C0 .477.478 0 1.067 0h13.866C15.523 0 16 .478 16 1.067v13.866c0 .59-.478 1.067-1.067 1.067z" fill="#EEE"/><path fill="#66BB6A" d="M3 2h7v14H3z"/><path fill-opacity=".1" fill="#000" opacity=".5" d="M10 2l6 6-6 8H7V9l3 3z"/><path d="M1.244 16H7V9H0v5.933C0 15.523.557 16 1.244 16z" fill="#2196F3"/><path d="M16 7H9v9h6.067c.515 0 .933-.478.933-1.067V7z" fill="#FFC107"/><path d="M4 3h2v2H4V3zm3 0h2v2H7V3zm0 3h2v2H7V6zM4 6h2v2H4V6z" fill="#388E3C"/><path d="M10 8h2v2h-2V8zm3 0h2v2h-2V8zm-3 3h2v2h-2v-2zm3 0h2v2h-2v-2z" fill="#CC9200"/><path d="M1 10h2v2H1v-2zm3 0h2v2H4v-2zm0 3h2v2H4v-2zm-3 0h2v2H1v-2z" fill="#1976D2"/></g></svg>