<svg viewBox="0 0 16 16" xmlns="http://www.w3.org/2000/svg"><g fill="none" fill-rule="evenodd"><path fill="#263238" d="M14.82 11.92V2.33H1.185v10.59z"/><path fill="#EEE" d="M1.82 2.965h12.36v8.29H1.82z"/><path d="M10 12c-.09.215-.48.28-.73.28H6.705c-.245 0-.61-.07-.705-.28H0v.45c0 .295.24.535.535.535L13 13l-1-1h-2z" fill="#848484"/><path d="M11.86 6.42a.525.525 0 0 0-.525.525v6.54c0 .29.235.525.525.525h3.615c.29 0 .525-.235.525-.525v-6.54a.525.525 0 0 0-.525-.525H11.86z" fill="#262626"/><path fill="#EEE" d="M11.85 7h3.64v6h-3.64z"/><path d="M10.13 11.255H1.82v-8.29l8.26 8.26.05.03zm5.36-.68V13h-3.64V6.94l3.64 3.635z" fill-opacity=".05" fill="#000"/></g></svg>