<svg viewBox="0 0 16 16" xmlns="http://www.w3.org/2000/svg"><g fill="none" fill-rule="evenodd"><path d="M7.998 0v7.002h6.984c.011-.2.018-.407.018-.618l-.025-4.887A1.504 1.504 0 0 0 13.475 0H7.999z" fill="#CFD3D5"/><path d="M14.982 7.002H7.998v8.558c.213-.058 6.457-1.804 6.97-8.315l.014-.243z" fill="#7B8D96"/><path d="M1.012 7.002h6.986V0H2.52c-.82 0-1.495.67-1.5 1.497L.997 6.384c0 .211.005.417.016.618z" fill="#EFF2F3"/><path d="M1.012 7.002h6.986v8.558c-.217-.058-6.457-1.804-6.97-8.315a8.541 8.541 0 0 1-.016-.243z" fill="#90A4AE"/><path d="M14.976 1.575L7.998 7.002h6.984c.011-.2.018-.407.018-.618l-.024-4.809z" fill="#C4C9CB"/><path d="M2.365 11.383l5.633-4.381H1.012c.004.082.01.163.016.243.133 1.678.645 3.04 1.337 4.138z" fill="#A6B6BE"/></g></svg>