<svg viewBox="0 0 16 16" xmlns="http://www.w3.org/2000/svg"><g fill="none" fill-rule="evenodd"><circle fill="#16B0F5" cx="8" cy="8" r="8"/><path d="M6.929 15.929L3 12l2-1V5h7.9l3.058 3.823a8.001 8.001 0 0 1-9.03 7.106z" fill-opacity=".1" fill="#000"/><path d="M9 6v4h1V6H9zM7 6v4H6V6h1zM4 6v4h-.49a.507.507 0 0 0-.51.505V12h10v-1.495a.5.5 0 0 0-.51-.505H12V6h1v-.807c0-.1-.085-.227-.19-.269L8.19 3.076a.594.594 0 0 0-.38 0L3.19 4.924a.319.319 0 0 0-.19.269V6h1z" fill="#F5F5F5"/><path d="M3.51 10H8v2H3v-1.495c0-.279.228-.505.51-.505zM8 3.045a.532.532 0 0 0-.19.031L3.19 4.924a.319.319 0 0 0-.19.269V6h5V3.045z" fill-opacity=".05" fill="#000"/><path d="M4 6h2v2L4 6zm3 0h2v2L7 6zm3 0h2v2l-2-2z" fill-opacity=".1" fill="#000"/></g></svg>