<svg viewBox="0 0 16 16" xmlns="http://www.w3.org/2000/svg"><g fill="none" fill-rule="evenodd"><path d="M7.466 7.996l3.31-3.31 2.532 2.531c.43.43.428 1.13 0 1.557l-6.72 6.72c-.43.43-1.128.427-1.556 0L3.28 13.741a1.107 1.107 0 0 1 .001-1.562l4.185-4.184z" fill="#673AB7"/><path d="M10.776 4.686l2.526 2.525c.433.434.43 1.14 0 1.57l-2.526 2.525-3.31-3.31 3.31-3.31z" fill-opacity=".1" fill="#000"/><path d="M7.466 7.996L3.28 3.812a1.104 1.104 0 0 1 0-1.562L5.03.5a1.103 1.103 0 0 1 1.558 0l4.187 4.187-3.31 3.31z" fill="#B388FF"/></g></svg>