<svg viewBox="0 0 16 16" xmlns="http://www.w3.org/2000/svg"><g fill="none" fill-rule="evenodd"><path d="M11.517 15H4.483a1 1 0 0 1-.786-.454L.18 8.454a1.001 1.001 0 0 1 0-.908l3.517-6.092A1 1 0 0 1 4.483 1h7.034a1 1 0 0 1 .786.454l3.517 6.092a.999.999 0 0 1 0 .908l-3.517 6.092a.927.927 0 0 1-.338.321.927.927 0 0 1-.448.133z" fill="#4285F4"/><path d="M10.954 15h.563c.146 0 .306-.05.448-.133a.927.927 0 0 0 .338-.32l2.302-3.988-4.582-4.582-1.452-.263H6.857L5.714 6.857v2.286l.263.88L10.954 15z" fill-opacity=".1" fill="#000"/><path d="M10.212 9.808a2.86 2.86 0 0 0-.192-3.83 2.86 2.86 0 0 0-4.04 4.045 2.86 2.86 0 0 0 3.828.19l1.167 1.167.405-.405-1.168-1.167zM8 10.286a2.286 2.286 0 1 0 0-4.572 2.286 2.286 0 0 0 0 4.572zm1-.893V7.43h-.5v2.21c.181-.055.35-.14.5-.247zm-1.5.247V8H7v1.393c.15.108.319.192.5.247z" fill="#F5F5F5"/></g></svg>