<svg viewBox="0 0 16 16" xmlns="http://www.w3.org/2000/svg"><g fill="none" fill-rule="evenodd"><path d="M1 2.995A1 1 0 0 1 2.007 2h11.986C14.55 2 15 2.456 15 2.995v8.01a1 1 0 0 1-1.007.995H2.007A1.008 1.008 0 0 1 1 11.005v-8.01z" fill="#8F5829"/><path d="M0 3.995C0 3.445.445 3 1 3h14c.552 0 1 .456 1 .995v8.01c0 .55-.448.995-.995.995H11.28c-.55 0-1.133-.428-1.3-.948l-.676-2.104C9.136 9.424 8.556 9 8 9c-.552 0-1.138.428-1.305.948l-.676 2.104c-.168.524-.753.948-1.3.948H.995C.445 13 0 12.544 0 12.005v-8.01zM4.5 9.75a1.75 1.75 0 1 0 0-3.5 1.75 1.75 0 0 0 0 3.5zm7 0a1.75 1.75 0 1 0 0-3.5 1.75 1.75 0 0 0 0 3.5z" fill="#D9A048"/></g></svg>