<svg viewBox="0 0 16 16" xmlns="http://www.w3.org/2000/svg"><g fill="none" fill-rule="evenodd"><path d="M5 2l1-1h4l1 1v1h5v10.998A1 1 0 0 1 15 15H1c-.552 0-1-.456-1-1.002V3h5V2zm1 .5c0-.276.215-.5.49-.5h3.02a.5.5 0 0 1 .49.5V3H6v-.5z" fill="#EEE"/><path d="M10.304 15l.29-.503A2.998 2.998 0 0 0 7.996 10h5.768a6.483 6.483 0 0 1 .416 5h-3.876z" fill="#FDC626"/><path d="M5.4 14.5A2.998 2.998 0 0 1 7.996 10h5.768a6.5 6.5 0 0 0-11.248-.496L5.4 14.5z" fill="#EA4335"/><path d="M5.764 15a2.998 2.998 0 0 1-.362-.501L2.518 9.504A6.462 6.462 0 0 0 1.5 13c0 .698.11 1.37.314 2.001h3.95z" fill="#34A853"/><path d="M10.233 15a3 3 0 1 0-4.471 0h4.47z" fill="#F5F5F5"/><path d="M9.032 15a2.25 2.25 0 1 0-2.064 0h2.064z" fill="#4285F4"/></g></svg>