<svg viewBox="0 0 16 16" xmlns="http://www.w3.org/2000/svg"><g fill="none" fill-rule="evenodd"><rect fill="#FBBC05" y="2" width="16" height="12" rx="1"/><path fill="#34A853" d="M1 3h14v10H1z"/><path d="M3 10.385v.619h3.56v-.62c0-.618-1.187-.928-1.78-.928S3 9.766 3 10.385zm1.78-1.548c.491 0 .89-.415.89-.928 0-.513-.399-.929-.89-.929s-.89.416-.89.929c0 .513.399.928.89.928zm6.44 0c.491 0 .89-.415.89-.928 0-.513-.399-.929-.89-.929-.492 0-.89.416-.89.929 0 .513.398.928.89.928zm-1.78 1.548v.619H13v-.62c0-.618-1.187-.928-1.78-.928s-1.78.31-1.78.929z" fill="#8ED088"/><path d="M10 12v1h3v-1h-3zm-4.667-1.865v.866h5.33v-.866c0-.866-1.777-1.3-2.665-1.3-.888 0-2.665.434-2.665 1.3zm3.85-3.467c0-.684-.53-1.238-1.185-1.238-.654 0-1.184.554-1.184 1.238 0 .684.53 1.238 1.184 1.238.654 0 1.185-.554 1.185-1.238z" fill="#FFF"/><path fill-opacity=".1" fill="#BF360C" d="M10 13l1 1h3l-1-1z"/></g></svg>