<svg viewBox="0 0 16 16" xmlns="http://www.w3.org/2000/svg"><g fill="none" fill-rule="evenodd"><path d="M10.31 4L6.226 5.354 3.398 9.405 1.547 5.178l2.15-3.724A1 1 0 0 1 4.483 1h7.034a1 1 0 0 1 .786.454L13.773 4H10.31z" fill="#4285F4"/><path fill-opacity=".1" fill="#000" d="M1.842 5.333l4.124 4.124H1.842z"/><path d="M1.65 5l1.73 3 3.08 2.667 8.005.134-2.163 3.745a.927.927 0 0 1-.338.321.927.927 0 0 1-.448.133H4.483a1 1 0 0 1-.786-.454L.18 8.454a1.001 1.001 0 0 1 0-.908L1.65 5z" fill="#FBBC05"/><path d="M13.773 4H8.77l2.309 2.997-.77 5.003-1.732 3h2.94c.146 0 .306-.05.448-.133a.927.927 0 0 0 .338-.32l3.517-6.093a1.001 1.001 0 0 0 0-.908L13.773 4z" fill="#EA4335"/><path d="M8.69 15l-3-3 5.06-2.502L10.31 4l5.123 5.124-3.13 5.422a.927.927 0 0 1-.338.321.927.927 0 0 1-.448.133H8.691z" fill-opacity=".1" fill="#000"/><path d="M12.619 8l-2.31 4H5.691L3.38 8l2.31-4h4.618l2.31 4zm-4.612 2.007a2 2 0 1 0 0-4 2 2 0 0 0 0 4z" fill="#EEE"/></g></svg>