<svg viewBox="0 0 16 16" xmlns="http://www.w3.org/2000/svg"><g fill="none" fill-rule="evenodd"><path d="M13.703 2.756a.52.52 0 0 1 .636.225l1.177 2.037a.525.525 0 0 1-.123.663l-1.117.863c-.194.15-.35.473-.35.706v1.5c0 .24.155.555.35.706l1.117.862a.52.52 0 0 1 .123.663l-1.177 2.037a.525.525 0 0 1-.636.224l-1.304-.535a1.023 1.023 0 0 0-.786.05l-1.3.75c-.208.12-.403.411-.436.656l-.189 1.398a.52.52 0 0 1-.512.439H6.823a.525.525 0 0 1-.512-.439l-.189-1.398a1.022 1.022 0 0 0-.435-.656l-1.3-.75a1.003 1.003 0 0 0-.786-.05l-1.305.535a.52.52 0 0 1-.636-.224L.484 10.981a.525.525 0 0 1 .124-.663l1.115-.862c.194-.15.35-.473.35-.706v-1.5c0-.24-.154-.555-.35-.706L.608 5.681a.52.52 0 0 1-.124-.663L1.66 2.982a.525.525 0 0 1 .636-.224l1.305.535c.226.093.584.067.786-.05l1.3-.75c.208-.12.402-.411.435-.656L6.311.439A.52.52 0 0 1 6.823 0h2.353c.25 0 .48.194.512.439l.189 1.398c.032.242.234.54.436.656l1.3.75c.208.12.557.143.786.05l1.304-.537z" fill="#9E9E9E"/><path d="M9.714 15.37l-4.542-4.542 5.656-5.656 3.098 3.097v.481c0 .24.155.555.35.706l1.117.862a.52.52 0 0 1 .123.663l-1.177 2.037a.525.525 0 0 1-.636.224l-1.304-.535a1.023 1.023 0 0 0-.786.05l-1.3.75c-.208.12-.403.411-.436.656l-.163 1.208z" fill-opacity=".1" fill="#000"/><path d="M10.909 10.749A3.99 3.99 0 0 1 8 12.002c-.57 0-1.113-.12-1.605-.336-.055-.113-.286-.631.03-.778.472-.217 3.298.657 4.483-.14zm-2.64-2.57c-2.596-1.538-3.853-1.766-4.24-.656a4.007 4.007 0 0 0 .173 1.734c.283-.935 1.705.192 3.967.63 2.701.523 3.289.067 3.406-.087a3.96 3.96 0 0 0 .345-.993c-.086.256-.57 1.199-3.65-.627zM6.714 5.288c2.358.596 4.555 3.978 5.286 2.607a4.02 4.02 0 0 0-.151-.995c-.058.138-.18.303-.424.216-.54-.193-1.706-1.638-2.663-2.23-.956-.59-1.858-.788-2.77-.345a4.026 4.026 0 0 0-1.344 1.278c.394-.474 1.033-.793 2.066-.531z" fill="#4285F4"/><path d="M8 4a4.003 4.003 0 0 1 3.848 2.9c-.057.137-.18.302-.423.215-.54-.193-1.706-1.639-2.663-2.23-.956-.591-1.858-.788-2.77-.344A3.978 3.978 0 0 1 8.001 4zm.17 5.887c-2.263-.438-3.684-1.565-3.968-.63a4.01 4.01 0 0 0 2.195 2.41c-.056-.114-.287-.632.03-.779.47-.217 3.297.657 4.482-.14.265-.28.49-.6.666-.948-.117.154-.704.61-3.406.087zm-3.522-4.07a3.971 3.971 0 0 0-.62 1.707c.388-1.111 1.645-.883 4.241.656 3.08 1.826 3.565.883 3.651.627a4.016 4.016 0 0 0 .08-.913c-.731 1.37-2.929-2.011-5.287-2.608-1.032-.26-1.67.058-2.065.532z" fill="#EEE"/></g></svg>