<svg viewBox="0 0 16 16" xmlns="http://www.w3.org/2000/svg"><g fill="none" fill-rule="evenodd"><path d="M6.705 2.651a3.927 3.927 0 1 0-5.553 5.553l6.477 6.477a.526.526 0 0 0 .371.154L10 6.5 8 3.946 6.705 2.65z" fill="#EA4335"/><path d="M8 14.835a.525.525 0 0 0 .371-.154l6.477-6.477a3.927 3.927 0 1 0-5.554-5.552L8 3.946v10.889z" fill="#880E4F"/><path d="M15.992 5.65l-3.444-3.445-3.24 2.569L8 6.808v8.027a.525.525 0 0 0 .371-.154l6.477-6.477a3.914 3.914 0 0 0 1.144-2.554z" fill-opacity=".1" fill="#000"/><path d="M8 14.835c.097 0 .194-.052.267-.154l4.664-6.477c1.104-1.534 1.104-4.02 0-5.554-1.104-1.534-2.894-1.533-4 .002L8 3.946v10.889z" fill="#C51162"/><path d="M13.741 4.985L10.59 1.833 8 9.353v5.482c.097 0 .194-.052.267-.154l4.664-6.477c.633-.88.903-2.072.81-3.22z" fill-opacity=".1" fill="#000"/><path d="M8.17 14.68l2.968-6.476c.703-1.534.703-4.02 0-5.554-.703-1.534-1.842-1.533-2.545.002L8 3.946v10.889c.061 0 .123-.052.17-.154z" fill="#FB8C00"/></g></svg>