<svg viewBox="0 0 16 16" xmlns="http://www.w3.org/2000/svg"><g fill="none" fill-rule="evenodd"><circle fill="#03A9F4" cx="8" cy="8" r="8"/><path d="M13.657 2.343L2.343 13.657A8 8 0 0 1 13.657 2.343z" fill="#039BE5"/><path d="M15.99 7.611l-3.8-3.8-3.301 3.004-6.548-1.12 4.148 4.148-4.148.883 5.264 5.264a8 8 0 0 0 8.385-8.379z" fill-opacity=".07" fill="#000"/><path d="M11.143 12.819L9.886 7.37l2.304-2.304a.887.887 0 0 0 0-1.257.887.887 0 0 0-1.257 0L8.63 6.114 3.18 4.857l-.838.838L6.743 8l-2.305 2.305-1.466-.21-.629.63 1.886 1.046 1.047 1.886.629-.629-.21-1.466L8 9.257l2.305 4.4.838-.838z" fill="#F5F5F5"/><path fill="#E0E0E0" d="M11.145 12.82L9.888 7.372 8.003 9.258l2.304 4.4z"/></g></svg>