<svg viewBox="0 0 16 16" xmlns="http://www.w3.org/2000/svg"><g fill="none" fill-rule="evenodd"><path d="M8 4.364a5.818 5.818 0 0 1 5.058 8.694A5.818 5.818 0 1 0 4.363 8 3.636 3.636 0 0 1 8 4.365z" fill="#FFC107"/><path d="M11.636 8a5.818 5.818 0 0 1-8.694 5.058A5.818 5.818 0 1 0 8 4.363 3.636 3.636 0 0 1 11.635 8z" fill="#3367D6"/><path d="M15.747 9.701l-3.633-3.633a5.8 5.8 0 0 1 1.704 4.114 5.792 5.792 0 0 1-.76 2.876 5.833 5.833 0 0 0 2.69-3.357z" fill-opacity=".1" fill="#BF360C"/><path d="M8 11.636a5.818 5.818 0 0 1-5.058-8.694A5.818 5.818 0 1 0 11.637 8 3.636 3.636 0 0 1 8 11.635z" fill="#4FC3F7"/><path d="M10.182 2.182c1.046 0 2.028.276 2.876.76A5.818 5.818 0 1 0 8 11.637 3.636 3.636 0 0 1 4.365 8a5.818 5.818 0 0 1 5.818-5.818z" fill="#4285F4"/></g></svg>