<svg viewBox="0 0 16 16" xmlns="http://www.w3.org/2000/svg"><g fill="none" fill-rule="evenodd"><path d="M1 7.044a7.044 7.044 0 1 1 14.088 0c0 3.89-3.731 7.698-7.044 9.062v-2.365C4.154 13.74 1 10.935 1 7.044z" fill="#34A853"/><path d="M14.907 8.555L11.35 4.998l-2 2-2-2-2.98 3 6.45 6.45c1.905-1.503 3.553-3.63 4.087-5.893z" fill-opacity=".05" fill="#000"/><path d="M5.997 9.608c.743-.004 1.344-.73 1.344-1.627l.012.017-.003-3H4.37v3h1.627v1.61zm4 0c.743-.004 1.344-.73 1.344-1.627l.012.017-.003-3H8.37v3h1.627v1.61z" fill="#F5F5F5"/></g></svg>