<svg viewBox="0 0 16 16" xmlns="http://www.w3.org/2000/svg"><g fill="none" fill-rule="evenodd"><path fill="#3E6EDC" d="M8 3.333L0 7l8 7 8-7z"/><path d="M8.408.637a.719.719 0 0 0-.816 0L.408 6.025C.183 6.195 0 6.557 0 6.83v.169h16V6.83c0-.275-.182-.635-.408-.804L8.408.637z" fill="#335CCC"/><path d="M8 8.667l2.667 2.666L16 7v-.17c0-.276-.182-.636-.408-.805l-2.829-2.122L8 8.667z" fill-opacity=".15" fill="#000"/><path d="M14.667 16L0 7v7.999A.999.999 0 0 0 1 16h13.667z" fill="#25B8F9"/><path d="M1.333 16L16 7v7.999A.999.999 0 0 1 15 16H1.332z" fill="#80D4FC"/><path fill="#EEE" d="M6 4.667l-1 1 3 3 6.333-6.334-1-1L8 6.667z"/></g></svg>