<svg viewBox="0 0 16 16" xmlns="http://www.w3.org/2000/svg"><g fill="none" fill-rule="evenodd"><path d="M0 6.995C0 6.445.445 6 1 6h14c.552 0 1 .456 1 .995v8.01c0 .55-.445.995-1 .995H1c-.552 0-1-.456-1-.995v-8.01z" fill="#616161"/><path d="M3 13.25c0-.138.093-.25.208-.25h9.584c.115 0 .208.112.208.25v1.5c0 .138-.093.25-.208.25H3.208C3.093 15 3 14.888 3 14.75v-1.5zm-1-3a.25.25 0 0 1 .25-.25h1.5a.25.25 0 0 1 .25.25v1.5a.25.25 0 0 1-.25.25h-1.5a.25.25 0 0 1-.25-.25v-1.5zm3 0a.25.25 0 0 1 .25-.25h1.5a.25.25 0 0 1 .25.25v1.5a.25.25 0 0 1-.25.25h-1.5a.25.25 0 0 1-.25-.25v-1.5zm4 0a.25.25 0 0 1 .25-.25h1.5a.25.25 0 0 1 .25.25v1.5a.25.25 0 0 1-.25.25h-1.5a.25.25 0 0 1-.25-.25v-1.5zm3 0a.25.25 0 0 1 .25-.25h1.5a.25.25 0 0 1 .25.25v1.5a.25.25 0 0 1-.25.25h-1.5a.25.25 0 0 1-.25-.25v-1.5zm-10-3A.25.25 0 0 1 2.25 7h1.5a.25.25 0 0 1 .25.25v1.5a.25.25 0 0 1-.25.25h-1.5A.25.25 0 0 1 2 8.75v-1.5zm10 0a.25.25 0 0 1 .25-.25h1.5a.25.25 0 0 1 .25.25v1.5a.25.25 0 0 1-.25.25h-1.5a.25.25 0 0 1-.25-.25v-1.5z" fill="#BDBDBD"/><path d="M3 1.003C3 .449 3.456 0 3.995 0h8.01c.55 0 .995.438.995 1.003V7c0 .33-.422.575-.678.782L8 11.272l-4.322-3.49C3.422 7.575 3 7.33 3 7V1.003z" fill="#EEE"/><path d="M11.136 4.547c0-.186-.015-.368-.045-.545H8v1.273h1.795a1.64 1.64 0 0 1-.676.93l-.028.888 1.063-.082c.055-.048.109-.098.16-.15.592-.592.822-1.41.822-2.314z" fill="#4285F4"/><path d="M8 6.547c.414 0 .8-.126 1.119-.342l1.035.806a3.273 3.273 0 0 1-5.073-.981v-.755l1.036-.051A2 2 0 0 0 8 6.547z" fill="#34A853"/><path d="M5.081 6.03l1.036-.806a1.996 1.996 0 0 1 0-1.353l-.299-.778-.737-.028a3.259 3.259 0 0 0-.354 1.482c0 .534.128 1.037.354 1.482z" fill="#FBBC05"/><path d="M6.117 3.87a2 2 0 0 1 3.203-.825l.901-.901a3.273 3.273 0 0 0-5.14.921l1.036.806z" fill="#EA4335"/></g></svg>