<svg viewBox="0 0 16 16" xmlns="http://www.w3.org/2000/svg"><g fill="none" fill-rule="evenodd"><circle fill="#424242" cx="8" cy="8" r="8"/><path d="M11.042 9.26a.457.457 0 0 0-.457.457v.36c0 .252.205.456.457.456s.456.204.456.457a.46.46 0 0 1-.456.468h-.102a.558.558 0 0 0-.376.165.533.533 0 0 0-.164.376v.103a.46.46 0 0 1-.12.335.429.429 0 0 1-.306.12h-.133a.567.567 0 0 0-.54.54v.104a.456.456 0 0 1-.456.455.454.454 0 0 1-.47-.456.456.456 0 0 0-.456-.457h-.36a.456.456 0 0 0-.456.457.456.456 0 0 1-.456.456.46.46 0 0 1-.47-.456.456.456 0 0 0-.456-.457h-.632a.196.196 0 0 1-.196-.196v-.632a.457.457 0 0 0-.456-.457.457.457 0 0 1-.457-.456.46.46 0 0 1 .457-.469.46.46 0 0 1 .468.457c0 .252.205.456.457.456h.359a.456.456 0 0 0 .457-.456c0-.253.204-.457.456-.457a.46.46 0 0 1 .47.457c0 .252.203.456.456.456h.359a.457.457 0 0 0 .456-.456c0-.253.205-.457.457-.457a.457.457 0 0 0 .456-.457v-.359a.456.456 0 0 0-.456-.456.457.457 0 0 1-.457-.457.46.46 0 0 1 .457-.469.456.456 0 0 0 .456-.456v-.36a.457.457 0 0 0-.456-.456.457.457 0 0 1-.457-.456V4.858c0-.251.204-.455.456-.455a.451.451 0 0 0 .46-.458V2.839c0-.35.281-.634.632-.634h.028c.35 0 .634.284.634.635v.193c0 .252.205.457.457.457s.456.204.456.456v.924h-.45a.196.196 0 0 0-.196.196v.632a.457.457 0 0 1-.457.457.456.456 0 0 0-.456.456.46.46 0 0 0 .456.469.46.46 0 0 0 .47-.457c0-.252.204-.456.456-.456h.177v2.625a.46.46 0 0 1-.456.469z" fill="#F5F5F5"/></g></svg>