<svg viewBox="0 0 16 16" xmlns="http://www.w3.org/2000/svg"><g fill="none" fill-rule="evenodd"><rect fill="#FBBC05" width="16" height="16" rx="1.333"/><path d="M5.998 12.667L6.33 9.92 5.288 8.877S3.33 6 5.665 3.667c2.333-2.334 5.043-.21 5.043-.21l5.29 5.29v5.923c0 .734-.592 1.33-1.333 1.33H9.33l-3.333-3.333z" fill-opacity=".1" fill="#BF360C"/><path d="M10 9.438a3.833 3.833 0 1 0-4 0v3.229h.667v.666h2.666v-.666H10v-3.23zm-3.333.11V9.04a3.167 3.167 0 1 1 2.666 0v1.627H6.667v-1.12zm0 1.785h2.666V12H6.667v-.667z" fill="#F5F5F5"/></g></svg>