<svg viewBox="0 0 16 16" xmlns="http://www.w3.org/2000/svg"><g fill="none" fill-rule="evenodd"><path d="M0 4l8-.5 8 .5v10.67c0 .735-.588 1.33-1.337 1.33H1.337A1.333 1.333 0 0 1 0 14.67V4z" fill="#94C856"/><path d="M0 1.332C0 .596.588 0 1.337 0h13.326C15.402 0 16 .59 16 1.332V4H0V1.332zM5.505 2A.508.508 0 0 0 5 2.5a.5.5 0 0 0 .491.5h5.018a.5.5 0 0 0-.014-1H9c0-.552-.444-1-1-1-.552 0-1 .453-1 1H5.505z" fill="#34A853"/><path d="M16 12.335V10l-4-4-8 7 3 3h7.663c.749 0 1.337-.595 1.337-1.33v-2.335z" fill-opacity=".1" fill="#000"/><path fill="#F5F5F5" d="M4 8l2.67-2v2l2.66-2v2L12 6v7H4z"/></g></svg>