<svg viewBox="0 0 16 16" xmlns="http://www.w3.org/2000/svg"><g fill="none" fill-rule="evenodd"><path d="M14.663 0H1.337A1.33 1.33 0 0 0 0 1.336v13.328c0 .373.149.706.39.946L14.663 0z" fill="#34A853"/><path fill="#4285F4" d="M1.686 16L8 8.028 14.314 16H1.686z"/><path d="M15.578.395L8 8.028l8 6.428V1.392c0-.39-.162-.744-.422-.997z" fill="#E0E0E0"/><path fill-opacity=".1" fill="#000" d="M13 5l-.3 6.4 3.3 3.056V1.5z"/><path d="M14.308 16L7.192 8.842l1.616-1.628L16 14.445v.218A1.33 1.33 0 0 1 14.663 16h-.355z" fill="#F5F5F5"/><path d="M16 1.608L14.363 0 0 14.445v.218A1.33 1.33 0 0 0 1.337 16h.355L16 1.608z" fill="#FDC626"/><path d="M12.74 0h1.934C15.406 0 16 .6 16 1.33v1.94L12.74 0z" fill="#EC847C"/><path d="M12.544 11.028C12.17 7.13 9.47 5.757 9.47 3.268a3.267 3.267 0 1 1 6.535 0c0 2.489-2.7 3.862-3.075 7.76a.193.193 0 0 1-.193.174.193.193 0 0 1-.193-.174z" fill="#EA4335"/><circle fill="#972722" cx="12.739" cy="3.269" r="1.089"/><path d="M5.415 4.5a1.5 1.5 0 1 1-.634-1.78L5.5 2a2.5 2.5 0 1 0 .95 1.5H3.999v1h1.415z" fill="#F5F5F5"/></g></svg>