<svg viewBox="0 0 16 16" xmlns="http://www.w3.org/2000/svg"><g fill="none" fill-rule="evenodd"><path d="M1 7.044a7.044 7.044 0 1 1 14.088 0c0 3.89-3.731 7.698-7.044 9.062v-2.365C4.154 13.74 1 10.935 1 7.044z" fill="#009688"/><path d="M15.073 6.573c.01.156.015.313.015.471 0 3.519-3.052 6.97-6.086 8.606l-.958-.957v-.952c-.345 0-.685-.022-1.017-.065L3.176 9.824l7.072-3.674.576-1.974 1.75 1.75C12.814 5.102 13 4.5 13 4.5l2.073 2.073z" fill-opacity=".1" fill="#000"/><path d="M3 7v2.393c0 .335.266.607.601.607H10.4a.601.601 0 0 0 .6-.605V7.5l2 2V7L6.75 5.8 3 7z" fill="#F5F5F5"/><path d="M3 4.607C3 4.272 3.266 4 3.601 4H10.4c.332 0 .601.268.601.605V6.5l2-2V7H3V4.607z" fill="#E0E0E0"/></g></svg>