<svg viewBox="0 0 16 16" xmlns="http://www.w3.org/2000/svg"><g fill="none" fill-rule="evenodd"><path d="M1 4h14v10.004a1 1 0 0 1-1.007.996H2.007A1 1 0 0 1 1 14.004V4z" fill="#4285F4"/><path d="M15 10.002V6H1l9 9h3.993A1 1 0 0 0 15 14.004v-4.002z" fill-opacity=".06" fill="#000"/><path d="M16 6a2 2 0 1 1-4 0h4zM8 6a2 2 0 1 1-4 0h4z" fill="#3F4DAC"/><path d="M4 6a2 2 0 1 1-4 0h4zm8 0a2 2 0 1 1-4 0h4z" fill="#7CA4E7"/><path d="M13 1H2.15C1.516 1 .9 1.498.777 2.122L0 6h13V1z" fill="#80ADFA"/><path d="M8 1H4.5L4 6h4V1zm3.5 0h2.354c.633 0 1.245.498 1.37 1.122L16 6h-4l-.5-5z" fill="#4756BB"/><path d="M12.915 12a1.5 1.5 0 1 1-.634-1.78L13 9.5a2.5 2.5 0 1 0 .95 1.5h-2.451v1h1.415z" fill="#F5F5F5"/></g></svg>