<svg viewBox="0 0 16 16" xmlns="http://www.w3.org/2000/svg"><g fill="none" fill-rule="evenodd"><rect fill="#4285F4" width="16" height="16" rx="1.333"/><path d="M14.664 16H7.04l-3.52-3.52 8.96-8.96L16 7.04v7.625A1.33 1.33 0 0 1 14.664 16z" fill-opacity=".1" fill="#000"/><circle fill="#F5F5F5" cx="8" cy="8" r="6.333"/><path d="M14.333 15a.667.667 0 1 0 0-1.333.667.667 0 0 0 0 1.333zM1.667 15a.667.667 0 1 0 0-1.333.667.667 0 0 0 0 1.333zM14.333 2.333a.667.667 0 1 0 0-1.333.667.667 0 0 0 0 1.333zm-12.666 0a.667.667 0 1 0 0-1.333.667.667 0 0 0 0 1.333z" fill="#A1C2FA"/><path d="M9.886 8.667a2 2 0 1 1-.845-2.375l.96-.959a3.333 3.333 0 1 0 1.267 2H7.999v1.334h1.886z" fill="#4285F4"/></g></svg>