<svg viewBox="0 0 16 16" xmlns="http://www.w3.org/2000/svg"><g fill="none" fill-rule="evenodd"><path d="M0 1.337A1.33 1.33 0 0 1 1.337 0h13.326A1.33 1.33 0 0 1 16 1.337v13.326A1.33 1.33 0 0 1 14.663 16H1.337A1.33 1.33 0 0 1 0 14.663V1.337z" fill="#EA4335"/><path d="M8 13.594a.193.193 0 0 1-.193-.174c-.374-3.892-3.07-5.265-3.07-7.751a3.263 3.263 0 1 1 6.526 0c0 2.486-2.696 3.859-3.07 7.751a.193.193 0 0 1-.193.174zm0-6.837A1.088 1.088 0 1 0 8 4.58a1.088 1.088 0 0 0 0 2.176z" fill="#F5F5F5"/></g></svg>