<svg viewBox="0 0 16 16" xmlns="http://www.w3.org/2000/svg"><g fill="none" fill-rule="evenodd"><path d="M11.242 0c.28 0 .595.214.697.465L15 8H6.875L3.814.465C3.71.208 3.842 0 4.134 0h7.108z" fill="#EA4335"/><path d="M10.384 15.575a.978.978 0 0 1-.767.425H2.508c-.28 0-.387-.198-.246-.43L6.875 8l4.276 2v4.316l-.767 1.259z" fill="#4285F4"/><path fill="#34A853" d="M11.151 14.316L15 8H6.875z"/><path d="M9.5 1c.276 0 .634.187.79.407L15 8H6.875L2.29 1.417C2.13 1.187 2.23 1 2.5 1h7z" fill="#FDC626"/></g></svg>