<svg viewBox="0 0 16 16" xmlns="http://www.w3.org/2000/svg"><g fill="none" fill-rule="evenodd"><rect fill="#0B3D65" width="16" height="16" rx="1.333"/><path d="M7.512 6.653c.398.369.642.915.642 1.499 0 1.117-.887 2.032-1.992 2.032a2.014 2.014 0 0 1-2.017-2.02c0-.584.244-1.13.642-1.51l-.707-.686a2.964 2.964 0 0 0-.964 2.184c0 1.676 1.363 2.959 3.033 2.959 1.684 0 3.02-1.308 3.02-2.96 0-.875-.36-1.65-.95-2.183l-.707.685zm4.832 2.388c0-.711-.386-.864-.771-.864-.386 0-.771.153-.771.851v1.981h-.964V7.327h.964v.266c.205-.152.475-.343.976-.343.81 0 1.517.47 1.517 1.626v2.12h-.951v.013-1.968z" fill="#FFF"/><path d="M6.137 5.18c-.81 0-1.53.305-2.07.788l.707.685a1.97 1.97 0 0 1 1.363-.546 1.94 1.94 0 0 1 1.362.546l.707-.685c-.527-.495-1.26-.788-2.07-.788zm-3.47-.571l.72.698a4.134 4.134 0 0 1 2.788-1.079c1.041 0 2.005.381 2.737 1.067l.72-.699a5.01 5.01 0 0 0-3.457-1.358c-1.362 0-2.596.52-3.508 1.371zM5.404 7.25l.733.711.745-.71a1.165 1.165 0 0 0-.733-.255c-.282 0-.54.09-.745.254z" fill="#90CAF9"/></g></svg>