<svg viewBox="0 0 16 16" xmlns="http://www.w3.org/2000/svg"><g fill="none" fill-rule="evenodd"><path d="M16 4H0v9c0 .552.453 1 .997 1h14.006c.55 0 .997-.444.997-1V4z" fill="#E0E0E0"/><path d="M16 4H0V3c0-.552.445-1 1-1h14c.552 0 1 .444 1 1v1z" fill="#BDBDBD"/><path d="M2 3.5a.5.5 0 1 0 0-1 .5.5 0 0 0 0 1zm2 0a.5.5 0 1 0 0-1 .5.5 0 0 0 0 1z" fill="#EEE"/><path d="M2.184 11.637c0 .122-.007.273 0 .364h2.533c-.013-.091 0-.24 0-.364a3.273 3.273 0 0 1 4.989-2.786l1.826-1.827a5.807 5.807 0 0 0-9.348 4.614z" fill="#4285F4"/><path d="M9.706 8.85a3.27 3.27 0 0 1 1.557 2.787c0 .123.014.273 0 .364h2.545c.008-.091 0-.242 0-.364 0-1.88-.892-3.55-2.276-4.613L9.706 8.85z" fill="#EA4335"/><path d="M11.551 7.245a.182.182 0 0 0-.147-.288.178.178 0 0 0-.112.04l-3.962 3.05a1.09 1.09 0 1 0 1.597 1.428l.001.001 2.623-4.231z" fill="#9E9E9E"/><path d="M9.548 14l-2.26-2.26a1.093 1.093 0 0 0 1.64-.264l2.623-4.231a.18.18 0 0 0-.002-.216l4.444 4.446v1.65a.995.995 0 0 1-.99.875H9.548z" fill-opacity=".1" fill="#000"/></g></svg>