<svg viewBox="0 0 16 16" xmlns="http://www.w3.org/2000/svg"><g fill="none" fill-rule="evenodd"><path fill="#FF9800" d="M8.727 4H4l4 4.364z"/><path fill="#AD1457" d="M12 8.727V4L7.636 8z"/><path fill="#3367D6" d="M12 12H7.273L8 7.636z"/><path fill="#34A853" d="M4 7.273V12l4.364-4z"/><path fill="#EA4335" d="M12 4L8 0v8z"/><path fill="#8BC34A" d="M4 12l4 4V9.5l-.011-1.489z"/><path fill="#FFBC00" d="M0 8l4-4 4 4z"/><path fill="#4285F4" d="M16 8l-4 4-4-4z"/><path fill="#F5F5F5" d="M7.636 7.636L8 6.546l.364 1.09L9.454 8l-1.09.364L8 9.454l-.364-1.09L6.546 8z"/></g></svg>