<svg viewBox="0 0 16 16" xmlns="http://www.w3.org/2000/svg"><g fill="none" fill-rule="evenodd"><path d="M1 8.242v6.54a1.23 1.23 0 0 0 1.23 1.234h11.54c.68 0 1.23-.561 1.23-1.234v-6.54a6.987 6.987 0 0 0-2.928-5.688l.988-1.58a.462.462 0 0 0-.783-.49l-.989 1.583A6.966 6.966 0 0 0 8 1.247a6.973 6.973 0 0 0-3.29.819L3.724.485a.462.462 0 1 0-.783.49l.986 1.578A6.985 6.985 0 0 0 1 8.242z" fill="#8BC34A"/><path d="M15 9H1l7 7h5.77c.68.016 1.23-.545 1.23-1.218V9z" fill-opacity=".05" fill="#000"/><path d="M11.077 6.477a.923.923 0 1 0 0-1.846.923.923 0 0 0 0 1.846zm-6.154 0a.923.923 0 1 0 0-1.846.923.923 0 0 0 0 1.846z" fill="#F5F5F5"/></g></svg>