<svg viewBox="0 0 16 16" xmlns="http://www.w3.org/2000/svg"><g fill="none" fill-rule="evenodd"><path d="M16 14.663c0 .739-.598 1.337-1.337 1.337H1.337A1.336 1.336 0 0 1 0 14.663V3l8-2 8 2v11.663z" fill="#7DA1B3"/><path fill="#5B7C8C" d="M0 0h16v3H0z"/><path d="M14 7.318c0 .6-.49 1.091-1.09 1.091a.927.927 0 0 1-.28-.038l-1.94 1.936a1.094 1.094 0 0 1-1.053 1.375 1.094 1.094 0 0 1-1.053-1.375l-1.391-1.39a.964.964 0 0 1-.284.038.964.964 0 0 1-.284-.039l-2.481 2.488c.027.087.038.18.038.278 0 .6-.491 1.09-1.091 1.09S2 12.283 2 11.683a1.093 1.093 0 0 1 1.37-1.053l2.486-2.482A1.094 1.094 0 0 1 6.91 6.772a1.094 1.094 0 0 1 1.053 1.375l1.39 1.391a.964.964 0 0 1 .284-.038c.099 0 .197.01.284.038l1.936-1.942a.927.927 0 0 1-.038-.278A1.092 1.092 0 0 1 14 7.317z" fill="#F5F5F5"/></g></svg>