<svg viewBox="0 0 16 16" xmlns="http://www.w3.org/2000/svg"><g fill="none" fill-rule="evenodd"><path fill="#54A4EB" d="M3 7L1.648 5.75 3.235 3 5 4l-.177 1.75z"/><path fill="#0D47A1" d="M13 7l-1.826-1.25L11 4l1.762-1 1.587 2.75z"/><path fill="#F75279" d="M7.999 5.75L9.586 3 11 4l.174 1.75L10 6z"/><path fill="#1E88E5" d="M14 10l-1.238-1.5L13 7l1.35-1.25 1.587 2.75z"/><path fill="#2B8FE7" d="M.06 8.5l1.588-2.75L3 7l.235 1.5L2 9z"/><path fill="#F97D9A" d="M6.41 8.5L8 5.75 10 6l-.414 2.5L8 10z"/><path fill="#429BE9" d="M11.174 11.25l1.588-2.75L14 9l.35 2.25L13 12z"/><path fill="#66AEED" d="M9.586 14l1.588-2.75L13 12l-.238 2z"/><path fill="#2055A8" d="M4 12l-2.352-.75L2 9l1.235-.5 1.588 2.75z"/><path fill="#F8688A" d="M4.823 11.25L6.411 8.5l1.588.5v2.25L6 12z"/><path fill="#F52757" d="M3.235 14L3 12l1.823-.75L7 12l-.59 2z"/><path fill="#66AEED" d="M4.846 3h-1.61l1.587 2.75L6.411 3H4.846z"/><path fill="#F52757" d="M11.197 3h-1.61l1.587 2.75L12.762 3h-1.565z"/><path fill="#429BE9" d="M3.258 5.75h-1.61L3.235 8.5l1.588-2.75H3.258z"/><path fill="#F8688A" d="M9.609 5.75h-1.61L9.586 8.5l1.588-2.75H9.609z"/><path fill="#2055A8" d="M12.784 5.75h-1.61l1.588 2.75 1.587-2.75h-1.565z"/><path fill="#54A4EB" d="M12.784 11.25h-1.61L12.762 14l1.587-2.75h-1.565z"/><path fill="#2B8FE7" d="M12.762 8.5l1.587 2.75 1.588-2.75z"/><path fill="#0D47A1" d="M3.258 11.25h-1.61L3.235 14l1.588-2.75H3.258z"/><path fill="#F75279" d="M6.434 11.25h-1.61L6.41 14l1.588-2.75H6.434z"/><path fill="#1E88E5" d="M.06 8.5l1.588 2.75L3.235 8.5z"/><path fill="#F87292" d="M8.021 8.5h-1.61l1.588 2.75L9.586 8.5H8.021z"/></g></svg>