<svg viewBox="0 0 16 16" xmlns="http://www.w3.org/2000/svg"><g fill="none" fill-rule="evenodd"><path fill="#D1D1D1" d="M8 3.333L0 7l8 7 8-7z"/><path d="M8.408.637a.719.719 0 0 0-.816 0L.408 6.025C.183 6.195 0 6.557 0 6.83v.169h16V6.83c0-.275-.182-.635-.408-.804L8.408.637z" fill="#C9C9C9"/><path fill="#3F51B5" d="M6 8H4v4.997h8V9h-2v3H9V6H7v6H6z"/><path d="M14.667 16L0 7v7.999A.999.999 0 0 0 1 16h13.667z" fill="#E0E0E0"/><path d="M1.333 16L16 7v7.999A.999.999 0 0 1 15 16H1.332z" fill="#EEE"/><path d="M12.142 6.163a.835.835 0 0 1-.809 1.034.833.833 0 0 1-.825-.952L8.532 5.138a.83.83 0 0 1-1.118-.049L5.5 5.951l.001.046a.833.833 0 1 1-.247-.593l1.915-.862a.833.833 0 1 1 1.657.073l1.977 1.107a.83.83 0 0 1 .996-.05l1.393-.975A.835.835 0 0 1 14 3.663a.833.833 0 1 1-.465 1.525l-1.393.975z" fill="#E91E63"/></g></svg>