<svg viewBox="0 0 16 16" xmlns="http://www.w3.org/2000/svg"><g fill="none" fill-rule="evenodd"><path d="M15.111 0H.89A.885.885 0 0 0 0 .875v5.25C0 6.606.4 7 .889 7H15.11a.885.885 0 0 0 .89-.875V.875C16 .394 15.6 0 15.111 0zm0 9H.89a.885.885 0 0 0-.89.875v5.25c0 .481.4.875.889.875H15.11a.885.885 0 0 0 .889-.875v-5.25c0-.481-.4-.875-.889-.875z" fill="#4285F4"/><path d="M4.88 7h4.24L4.562 2.44 2.44 4.56 4.88 7zm0 9h4.24l-4.559-4.56-2.121 2.12L4.88 16z" fill-opacity=".1" fill="#000"/><path d="M3.5 5C2.675 5 2 4.325 2 3.5S2.675 2 3.5 2 5 2.675 5 3.5 4.325 5 3.5 5zm0 9c-.825 0-1.5-.675-1.5-1.5S2.675 11 3.5 11s1.5.675 1.5 1.5S4.325 14 3.5 14z" fill="#F5F5F5"/></g></svg>