<svg viewBox="0 0 16 16" xmlns="http://www.w3.org/2000/svg"><g fill="none" fill-rule="evenodd"><path d="M6.83 10.576a12.188 12.188 0 0 1-.729-.677 11.797 11.797 0 0 1-.195-.201 12.174 12.174 0 0 1-.6-.664 12.762 12.762 0 0 1-.786-1.028c-.81-1.209 1.562-3.01 1.581-3.885.012-.511 4.7-1.738 5.073-2.469.372-.731-3.918-.597-3.323-.855l.148-.065c-2.63-1.097-5.207-.99-6.732.534C-.257 2.791-.364 5.367.733 7.998c.13.315.92 4.234.92 4.234l6.342 2.116s-.775-2.347 0-2.869a12.324 12.324 0 0 1-1.165-.903z" fill="#EA4335"/><path d="M10.917 8.76c-.073.092-.147.183-.224.274l-.117.136a12.829 12.829 0 0 1-.677.729 11.692 11.692 0 0 1-.201.195c-.174.168-.35.329-.528.482-.046.04-.091.08-.137.118a12.729 12.729 0 0 1-1.028.786c-1.82 1.22-3.545 1.611-4.321.836C2.391 11.022 1.417 9.58.797 8.149l-.065-.148c-1.097 2.63-.99 5.207.534 6.732 1.525 1.524 4.101 1.631 6.732.534 1.2-.499 5.644-1.682 5.644-1.682L14.7 8.76s-2.816-.155-3.22-.755a12.39 12.39 0 0 1-.563.755z" fill="#34A853"/><path d="M14.348 4.12c-.228-.263-.099-1.156-.353-1.41-.572-.572-3.701-.917-4.962-.352-1.26.564-.555 1.843-1.028 2.163a12.76 12.76 0 0 1 1.028.786l.137.117a13.588 13.588 0 0 1 .924.878c.167.173.328.35.482.528.04.046.08.091.117.137a12.59 12.59 0 0 1 .786 1.028c1.22 1.82 1.612 3.545.837 4.321-1.294 1.294-2.736 2.267-4.167 2.887l-.148.065c2.631 1.098 5.207.99 6.732-.534 1.524-1.525 1.632-4.101.535-6.733-.5-1.199.06-2.752-.92-3.88z" fill="#FBBC05"/><path d="M14.733 1.267C13.208-.258 10.633-.364 8 .732c-1.199.5-2.411 1.25-3.54 2.23-.264.228-.523.47-.776.723-.775.775-.386 2.5.836 4.31a13.135 13.135 0 0 1 .786-1.028l.117-.137a12.807 12.807 0 0 1 .567-.616 5.873 5.873 0 0 1 .223-.223c.028-.029.059-.057.089-.085.173-.168.35-.328.527-.482l.137-.117a12.954 12.954 0 0 1 1.028-.786L8 4.517l.005.004c1.81-1.22 3.535-1.612 4.311-.837 1.294 1.294 2.267 2.736 2.887 4.167l.065.148c1.096-2.631.99-5.207-.535-6.732z" fill="#4285F4"/><path d="M15.264 7.998c-.021-.05-.042-.1-.065-.149l-.01-.023a10.904 10.904 0 0 0-.238-.513c-.084-.17-.172-.339-.267-.507a8.57 8.57 0 0 0-.168-.295c-.156-.267-.325-.53-.506-.792l-.008-.014a8.941 8.941 0 0 0-.171-.24c-.01-.018-.022-.031-.033-.046a8.272 8.272 0 0 0-.132-.177c-.016-.025-.034-.047-.052-.07-.06-.08-.122-.16-.185-.237-.037-.048-.076-.094-.115-.142a9.497 9.497 0 0 0-.28-.333l-.1-.115a9.116 9.116 0 0 0-.116-.129c-.026-.029-.052-.059-.08-.087a7.525 7.525 0 0 0-.22-.235c-.067-.07-.137-.141-.206-.21a1.193 1.193 0 0 0-.157-.133l3.707 2.481c-.12.64-.32 1.3-.598 1.966zM7.996.73l-.172.075a9.47 9.47 0 0 0-.513.24 9.107 9.107 0 0 0-.579.305A12.905 12.905 0 0 0 5.17 2.38a13.003 13.003 0 0 0-.378.3 7.982 7.982 0 0 0-.448.38 4.679 4.679 0 0 0-.13.117 4.945 4.945 0 0 0-.218.202 10.151 10.151 0 0 0-.314.303 1.202 1.202 0 0 0-.132.157L6.03.134c.64.12 1.301.32 1.966.597zM3.68 12.314c.048.049.1.092.157.132L.132 9.965c.12-.64.32-1.301.598-1.966.02.05.042.1.064.15l.01.022c.074.171.155.343.24.513.082.17.17.339.265.507.013.023.026.049.04.072a12.626 12.626 0 0 0 .634 1.014l.009.014.17.242.034.045c.042.059.087.119.131.176.017.026.035.048.053.072a13.003 13.003 0 0 0 .299.377c.09.113.183.225.28.335.034.038.066.076.101.113a8.804 8.804 0 0 0 .196.218c.04.044.08.087.122.13a10.127 10.127 0 0 0 .302.314zm8.763-.157l-2.48 3.706a9.829 9.829 0 0 1-1.967-.597c.057-.026.115-.05.173-.075.17-.074.342-.154.513-.24.17-.082.339-.17.506-.264l.073-.04.224-.13c.265-.155.53-.325.79-.505l.013-.008a9.325 9.325 0 0 0 .463-.336 11.3 11.3 0 0 0 .308-.237 10.888 10.888 0 0 0 .475-.394c.04-.034.078-.067.115-.102a5.49 5.49 0 0 0 .13-.116l.087-.08c.044-.04.088-.08.131-.122a10.242 10.242 0 0 0 .315-.304c.048-.048.091-.1.131-.156z" fill-opacity=".1" fill="#000"/></g></svg>