<svg viewBox="0 0 16 16" xmlns="http://www.w3.org/2000/svg"><g fill="none" fill-rule="evenodd"><circle fill="#34A853" cx="8" cy="8" r="8"/><circle fill="#FB8C00" cx="10.923" cy="7.692" r=".769"/><circle fill="#FB8C00" cx="5.692" cy="7.692" r=".769"/><circle fill="#CCA58B" cx="8.308" cy="8.308" r="2.923"/><path d="M6.883 5.755A2.922 2.922 0 0 0 5.62 9.459c.625.608 1.567 1.003 2.38 1.003a2.462 2.462 0 0 0 0-4.924c-.36 0-.745.078-1.117.217z" fill="#F9CAAA"/><path d="M12.308 10.77A2.77 2.77 0 0 0 9.538 8H3.692c0 3.059 2.618 5.538 5.846 5.538a2.77 2.77 0 0 0 2.77-2.769z" fill="#F5F5F5"/><ellipse fill="#FB8C00" cx="8.308" cy="8" rx=".923" ry=".615"/><path d="M4.308 4a.923.923 0 1 0 0-1.846.923.923 0 0 0 0 1.846zM5 5.464A.46.46 0 0 1 5.46 5h6.08c.254 0 .46.214.46.464v1.072a.46.46 0 0 1-.46.464H5.46A.466.466 0 0 1 5 6.536V5.464z" fill="#F5F5F5"/><path d="M11 5H6V3c2.308 0 4.272.835 5 2z" fill="#EA4335"/><path d="M9.078 9a.77.77 0 0 1-1.54 0h1.54z" fill="#424242"/></g></svg>