<svg viewBox="0 0 16 16" xmlns="http://www.w3.org/2000/svg"><g fill="none" fill-rule="evenodd"><circle fill="#FBBC05" cx="8" cy="8" r="8"/><path d="M15.962 8.79l-2.206-2.206L12.378 7l-4.5-4.5-1.817 3.521L2 6.584l1.94 1.372.996 1.39.692.86-1.384 2.981 2.75 2.75a8.001 8.001 0 0 0 8.967-7.148z" fill-opacity=".1" fill="#BF360C"/><path d="M4.244 13.186l.69-3.84 2.34-.143.58 2.17-3.61 1.813zM2 6.584l4.035-.563.865 2.083-1.98 1.198L2 6.584zM7.878 2.5l1.805 3.495-1.805 1.43-1.804-1.43L7.878 2.5zm5.878 4.084l-2.92 2.718-1.98-1.198.865-2.083 4.035.563zm-2.245 6.602l-3.609-1.813.58-2.17 2.34.143.689 3.84z" fill="#F5F5F5"/></g></svg>