<svg viewBox="0 0 16 16" xmlns="http://www.w3.org/2000/svg"><g fill="none" fill-rule="evenodd"><path fill="gray" d="M10 1H6L5 2v1h1V2h4v1h1V2z"/><path d="M13.718 3.333H2.276L0 5.574v8.26C0 14.477.53 15 1.185 15h13.63c.654 0 1.185-.522 1.185-1.167V5.58l-2.282-2.246z" fill="#EEE"/><path fill="#FFF" d="M2 7h12v8H2z"/><path fill="#E0E0E0" d="M14 3H2L0 5v3h16V5z"/><path d="M12.998 5A1 1 0 0 1 14 5.997v1.947H2V5.997C2 5.447 2.456 5 3.002 5h9.996z" fill="#4285F4"/><path d="M14 11l-1.643-1.673-.628 1.9L9.185 8.73l-.074 3.86.947 1.46c.142-.028-.707.95-.707.95H14v-4z" fill-opacity=".1" fill="#000"/><path d="M13.054 11.087c0-1.033-.618-1.926-1.498-2.357v2.457l-1.177.623-1.194-.623V8.73a2.623 2.623 0 0 0-1.481 2.357c0 1.033.606 1.924 1.485 2.356V15h2.367v-1.557c.879-.432 1.498-1.323 1.498-2.356z" fill="#424242"/><path fill="#BDBDBD" d="M3 9h3v6H3z"/><circle fill="#EEE" cx="3.5" cy="6.5" r=".5"/><circle fill="#EEE" cx="5.5" cy="6.5" r=".5"/></g></svg>