<svg viewBox="0 0 16 16" xmlns="http://www.w3.org/2000/svg"><path d="M12.67 11.866c.229-.263.44-.55.623-.862h.001a6 6 0 0 0 .45-.96l1.783-.196.472-.461L16 6.613l-.47-.463-1.782-.195a5.99 5.99 0 0 0-1.075-1.824l.722-1.615-.173-.63-1.218-.692-1.219-.692-.642.168L9.08 2.091a6.239 6.239 0 0 0-2.147-.004L5.872.67 5.227.5 2.782 1.887l-.172.631.72 1.615a5.81 5.81 0 0 0-.623.862v.001a5.891 5.891 0 0 0-.451.96l-1.783.195L0 6.613v2.774l.47.463 1.781.194a6.01 6.01 0 0 0 1.076 1.825l-.722 1.615.173.63 1.218.692 1.218.691.643-.168 1.063-1.42a6.253 6.253 0 0 0 2.146.003l1.061 1.419.644.169 2.447-1.387.171-.632-.719-1.615zM8 10.884c1.636 0 2.963-1.291 2.963-2.884S9.636 5.115 8 5.115C6.363 5.115 5.037 6.407 5.037 8c0 1.593 1.326 2.884 2.963 2.884z" fill="#616161" fill-rule="evenodd"/></svg>