<svg viewBox="0 0 16 16" xmlns="http://www.w3.org/2000/svg"><g fill="none" fill-rule="evenodd"><path d="M14.61 1.39L14.663 0H1.337A1.33 1.33 0 0 0 0 1.336v13.328L14.61 1.39z" fill="#34A853"/><path fill="#D2D2D2" d="M1.5 16H7l9-6V1.392z"/><path d="M16 1.608v-.271A1.33 1.33 0 0 0 14.663 0h-.3L0 14.445v.218A1.33 1.33 0 0 0 1.337 16h.355L16 1.608zM5.415 4.5a1.5 1.5 0 1 1-.634-1.78L5.5 2a2.5 2.5 0 1 0 .95 1.5H3.999v1h1.415z" fill="#F5F5F5"/><path fill-opacity=".1" fill="#000" d="M9.172 6.828l5.656-5.656L16 2.343v11.314z"/><circle fill="#FBBC05" cx="12" cy="4" r="4"/><path d="M15.997 9.685l.002 4.976A1.33 1.33 0 0 1 14.672 16H7v-5.203c0-.378.177-.723.45-.94a7.457 7.457 0 0 1 1.525-.882l5.953.097a7.57 7.57 0 0 1 1.069.613z" fill="#FBBC05"/><path d="M14.928 9.072l-.011-.004a7.234 7.234 0 0 0-3.056-.683h-.038a7.231 7.231 0 0 0-2.848.59L12 12l2.928-2.928z" fill="#FB8C00"/></g></svg>