<svg viewBox="0 0 16 16" xmlns="http://www.w3.org/2000/svg"><g fill="none" fill-rule="evenodd"><path d="M10.92 5.265A4 4 0 0 1 8 12v-1.455l-3.636 2.728L8 16v-1.455a6.545 6.545 0 0 0 4.963-10.813l-2.044 1.533z" fill="#3F51B5"/><path d="M5.08 10.735A4 4 0 0 1 8 4v1.455l3.636-2.728L8 0v1.455a6.545 6.545 0 0 0-4.963 10.813l2.044-1.533z" fill="#4285F4"/><path d="M6.602 4.251A3.992 3.992 0 0 1 8 4V1.455L6.602 4.25zM8 12v2.545l1.398-2.796A3.992 3.992 0 0 1 8 12z" fill-opacity=".1" fill="#000"/></g></svg>