<svg viewBox="0 0 16 16" xmlns="http://www.w3.org/2000/svg"><g fill="none" fill-rule="evenodd"><path d="M7.247 15.247c.414.414 1.09.416 1.506 0l6.494-6.494a1.066 1.066 0 0 0 0-1.506L10.2 2.2 7 5.4 9.6 8 8 9.6l-1-1-3.2 3.2 3.447 3.447z" fill="#4285F4"/><path d="M8.753 15.247a1.066 1.066 0 0 1-1.506 0L3.8 11.8 7 8.6l4.2 4.2-2.447 2.447z" fill-opacity=".1" fill="#000"/><path d="M11.2 3.2L8.753.753a1.066 1.066 0 0 0-1.506 0L.753 7.247a1.066 1.066 0 0 0 0 1.506L4.8 12.8 8 9.6 6.4 8 8 6.4l3.2-3.2z" fill="#4FC3F7"/></g></svg>