<svg viewBox="0 0 16 16" xmlns="http://www.w3.org/2000/svg"><g fill="none" fill-rule="evenodd"><path d="M5 10.833l-3.865-2.19c-.627-.355-.637-.925 0-1.286L5 5.167l5 1.118V2.333l3.865-2.19C14.492-.212 15 .085 15 .8v4.367L11.966 8 15 10.833V15.2c0 .718-.498 1.018-1.135.657L10 13.667 8.865 9.12 5 10.833z" fill="#FFE082"/><path fill="#FF9100" d="M10 13.667l-5-2.834V5.167l6.3 2.13z"/><path fill="#FF6D00" d="M10 8v5.667l5-2.834V5.167l-3.71.18z"/><path fill="#FFAB00" d="M10 2.333l5 2.834L10 8 5 5.167l5-2.834z"/></g></svg>