<svg viewBox="0 0 16 16" xmlns="http://www.w3.org/2000/svg"><g fill="none" fill-rule="evenodd"><path d="M16 1.337A1.33 1.33 0 0 0 14.663 0H1.337C.598 0 0 .595 0 1.33V12l2.667 1.333L4 16h10.67c.735 0 1.33-.588 1.33-1.337V1.337z" fill="#FBBC05"/><path d="M4 16v-2.668C4 12.596 3.41 12 2.668 12H0l4 4z" fill="#FADA80"/><path d="M16 10.998V7.333l-3-3-7 7L10.667 16h4.003c.735 0 1.33-.598 1.33-1.337v-3.665z" fill-opacity=".1" fill="#BF360C"/><path fill="#F5F5F5" d="M4 7.333l2 2 6-6 1 1-7 7-3-3z"/></g></svg>