<svg viewBox="0 0 16 16" xmlns="http://www.w3.org/2000/svg"><g fill="none" fill-rule="evenodd"><path d="M16 14.862V4.137C16 3.51 15.49 3 14.86 3H7l1.571 13h6.285A1.14 1.14 0 0 0 16 14.862z" fill="#EEE"/><path d="M11.297 10.176l-1.893 1.872.51.51 1.88-1.88 1.88 1.88.51-.51-1.894-1.872c.629-.72 1.118-1.572 1.341-2.453h.888v-.726h-2.362V6.27h-.727v.727H9.07v.726h3.815s-.238.916-1.09 1.915A6.04 6.04 0 0 1 11 8.45h-.797a6.498 6.498 0 0 0 1.095 1.726z" fill="#607D8B"/><path d="M8.37 3l.201 13h6.285A1.14 1.14 0 0 0 16 14.862V10.63L8.37 3z" fill-opacity=".05" fill="#000"/><path fill="#118147" d="M11.5 13L9 11l-1.5 2 1.071 3z"/><path d="M1.144 0C.512 0 0 .51 0 1.142v10.716C0 12.488.509 13 1.145 13H11.5L7.429 0H1.144z" fill="#34A853"/><path d="M6.463 7.147a.781.781 0 0 0 .768-.793.781.781 0 0 0-.768-.793.782.782 0 0 0-.77.793c0 .439.345.793.77.793zM4.925 8.47V9H8v-.53c0-.528-1.025-.793-1.537-.793-.513 0-1.538.265-1.538.793z" fill-opacity=".5" fill="#FFF"/><path d="M1 8.259v.74h4.614v-.74c0-.74-1.538-1.111-2.307-1.111-.769 0-2.307.37-2.307 1.11zm3.06-2.21c.4-.4.39-1.06-.026-1.47-.41-.416-1.07-.426-1.47-.026-.4.4-.39 1.06.025 1.471.41.415 1.07.425 1.47.025z" fill="#F5F5F5"/></g></svg>