<svg viewBox="0 0 16 16" xmlns="http://www.w3.org/2000/svg"><g fill="none" fill-rule="evenodd"><path d="M1 3V1.253C1 .561 1.552 0 2.253 0h12.494C15.439 0 16 .552 16 1.253v12.494c0 .692-.552 1.253-1.253 1.253H2.253A1.247 1.247 0 0 1 1 13.747V12H.49a.49.49 0 0 1-.49-.495v-2.01A.49.49 0 0 1 .49 9H1V6H.49A.49.49 0 0 1 0 5.505v-2.01A.49.49 0 0 1 .49 3H1z" fill="#4285F4"/><path d="M14.5 6c.276 0 .5.216.5.495v2.01a.503.503 0 0 1-.5.495.494.494 0 0 1-.5-.495v-2.01c0-.273.232-.495.5-.495z" fill="#F5F5F5"/><path d="M16 13.747V6.162l-3.081-3.08-2.73 2.53-3.166.564-.396 2.633-2.546 3.11L7.162 15h7.585c.701 0 1.253-.561 1.253-1.253z" fill-opacity=".1" fill="#000"/><path d="M10.654 6.23l2.269-2.27a.626.626 0 0 0-.884-.883L9.77 5.347A2.488 2.488 0 0 0 8.5 5c-.464 0-.898.126-1.27.346L4.96 3.077a.627.627 0 0 0-.88.004.62.62 0 0 0-.003.88l2.27 2.269A2.477 2.477 0 0 0 6 7.5c0 .464.126.898.346 1.27l-2.269 2.27a.626.626 0 0 0 .884.883l2.269-2.27c.372.22.806.347 1.27.347.464 0 .898-.126 1.27-.346l2.27 2.269c.236.237.635.24.88-.004a.62.62 0 0 0 .003-.88l-2.27-2.269c.22-.372.347-.806.347-1.27 0-.464-.126-.898-.346-1.27zM9.75 7.5a1.25 1.25 0 1 0-2.5 0 1.25 1.25 0 0 0 2.5 0z" fill="#F5F5F5"/></g></svg>