<svg viewBox="0 0 16 16" xmlns="http://www.w3.org/2000/svg"><g fill="none" fill-rule="evenodd"><path d="M14.815 15.037H1.185c-.654 0-1.185-.53-1.185-1.185V5l8-1.5L16 5v8.852c0 .654-.53 1.185-1.185 1.185z" fill="#424242"/><path d="M16 5H0V3.185C0 2.531.53 2 1.185 2H16v3.26V5z" fill="#212121"/><path d="M7.556 2L9.2 3.5 7.556 5h1.481l1.63-1.5L9.037 2H7.556zm-3.26 0L5.94 3.5 4.296 5h1.482l1.63-1.5L5.777 2H4.296zm8 0h-1.481l1.644 1.5L10.815 5h1.481l1.63-1.5-1.63-1.5zm1.63 0l1.63 1.5-1.63 1.5H16V2h-2.074zM1.5 4.25a.75.75 0 1 0 0-1.5.75.75 0 0 0 0 1.5z" fill="#EEE"/></g></svg>