<svg viewBox="0 0 16 16" xmlns="http://www.w3.org/2000/svg"><g fill="none" fill-rule="evenodd"><path d="M4.2 13L0 16V1.27C0 .57.57 0 1.282 0h13.436A1.28 1.28 0 0 1 16 1.27v10.46c0 .701-.57 1.27-1.282 1.27H4.2z" fill="#4285F4"/><path d="M16 11.76L5.984 1.744 4 3.04l1.872 5.52L10.31 13h4.409c.702 0 1.265-.553 1.28-1.24z" fill-opacity=".1" fill="#000"/><path d="M10.347 7.947c-.16-.054-.374 0-.534.106L8.64 9.227C7.147 8.48 5.92 7.2 5.12 5.707l1.173-1.174c.16-.16.214-.373.107-.533a7.173 7.173 0 0 1-.267-1.867c0-.32-.213-.533-.533-.533H3.733c-.32 0-.533.213-.533.533a9.06 9.06 0 0 0 9.067 9.067c.32 0 .533-.213.533-.533V8.8c0-.32-.213-.533-.533-.533a6.04 6.04 0 0 1-1.92-.32z" fill="#F5F5F5"/></g></svg>