<svg viewBox="0 0 16 16" xmlns="http://www.w3.org/2000/svg"><g fill="none" fill-rule="evenodd"><path fill="#FFB40A" d="M14 2v6l-6 6H2V2z"/><path fill="#FFCF3C" d="M2 2h6L2 8z"/><path fill="#FDBE10" d="M0 8l8-8 3 3-8 8z"/><path fill="#FF9A04" d="M5 13l8-8 3 3-8 8z"/><circle fill="#FFCD33" cx="8" cy="8" r="6"/><path d="M12 8a3 3 0 0 1 0 6H9a2 2 0 1 1 0-4h.17A3.001 3.001 0 0 1 12 8z" fill="#F5F5F5"/><path d="M7.915 7a1.5 1.5 0 1 1-.634-1.78L8 4.5A2.5 2.5 0 1 0 8.95 6H6.499v1h1.415z" fill="#FFF"/></g></svg>