<svg viewBox="0 0 16 16" xmlns="http://www.w3.org/2000/svg"><g fill="none" fill-rule="evenodd"><path d="M13 7a4 4 0 0 1-4 4V9a2 2 0 0 0 2-2h2z" fill="#E0E0E0"/><path d="M14.5 7c0-3.038-2.462-6-5.5-6v3c1.38 0 2.5 1.62 2.5 3h3z" fill="#EA4335"/><path d="M1.5 7c0-3.866 3.634-7 7.5-7v4C7.343 4 5.5 5.343 5.5 7h-4z" fill="#4285F4"/><path d="M9 16C4.306 16 .5 11.694.5 7h5c0 1.933 1.567 4 3.5 4v5z" fill="#FBBC05"/><path d="M11.5 7l1.388.944A4.01 4.01 0 0 0 13 7h-1.5zM9 2.5V4l.966-2.899A4.68 4.68 0 0 0 9 1v1.5zM3.5 7h2l-3.921-.98c-.052.32-.079.647-.079.98h2z" fill-opacity=".1" fill="#000"/></g></svg>