<svg style="position: absolute; width: 0; height: 0;" width="0" height="0" version="1.1" xmlns="http://www.w3.org/2000/svg" xmlns:xlink="http://www.w3.org/1999/xlink">
  <defs>
    <symbol id="icon-tumblr" viewBox="0 0 32 32">
      <title>tumblr</title>
      <path class="path1" d="M9.682 24.318c0 1.274 0.182 2.37 0.554 3.296 0.265 0.732 0.816 1.453 1.646 2.2 0.637 0.637 1.551 1.188 2.742 1.646 1.465 0.36 2.739 0.539 3.847 0.539 1.286 0 2.474-0.132 3.57-0.406 1.287-0.277 2.524-0.736 3.715-1.373v-5.084c-1.646 1.105-3.259 1.647-4.81 1.647-0.732 0-1.551-0.228-2.474-0.674-0.542-0.372-0.868-0.782-0.963-1.237-0.277-0.554-0.443-1.742-0.443-3.582v-8.103h7.392v-4.927h-7.392v-8.26h-4.364c-0.363 1.924-0.736 3.293-1.096 4.124-0.455 1.010-1.191 1.923-2.2 2.739-1.009 0.831-2.056 1.419-3.16 1.794v4.53h3.438v11.131z"></path>
    </symbol>
    <symbol id="icon-google" viewBox="0 0 32 32">
      <title>google-plus</title>
      <path class="path1" d="M24.558 14.636h-11.46v3.82h6.992c-1.043 3.321-4.145 5.73-7.811 5.73-4.521 0-8.186-3.665-8.186-8.186s3.665-8.186 8.186-8.186c2.277 0 4.336 0.93 5.82 2.43l2.773-3.014c-2.215-2.17-5.247-3.509-8.593-3.509-6.781-0-12.279 5.497-12.279 12.279s5.498 12.279 12.279 12.279c5.94 0 11.141-4.219 12.279-9.823v-3.82l-0-0z"></path>
      <path class="path2" d="M32 14.629h-2.344v-2.344h-2.009v2.344h-2.344v2.009h2.344v2.344h2.009v-2.344h2.344z"></path>
    </symbol>
    <symbol id="icon-facebook" viewBox="0 0 32 32">
      <title>facebook</title>
      <path class="path1" d="M11.76 32h6.63v-16.009h4.449c0 0 0.417-2.583 0.62-5.408h-5.043v-3.684c0-0.55 0.722-1.29 1.438-1.29h3.613v-5.609h-4.913c-6.957 0-6.793 5.392-6.793 6.198v4.404h-3.227v5.387h3.228v16.011z"></path>
    </symbol>
    <symbol id="icon-twitter" viewBox="0 0 32 32">
      <title>twitter</title>
      <path class="path1" d="M0 26.053c2.905 1.863 6.356 2.95 10.064 2.95 12.076 0 18.679-10.004 18.679-18.679 0-0.284-0.006-0.568-0.019-0.849 1.283-0.925 2.396-2.082 3.276-3.398-1.177 0.522-2.443 0.875-3.771 1.034 1.356-0.813 2.397-2.099 2.887-3.632-1.269 0.752-2.674 1.299-4.169 1.593-1.198-1.276-2.904-2.073-4.792-2.073-3.625 0-6.565 2.939-6.565 6.565 0 0.515 0.058 1.016 0.17 1.496-5.456-0.274-10.294-2.888-13.532-6.86-0.565 0.97-0.889 2.097-0.889 3.301 0 2.277 1.159 4.287 2.92 5.464-1.076-0.034-2.089-0.33-2.974-0.821-0.001 0.028-0.001 0.055-0.001 0.083 0 3.181 2.263 5.834 5.266 6.437-0.551 0.15-1.131 0.23-1.73 0.23-0.423 0-0.834-0.041-1.235-0.118 0.836 2.608 3.26 4.506 6.133 4.559-2.247 1.761-5.078 2.811-8.154 2.811-0.53 0-1.053-0.031-1.566-0.092z"></path>
    </symbol>
    <symbol id="icon-behance" viewBox="0 0 32 32">
      <title>behance</title>
      <path class="path1" d="M12.113 25.326c0.839-0.22 1.588-0.559 2.239-1.021 0.647-0.458 1.171-1.051 1.557-1.782 0.382-0.723 0.573-1.582 0.573-2.58 0-1.231-0.293-2.282-0.89-3.159-0.595-0.872-1.492-1.485-2.704-1.833 0.89-0.421 1.556-0.963 2.009-1.623 0.45-0.662 0.674-1.489 0.674-2.48 0-0.916-0.15-1.691-0.45-2.309-0.307-0.628-0.736-1.127-1.285-1.501-0.557-0.375-1.216-0.648-1.988-0.812-0.777-0.168-1.626-0.25-2.568-0.25h-9.28v19.683h9.541c0.882 0 1.743-0.111 2.572-0.331zM4.334 9.327h4.055c0.383 0 0.758 0.027 1.115 0.097 0.363 0.062 0.677 0.178 0.954 0.346 0.28 0.161 0.501 0.391 0.668 0.685 0.161 0.294 0.242 0.672 0.242 1.13 0 0.825-0.242 1.426-0.74 1.79-0.504 0.37-1.139 0.552-1.907 0.552h-4.385v-4.599zM4.334 22.305v-5.42h4.712c0.933 0 1.691 0.215 2.26 0.646 0.568 0.438 0.853 1.158 0.853 2.172 0 0.517-0.084 0.946-0.259 1.276-0.174 0.333-0.415 0.595-0.704 0.785-0.29 0.198-0.634 0.333-1.021 0.418-0.382 0.085-0.788 0.123-1.215 0.123h-4.625z"></path>
      <path class="path2" d="M19.719 23.954c0.637 0.662 1.395 1.17 2.301 1.532 0.907 0.358 1.917 0.54 3.040 0.54 1.611 0 2.993-0.369 4.127-1.109 1.147-0.737 1.987-1.962 2.541-3.678h-3.447c-0.134 0.441-0.479 0.866-1.046 1.263-0.572 0.398-1.255 0.597-2.044 0.597-1.098 0-1.945-0.288-2.531-0.861-0.588-0.573-0.969-1.639-0.969-2.766h10.284c0.074-1.106-0.016-2.162-0.272-3.173-0.258-1.013-0.672-1.916-1.253-2.705-0.581-0.791-1.32-1.423-2.223-1.889-0.905-0.473-1.961-0.705-3.167-0.705-1.092 0-2.078 0.194-2.972 0.58-0.894 0.387-1.662 0.917-2.309 1.589-0.646 0.668-1.137 1.465-1.493 2.388-0.348 0.92-0.526 1.916-0.526 2.981 0 1.102 0.172 2.119 0.512 3.038 0.344 0.924 0.826 1.71 1.447 2.375zM21.869 16.067c0.1-0.356 0.272-0.689 0.525-1.004 0.254-0.31 0.586-0.574 0.991-0.785 0.415-0.215 0.932-0.32 1.558-0.32 0.961 0 1.75 0.278 2.215 0.793 0.467 0.519 0.809 1.257 0.902 2.255h-6.369c0.018-0.278 0.078-0.593 0.179-0.939z"></path>
      <path class="path3" d="M20.89 7.294h7.979v1.942h-7.979v-1.942z"></path>
    </symbol>
    <symbol id="icon-pinterest" viewBox="0 0 32 32">
      <title>pinterest</title>
      <path class="path1" d="M7.373 18.507c0.419 0.172 0.803 0.006 0.92-0.457 0.092-0.327 0.289-1.136 0.382-1.476 0.117-0.463 0.074-0.623-0.265-1.030-0.741-0.871-1.215-2.001-1.215-3.606 0-4.641 3.475-8.802 9.049-8.802 4.939 0 7.649 3.018 7.649 7.050 0 5.297-2.34 9.766-5.828 9.766-1.925 0-3.358-1.587-2.9-3.538 0.555-2.326 1.623-4.845 1.623-6.524 0-1.508-0.803-2.761-2.476-2.761-1.969 0-3.549 2.032-3.549 4.76 0 1.735 0.586 2.908 0.586 2.908s-2.012 8.526-2.364 10.019c-0.703 2.969-0.104 6.61-0.055 6.982 0.032 0.216 0.314 0.272 0.439 0.104 0.179-0.234 2.524-3.123 3.32-6.012 0.223-0.822 1.291-5.057 1.291-5.057 0.635 1.223 2.505 2.291 4.493 2.291 5.909 0 9.915-5.384 9.915-12.594 0-5.451-4.618-10.531-11.638-10.531-8.741 0-13.136 6.26-13.136 11.481 0 3.167 1.198 5.977 3.76 7.026z"></path>
    </symbol>
    <symbol id="icon-instagram" viewBox="0 0 32 32">
      <title>instagram</title>
      <path class="path1" d="M3.646 32c8.236 0 16.477 0 24.713 0 0.141 0 0.281-0.010 0.423-0.026 1.809-0.212 3.215-1.795 3.215-3.614 0-8.236 0-16.475 0-24.711 0-0.106 0.005-0.212-0.010-0.317-0.196-1.906-1.774-3.332-3.694-3.332-8.191 0-16.381 0-24.576 0.005-0.222 0-0.449 0.014-0.666 0.055-1.814 0.347-3.049 1.849-3.049 3.694v12.252c0 4.072 0 8.149 0 12.223 0 0.206 0.015 0.418 0.045 0.624 0.237 1.769 1.81 3.146 3.599 3.146zM22.159 4.924c0.005-0.706 0.55-1.224 1.259-1.23 1.215 0 2.424 0 3.64 0 0.72 0.005 1.254 0.534 1.254 1.261 0.005 1.209 0.005 2.423 0 3.633 0 0.73-0.534 1.261-1.264 1.261h-1.814c-0.605 0-1.215 0-1.824 0-0.701 0-1.245-0.525-1.25-1.226-0.005-1.235-0.005-2.465 0-3.699zM15.999 9.849c3.402 0 6.155 2.746 6.16 6.148 0 3.402-2.747 6.155-6.149 6.16-3.406 0-6.164-2.757-6.158-6.165 0.005-3.387 2.757-6.143 6.148-6.143zM3.696 13.694v-0.141h2.778c-0.621 2.504-0.338 4.903 0.892 7.171 0.897 1.658 2.182 2.943 3.821 3.871 3.241 1.83 7.273 1.653 10.357-0.453 1.71-1.17 2.939-2.728 3.675-4.668 0.73-1.935 0.822-3.911 0.312-5.926h2.782c0 0.055 0 0.106 0 0.161v13.26c0 0.832-0.503 1.341-1.335 1.341h-20.508c-0.494 0-0.983 0.005-1.477 0-0.77 0-1.295-0.524-1.295-1.295 0-4.44 0-8.881 0-13.321z"></path>
    </symbol>
    <symbol id="icon-favorite" viewBox="0 0 32 32">
      <title>favorite</title>
      <path class="path1" d="M22.972 0.728c-2.724 0-5.274 1.233-6.972 3.3-1.698-2.067-4.248-3.3-6.972-3.3-4.978 0-9.028 4.050-9.028 9.028 0 3.898 2.324 8.407 6.908 13.401 3.528 3.843 7.366 6.819 8.458 7.64l0.634 0.476 0.634-0.476c1.092-0.821 4.93-3.796 8.458-7.64 4.584-4.994 6.909-9.503 6.909-13.401 0-4.978-4.050-9.028-9.028-9.028z"></path>
    </symbol>
    <symbol id="icon-profile" viewBox="0 0 32 32">
      <title>profile</title>
      <path class="path1" d="M23.42 7.42c0 4.098-3.322 7.42-7.42 7.42s-7.42-3.322-7.42-7.42c0-4.098 3.322-7.42 7.42-7.42s7.42 3.322 7.42 7.42z"></path>
      <path class="path2" d="M16 18.551c-7.428 0-13.449 6.021-13.449 13.449h26.899c0-7.428-6.021-13.449-13.449-13.449z"></path>
    </symbol>
    <symbol id="icon-search" viewBox="0 0 32 32">
      <title>search</title>
      <path class="path1" d="M32 30.588l-8.508-8.508c2.018-2.342 3.239-5.388 3.239-8.714-0-7.37-5.996-13.366-13.366-13.366s-13.366 5.996-13.366 13.366 5.996 13.366 13.366 13.366c3.326 0 6.372-1.222 8.714-3.239l8.508 8.508 1.412-1.412zM1.997 13.366c0-6.269 5.1-11.368 11.368-11.368s11.368 5.1 11.368 11.368-5.1 11.368-11.368 11.368-11.368-5.1-11.368-11.368z"></path>
    </symbol>
    <symbol id="icon-settings" viewBox="0 0 32 32">
      <title>settings</title>
      <path class="path1" d="M30.247 12.837h-1.696c-0.315-1.229-0.807-2.381-1.449-3.434l1.22-1.222c0.329-0.329 0.51-0.768 0.51-1.235s-0.182-0.906-0.51-1.234l-2.032-2.030c-0.659-0.66-1.811-0.659-2.468-0.001l-1.271 1.263c-1.041-0.607-2.158-1.075-3.388-1.375v-1.815c0-0.963-0.769-1.754-1.732-1.754h-2.873c-0.963 0-1.72 0.791-1.72 1.754v1.815c-1.229 0.3-2.353 0.768-3.395 1.376l-1.27-1.263c-0.658-0.66-1.811-0.659-2.472-0.001l-2.031 2.030c-0.326 0.325-0.512 0.775-0.512 1.234 0 0.466 0.18 0.904 0.51 1.233l1.219 1.225c-0.641 1.053-1.134 2.204-1.449 3.434h-1.697c-0.963 0-1.741 0.774-1.741 1.735v2.871c0 0.963 0.777 1.72 1.741 1.72h1.697c0.315 1.229 0.807 2.387 1.447 3.441l-1.22 1.227c-0.33 0.329-0.511 0.77-0.511 1.236s0.182 0.907 0.511 1.236l2.032 2.032c0.33 0.329 0.768 0.51 1.233 0.51s0.904-0.182 1.234-0.51l1.276-1.264c1.043 0.608 2.166 1.075 3.395 1.377v1.813c0 0.963 0.757 1.739 1.72 1.739h2.873c0.963 0 1.732-0.776 1.732-1.739v-1.813c1.23-0.301 2.346-0.768 3.389-1.376l1.265 1.261c0.33 0.331 0.768 0.512 1.235 0.512s0.906-0.182 1.235-0.51l2.032-2.030c0.329-0.329 0.51-0.768 0.511-1.233 0-0.466-0.182-0.904-0.511-1.234l-1.218-1.232c0.64-1.054 1.133-2.213 1.448-3.441h1.697c0.963 0 1.754-0.757 1.754-1.72v-2.871c0.001-0.961-0.79-1.735-1.753-1.735zM15.993 21.473c-3.047 0-5.518-2.448-5.518-5.465 0-3.020 2.471-5.464 5.518-5.464s5.52 2.445 5.52 5.464c-0.001 3.018-2.472 5.465-5.52 5.465z"></path>
    </symbol>
    <symbol id="icon-arrow-up" viewBox="0 0 32 32">
      <title>arrow-up</title>
      <path class="path1" d="M16 7.192l-16 15.948 1.663 1.669 14.337-14.29 14.337 14.29 1.663-1.669z"></path>
    </symbol>
    <symbol id="icon-arrow-left" viewBox="0 0 32 32">
      <title>arrow-left</title>
      <path class="path1" d="M24.808 1.663l-1.669-1.663-15.948 16 15.948 16 1.669-1.663-14.29-14.337z"></path>
    </symbol>
    <symbol id="icon-arrow-right" viewBox="0 0 32 32">
      <title>arrow-right</title>
      <path class="path1" d="M8.86 0l-1.669 1.663 14.29 14.337-14.29 14.337 1.669 1.663 15.948-16z"></path>
    </symbol>
    <symbol id="icon-square" viewBox="0 0 32 32">
      <title>square</title>
      <path class="path1" d="M25.438 6.857v18.581h-18.581v-18.581h18.581zM32.295 0h-32.295v32.295h32.295v-32.295z"></path>
    </symbol>
    <symbol id="icon-triangle" viewBox="0 0 32 32">
      <title>triangle</title>
      <path class="path1" d="M16.069 15.163l5.061 9.979h-10.121l5.061-9.979zM16.069 0l-16.226 32h32.453l-16.226-32z"></path>
    </symbol>
    <symbol id="icon-circle" viewBox="0 0 32 32">
      <title>circle</title>
      <path class="path1" d="M16.146 6.857c5.122 0 9.289 4.167 9.289 9.289s-4.167 9.289-9.289 9.289-9.289-4.165-9.289-9.289 4.167-9.289 9.289-9.289zM16.146 0c-8.917 0-16.146 7.23-16.146 16.146 0 8.919 7.23 16.146 16.146 16.146s16.146-7.23 16.146-16.146c0.002-8.917-7.227-16.146-16.146-16.146v0z"></path>
    </symbol>
    <symbol id="icon-cross" viewBox="0 0 32 32">
      <title>cross</title>
      <path class="path1" d="M31.708 25.708c-0-0-0-0-0-0l-9.708-9.708 9.708-9.708c0-0 0-0 0-0 0.105-0.105 0.18-0.227 0.229-0.357 0.133-0.356 0.057-0.771-0.229-1.057l-4.586-4.586c-0.286-0.286-0.702-0.361-1.057-0.229-0.13 0.048-0.252 0.124-0.357 0.228 0 0-0 0-0 0l-9.708 9.708-9.708-9.708c-0-0-0-0-0-0-0.105-0.104-0.227-0.18-0.357-0.228-0.356-0.133-0.771-0.057-1.057 0.229l-4.586 4.586c-0.286 0.286-0.361 0.702-0.229 1.057 0.049 0.13 0.124 0.252 0.229 0.357 0 0 0 0 0 0l9.708 9.708-9.708 9.708c-0 0-0 0-0 0-0.104 0.105-0.18 0.227-0.229 0.357-0.133 0.355-0.057 0.771 0.229 1.057l4.586 4.586c0.286 0.286 0.702 0.361 1.057 0.229 0.13-0.049 0.252-0.124 0.357-0.229 0-0 0-0 0-0l9.708-9.708 9.708 9.708c0 0 0 0 0 0 0.105 0.105 0.227 0.18 0.357 0.229 0.356 0.133 0.771 0.057 1.057-0.229l4.586-4.586c0.286-0.286 0.362-0.702 0.229-1.057-0.049-0.13-0.124-0.252-0.229-0.357z"></path>
    </symbol>
    <symbol id="icon-collections" viewBox="0 0 32 32">
      <title>collections</title>
      <path class="path1" d="M14.401 7.652c-0.296 0-0.563-0.176-0.68-0.448l-0.97-2.264c-0.561-1.309-1.848-2.157-3.272-2.157h-5.919c-1.966 0-3.56 1.594-3.56 3.56v22.875h32v-21.565h-17.599z"></path>
    </symbol>
    <symbol id="icon-account" viewBox="0 0 32 32">
      <title>account</title>
      <path class="path1" d="M16 0.001c-8.836 0-16 7.163-16 15.999s7.164 15.999 16 15.999c8.837 0 16-7.163 16-15.999s-7.163-15.999-16-15.999zM16 4.785c2.924 0 5.293 2.37 5.293 5.292s-2.369 5.292-5.293 5.292c-2.922 0-5.291-2.369-5.291-5.292s2.369-5.292 5.291-5.292zM15.996 27.816c-2.916 0-5.587-1.062-7.646-2.82-0.502-0.428-0.791-1.056-0.791-1.714 0-2.964 2.399-5.336 5.363-5.336h6.158c2.965 0 5.355 2.372 5.355 5.336 0 0.659-0.288 1.285-0.791 1.713-2.059 1.758-4.731 2.82-7.647 2.82z"></path>
    </symbol>
    <symbol id="icon-apps" viewBox="0 0 32 32">
      <title>apps</title>
      <path class="path1" d="M24.126 0h7.874v7.874h-7.874v-7.874z"></path>
      <path class="path2" d="M24.126 12.062h7.874v7.874h-7.874v-7.874z"></path>
      <path class="path3" d="M24.126 24.126h7.874v7.874h-7.874v-7.874z"></path>
      <path class="path4" d="M12.062 0h7.874v7.874h-7.874v-7.874z"></path>
      <path class="path5" d="M12.062 12.062h7.874v7.874h-7.874v-7.874z"></path>
      <path class="path6" d="M12.062 24.126h7.874v7.874h-7.874v-7.874z"></path>
      <path class="path7" d="M0 0h7.874v7.874h-7.874v-7.874z"></path>
      <path class="path8" d="M0 12.062h7.874v7.874h-7.874v-7.874z"></path>
      <path class="path9" d="M0 24.126h7.874v7.874h-7.874v-7.874z"></path>
    </symbol>
    <symbol id="icon-tags" viewBox="0 0 32 32">
      <title>tags</title>
      <path class="path1" d="M15.568 1.857c-0.517-0.517-1.211-0.956-2.081-1.316s-1.667-0.541-2.388-0.541h-8.488c-0.707 0-1.32 0.259-1.836 0.775s-0.775 1.129-0.775 1.836v8.488c0 0.721 0.18 1.516 0.541 2.387s0.799 1.557 1.316 2.061l16.434 16.452 13.709-13.718-16.432-16.425zM8.376 8.376c-0.51 0.51-1.126 0.765-1.847 0.765s-1.336-0.255-1.846-0.765c-0.51-0.51-0.765-1.125-0.765-1.846s0.255-1.337 0.765-1.846c0.51-0.51 1.126-0.765 1.846-0.765s1.337 0.255 1.847 0.765c0.51 0.51 0.765 1.125 0.765 1.846s-0.255 1.336-0.765 1.846z"></path>
    </symbol>
    <symbol id="icon-sources" viewBox="0 0 32 32">
      <title>sources</title>
      <path class="path1" d="M9.316 27.337c0-2.552-2.075-4.627-4.626-4.627s-4.627 2.076-4.627 4.627c0 2.551 2.076 4.627 4.627 4.627s4.626-2.075 4.626-4.627z"></path>
      <path class="path2" d="M0.583 17.49c3.712 0 7.203 1.452 9.83 4.088 2.627 2.641 4.074 6.157 4.074 9.901 0 0.285 0.231 0.516 0.516 0.516h5.934c0.285 0 0.516-0.231 0.516-0.516 0-11.556-9.362-20.958-20.871-20.958-0.285 0-0.516 0.231-0.516 0.516v5.936c0 0.285 0.231 0.516 0.516 0.516z"></path>
      <path class="path3" d="M0.591 0c-0.285 0-0.516 0.231-0.516 0.516v5.935c0 0.285 0.231 0.516 0.516 0.516 13.444 0 24.382 10.998 24.382 24.517 0 0.285 0.231 0.516 0.516 0.516h5.933c0.285 0 0.516-0.231 0.516-0.516 0-17.36-14.062-31.484-31.347-31.484z"></path>
    </symbol>
    <symbol id="icon-bin" viewBox="0 0 32 32">
      <title>bin</title>
      <path class="path1" d="M5.786 32h20.428v-21.101h-20.428v21.101z"></path>
      <path class="path2" d="M25.826 2.307h-6.202c-0.637-1.39-2.019-2.307-3.622-2.307s-2.984 0.917-3.623 2.307h-6.202c-1.228 0-2.243 0.985-2.243 2.213v4.484h24.133v-4.484c0-1.229-1.013-2.213-2.241-2.213z"></path>
    </symbol>
    <symbol id="icon-feedback" viewBox="0 0 32 32">
      <title>feedback</title>
      <path class="path1" d="M0 5.401v15.377c0 1.834 1.482 3.316 3.316 3.316h0.738v5.339c0 0.431 0.522 0.646 0.829 0.339l5.678-5.678h18.124c1.834 0 3.316-1.482 3.316-3.316v-15.377c0-1.834-1.482-3.316-3.316-3.316h-25.369c-1.834 0-3.316 1.482-3.316 3.316zM6.507 16.992c0-0.235 0.189-0.424 0.424-0.424h10.182c0.235 0 0.424 0.189 0.424 0.424v1.677c0 0.235-0.189 0.424-0.424 0.424h-10.188c-0.235 0-0.424-0.189-0.424-0.424v-1.677h0.007zM6.474 12.253c0-0.235 0.189-0.424 0.424-0.424h18.203c0.235 0 0.424 0.189 0.424 0.424v1.677c0 0.235-0.189 0.424-0.424 0.424h-18.203c-0.235 0-0.424-0.189-0.424-0.424v-1.677zM6.474 7.515c0-0.235 0.189-0.424 0.424-0.424h18.203c0.235 0 0.424 0.189 0.424 0.424v1.677c0 0.235-0.189 0.424-0.424 0.424h-18.203c-0.235 0-0.424-0.189-0.424-0.424v-1.677z"></path>
    </symbol>
    <symbol id="icon-close" viewBox="0 0 20 20">
      <title>close</title>
      <path fill="white" class="path1" d="M11.769 10l7.865-7.865c0.489-0.488 0.489-1.28 0-1.769s-1.28-0.489-1.769 0l-7.865 7.865-7.865-7.865c-0.489-0.489-1.28-0.489-1.769 0s-0.489 1.28 0 1.769l7.865 7.865-7.865 7.865c-0.489 0.488-0.489 1.28 0 1.769 0.244 0.244 0.565 0.366 0.884 0.366s0.64-0.122 0.884-0.366l7.865-7.865 7.865 7.865c0.244 0.244 0.565 0.366 0.884 0.366s0.64-0.122 0.884-0.366c0.489-0.488 0.489-1.28 0-1.769l-7.865-7.864z"></path>
    </symbol>
    <symbol id="icon-tick" viewBox="0 0 20 20">
      <title>check</title>
      <path class="path1" d="M19.715 4.1l-0.926-0.926c-0.382-0.382-1.004-0.382-1.389 0l-9.711 9.714-5.087-5.087c-0.382-0.382-1.004-0.382-1.389 0l-0.926 0.926c-0.382 0.382-0.382 1.004 0 1.389l6.705 6.705c0.192 0.192 0.44 0.29 0.691 0.29s0.502-0.098 0.691-0.29l11.332-11.332c0.391-0.388 0.391-1.008 0.010-1.389z"></path>
    </symbol>
    <symbol id="icon-dribbble" viewBox="0 0 20 20">
      <title>dribbble</title>
      <path class="path1" d="M10 0c-5.523 0-10 4.477-10 10s4.477 10 10 10 10-4.477 10-10-4.477-10-10-10zM18.087 9.281c-1.061-0.043-3.070-0.044-5.352 0.355-0.206-0.494-0.417-0.968-0.628-1.421 0.132-0.062 0.263-0.124 0.392-0.189 1.568-0.79 2.869-1.812 3.884-3.046 0.978 1.239 1.567 2.723 1.705 4.3zM15.047 3.64c-0.947 1.206-2.209 2.175-3.777 2.899-0.176-0.332-0.35-0.649-0.519-0.945-0.863-1.518-1.687-2.726-2.303-3.564 0.506-0.097 1.025-0.148 1.552-0.148 1.856 0 3.617 0.619 5.047 1.759zM4.259 4.259c0.677-0.677 1.453-1.22 2.296-1.615 0.591 0.768 1.565 2.123 2.585 3.923 0.117 0.206 0.236 0.422 0.357 0.646-0.784 0.242-1.626 0.437-2.526 0.584-2.019 0.329-3.838 0.319-4.86 0.272 0.347-1.43 1.080-2.742 2.148-3.81zM1.881 10c0-0.019 0.001-0.038 0.001-0.058 0.347 0.018 0.788 0.034 1.303 0.034 1.087 0 2.502-0.068 4.040-0.315 1.11-0.178 2.156-0.43 3.129-0.752 0.172 0.365 0.344 0.745 0.513 1.139-1.247 0.335-2.392 0.774-3.418 1.312-1.666 0.872-3.023 2.006-4.045 3.376-0.989-1.371-1.523-3.012-1.523-4.736zM4.702 16.153c1.429-2.092 3.732-3.55 6.862-4.345 0.628 1.726 1.165 3.656 1.475 5.725-0.953 0.384-1.98 0.586-3.038 0.586-1.966 0-3.825-0.694-5.298-1.966zM15.741 15.741c-0.3 0.3-0.619 0.573-0.954 0.818-0.321-1.838-0.804-3.562-1.361-5.131 1.972-0.309 3.707-0.302 4.61-0.265-0.246 1.727-1.040 3.322-2.295 4.578z"></path>
    </symbol>
    <symbol id="icon-edit" viewBox="0 0 32 32">
      <title>edit</title>
      <path class="path1" d="M29.927 2.073c-2.755-2.761-7.234-2.761-9.989 0l-18.314 18.307c-0.143 0.143-0.232 0.327-0.259 0.525l-1.357 10.050c-0.041 0.286 0.061 0.573 0.259 0.77 0.17 0.17 0.409 0.273 0.648 0.273 0.041 0 0.082 0 0.123-0.007l6.055-0.818c0.505-0.068 0.859-0.532 0.791-1.036s-0.532-0.859-1.036-0.791l-4.855 0.655 0.948-7.009 7.377 7.377c0.17 0.17 0.409 0.273 0.648 0.273s0.477-0.095 0.648-0.273l18.314-18.307c1.336-1.336 2.073-3.109 2.073-4.998s-0.736-3.661-2.073-4.991zM20.293 4.323l3.075 3.075-16.711 16.711-3.075-3.075 16.711-16.711zM10.973 28.419l-3.007-3.007 16.711-16.711 3.007 3.007-16.711 16.711zM28.966 10.391l-7.357-7.357c0.934-0.77 2.1-1.193 3.327-1.193 1.398 0 2.707 0.545 3.695 1.527s1.527 2.298 1.527 3.695c0 1.234-0.423 2.393-1.193 3.327z"></path>
    </symbol>
    <symbol id="icon-document" viewBox="0 0 32 32">
      <title>document</title>
      <path class="path1" d="M27.333 8.019h-7.539v-7.539c0-0.256-0.207-0.463-0.463-0.463h-14.719c-0.256 0-0.463 0.207-0.463 0.463v31.056c0 0.256 0.207 0.463 0.463 0.463h22.721c0.256 0 0.463-0.207 0.463-0.463v-23.054c0-0.256-0.207-0.463-0.463-0.463zM22.054 26.246c0 0.339-0.275 0.615-0.615 0.615h-10.932c-0.339 0-0.615-0.275-0.615-0.615v-1.268c0-0.34 0.275-0.615 0.615-0.615h10.932c0.34 0 0.615 0.275 0.615 0.615v1.268zM22.054 20.832c0 0.339-0.275 0.615-0.615 0.615h-10.932c-0.339 0-0.615-0.275-0.615-0.615v-1.268c0-0.34 0.275-0.615 0.615-0.615h10.932c0.34 0 0.615 0.275 0.615 0.615v1.268zM22.054 15.418c0 0.339-0.275 0.615-0.615 0.615h-10.932c-0.339 0-0.615-0.275-0.615-0.615v-1.268c0-0.339 0.275-0.615 0.615-0.615h10.932c0.34 0 0.615 0.275 0.615 0.615v1.268z"></path>
      <path class="path2" d="M22.914 0.114c-0.112-0.112-0.28-0.145-0.426-0.085s-0.241 0.203-0.241 0.361v4.822c0 0.216 0.175 0.391 0.391 0.391h4.822c0.158 0 0.3-0.095 0.361-0.241s0.027-0.314-0.085-0.426l-4.822-4.822z"></path>
    </symbol>
    <symbol id="icon-hamburger" viewBox="0 0 32 32">
      <title>hamburger</title>
      <path class="path1" d="M0 3.815h32v3.179h-32v-3.179z"></path>
      <path class="path2" d="M0 25.007h32v3.179h-32v-3.179z"></path>
      <path class="path3" d="M0 14.411h32v3.179h-32v-3.179z"></path>
    </symbol>
    <symbol id="icon-question" viewBox="0 0 32 32">
      <title>question</title>
      <path class="path1" d="M15.568 0c5.535 0 10.985 2.549 10.985 8.647 0 5.623-6.443 7.785-7.827 9.817-1.039 1.511-0.692 3.635-3.546 3.635-1.859 0-2.768-1.512-2.768-2.896 0-5.149 7.566-6.315 7.566-10.555 0-2.334-1.553-3.718-4.149-3.718-5.535 0-3.374 5.707-7.566 5.707-1.513 0-2.813-0.908-2.813-2.637-0.001-4.241 4.841-8 10.118-8zM15.352 24.906c1.943 0 3.546 1.598 3.546 3.547s-1.6 3.547-3.546 3.547c-1.946 0-3.547-1.596-3.547-3.547 0-1.948 1.601-3.547 3.547-3.547z"></path>
    </symbol>
    <symbol id="icon-link" viewBox="0 0 32 32">
      <title>link</title>
      <path class="path1" d="M29.789 2.213c-2.95-2.95-7.751-2.949-10.702 0l-5.351 5.351c-0.455 0.455-0.455 1.192 0 1.646s1.192 0.455 1.646 0l5.351-5.351c0.984-0.984 2.3-1.526 3.704-1.526s2.72 0.543 3.705 1.527 1.527 2.3 1.527 3.705c0 1.404-0.543 2.72-1.527 3.704l-6.997 6.998c-2.043 2.042-5.367 2.042-7.41 0-0.455-0.455-1.192-0.455-1.646 0s-0.455 1.192 0 1.646c1.475 1.475 3.413 2.213 5.351 2.213s3.876-0.738 5.351-2.213l6.998-6.998c1.424-1.424 2.209-3.325 2.209-5.351s-0.785-3.927-2.209-5.351z"></path>
      <path class="path2" d="M15.794 23.617l-4.528 4.528c-0.984 0.984-2.3 1.527-3.705 1.527s-2.72-0.543-3.705-1.527c-2.043-2.043-2.043-5.367 0-7.409l6.586-6.586c0.984-0.984 2.3-1.526 3.705-1.526s2.72 0.543 3.704 1.526c0.455 0.455 1.192 0.455 1.646 0s0.455-1.192 0-1.646c-2.95-2.95-7.75-2.95-10.702 0l-6.586 6.587c-1.424 1.424-2.209 3.325-2.209 5.351s0.785 3.926 2.209 5.35c1.424 1.424 3.325 2.209 5.35 2.209s3.927-0.785 5.351-2.209l4.528-4.528c0.455-0.455 0.455-1.192 0-1.646s-1.191-0.455-1.646 0z"></path>
    </symbol>
    <symbol id="icon-play" viewBox="0 0 32 32">
      <title>play</title>
      <path class="path1" d="M1.745 28.991v-25.982c0-2.312 2.502-3.759 4.506-2.602l22.501 12.991c2.003 1.156 2.004 4.046 0 5.203l-22.501 12.991c-2.002 1.156-4.506-0.287-4.506-2.602z"></path>
    </symbol>
    <symbol id="icon-share" viewBox="0 0 32 32">
      <title>share</title>
      <path class="path1" d="M26.288 20.724c-2.022 0-3.798 1.070-4.793 2.674l-10.314-6.032c0.22-0.881 0.228-1.816 0-2.731l10.314-6.032c0.995 1.603 2.771 2.674 4.793 2.674 3.109 0 5.638-2.529 5.638-5.638s-2.529-5.638-5.638-5.638c-3.647 0-6.361 3.436-5.47 7.003l-10.314 6.032c-2.991-4.819-10.431-2.682-10.431 2.964 0 5.648 7.441 7.781 10.431 2.964l10.314 6.032c-0.891 3.568 1.825 7.003 5.47 7.003 3.109 0 5.638-2.529 5.638-5.638s-2.529-5.638-5.638-5.638z"></path>
    </symbol>
    <symbol id="icon-view" viewBox="0 0 20 20">
      <title>view</title>
      <path class="path1" d="M19.741 9.299c-0.176-0.207-4.374-5.066-9.741-5.066s-9.565 4.859-9.741 5.066c-0.345 0.406-0.345 0.996 0 1.402 0.176 0.207 4.374 5.066 9.741 5.066s9.565-4.859 9.741-5.066c0.345-0.406 0.345-0.996-0-1.402zM11.64 7.152c0.361-0.197 0.864 0.029 1.124 0.505s0.178 1.021-0.183 1.218c-0.361 0.197-0.864-0.029-1.124-0.505s-0.178-1.021 0.183-1.218zM10 14.007c-3.749 0-6.904-2.879-7.996-4.007 0.737-0.762 2.416-2.321 4.583-3.254-0.423 0.643-0.67 1.411-0.67 2.238 0 2.255 1.828 4.083 4.083 4.083s4.083-1.828 4.083-4.083c0-0.827-0.248-1.595-0.67-2.238 2.167 0.933 3.845 2.492 4.583 3.254-1.092 1.128-4.247 4.007-7.996 4.007z"></path>
    </symbol>
  </defs>
</svg>
