<svg style="position: absolute; width: 0; height: 0;" width="0" height="0" version="1.1" xmlns="http://www.w3.org/2000/svg" xmlns:xlink="http://www.w3.org/1999/xlink"><defs><symbol id="icon-tumblr" viewBox="0 0 32 32"><title>tumblr</title><path class="path1" d="M9.682 24.318c0 1.274 0.182 2.37 0.554 3.296 0.265 0.732 0.816 1.453 1.646 2.2 0.637 0.637 1.551 1.188 2.742 1.646 1.465 0.36 2.739 0.539 3.847 0.539 1.286 0 2.474-0.132 3.57-0.406 1.287-0.277 2.524-0.736 3.715-1.373v-5.084c-1.646 1.105-3.259 1.647-4.81 1.647-0.732 0-1.551-0.228-2.474-0.674-0.542-0.372-0.868-0.782-0.963-1.237-0.277-0.554-0.443-1.742-0.443-3.582v-8.103h7.392v-4.927h-7.392v-8.26h-4.364c-0.363 1.924-0.736 3.293-1.096 4.124-0.455 1.010-1.191 1.923-2.2 2.739-1.009 0.831-2.056 1.419-3.16 1.794v4.53h3.438v11.131z"></path></symbol><symbol id="icon-google" viewBox="0 0 32 32"><title>google-plus</title><path class="path1" d="M24.558 14.636h-11.46v3.82h6.992c-1.043 3.321-4.145 5.73-7.811 5.73-4.521 0-8.186-3.665-8.186-8.186s3.665-8.186 8.186-8.186c2.277 0 4.336 0.93 5.82 2.43l2.773-3.014c-2.215-2.17-5.247-3.509-8.593-3.509-6.781-0-12.279 5.497-12.279 12.279s5.498 12.279 12.279 12.279c5.94 0 11.141-4.219 12.279-9.823v-3.82l-0-0z"></path><path class="path2" d="M32 14.629h-2.344v-2.344h-2.009v2.344h-2.344v2.009h2.344v2.344h2.009v-2.344h2.344z"></path></symbol><symbol id="icon-facebook" viewBox="0 0 32 32"><title>facebook</title><path class="path1" d="M11.76 32h6.63v-16.009h4.449c0 0 0.417-2.583 0.62-5.408h-5.043v-3.684c0-0.55 0.722-1.29 1.438-1.29h3.613v-5.609h-4.913c-6.957 0-6.793 5.392-6.793 6.198v4.404h-3.227v5.387h3.228v16.011z"></path></symbol><symbol id="icon-twitter" viewBox="0 0 32 32"><title>twitter</title><path class="path1" d="M0 26.053c2.905 1.863 6.356 2.95 10.064 2.95 12.076 0 18.679-10.004 18.679-18.679 0-0.284-0.006-0.568-0.019-0.849 1.283-0.925 2.396-2.082 3.276-3.398-1.177 0.522-2.443 0.875-3.771 1.034 1.356-0.813 2.397-2.099 2.887-3.632-1.269 0.752-2.674 1.299-4.169 1.593-1.198-1.276-2.904-2.073-4.792-2.073-3.625 0-6.565 2.939-6.565 6.565 0 0.515 0.058 1.016 0.17 1.496-5.456-0.274-10.294-2.888-13.532-6.86-0.565 0.97-0.889 2.097-0.889 3.301 0 2.277 1.159 4.287 2.92 5.464-1.076-0.034-2.089-0.33-2.974-0.821-0.001 0.028-0.001 0.055-0.001 0.083 0 3.181 2.263 5.834 5.266 6.437-0.551 0.15-1.131 0.23-1.73 0.23-0.423 0-0.834-0.041-1.235-0.118 0.836 2.608 3.26 4.506 6.133 4.559-2.247 1.761-5.078 2.811-8.154 2.811-0.53 0-1.053-0.031-1.566-0.092z"></path></symbol><symbol id="icon-behance" viewBox="0 0 32 32"><title>behance</title><path class="path1" d="M12.113 25.326c0.839-0.22 1.588-0.559 2.239-1.021 0.647-0.458 1.171-1.051 1.557-1.782 0.382-0.723 0.573-1.582 0.573-2.58 0-1.231-0.293-2.282-0.89-3.159-0.595-0.872-1.492-1.485-2.704-1.833 0.89-0.421 1.556-0.963 2.009-1.623 0.45-0.662 0.674-1.489 0.674-2.48 0-0.916-0.15-1.691-0.45-2.309-0.307-0.628-0.736-1.127-1.285-1.501-0.557-0.375-1.216-0.648-1.988-0.812-0.777-0.168-1.626-0.25-2.568-0.25h-9.28v19.683h9.541c0.882 0 1.743-0.111 2.572-0.331zM4.334 9.327h4.055c0.383 0 0.758 0.027 1.115 0.097 0.363 0.062 0.677 0.178 0.954 0.346 0.28 0.161 0.501 0.391 0.668 0.685 0.161 0.294 0.242 0.672 0.242 1.13 0 0.825-0.242 1.426-0.74 1.79-0.504 0.37-1.139 0.552-1.907 0.552h-4.385v-4.599zM4.334 22.305v-5.42h4.712c0.933 0 1.691 0.215 2.26 0.646 0.568 0.438 0.853 1.158 0.853 2.172 0 0.517-0.084 0.946-0.259 1.276-0.174 0.333-0.415 0.595-0.704 0.785-0.29 0.198-0.634 0.333-1.021 0.418-0.382 0.085-0.788 0.123-1.215 0.123h-4.625z"></path><path class="path2" d="M19.719 23.954c0.637 0.662 1.395 1.17 2.301 1.532 0.907 0.358 1.917 0.54 3.040 0.54 1.611 0 2.993-0.369 4.127-1.109 1.147-0.737 1.987-1.962 2.541-3.678h-3.447c-0.134 0.441-0.479 0.866-1.046 1.263-0.572 0.398-1.255 0.597-2.044 0.597-1.098 0-1.945-0.288-2.531-0.861-0.588-0.573-0.969-1.639-0.969-2.766h10.284c0.074-1.106-0.016-2.162-0.272-3.173-0.258-1.013-0.672-1.916-1.253-2.705-0.581-0.791-1.32-1.423-2.223-1.889-0.905-0.473-1.961-0.705-3.167-0.705-1.092 0-2.078 0.194-2.972 0.58-0.894 0.387-1.662 0.917-2.309 1.589-0.646 0.668-1.137 1.465-1.493 2.388-0.348 0.92-0.526 1.916-0.526 2.981 0 1.102 0.172 2.119 0.512 3.038 0.344 0.924 0.826 1.71 1.447 2.375zM21.869 16.067c0.1-0.356 0.272-0.689 0.525-1.004 0.254-0.31 0.586-0.574 0.991-0.785 0.415-0.215 0.932-0.32 1.558-0.32 0.961 0 1.75 0.278 2.215 0.793 0.467 0.519 0.809 1.257 0.902 2.255h-6.369c0.018-0.278 0.078-0.593 0.179-0.939z"></path><path class="path3" d="M20.89 7.294h7.979v1.942h-7.979v-1.942z"></path></symbol><symbol id="icon-pinterest" viewBox="0 0 32 32"><title>pinterest</title><path class="path1" d="M7.373 18.507c0.419 0.172 0.803 0.006 0.92-0.457 0.092-0.327 0.289-1.136 0.382-1.476 0.117-0.463 0.074-0.623-0.265-1.030-0.741-0.871-1.215-2.001-1.215-3.606 0-4.641 3.475-8.802 9.049-8.802 4.939 0 7.649 3.018 7.649 7.050 0 5.297-2.34 9.766-5.828 9.766-1.925 0-3.358-1.587-2.9-3.538 0.555-2.326 1.623-4.845 1.623-6.524 0-1.508-0.803-2.761-2.476-2.761-1.969 0-3.549 2.032-3.549 4.76 0 1.735 0.586 2.908 0.586 2.908s-2.012 8.526-2.364 10.019c-0.703 2.969-0.104 6.61-0.055 6.982 0.032 0.216 0.314 0.272 0.439 0.104 0.179-0.234 2.524-3.123 3.32-6.012 0.223-0.822 1.291-5.057 1.291-5.057 0.635 1.223 2.505 2.291 4.493 2.291 5.909 0 9.915-5.384 9.915-12.594 0-5.451-4.618-10.531-11.638-10.531-8.741 0-13.136 6.26-13.136 11.481 0 3.167 1.198 5.977 3.76 7.026z"></path></symbol><symbol id="icon-instagram" viewBox="0 0 32 32"><title>instagram</title><path class="path1" d="M3.646 32c8.236 0 16.477 0 24.713 0 0.141 0 0.281-0.010 0.423-0.026 1.809-0.212 3.215-1.795 3.215-3.614 0-8.236 0-16.475 0-24.711 0-0.106 0.005-0.212-0.010-0.317-0.196-1.906-1.774-3.332-3.694-3.332-8.191 0-16.381 0-24.576 0.005-0.222 0-0.449 0.014-0.666 0.055-1.814 0.347-3.049 1.849-3.049 3.694v12.252c0 4.072 0 8.149 0 12.223 0 0.206 0.015 0.418 0.045 0.624 0.237 1.769 1.81 3.146 3.599 3.146zM22.159 4.924c0.005-0.706 0.55-1.224 1.259-1.23 1.215 0 2.424 0 3.64 0 0.72 0.005 1.254 0.534 1.254 1.261 0.005 1.209 0.005 2.423 0 3.633 0 0.73-0.534 1.261-1.264 1.261h-1.814c-0.605 0-1.215 0-1.824 0-0.701 0-1.245-0.525-1.25-1.226-0.005-1.235-0.005-2.465 0-3.699zM15.999 9.849c3.402 0 6.155 2.746 6.16 6.148 0 3.402-2.747 6.155-6.149 6.16-3.406 0-6.164-2.757-6.158-6.165 0.005-3.387 2.757-6.143 6.148-6.143zM3.696 13.694v-0.141h2.778c-0.621 2.504-0.338 4.903 0.892 7.171 0.897 1.658 2.182 2.943 3.821 3.871 3.241 1.83 7.273 1.653 10.357-0.453 1.71-1.17 2.939-2.728 3.675-4.668 0.73-1.935 0.822-3.911 0.312-5.926h2.782c0 0.055 0 0.106 0 0.161v13.26c0 0.832-0.503 1.341-1.335 1.341h-20.508c-0.494 0-0.983 0.005-1.477 0-0.77 0-1.295-0.524-1.295-1.295 0-4.44 0-8.881 0-13.321z"></path></symbol><symbol id="icon-favorite" viewBox="0 0 32 32"><title>favorite</title><path class="path1" d="M22.972 0.728c-2.724 0-5.274 1.233-6.972 3.3-1.698-2.067-4.248-3.3-6.972-3.3-4.978 0-9.028 4.050-9.028 9.028 0 3.898 2.324 8.407 6.908 13.401 3.528 3.843 7.366 6.819 8.458 7.64l0.634 0.476 0.634-0.476c1.092-0.821 4.93-3.796 8.458-7.64 4.584-4.994 6.909-9.503 6.909-13.401 0-4.978-4.050-9.028-9.028-9.028z"></path></symbol><symbol id="icon-profile" viewBox="0 0 32 32"><title>profile</title><path class="path1" d="M23.42 7.42c0 4.098-3.322 7.42-7.42 7.42s-7.42-3.322-7.42-7.42c0-4.098 3.322-7.42 7.42-7.42s7.42 3.322 7.42 7.42z"></path><path class="path2" d="M16 18.551c-7.428 0-13.449 6.021-13.449 13.449h26.899c0-7.428-6.021-13.449-13.449-13.449z"></path></symbol><symbol id="icon-search" viewBox="0 0 32 32"><title>search</title><path class="path1" d="M32 30.588l-8.508-8.508c2.018-2.342 3.239-5.388 3.239-8.714-0-7.37-5.996-13.366-13.366-13.366s-13.366 5.996-13.366 13.366 5.996 13.366 13.366 13.366c3.326 0 6.372-1.222 8.714-3.239l8.508 8.508 1.412-1.412zM1.997 13.366c0-6.269 5.1-11.368 11.368-11.368s11.368 5.1 11.368 11.368-5.1 11.368-11.368 11.368-11.368-5.1-11.368-11.368z"></path></symbol><symbol id="icon-settings" viewBox="0 0 32 32"><title>settings</title><path class="path1" d="M32 18.075v-4.923h-4.443c-0.311-1.463-0.894-2.825-1.693-4.032l2.976-2.976-3.481-3.481-3.007 3.007c-1.26-0.802-2.683-1.371-4.208-1.647v-4.022h-4.923v4.172c-1.498 0.367-2.884 1.021-4.096 1.9l-2.913-2.913-3.481 3.481 3.093 3.093c-0.72 1.248-1.218 2.639-1.44 4.122h-4.386v4.923h4.686c0.38 1.364 0.998 2.628 1.808 3.744l-3.264 3.264 3.481 3.481 3.445-3.445c1.148 0.663 2.419 1.137 3.77 1.382v4.795h4.923v-4.945c1.33-0.326 2.571-0.877 3.681-1.612l3.328 3.328 3.481-3.481-3.359-3.359c0.74-1.163 1.282-2.464 1.578-3.856h4.443zM16.035 21.767c-3.393 0-6.154-2.761-6.154-6.154s2.761-6.154 6.154-6.154 6.154 2.761 6.154 6.154-2.761 6.154-6.154 6.154z"></path></symbol><symbol id="icon-arrow-up" viewBox="0 0 32 32"><title>arrow-up</title><path class="path1" d="M16 7.192l-16 15.948 1.663 1.669 14.337-14.29 14.337 14.29 1.663-1.669z"></path></symbol><symbol id="icon-arrow-left" viewBox="0 0 32 32"><title>arrow-left</title><path class="path1" d="M24.808 1.663l-1.669-1.663-15.948 16 15.948 16 1.669-1.663-14.29-14.337z"></path></symbol><symbol id="icon-arrow-right" viewBox="0 0 32 32"><title>arrow-right</title><path class="path1" d="M8.86 0l-1.669 1.663 14.29 14.337-14.29 14.337 1.669 1.663 15.948-16z"></path></symbol><symbol id="icon-document" viewBox="0 0 32 32"><title>document</title><path class="path1" d="M27.333 8.019h-7.539v-7.539c0-0.256-0.207-0.463-0.463-0.463h-14.719c-0.256 0-0.463 0.207-0.463 0.463v31.056c0 0.256 0.207 0.463 0.463 0.463h22.721c0.256 0 0.463-0.207 0.463-0.463v-23.054c0-0.256-0.207-0.463-0.463-0.463zM22.054 26.246c0 0.339-0.275 0.615-0.615 0.615h-10.932c-0.339 0-0.615-0.275-0.615-0.615v-1.268c0-0.34 0.275-0.615 0.615-0.615h10.932c0.34 0 0.615 0.275 0.615 0.615v1.268zM22.054 20.832c0 0.339-0.275 0.615-0.615 0.615h-10.932c-0.339 0-0.615-0.275-0.615-0.615v-1.268c0-0.34 0.275-0.615 0.615-0.615h10.932c0.34 0 0.615 0.275 0.615 0.615v1.268zM22.054 15.418c0 0.339-0.275 0.615-0.615 0.615h-10.932c-0.339 0-0.615-0.275-0.615-0.615v-1.268c0-0.339 0.275-0.615 0.615-0.615h10.932c0.34 0 0.615 0.275 0.615 0.615v1.268z"></path><path class="path2" d="M22.914 0.114c-0.112-0.112-0.28-0.145-0.426-0.085s-0.241 0.203-0.241 0.361v4.822c0 0.216 0.175 0.391 0.391 0.391h4.822c0.158 0 0.3-0.095 0.361-0.241s0.027-0.314-0.085-0.426l-4.822-4.822z"></path></symbol></defs></svg>