<?xml version="1.0" encoding="UTF-8" standalone="no"?>
<svg width="8px" height="8px" viewBox="0 0 8 8" version="1.1" xmlns="http://www.w3.org/2000/svg" xmlns:xlink="http://www.w3.org/1999/xlink">
    <!-- Generator: Sketch 3.6.1 (26313) - http://www.bohemiancoding.com/sketch -->
    <title>Shape</title>
    <desc>Created with Sketch.</desc>
    <defs></defs>
    <g id="Ui-kit" stroke="none" stroke-width="1" fill="none" fill-rule="evenodd">
        <g id="Blocks" transform="translate(-1016.000000, -3528.000000)" fill="#FFFFFF">
            <g id="add" transform="translate(733.000000, 3230.000000)">
                <g id="Group">
                    <g id="Bitmap">
                        <g id="Rectangle-285-+-create" transform="translate(271.000000, 286.000000)">
                            <g id="Group-6" transform="translate(12.000000, 12.000000)">
                                <path d="M5.35455209,3.99985631 L7.71936631,1.63523368 C8.09354456,1.26105543 8.09354456,0.654476656 7.71936631,0.280489995 C7.34557124,-0.0934966651 6.73860929,-0.0934966651 6.36481422,0.280489995 L4,2.6454958 L1.63518578,0.280489995 C1.26139071,-0.0934966651 0.654428758,-0.0934966651 0.280633689,0.280489995 C-0.093544563,0.654668247 -0.093544563,1.26124702 0.280633689,1.63523368 L2.64525631,3.99985631 L0.280633689,6.36447893 C-0.093544563,6.73865718 -0.093544563,7.34523596 0.280633689,7.71922262 C0.467435428,7.90640754 0.712864174,7.99971261 0.957909736,7.99971261 C1.20276371,7.99971261 1.44838405,7.90640754 1.63518578,7.71922262 L4,5.35459999 L6.36481422,7.71941421 C6.55180755,7.90659913 6.7970447,7.9999042 7.04209026,7.9999042 C7.28713583,7.9999042 7.53256457,7.90659913 7.71936631,7.71941421 C8.09354456,7.34523596 8.09354456,6.73865718 7.71936631,6.36467052 L5.35455209,3.99985631 L5.35455209,3.99985631 Z" id="Shape"></path>
                            </g>
                        </g>
                    </g>
                </g>
            </g>
        </g>
    </g>
</svg>