<?xml version="1.0" encoding="UTF-8" standalone="no"?>
<svg width="8px" height="8px" viewBox="0 0 8 8" version="1.1" xmlns="http://www.w3.org/2000/svg" xmlns:xlink="http://www.w3.org/1999/xlink">
    <!-- Generator: Sketch 3.6.1 (26313) - http://www.bohemiancoding.com/sketch -->
    <title>Shape</title>
    <desc>Created with Sketch.</desc>
    <defs></defs>
    <g id="Ui-kit" stroke="none" stroke-width="1" fill="none" fill-rule="evenodd">
        <g id="Blocks" transform="translate(-1015.000000, -3527.000000)" fill="#8EABBC">
            <g id="add" transform="translate(733.000000, 3230.000000)">
                <g id="Group">
                    <g id="Bitmap">
                        <g id="Rectangle-285-+-create" transform="translate(271.000000, 286.000000)">
                            <path d="M16.3545521,14.9998563 L18.7193663,12.6352337 C19.0935446,12.2610554 19.0935446,11.6544767 18.7193663,11.28049 C18.3455712,10.9065033 17.7386093,10.9065033 17.3648142,11.28049 L15,13.6454958 L12.6351858,11.28049 C12.2613907,10.9065033 11.6544288,10.9065033 11.2806337,11.28049 C10.9064554,11.6546682 10.9064554,12.261247 11.2806337,12.6352337 L13.6452563,14.9998563 L11.2806337,17.3644789 C10.9064554,17.7386572 10.9064554,18.345236 11.2806337,18.7192226 C11.4674354,18.9064075 11.7128642,18.9997126 11.9579097,18.9997126 C12.2027637,18.9997126 12.448384,18.9064075 12.6351858,18.7192226 L15,16.3546 L17.3648142,18.7194142 C17.5518075,18.9065991 17.7970447,18.9999042 18.0420903,18.9999042 C18.2871358,18.9999042 18.5325646,18.9065991 18.7193663,18.7194142 C19.0935446,18.345236 19.0935446,17.7386572 18.7193663,17.3646705 L16.3545521,14.9998563 L16.3545521,14.9998563 Z" id="Shape"></path>
                        </g>
                    </g>
                </g>
            </g>
        </g>
    </g>
</svg>