<?xml version="1.0" encoding="UTF-8" standalone="no"?>
<svg width="37px" height="37px" viewBox="0 0 37 37" version="1.1" xmlns="http://www.w3.org/2000/svg" xmlns:xlink="http://www.w3.org/1999/xlink" xmlns:sketch="http://www.bohemiancoding.com/sketch/ns">
    <!-- Generator: Sketch 3.5.2 (25235) - http://www.bohemiancoding.com/sketch -->
    <title>Group 2</title>
    <desc>Created with Sketch.</desc>
    <defs></defs>
    <g id="Geral-Web" stroke="none" stroke-width="1" fill="none" fill-rule="evenodd" sketch:type="MSPage">
        <g id="Index-open" sketch:type="MSArtboardGroup" transform="translate(-19.000000, -296.000000)">
            <g id="left-open-1" sketch:type="MSLayerGroup" transform="translate(-3.000000, 30.000000)">
                <g id="links" transform="translate(0.000000, 91.000000)" sketch:type="MSShapeGroup">
                    <g id="feed-list" transform="translate(23.000000, 176.000000)">
                        <g id="Group-2">
                            <circle id="Oval-13-Copy" stroke-opacity="0.1" stroke="#FFFFFF" cx="17.5" cy="17.5" r="17.5"></circle>
                            <path d="M21.9496,16.8472 C21.9376,16.884 21.9256,16.9192 21.908,16.9536 L21.9152,16.9576 L18.7152,23.3576 L18.708,23.3536 C18.5768,23.6152 18.3128,23.8 18,23.8 C17.5584,23.8 17.2,23.4416 17.2,22.9992 L17.2,19 L14.8,19 C14.3576,19 14,18.6416 14,18.1992 C14,18.1112 14.0216,18.0304 14.0496,17.952 C14.0624,17.9152 14.0744,17.88 14.0912,17.8456 L14.084,17.8416 L17.284,11.4416 L17.2912,11.4456 C17.4232,11.184 17.6872,11 18,11 C18.4416,11 18.8,11.3576 18.8,11.8 L18.8,15.7992 L21.2,15.7992 C21.6416,15.7992 22,16.1576 22,16.5992 C22,16.688 21.9784,16.7688 21.9496,16.8472 L21.9496,16.8472 Z" id="Shape" fill="#9B86EF"></path>
                        </g>
                    </g>
                </g>
            </g>
        </g>
    </g>
</svg>