<?xml version="1.0" encoding="UTF-8" standalone="no"?>
<svg width="11px" height="19px" viewBox="0 0 11 19" version="1.1" xmlns="http://www.w3.org/2000/svg" xmlns:xlink="http://www.w3.org/1999/xlink" xmlns:sketch="http://www.bohemiancoding.com/sketch/ns">
    <!-- Generator: Sketch 3.5.2 (25235) - http://www.bohemiancoding.com/sketch -->
    <title>Fill 560 Copy 3</title>
    <desc>Created with Sketch.</desc>
    <defs></defs>
    <g id="Notice-open" stroke="none" stroke-width="1" fill="none" fill-rule="evenodd" sketch:type="MSPage">
        <g id="Slider-post-img" sketch:type="MSArtboardGroup" transform="translate(-1396.000000, -514.000000)" fill="#FFFFFF">
            <path d="M1406.44077,530.301595 L1399.25338,523.297403 L1406.44077,516.294548 C1406.96896,515.779731 1406.98099,514.931953 1406.46484,514.403764 C1405.95136,513.874237 1405.10224,513.864877 1404.57405,514.379695 L1396.40383,522.339976 C1396.14575,522.591368 1396,522.9377 1396,523.297403 C1396,523.658444 1396.14575,524.004776 1396.40383,524.25483 L1404.57405,532.215112 C1404.8348,532.469178 1405.17177,532.594873 1405.50741,532.594873 C1405.85508,532.594873 1406.20408,532.461154 1406.46484,532.19238 C1406.98099,531.662853 1406.96896,530.815076 1406.44077,530.301595 Z" id="Fill-560-Copy-3" sketch:type="MSShapeGroup" transform="translate(1401.422273, 523.297437) rotate(-180.000000) translate(-1401.422273, -523.297437) "></path>
        </g>
    </g>
</svg>