<?xml version="1.0" encoding="UTF-8" standalone="no"?>
<svg width="32px" height="32px" viewBox="0 0 32 32" version="1.1" xmlns="http://www.w3.org/2000/svg" xmlns:xlink="http://www.w3.org/1999/xlink" xmlns:sketch="http://www.bohemiancoding.com/sketch/ns">
    <!-- Generator: Sketch 3.4.4 (17249) - http://www.bohemiancoding.com/sketch -->
    <title>login-twitter-hover</title>
    <desc>Created with Sketch.</desc>
    <defs></defs>
    <g id="Ui-kit" stroke="none" stroke-width="1" fill="none" fill-rule="evenodd" sketch:type="MSPage">
        <g id="Menu-left" sketch:type="MSArtboardGroup" transform="translate(-1325.000000, -84.000000)">
            <g id="social-login" sketch:type="MSLayerGroup" transform="translate(1190.000000, 84.000000)">
                <g id="login-twitter-hover" transform="translate(135.000000, 0.000000)" sketch:type="MSShapeGroup">
                    <circle id="Oval-136-Copy" stroke="#55ACEE" fill="#55ACEE" cx="16" cy="16" r="15"></circle>
                    <rect id="Rectangle-93" fill="#55ACEE" x="0" y="0" width="32" height="32"></rect>
                    <g id="post-gplus" transform="translate(10.000000, 11.000000)" fill="#FFFFFF">
                        <path d="M10.9753058,2.48525158 C10.8814998,6.80032909 8.16112485,9.80212213 4.03365941,9.9897342 C2.34515082,10.0835402 1.12567239,9.52070403 0,8.86406181 C1.21947843,9.05167387 2.81418098,8.58264371 3.65843528,7.83219545 C2.43895685,7.73838941 1.68850859,7.08174718 1.31328446,6.04988082 C1.68850859,6.14368686 2.06373272,6.04988082 2.34515082,6.04988082 C1.21947843,5.67465669 0.469030164,5.01801447 0.375224131,3.51711794 C0.656642229,3.70473001 1.03186636,3.79853604 1.40709049,3.79853604 C0.562836196,3.32950588 -8.33164939e-16,1.54719126 0.656642229,0.421518863 C1.87612065,1.73480332 3.37701718,2.86047571 5.81597403,3.04808778 C5.1593318,0.421518863 8.72396104,-0.985571628 10.1310515,0.796742993 C10.7876938,0.702936961 11.2567239,0.421518863 11.7257541,0.233906797 C11.538142,0.890549026 11.1629179,1.26577316 10.6938877,1.64099729 C11.1629179,1.54719126 11.6319481,1.45338522 12.0071722,1.26577316 C11.9133662,1.73480332 11.444336,2.11002745 10.9753058,2.48525158 L10.9753058,2.48525158 Z" id="Shape"></path>
                    </g>
                </g>
            </g>
        </g>
    </g>
</svg>