<?xml version="1.0" encoding="UTF-8" standalone="no"?>
<svg width="32px" height="32px" viewBox="0 0 32 32" version="1.1" xmlns="http://www.w3.org/2000/svg" xmlns:xlink="http://www.w3.org/1999/xlink" xmlns:sketch="http://www.bohemiancoding.com/sketch/ns">
    <!-- Generator: Sketch 3.4.4 (17249) - http://www.bohemiancoding.com/sketch -->
    <title>login-dribble-hover</title>
    <desc>Created with Sketch.</desc>
    <defs></defs>
    <g id="Ui-kit" stroke="none" stroke-width="1" fill="none" fill-rule="evenodd" sketch:type="MSPage">
        <g id="Menu-left" sketch:type="MSArtboardGroup" transform="translate(-1190.000000, -84.000000)">
            <g id="social-login" sketch:type="MSLayerGroup" transform="translate(1190.000000, 84.000000)">
                <g id="login-dribble-hover" sketch:type="MSShapeGroup">
                    <circle id="Oval-136" fill="#EA4C89" cx="16" cy="16" r="16"></circle>
                    <rect id="Rectangle-93" fill="#EA4C89" x="0" y="0" width="32" height="32"></rect>
                    <path d="M20.6065332,14.053662 C20.4819218,13.7572667 20.3262257,13.4715057 20.1457163,13.2045591 C19.9673883,12.9400665 19.7617931,12.6908436 19.5360201,12.4650706 C19.309429,12.2387522 19.0607515,12.0334297 18.7957136,11.854829 C18.528767,11.6737743 18.2430059,11.5188962 17.9466107,11.3931941 C17.6442166,11.2661286 17.3279162,11.1674211 17.0069804,11.1022523 C16.6775918,11.0346294 16.3389322,11 16.0002727,11 C15.6610678,11 15.3224082,11.0346294 14.9930196,11.1022523 C14.6718111,11.1674211 14.3555107,11.2661286 14.0533893,11.3931941 C13.7569941,11.5188962 13.471233,11.6737743 13.2037411,11.854829 C12.9389758,12.0334297 12.6902983,12.2387522 12.4639799,12.4650706 C12.2382069,12.6908436 12.0328843,12.9400665 11.8542837,13.2045591 C11.6737743,13.4715057 11.5178055,13.7572667 11.3931941,14.053662 C11.2650379,14.3557834 11.1668757,14.6726291 11.1008889,14.9938376 C11.0340841,15.3224082 11,15.6610678 11,15.9997273 C11,16.3394776 11.0340841,16.6781371 11.1008889,17.0072531 C11.1668757,17.3284616 11.2650379,17.644762 11.3931941,17.946338 C11.5178055,18.2427333 11.6737743,18.529585 11.8542837,18.7965316 C12.0328843,19.0610242 12.2382069,19.3091564 12.4639799,19.5360201 C12.6902983,19.7617931 12.9389758,19.9665703 13.2037411,20.1457163 C13.471233,20.3262257 13.7569941,20.4813765 14.0533893,20.6068059 C14.3555107,20.7349621 14.6718111,20.8325789 14.9930196,20.8977477 C15.3224082,20.9659159 15.6610678,21 16.0002727,21 C16.3389322,21 16.6775918,20.9659159 17.0069804,20.8977477 C17.3279162,20.8325789 17.6442166,20.7349621 17.9466107,20.6068059 C18.2430059,20.4813765 18.528767,20.3262257 18.7957136,20.1457163 C19.0607515,19.9665703 19.309429,19.7617931 19.5360201,19.5360201 C19.7617931,19.3091564 19.9673883,19.0610242 20.1457163,18.7965316 C20.3262257,18.529585 20.4819218,18.2427333 20.6065332,17.946338 C20.7341441,17.644762 20.8331243,17.3284616 20.8988384,17.0072531 C20.9659159,16.6781371 21,16.3394776 21,15.9997273 C21,15.6610678 20.9659159,15.3224082 20.8988384,14.9938376 C20.8331243,14.6726291 20.7341441,14.3557834 20.6065332,14.053662 L20.6065332,14.053662 Z M16.0002727,11.7299449 C17.0808747,11.7299449 18.0682227,12.1335006 18.8202541,12.7960953 C18.8096199,12.8119103 18.2018324,13.737907 16.5895185,14.3416044 C15.8595735,13.0005999 15.057643,11.9352675 14.9935649,11.8507389 C15.3164094,11.7724819 15.6534329,11.7299449 16.0002727,11.7299449 L16.0002727,11.7299449 Z M14.9772046,11.854011 C14.9772046,11.854829 14.9763865,11.8553744 14.9763865,11.8553744 C14.9763865,11.8553744 14.9712058,11.8564651 14.9635709,11.8575558 C14.9682064,11.8564651 14.9722964,11.8559197 14.9772046,11.854011 L14.9772046,11.854011 Z M14.1780008,12.1386814 C14.2349894,12.2144844 15.0246496,13.2852702 15.7638654,14.5987348 C13.7133664,15.1435349 11.9336315,15.1219938 11.8212903,15.1200851 C12.0983258,13.7973496 12.9866936,12.7006599 14.1780008,12.1386814 L14.1780008,12.1386814 Z M12.8239079,18.8535202 C12.1435895,18.0968534 11.7296722,17.0966898 11.7296722,15.9997273 C11.7296722,15.9544637 11.7318536,15.9097453 11.733217,15.865027 C11.80902,15.8669357 13.918689,15.9143808 16.1172493,15.2564214 C16.2396793,15.4958281 16.3566559,15.7398702 16.4635437,15.9825489 C16.4071004,15.9978186 16.3512025,16.014997 16.2953046,16.0338114 C13.9909473,16.778208 12.8219992,18.8510662 12.8219992,18.8510662 C12.8219992,18.8510662 12.8239079,18.8529749 12.8239079,18.8535202 L12.8239079,18.8535202 Z M16.0002727,20.2703278 C14.9916562,20.2703278 14.0653869,19.9199433 13.3343513,19.3350603 C13.3190816,19.3230627 13.3010852,19.3091564 13.2795441,19.2914326 C13.3010852,19.3091564 13.3190816,19.3230627 13.3343513,19.3350603 C13.3591645,19.3541474 13.3752522,19.366145 13.3752522,19.366145 C13.3752522,19.366145 14.1938158,17.5812292 16.7264002,16.6985876 C16.7359437,16.6953155 16.7457599,16.6928614 16.7553035,16.689862 C17.3560015,18.2509135 17.603861,19.5583792 17.6671211,19.9316682 C17.1550417,20.1492611 16.5911545,20.2703278 16.0002727,20.2703278 L16.0002727,20.2703278 Z M18.3864318,19.5414735 C18.3428042,19.2837978 18.1151224,18.0303212 17.55478,16.4916289 C18.933686,16.2713094 20.1279926,16.6492338 20.2163386,16.6781371 C20.0262857,17.8680809 19.3448765,18.8941484 18.3864318,19.5414735 L18.3864318,19.5414735 Z M17.2949228,15.8173093 C17.2643835,15.7445056 17.2343895,15.670884 17.2027594,15.597535 C17.1138681,15.3881224 17.01816,15.1811638 16.9186345,14.9777499 C18.6051153,14.2892512 19.2895239,13.2999945 19.2977041,13.2879969 C19.8962208,14.0154878 20.2591482,14.9442112 20.2692371,15.9574631 C20.2073404,15.9438294 18.7621748,15.6327098 17.2949228,15.8173093 L17.2949228,15.8173093 Z" id="Dribbble" fill="#FFFFFF"></path>
                </g>
            </g>
        </g>
    </g>
</svg>