<?xml version="1.0" encoding="UTF-8" standalone="no"?>
<svg width="32px" height="32px" viewBox="0 0 32 32" version="1.1" xmlns="http://www.w3.org/2000/svg" xmlns:xlink="http://www.w3.org/1999/xlink" xmlns:sketch="http://www.bohemiancoding.com/sketch/ns">
    <!-- Generator: Sketch 3.4.4 (17249) - http://www.bohemiancoding.com/sketch -->
    <title>login-google-plus-hover</title>
    <desc>Created with Sketch.</desc>
    <defs></defs>
    <g id="Ui-kit" stroke="none" stroke-width="1" fill="none" fill-rule="evenodd" sketch:type="MSPage">
        <g id="Menu-left" sketch:type="MSArtboardGroup" transform="translate(-1280.000000, -84.000000)">
            <g id="social-login" sketch:type="MSLayerGroup" transform="translate(1190.000000, 84.000000)">
                <g id="login-google-plus-hover" transform="translate(90.000000, 0.000000)" sketch:type="MSShapeGroup">
                    <circle id="Oval-136-Copy" stroke="#DC4E41" fill="#DC4E41" cx="16" cy="16" r="15"></circle>
                    <rect id="Rectangle-93" fill="#DC4E41" x="0" y="0" width="32" height="32"></rect>
                    <path d="M12.9575071,15.2917847 L12.9575071,16.9490085 L15.7691218,16.9490085 C15.6558074,17.6784703 14.9192635,19.0878187 12.9575071,19.0878187 C11.2648725,19.0878187 9.88385269,17.6855524 9.88385269,15.9575071 C9.88385269,14.2294618 11.2648725,12.8271955 12.9575071,12.8271955 C13.9206799,12.8271955 14.5651558,13.2379603 14.9334278,13.592068 L16.2790368,12.296034 C15.4150142,11.4886686 14.296034,11 12.9575071,11 C10.2167139,11 8,13.2167139 8,15.9575071 C8,18.6983003 10.2167139,20.9150142 12.9575071,20.9150142 C15.8109895,20.9150142 17.7064812,18.9145043 17.7166726,16.0936969 C17.7167001,16.1002122 17.7167139,16.1067512 17.7167139,16.1133144 L17.7167139,16.0637394 C17.7167139,15.7379603 17.6813031,15.490085 17.6388102,15.2422096 L12.9575071,15.2422096 L12.9575071,15.2917847 Z M12.9575071,11.0849858 C14.2677054,11.0849858 15.3725212,11.5594901 16.2223796,12.3385269 L16.2719547,12.2889518 C15.4150142,11.4886686 14.296034,11 12.9575071,11 C10.2167139,11 8,13.2167139 8,15.9575071 L8,16 C8.02832861,13.2875354 10.2379603,11.0849858 12.9575071,11.0849858 L12.9575071,11.0849858 Z M12.9575071,19.1728045 C14.9192635,19.1728045 15.6558074,17.7705382 15.7691218,17.0339943 L15.7478754,17.0339943 C15.592068,17.7847025 14.8484419,19.0807365 12.9575071,19.0807365 C11.2790368,19.0807365 9.9121813,17.6997167 9.89093484,16 C9.89093484,16.0141643 9.88385269,16.0283286 9.88385269,16.0424929 C9.88385269,17.7705382 11.2648725,19.1728045 12.9575071,19.1728045 L12.9575071,19.1728045 Z M12.9575071,12.8271955 C11.2648725,12.8271955 9.88385269,14.2294618 9.88385269,15.9575071 C9.88385269,15.9716714 9.89093484,15.9858357 9.89093484,16 C9.9121813,14.2932011 11.2790368,12.9192635 12.9575071,12.9192635 C13.9206799,12.9192635 14.5651558,13.3300283 14.9334278,13.684136 L16.2790368,12.388102 C16.2648725,12.3739377 16.2436261,12.3597734 16.2294618,12.3456091 L14.9334278,13.5991501 C14.5651558,13.2450425 13.9206799,12.8271955 12.9575071,12.8271955 L12.9575071,12.8271955 Z M12.9575071,16.9490085 L12.9575071,17.0339943 L15.7478754,17.0339943 C15.7549575,17.0056657 15.7620397,16.970255 15.7691218,16.9490085 L12.9575071,16.9490085 Z M12.9575071,20.9150142 C10.2379603,20.9150142 8.02832861,18.7195467 8,16 L8,16.0424929 C8,18.7832861 10.2167139,21 12.9575071,21 C15.8186969,21 17.7167139,18.9886686 17.7167139,16.1558074 L17.7167139,16.1133144 C17.6954674,18.9249292 15.8045326,20.9150142 12.9575071,20.9150142 Z M23.5807365,15.2492918 L22.1643059,15.2492918 L22.1643059,13.8328612 L20.7478754,13.8328612 L20.7478754,15.2492918 L19.3314448,15.2492918 L19.3314448,16.6657224 L20.7478754,16.6657224 L20.7478754,18.082153 L22.1643059,18.082153 L22.1643059,16.6657224 L23.5807365,16.6657224 L23.5807365,15.2492918 Z M20.7478754,13.8328612 L22.1643059,13.8328612 L22.1643059,13.917847 L20.7478754,13.917847 L20.7478754,13.8328612 Z M19.3314448,15.2492918 L20.7478754,15.2492918 L20.7478754,15.3342776 L19.3314448,15.3342776 L19.3314448,15.2492918 Z M19.3314448,16.6657224 L20.7478754,16.6657224 L20.7478754,16.7507082 L19.3314448,16.7507082 L19.3314448,16.6657224 Z M22.1643059,16.6657224 L23.5807365,16.6657224 L23.5807365,16.7507082 L22.1643059,16.7507082 L22.1643059,16.6657224 Z M20.7478754,18.082153 L22.1643059,18.082153 L22.1643059,18.1671388 L20.7478754,18.1671388 L20.7478754,18.082153 Z" id="Shape" fill="#FFFFFF"></path>
                </g>
            </g>
        </g>
    </g>
</svg>