<?xml version="1.0" encoding="UTF-8" standalone="no"?>
<svg width="8px" height="8px" viewBox="0 0 8 8" version="1.1" xmlns="http://www.w3.org/2000/svg" xmlns:xlink="http://www.w3.org/1999/xlink">
    <!-- Generator: Sketch 3.7.1 (28215) - http://www.bohemiancoding.com/sketch -->
    <title>close</title>
    <desc>Created with Sketch.</desc>
    <defs></defs>
    <g id="Notice-open" stroke="none" stroke-width="1" fill="none" fill-rule="evenodd">
        <g id="Notice-links" transform="translate(-1265.000000, -67.000000)" fill="#202125">
            <g id="notice-2-" transform="translate(-15.000000, -23.000000)">
                <path d="M1285.17013,94 L1287.82391,91.1240385 C1288.05887,90.8663462 1288.05852,90.4509615 1287.82391,90.1932692 C1287.58877,89.9355769 1287.20807,89.9355769 1286.97293,90.1932692 L1284.17974,93.029941 C1284.06288,92.9900057 1283.93712,92.9900197 1283.82027,93.0299828 L1281.0272,90.1932692 C1280.79206,89.9355769 1280.41136,89.9355769 1280.17622,90.1932692 C1279.94126,90.4509615 1279.94126,90.8663462 1280.17622,91.1240385 L1282.83,94 L1280.17622,96.8759615 C1279.94126,97.1336538 1279.94126,97.5490385 1280.17622,97.8067308 C1280.41136,98.0644231 1280.79206,98.0644231 1281.0272,97.8067308 L1283.82027,94.9700172 C1283.93712,95.0099803 1284.06288,95.0099943 1284.17974,94.970059 L1286.97293,97.8067308 C1287.20807,98.0644231 1287.58877,98.0644231 1287.82391,97.8067308 C1288.05852,97.5490385 1288.05887,97.1336538 1287.82391,96.8759615 L1285.17013,94 Z" id="close"></path>
            </g>
        </g>
    </g>
</svg>