<?xml version="1.0" encoding="UTF-8" standalone="no"?>
<svg width="10px" height="10px" viewBox="0 0 10 10" version="1.1" xmlns="http://www.w3.org/2000/svg" xmlns:xlink="http://www.w3.org/1999/xlink">
    <!-- Generator: Sketch 3.6.1 (26313) - http://www.bohemiancoding.com/sketch -->
    <title>Dribbble</title>
    <desc>Created with Sketch.</desc>
    <defs></defs>
    <g id="Ui-kit" stroke="none" stroke-width="1" fill="none" fill-rule="evenodd">
        <g id="Menu-left" transform="translate(-1627.000000, -195.000000)" fill="#FFFFFF">
            <g id="left-open-nl.1.1" transform="translate(1516.000000, 92.000000)">
                <g id="sing-in" transform="translate(23.000000, 93.000000)">
                    <g id="Group" transform="translate(78.000000, 0.000000)">
                        <g id="Oval-136-+-Shape">
                            <path d="M19.6065332,13.053662 C19.4819218,12.7572667 19.3262257,12.4715057 19.1457163,12.2045591 C18.9673883,11.9400665 18.7617931,11.6908436 18.5360201,11.4650706 C18.309429,11.2387522 18.0607515,11.0334297 17.7957136,10.854829 C17.528767,10.6737743 17.2430059,10.5188962 16.9466107,10.3931941 C16.6442166,10.2661286 16.3279162,10.1674211 16.0069804,10.1022523 C15.6775918,10.0346294 15.3389322,10 15.0002727,10 C14.6610678,10 14.3224082,10.0346294 13.9930196,10.1022523 C13.6718111,10.1674211 13.3555107,10.2661286 13.0533893,10.3931941 C12.7569941,10.5188962 12.471233,10.6737743 12.2037411,10.854829 C11.9389758,11.0334297 11.6902983,11.2387522 11.4639799,11.4650706 C11.2382069,11.6908436 11.0328843,11.9400665 10.8542837,12.2045591 C10.6737743,12.4715057 10.5178055,12.7572667 10.3931941,13.053662 C10.2650379,13.3557834 10.1668757,13.6726291 10.1008889,13.9938376 C10.0340841,14.3224082 10,14.6610678 10,14.9997273 C10,15.3394776 10.0340841,15.6781371 10.1008889,16.0072531 C10.1668757,16.3284616 10.2650379,16.644762 10.3931941,16.946338 C10.5178055,17.2427333 10.6737743,17.529585 10.8542837,17.7965316 C11.0328843,18.0610242 11.2382069,18.3091564 11.4639799,18.5360201 C11.6902983,18.7617931 11.9389758,18.9665703 12.2037411,19.1457163 C12.471233,19.3262257 12.7569941,19.4813765 13.0533893,19.6068059 C13.3555107,19.7349621 13.6718111,19.8325789 13.9930196,19.8977477 C14.3224082,19.9659159 14.6610678,20 15.0002727,20 C15.3389322,20 15.6775918,19.9659159 16.0069804,19.8977477 C16.3279162,19.8325789 16.6442166,19.7349621 16.9466107,19.6068059 C17.2430059,19.4813765 17.528767,19.3262257 17.7957136,19.1457163 C18.0607515,18.9665703 18.309429,18.7617931 18.5360201,18.5360201 C18.7617931,18.3091564 18.9673883,18.0610242 19.1457163,17.7965316 C19.3262257,17.529585 19.4819218,17.2427333 19.6065332,16.946338 C19.7341441,16.644762 19.8331243,16.3284616 19.8988384,16.0072531 C19.9659159,15.6781371 20,15.3394776 20,14.9997273 C20,14.6610678 19.9659159,14.3224082 19.8988384,13.9938376 C19.8331243,13.6726291 19.7341441,13.3557834 19.6065332,13.053662 L19.6065332,13.053662 Z M15.0002727,10.7299449 C16.0808747,10.7299449 17.0682227,11.1335006 17.8202541,11.7960953 C17.8096199,11.8119103 17.2018324,12.737907 15.5895185,13.3416044 C14.8595735,12.0005999 14.057643,10.9352675 13.9935649,10.8507389 C14.3164094,10.7724819 14.6534329,10.7299449 15.0002727,10.7299449 L15.0002727,10.7299449 Z M13.9772046,10.854011 C13.9772046,10.854829 13.9763865,10.8553744 13.9763865,10.8553744 C13.9763865,10.8553744 13.9712058,10.8564651 13.9635709,10.8575558 C13.9682064,10.8564651 13.9722964,10.8559197 13.9772046,10.854011 L13.9772046,10.854011 Z M13.1780008,11.1386814 C13.2349894,11.2144844 14.0246496,12.2852702 14.7638654,13.5987348 C12.7133664,14.1435349 10.9336315,14.1219938 10.8212903,14.1200851 C11.0983258,12.7973496 11.9866936,11.7006599 13.1780008,11.1386814 L13.1780008,11.1386814 Z M11.8239079,17.8535202 C11.1435895,17.0968534 10.7296722,16.0966898 10.7296722,14.9997273 C10.7296722,14.9544637 10.7318536,14.9097453 10.733217,14.865027 C10.80902,14.8669357 12.918689,14.9143808 15.1172493,14.2564214 C15.2396793,14.4958281 15.3566559,14.7398702 15.4635437,14.9825489 C15.4071004,14.9978186 15.3512025,15.014997 15.2953046,15.0338114 C12.9909473,15.778208 11.8219992,17.8510662 11.8219992,17.8510662 C11.8219992,17.8510662 11.8239079,17.8529749 11.8239079,17.8535202 L11.8239079,17.8535202 Z M15.0002727,19.2703278 C13.9916562,19.2703278 13.0653869,18.9199433 12.3343513,18.3350603 C12.3190816,18.3230627 12.3010852,18.3091564 12.2795441,18.2914326 C12.3010852,18.3091564 12.3190816,18.3230627 12.3343513,18.3350603 C12.3591645,18.3541474 12.3752522,18.366145 12.3752522,18.366145 C12.3752522,18.366145 13.1938158,16.5812292 15.7264002,15.6985876 C15.7359437,15.6953155 15.7457599,15.6928614 15.7553035,15.689862 C16.3560015,17.2509135 16.603861,18.5583792 16.6671211,18.9316682 C16.1550417,19.1492611 15.5911545,19.2703278 15.0002727,19.2703278 L15.0002727,19.2703278 Z M17.3864318,18.5414735 C17.3428042,18.2837978 17.1151224,17.0303212 16.55478,15.4916289 C17.933686,15.2713094 19.1279926,15.6492338 19.2163386,15.6781371 C19.0262857,16.8680809 18.3448765,17.8941484 17.3864318,18.5414735 L17.3864318,18.5414735 Z M16.2949228,14.8173093 C16.2643835,14.7445056 16.2343895,14.670884 16.2027594,14.597535 C16.1138681,14.3881224 16.01816,14.1811638 15.9186345,13.9777499 C17.6051153,13.2892512 18.2895239,12.2999945 18.2977041,12.2879969 C18.8962208,13.0154878 19.2591482,13.9442112 19.2692371,14.9574631 C19.2073404,14.9438294 17.7621748,14.6327098 16.2949228,14.8173093 L16.2949228,14.8173093 Z" id="Dribbble"></path>
                        </g>
                    </g>
                </g>
            </g>
        </g>
    </g>
</svg>