<?xml version="1.0" encoding="UTF-8" standalone="no"?>
<svg width="9px" height="9px" viewBox="0 0 9 9" version="1.1" xmlns="http://www.w3.org/2000/svg" xmlns:xlink="http://www.w3.org/1999/xlink">
    <!-- Generator: Sketch 3.6.1 (26313) - http://www.bohemiancoding.com/sketch -->
    <title>Combined Shape</title>
    <desc>Created with Sketch.</desc>
    <defs></defs>
    <g id="Ui-kit" stroke="none" stroke-width="1" fill="none" fill-rule="evenodd">
        <g id="Menu-left" transform="translate(-1283.000000, -495.000000)" fill="#5D6474">
            <g id="left-open-nl.1.2" transform="translate(1035.000000, 95.000000)">
                <g id="feef-list" transform="translate(0.000000, 267.000000)">
                    <g id="dribbble" transform="translate(23.000000, 119.000000)">
                        <g id="link" transform="translate(219.000000, 8.000000)">
                            <path d="M14.4062937,6.72215635 L14.0931162,6.44512568 C13.3637426,5.79835086 12.2468686,5.86541277 11.6003157,6.59497654 L10.7040326,7.6061369 C10.5017371,7.83440104 10.5227593,8.18483517 10.7509284,8.3873209 L10.835049,8.46196096 C11.0640107,8.66495402 11.4133668,8.64399519 11.6165184,8.41500177 L12.5127381,7.40387312 C12.7126556,7.17852609 13.0589677,7.15778922 13.2844415,7.35738955 L13.5972385,7.63489583 C13.8227758,7.83474982 13.84402,8.18099853 13.6438172,8.40647238 L11.6840242,10.6173274 C11.5181609,10.804752 11.2467425,10.8552941 11.0239956,10.740195 C10.7804166,10.6144103 10.4833466,10.6696769 10.3014709,10.8747944 L10.2861878,10.8920434 C10.16313,11.0308283 10.1118268,11.2150821 10.145437,11.3975602 C10.179079,11.5799432 10.2926244,11.7337892 10.4569657,11.8196856 C10.7168742,11.9555216 10.9975513,12.0212835 11.2754698,12.0212835 C11.7679547,12.0212835 12.2519101,11.8148026 12.596732,11.4259703 L14.5563982,9.21536897 C15.2022218,8.48678813 15.1350013,7.36848726 14.4062937,6.72215635 Z M10.2488043,12.6139966 L10.1644934,12.5392931 C9.93607072,12.3369025 9.58554147,12.3581784 9.38321427,12.5865059 L8.48734331,13.5975395 C8.28733079,13.8228231 7.94127233,13.8437185 7.71598872,13.644245 L7.40274779,13.3663582 C7.1771471,13.1665676 7.15596632,12.8206043 7.35623251,12.595067 L9.31596212,10.3843705 C9.47843266,10.2008778 9.74576076,10.1484014 9.96609796,10.2566517 C10.2193161,10.3810729 10.5267862,10.3205745 10.7142425,10.1090204 L10.7212816,10.1010934 C10.8417077,9.96513058 10.8923767,9.78468174 10.8603518,9.60600853 C10.828327,9.42730361 10.7181742,9.27570883 10.5580818,9.19003447 C9.83425711,8.80256568 8.94831068,8.96110446 8.40363484,9.57575933 L6.4437784,11.7860119 L6.4437784,11.7860436 C5.79785969,12.5146245 5.86504842,13.6328936 6.59362926,14.2789709 L6.90680677,14.556382 C7.24236996,14.8538959 7.66050014,15.000037 8.07723519,15.000037 C8.5653444,15.000037 9.05142431,14.799422 9.40001938,14.4063409 L10.2960172,13.3953074 C10.4987249,13.1664091 10.4779246,12.8171165 10.2488043,12.6139966 Z" id="Combined-Shape"></path>
                        </g>
                    </g>
                </g>
            </g>
        </g>
    </g>
</svg>