<?xml version="1.0" encoding="UTF-8" standalone="no"?>
<svg width="16px" height="16px" viewBox="0 0 16 16" version="1.1" xmlns="http://www.w3.org/2000/svg" xmlns:xlink="http://www.w3.org/1999/xlink">
    <!-- Generator: Sketch 3.6.1 (26313) - http://www.bohemiancoding.com/sketch -->
    <title>Combined Shape</title>
    <desc>Created with Sketch.</desc>
    <defs></defs>
    <g id="Notice-open" stroke="none" stroke-width="1" fill="none" fill-rule="evenodd">
        <g id="Notice-links" transform="translate(-559.000000, -379.000000)" fill="#AEB6C2">
            <g id="notice-2-" transform="translate(-15.000000, -23.000000)">
                <g id="top-bar" transform="translate(562.000000, 390.000000)">
                    <g id="link">
                        <path d="M26.9444933,13.2825555 L26.3877306,12.7900542 C25.0910603,11.6402267 23.1054969,11.7594485 21.9560641,13.056457 L20.3626641,14.8540841 C20.0030259,15.2598889 20.040399,15.8828859 20.4460348,16.2428623 L20.5955834,16.3755564 C21.0026284,16.7364347 21.6237088,16.6991744 21.9848689,16.292073 L23.5781562,14.4945023 C23.9335666,14.0938834 24.5492356,14.0570177 24.9500799,14.4118644 L25.5061662,14.9052113 C25.9071233,15.260509 25.9448909,15.8760652 25.5889731,16.2769096 L22.1048799,20.2073375 C21.8100104,20.5405383 21.3274865,20.6303915 20.9314899,20.4257698 C20.4984585,20.2021515 19.9703316,20.3004037 19.6469954,20.6650588 L19.6198253,20.6957239 C19.4010548,20.9424537 19.3098488,21.2700175 19.3696006,21.5944247 C19.4294087,21.9186627 19.6312683,22.1921681 19.923432,22.3448734 C20.3854938,22.5863608 20.8844776,22.7032714 21.3785573,22.7032714 C22.2540902,22.7032714 23.1144597,22.3361924 23.7274793,21.6449318 L27.2113471,17.7149549 C28.3594835,16.4196938 28.2399799,14.4315938 26.9444933,13.2825555 Z M19.5533655,23.7569886 L19.4034787,23.6241818 C18.997392,23.2643746 18.3742259,23.3021986 18.0145313,23.7081162 L16.4218642,25.5055178 C16.0662846,25.9060239 15.4510666,25.9431715 15.0505605,25.5885502 L14.493685,25.0945269 C14.0926152,24.739342 14.0549603,24.1242931 14.4109908,23.723336 L17.8949714,19.7931899 C18.1838093,19.4669789 18.6590615,19.3736872 19.050774,19.5661331 C19.5009418,19.7873275 20.0475579,19.6797742 20.3808151,19.3036762 L20.3933292,19.2895838 C20.607421,19.0478708 20.6974996,18.7270713 20.6405663,18.4094286 C20.583633,18.0917294 20.3878049,17.8222263 20.1031948,17.6699155 C18.8163891,16.9810788 17.2413657,17.2629269 16.2730484,18.3556519 L12.7888423,22.2850088 L12.7888423,22.2850652 C11.6405369,23.5803263 11.7599841,25.5683699 13.0552452,26.7169572 L13.6120079,27.210135 C14.2085675,27.7390511 14.9519137,27.9988587 15.6927795,27.9988587 C16.5605334,27.9988587 17.4246797,27.6422081 18.0444072,26.943394 L19.6372999,25.1459924 C19.9976708,24.7390601 19.9606924,24.1180924 19.5533655,23.7569886 Z" id="Combined-Shape"></path>
                    </g>
                </g>
            </g>
        </g>
    </g>
</svg>