<svg xmlns="http://www.w3.org/2000/svg" width="14" height="14" viewBox="0 0 14 14">
  <path fill="#6C8CFF" fill-rule="evenodd" d="M288.076432,12.1222361 L287.589264,11.6912974 C286.454678,10.6851984 284.71731,10.7895174 283.711556,11.9243999 L282.317331,13.4973236 C282.002648,13.8524028 282.035349,14.3975252 282.39028,14.7125045 L282.521135,14.8286118 C282.8773,15.1443804 283.420745,15.1117776 283.73676,14.7555639 L285.130887,13.1826895 C285.441871,12.832148 285.980581,12.7998905 286.33132,13.1103814 L286.817895,13.5420599 C287.168733,13.8529454 287.20178,14.3915571 286.890352,14.7422959 L283.84177,18.1814203 C283.583759,18.472971 283.161551,18.5515925 282.815054,18.3725485 C282.436151,18.1768825 281.97404,18.2628533 281.691121,18.5819264 L281.667347,18.6087584 C281.475923,18.824647 281.396118,19.1112653 281.4484,19.3951216 C281.500733,19.6788299 281.67736,19.9181471 281.933003,20.0517642 C282.337307,20.2630657 282.773918,20.3653625 283.206238,20.3653625 C283.972329,20.3653625 284.725152,20.0441684 285.261544,19.4393154 L288.309929,16.0005855 C289.314548,14.8672321 289.209982,13.1276446 288.076432,12.1222361 Z M281.609195,21.2873651 L281.478044,21.1711591 C281.122718,20.8563277 280.577448,20.8894238 280.262715,21.2446017 L278.869131,22.8173281 C278.557999,23.1677709 278.019683,23.2002751 277.66924,22.8899815 L277.181974,22.4577111 C276.831038,22.1469242 276.79809,21.6087564 277.109617,21.257919 L280.1581,17.8190412 C280.410833,17.5336066 280.826679,17.4519763 281.169427,17.6203665 C281.563324,17.8139115 282.041613,17.7198025 282.333213,17.3907166 L282.344163,17.3783858 C282.531493,17.166887 282.610312,16.8861874 282.560496,16.60825 C282.510679,16.3302632 282.339329,16.094448 282.090295,15.9611761 C280.96434,15.358444 279.586195,15.605061 278.738917,16.5611954 L275.690237,19.9993827 L275.690237,19.9994321 C274.68547,21.1327855 274.789986,22.8723237 275.92334,23.8773376 L276.410507,24.3088681 C276.932497,24.7716697 277.582924,24.9990014 278.231182,24.9990014 C278.990467,24.9990014 279.746595,24.6869321 280.288856,24.0754697 L281.682637,22.5027433 C281.997962,22.1466776 281.965606,21.6033309 281.609195,21.2873651 Z" transform="translate(-275 -11)"/>
</svg>
