<?xml version="1.0" encoding="UTF-8" standalone="no"?>
<svg width="14px" height="14px" viewBox="0 0 14 14" version="1.1" xmlns="http://www.w3.org/2000/svg" xmlns:xlink="http://www.w3.org/1999/xlink">
    <!-- Generator: Sketch 3.7.1 (28215) - http://www.bohemiancoding.com/sketch -->
    <title>Combined Shape</title>
    <desc>Created with Sketch.</desc>
    <defs></defs>
    <g id="Ui-kit" stroke="none" stroke-width="1" fill="none" fill-rule="evenodd">
        <g id="Menu-left" transform="translate(-1764.000000, -489.000000)" fill="#A6B6C9">
            <g id="left-open-nl.1.1" transform="translate(1516.000000, 92.000000)">
                <g id="feef-list" transform="translate(0.000000, 267.000000)">
                    <g id="dribbble" transform="translate(23.000000, 119.000000)">
                        <g id="link" transform="translate(225.000000, 11.000000)">
                            <path d="M13.0764317,1.12223607 L12.5892643,0.691297393 C11.4546778,-0.314801625 9.71730981,-0.210482603 8.71155606,0.924399852 L7.31733109,2.49732356 C7.0026477,2.85240282 7.03534912,3.3975252 7.39028042,3.71250453 L7.52113544,3.82861185 C7.87729982,4.14438035 8.4207452,4.11177757 8.73676032,3.75556387 L10.1308866,2.18268949 C10.4418708,1.83214798 10.9805811,1.79989047 11.3313199,2.11038136 L11.8178954,2.54205989 C12.1687329,2.85294538 12.2017795,3.39155707 11.8903515,3.74229587 L8.84176987,7.1814203 C8.58375909,7.47297101 8.16155066,7.55159253 7.81505367,7.37254854 C7.43615119,7.17688255 6.97404012,7.26285326 6.69112101,7.58192643 L6.66734713,7.60875837 C6.47592295,7.82464696 6.39611767,8.11126532 6.44840049,8.39512157 C6.50073263,8.67882986 6.67735978,8.91814707 6.93300304,9.0517642 C7.33730707,9.26306571 7.77391794,9.36536247 8.20623767,9.36536247 C8.97232895,9.36536247 9.72515224,9.04416839 10.2615444,8.43931535 L13.3099287,5.00058551 C14.314548,3.86723208 14.2099824,2.12764456 13.0764317,1.12223607 Z M6.60919482,10.2873651 L6.47804386,10.1711591 C6.12271798,9.85632774 5.57744763,9.88942375 5.26271491,10.2446017 L3.86913115,11.8173281 C3.55799905,12.1677709 3.0196833,12.2002751 2.66924043,11.8899815 L2.18197442,11.4577111 C1.83103832,11.1469242 1.79809028,10.6087564 2.10961697,10.257919 L5.15809995,6.81904117 C5.41083313,6.53360657 5.82667884,6.45197632 6.16942725,6.62036646 C6.56332404,6.81391154 7.0416132,6.71980246 7.33321323,6.39071664 L7.34416303,6.37838578 C7.53149336,6.16688698 7.61031217,5.88618743 7.56049552,5.60824998 C7.51067887,5.33026322 7.33932933,5.09444797 7.09029541,4.9611761 C5.96434049,4.35844397 4.58619495,4.60506105 3.73891733,5.56119545 L0.690237054,8.99938273 L0.690237054,8.99943205 C-0.314530232,10.1327855 -0.210013915,11.8723237 0.923339513,12.8773376 L1.41050688,13.3088681 C1.93249658,13.7716697 2.58292446,13.9990014 3.2311821,13.9990014 C3.99046675,13.9990014 4.7465947,13.6869321 5.28885632,13.0754697 L6.68263738,11.5027433 C6.99796198,11.1466776 6.96560582,10.6033309 6.60919482,10.2873651 Z" id="Combined-Shape"></path>
                        </g>
                    </g>
                </g>
            </g>
        </g>
    </g>
</svg>