<?xml version="1.0" encoding="UTF-8" standalone="no"?>
<svg width="18px" height="14px" viewBox="0 0 18 14" version="1.1" xmlns="http://www.w3.org/2000/svg" xmlns:xlink="http://www.w3.org/1999/xlink">
    <!-- Generator: Sketch 3.6.1 (26313) - http://www.bohemiancoding.com/sketch -->
    <title>boards</title>
    <desc>Created with Sketch.</desc>
    <defs></defs>
    <g id="Ui-kit" stroke="none" stroke-width="1" fill="none" fill-rule="evenodd">
        <g id="Elements" transform="translate(-804.000000, -134.000000)" fill="#6C8CFF">
            <g id="flats" transform="translate(789.000000, 121.000000)">
                <path d="M26.3802608,22.144411 C27.70052,20.815075 27.70052,18.6694065 26.3802608,17.3400705 C25.9396034,16.8973401 25.9396034,16.1817285 26.3802608,15.7389982 C26.5911839,15.5266401 26.8781196,15.4072172 27.1774263,15.4072172 C27.476733,15.4072172 27.7636687,15.5266401 27.9745918,15.7389982 C30.1743235,17.9545547 30.1743235,21.5299268 27.9745918,23.7454833 C27.7636687,23.9578414 27.476733,24.0772643 27.1774263,24.0772643 C26.8781196,24.0772643 26.5911839,23.9578414 26.3802608,23.7454833 C25.9396034,23.302753 25.9396034,22.5871414 26.3802608,22.144411 L26.3802608,22.144411 Z M31.4980745,14.7289182 C31.5194221,14.7615014 31.537399,14.7963317 31.5576231,14.828915 C31.8589346,15.293614 32.11658,15.7852089 32.3272614,16.2974073 C32.3429912,16.3356083 32.3542268,16.3760564 32.3699567,16.4097632 C32.5713638,16.9191586 32.726663,17.4455966 32.8339867,17.9827465 C32.8339867,18.0119591 32.8418516,18.0434188 32.8474694,18.0726313 C33.0508435,19.1741485 33.0508435,20.3035916 32.8474694,21.4051088 C32.8474694,21.4343214 32.8396045,21.4646575 32.8339867,21.49387 C32.7265985,22.0310041 32.571301,22.5574364 32.3699567,23.0668534 C32.3542268,23.1050544 32.3429912,23.144379 32.3272614,23.1792093 C32.1163523,23.6916591 31.8587193,24.1836065 31.5576231,24.6488252 C31.537399,24.6802848 31.5194221,24.7151152 31.4980745,24.7476984 C31.1673031,25.2482244 30.7879492,25.7148899 30.3655265,26.1409122 L30.3655265,26.1409122 C30.1546034,26.3532703 29.8676677,26.4726932 29.568361,26.4726932 C29.2690543,26.4726932 28.9821186,26.3532703 28.7711955,26.1409122 C28.3305381,25.6981819 28.3305381,24.9825703 28.7711955,24.5398399 C31.4118445,21.8807836 31.4118445,17.5890916 28.7711955,14.9300353 C28.3522869,14.4859512 28.3617089,13.7894719 28.7924772,13.3568822 C29.2232454,12.9242925 29.9196787,12.9119319 30.3655265,13.328963 L30.3655265,13.328963 C30.7883004,13.7571111 31.1676652,14.2260481 31.4980745,14.7289182 L31.4980745,14.7289182 Z M21.5983915,22.144411 C20.2824087,20.8133151 20.2824087,18.6711664 21.5983915,17.3400705 C22.0378219,16.8968343 22.0378219,16.1822344 21.5983915,15.7389982 C21.3885813,15.5266967 21.1025182,15.4072153 20.8040349,15.4072153 C20.5055517,15.4072153 20.2194886,15.5266967 20.0096784,15.7389982 C17.8166645,17.957319 17.8166645,21.5271625 20.0096784,23.7454833 C20.2194886,23.9577848 20.5055517,24.0772662 20.8040349,24.0772662 C21.1025182,24.0772662 21.3885813,23.9577848 21.5983915,23.7454833 C22.0378219,23.3022471 22.0378219,22.5876472 21.5983915,22.144411 L21.5983915,22.144411 Z M16.4974313,14.7289182 C16.4760837,14.7615014 16.4581067,14.7963317 16.4378826,14.828915 C16.1372853,15.2936639 15.8803905,15.785262 15.6704915,16.2974073 C15.6547617,16.3356083 15.6435261,16.3760564 15.6277962,16.4097632 C15.4271204,16.9192202 15.2725728,17.4456597 15.1660133,17.9827465 C15.1660133,18.0119591 15.1581484,18.0434188 15.1525306,18.0726313 C14.9491565,19.1741485 14.9491565,20.3035916 15.1525306,21.4051088 C15.1525306,21.4343214 15.1603955,21.4646575 15.1660133,21.49387 C15.2726315,22.0309425 15.4271775,22.5573768 15.6277962,23.0668534 C15.6435261,23.1050544 15.6547617,23.144379 15.6704915,23.1792093 C15.8806187,23.6916061 16.1375011,24.1835566 16.4378826,24.6488252 C16.4581067,24.6802848 16.4760837,24.7151152 16.4974313,24.7476984 C16.8252645,25.2478918 17.2016038,25.7145526 17.6209908,26.1409122 L17.6209908,26.1409122 C17.8308011,26.3532137 18.1168641,26.4726951 18.4153474,26.4726951 C18.7138307,26.4726951 18.9998937,26.3532137 19.209704,26.1409122 C19.6491344,25.697676 19.6491344,24.9830761 19.209704,24.5398399 C16.5769978,21.8775147 16.5769978,17.5923605 19.209704,14.9300353 C19.6491344,14.4867991 19.6491344,13.7721992 19.209704,13.328963 C18.7709542,12.8903457 18.0597406,12.8903457 17.6209908,13.328963 L17.6209908,13.328963 C17.201252,13.7574487 16.8249019,14.2263809 16.4974313,14.7289182 L16.4974313,14.7289182 Z" id="boards"></path>
            </g>
        </g>
    </g>
</svg>