<?xml version="1.0" encoding="UTF-8" standalone="no"?>
<svg width="14px" height="11px" viewBox="0 0 14 11" version="1.1" xmlns="http://www.w3.org/2000/svg" xmlns:xlink="http://www.w3.org/1999/xlink">
    <!-- Generator: Sketch 3.6.1 (26313) - http://www.bohemiancoding.com/sketch -->
    <title>boards</title>
    <desc>Created with Sketch.</desc>
    <defs></defs>
    <g id="Ui-kit" stroke="none" stroke-width="1" fill="none" fill-rule="evenodd">
        <g id="Menu-left" transform="translate(-1176.000000, -198.000000)" fill="#5D6474">
            <g id="left-open-nl.1.2" transform="translate(1035.000000, 95.000000)">
                <g id="user" transform="translate(24.000000, 91.000000)">
                    <g id="icons" transform="translate(53.000000, 2.000000)">
                        <g id="#2" transform="translate(56.000000, 0.000000)">
                            <path d="M16.851314,17.1123197 C17.8781822,16.0783917 17.8781822,14.4095384 16.851314,13.3756104 C16.5085805,13.0312646 16.5085805,12.4746777 16.851314,12.1303319 C17.0153653,11.9651645 17.2385375,11.87228 17.4713316,11.87228 C17.7041257,11.87228 17.9272979,11.9651645 18.0913492,12.1303319 C19.8022516,13.8535425 19.8022516,16.6343875 18.0913492,18.3575981 C17.9272979,18.5227656 17.7041257,18.61565 17.4713316,18.61565 C17.2385375,18.61565 17.0153653,18.5227656 16.851314,18.3575981 C16.5085805,18.0132523 16.5085805,17.4566655 16.851314,17.1123197 L16.851314,17.1123197 Z M20.8318357,11.3447141 C20.8484394,11.3700566 20.8624215,11.3971469 20.8781513,11.4224894 C21.1125047,11.783922 21.3128956,12.1662736 21.4767589,12.5646501 C21.4889932,12.594362 21.497732,12.6258217 21.5099663,12.6520381 C21.6666163,13.0482344 21.7874045,13.4576862 21.8708786,13.8754695 C21.8708786,13.8981904 21.8769957,13.922659 21.8813651,13.9453799 C22.039545,14.8021155 22.039545,15.6805713 21.8813651,16.5373069 C21.8813651,16.5600277 21.875248,16.5836225 21.8708786,16.6063434 C21.7873544,17.0241143 21.6665674,17.4335616 21.5099663,17.8297748 C21.497732,17.8594868 21.4889932,17.8900725 21.4767589,17.9171628 C21.3127185,18.3157348 21.1123373,18.6983606 20.8781513,19.0601974 C20.8624215,19.084666 20.8484394,19.1117563 20.8318357,19.1370988 C20.5745691,19.5263967 20.279516,19.8893588 19.950965,20.2207095 L19.950965,20.2207095 C19.7869138,20.3858769 19.5637415,20.4787614 19.3309474,20.4787614 C19.0981533,20.4787614 18.8749811,20.3858769 18.7109298,20.2207095 C18.3681963,19.8763637 18.3681963,19.3197769 18.7109298,18.975431 C20.7647679,16.9072762 20.7647679,13.5692935 18.7109298,11.5011386 C18.385112,11.1557398 18.3924402,10.6140337 18.7274822,10.2775751 C19.0625242,9.9411164 19.6041946,9.93150258 19.950965,10.2558601 L19.950965,10.2558601 C20.2797892,10.5888642 20.5748507,10.9535929 20.8318357,11.3447141 L20.8318357,11.3447141 Z M13.1320823,17.1123197 C12.1085401,16.0770229 12.1085401,14.4109072 13.1320823,13.3756104 C13.4738615,13.0308711 13.4738615,12.4750712 13.1320823,12.1303319 C12.9688966,11.9652086 12.746403,11.8722786 12.5142494,11.8722786 C12.2820958,11.8722786 12.0596022,11.9652086 11.8964165,12.1303319 C10.1907391,13.8556925 10.1907391,16.6322375 11.8964165,18.3575981 C12.0596022,18.5227215 12.2820958,18.6156515 12.5142494,18.6156515 C12.746403,18.6156515 12.9688966,18.5227215 13.1320823,18.3575981 C13.4738615,18.0128589 13.4738615,17.4570589 13.1320823,17.1123197 L13.1320823,17.1123197 Z M9.16466879,11.3447141 C9.14806508,11.3700566 9.134083,11.3971469 9.11835317,11.4224894 C8.88455521,11.7839608 8.68474814,12.1663149 8.52149338,12.5646501 C8.50925907,12.594362 8.50052027,12.6258217 8.48828596,12.6520381 C8.33220472,13.0482824 8.21200103,13.4577353 8.12912143,13.8754695 C8.12912143,13.8981904 8.12300427,13.922659 8.11863487,13.9453799 C7.96045504,14.8021155 7.96045504,15.6805713 8.11863487,16.5373069 C8.11863487,16.5600277 8.12475203,16.5836225 8.12912143,16.6063434 C8.21204669,17.0240664 8.33224919,17.4335153 8.48828596,17.8297748 C8.50052027,17.8594868 8.50925907,17.8900725 8.52149338,17.9171628 C8.68492564,18.3156936 8.88472307,18.6983218 9.11835317,19.0601974 C9.134083,19.084666 9.14806508,19.1117563 9.16466879,19.1370988 C9.41965014,19.5261381 9.71235849,19.8890965 10.0385484,20.2207095 L10.0385484,20.2207095 C10.2017342,20.3858329 10.4242277,20.4787628 10.6563813,20.4787628 C10.888535,20.4787628 11.1110285,20.3858329 11.2742142,20.2207095 C11.6159934,19.8759702 11.6159934,19.3201703 11.2742142,18.975431 C9.22655383,16.9047337 9.22655383,13.571836 11.2742142,11.5011386 C11.6159934,11.1563993 11.6159934,10.6005994 11.2742142,10.2558601 C10.9329643,9.91471329 10.3797983,9.91471329 10.0385484,10.2558601 L10.0385484,10.2558601 C9.71208489,10.5891268 9.41936818,10.9538518 9.16466879,11.3447141 L9.16466879,11.3447141 Z" id="boards"></path>
                        </g>
                    </g>
                </g>
            </g>
        </g>
    </g>
</svg>