<?xml version="1.0" encoding="UTF-8" standalone="no"?>
<svg width="18px" height="18px" viewBox="0 0 18 18" version="1.1" xmlns="http://www.w3.org/2000/svg" xmlns:xlink="http://www.w3.org/1999/xlink" xmlns:sketch="http://www.bohemiancoding.com/sketch/ns">
    <!-- Generator: Sketch 3.5.2 (25235) - http://www.bohemiancoding.com/sketch -->
    <title>Shape</title>
    <desc>Created with Sketch.</desc>
    <defs></defs>
    <g id="Notice-open" stroke="none" stroke-width="1" fill="none" fill-rule="evenodd" sketch:type="MSPage">
        <g id="Index-notice-3" sketch:type="MSArtboardGroup" transform="translate(-1112.000000, -342.000000)" fill="#FFFFFF">
            <g id="notice-2-+-Bitmap" sketch:type="MSLayerGroup" transform="translate(-1.000000, -20.000000)">
                <g id="icon-slider-open" transform="translate(1102.000000, 351.000000)" sketch:type="MSShapeGroup">
                    <path d="M11,13 L11,17 L13,17 L13,13 L17,13 L17,11 L13,11 C11.9,11 11,11.9 11,13 L11,13 Z M13,23 L11,23 L11,27 C11,28.1 11.9,29 13,29 L17,29 L17,27 L13,27 L13,23 L13,23 Z M27,27 L23,27 L23,29 L27,29 C28.1,29 29,28.1 29,27 L29,23 L27,23 L27,27 L27,27 Z M27,11 L23,11 L23,13 L27,13 L27,17 L29,17 L29,13 C29,11.9 28.1,11 27,11 L27,11 Z" id="Shape"></path>
                </g>
            </g>
        </g>
    </g>
</svg>