<?xml version="1.0" encoding="UTF-8" standalone="no"?>
<svg width="40px" height="25px" viewBox="0 0 40 25" version="1.1" xmlns="http://www.w3.org/2000/svg" xmlns:xlink="http://www.w3.org/1999/xlink">
    <!-- Generator: Sketch 3.6.1 (26313) - http://www.bohemiancoding.com/sketch -->
    <title>hot</title>
    <desc>Created with Sketch.</desc>
    <defs></defs>
    <g id="Ui-kit" stroke="none" stroke-width="1" fill="none" fill-rule="evenodd">
        <g id="Blocks" transform="translate(-1003.000000, -726.000000)">
            <g id="#1" transform="translate(391.000000, 716.000000)">
                <g id="#2-2" transform="translate(341.000000, 0.000000)">
                    <g id="hot" transform="translate(271.000000, 10.000000)">
                        <rect id="Rectangle-119" fill-opacity="0.28" fill="#14131F" x="0" y="0" width="40" height="25" rx="13"></rect>
                        <path d="M18.2470703,13.9257812 L18.2470703,15.8466797 C18.2470703,16.1018893 18.2220055,16.3058261 18.171875,16.4584961 C18.1217445,16.6111661 18.0294603,16.7490228 17.8950195,16.8720703 C17.7605788,16.9951178 17.5885427,17.1136062 17.3789062,17.2275391 C16.7727834,17.5556657 16.1894559,17.7949211 15.6289062,17.9453125 C15.0683566,18.0957039 14.4576856,18.1708984 13.796875,18.1708984 C13.0266889,18.1708984 12.324873,18.05241 11.6914062,17.8154297 C11.0579395,17.5784493 10.5179059,17.2343773 10.0712891,16.7832031 C9.62467225,16.332029 9.28173948,15.7851595 9.04248047,15.1425781 C8.80322146,14.4999968 8.68359375,13.7822305 8.68359375,12.9892578 C8.68359375,12.209957 8.79980353,11.496748 9.03222656,10.8496094 C9.2646496,10.2024707 9.60644306,9.65332257 10.0576172,9.20214844 C10.5087913,8.75097431 11.0579395,8.40576292 11.7050781,8.16650391 C12.3522168,7.9272449 13.0859334,7.80761719 13.90625,7.80761719 C14.5807325,7.80761719 15.1777318,7.8976228 15.6972656,8.07763672 C16.2167995,8.25765064 16.6383447,8.48437363 16.9619141,8.7578125 C17.2854834,9.03125137 17.5292961,9.32063649 17.6933594,9.62597656 C17.8574227,9.93131663 17.9394531,10.2024728 17.9394531,10.4394531 C17.9394531,10.6946627 17.8448903,10.9122712 17.6557617,11.0922852 C17.4666332,11.2722991 17.2399102,11.3623047 16.9755859,11.3623047 C16.8297519,11.3623047 16.6896166,11.3281253 16.5551758,11.2597656 C16.420735,11.1914059 16.3079432,11.0957037 16.2167969,10.9726562 C15.9661446,10.5807272 15.7542326,10.2845062 15.5810547,10.0839844 C15.4078767,9.88346254 15.1743179,9.71484443 14.8803711,9.578125 C14.5864243,9.44140557 14.2115908,9.37304688 13.7558594,9.37304688 C13.286456,9.37304688 12.8671893,9.45393799 12.4980469,9.61572266 C12.1289044,9.77750732 11.8133151,10.0122055 11.5512695,10.3198242 C11.289224,10.6274429 11.0887051,11.0045551 10.949707,11.4511719 C10.8107089,11.8977887 10.7412109,12.3922499 10.7412109,12.9345703 C10.7412109,14.1103574 11.0112278,15.0149708 11.5512695,15.6484375 C12.0913113,16.2819042 12.8443962,16.5986328 13.8105469,16.5986328 C14.2799503,16.5986328 14.7208638,16.53711 15.1333008,16.4140625 C15.5457377,16.291015 15.9638651,16.115561 16.3876953,15.8876953 L16.3876953,14.2607422 L14.8154297,14.2607422 C14.4371726,14.2607422 14.1512054,14.2037766 13.9575195,14.0898438 C13.7638337,13.9759109 13.6669922,13.7822279 13.6669922,13.5087891 C13.6669922,13.2854807 13.7478833,13.1009122 13.909668,12.9550781 C14.0714526,12.8092441 14.2913398,12.7363281 14.5693359,12.7363281 L16.8730469,12.7363281 C17.1556004,12.7363281 17.3948558,12.761393 17.5908203,12.8115234 C17.7867848,12.8616539 17.9451491,12.9733064 18.065918,13.1464844 C18.1866868,13.3196623 18.2470703,13.5794254 18.2470703,13.9257812 L18.2470703,13.9257812 Z M20.2636719,16.9335938 L20.2636719,9.03808594 C20.2636719,8.62792764 20.3570954,8.32031353 20.5439453,8.11523438 C20.7307952,7.91015522 20.9723292,7.80761719 21.2685547,7.80761719 C21.5738948,7.80761719 21.8211254,7.90901591 22.0102539,8.11181641 C22.1993825,8.3146169 22.2939453,8.62337032 22.2939453,9.03808594 L22.2939453,16.9335938 C22.2939453,17.3483094 22.1993825,17.6582021 22.0102539,17.8632812 C21.8211254,18.0683604 21.5738948,18.1708984 21.2685547,18.1708984 C20.9768866,18.1708984 20.7364918,18.0672211 20.5473633,17.8598633 C20.3582347,17.6525055 20.2636719,17.3437521 20.2636719,16.9335938 L20.2636719,16.9335938 Z M30.5517578,9.54394531 L26.5527344,9.54394531 L26.5527344,12.1074219 L29.8955078,12.1074219 C30.2054052,12.1074219 30.4366854,12.1769199 30.5893555,12.315918 C30.7420255,12.4549161 30.8183594,12.6406238 30.8183594,12.8730469 C30.8183594,13.1054699 30.7408862,13.2900384 30.5859375,13.4267578 C30.4309888,13.5634772 30.2008479,13.6318359 29.8955078,13.6318359 L26.5527344,13.6318359 L26.5527344,16.9335938 C26.5527344,17.3528667 26.4581715,17.6638987 26.269043,17.8666992 C26.0799144,18.0694997 25.8372411,18.1708984 25.5410156,18.1708984 C25.2402329,18.1708984 24.9952809,18.0683604 24.8061523,17.8632812 C24.6170238,17.6582021 24.5224609,17.3483094 24.5224609,16.9335938 L24.5224609,9.22265625 C24.5224609,8.93098812 24.5657548,8.69287202 24.6523438,8.50830078 C24.7389327,8.32372955 24.8745108,8.18929079 25.059082,8.10498047 C25.2436533,8.02067015 25.4794908,7.97851562 25.7666016,7.97851562 L30.5517578,7.97851562 C30.8753271,7.97851562 31.1157219,8.05029225 31.2729492,8.19384766 C31.4301766,8.33740306 31.5087891,8.52538946 31.5087891,8.7578125 C31.5087891,8.99479285 31.4301766,9.18505788 31.2729492,9.32861328 C31.1157219,9.47216869 30.8753271,9.54394531 30.5517578,9.54394531 L30.5517578,9.54394531 Z" id="GIF" fill="#FFFFFF"></path>
                    </g>
                </g>
            </g>
        </g>
    </g>
</svg>