<?xml version="1.0" encoding="UTF-8" standalone="no"?>
<svg width="22px" height="15px" viewBox="0 0 22 15" version="1.1" xmlns="http://www.w3.org/2000/svg" xmlns:xlink="http://www.w3.org/1999/xlink">
    <!-- Generator: Sketch 3.6.1 (26313) - http://www.bohemiancoding.com/sketch -->
    <title>post-gplus</title>
    <desc>Created with Sketch.</desc>
    <defs></defs>
    <g id="Notice-open" stroke="none" stroke-width="1" fill="none" fill-rule="evenodd">
        <g id="Notice-links" transform="translate(-805.000000, -380.000000)" fill="#AEB6C2">
            <g id="notice-2-" transform="translate(-15.000000, -23.000000)">
                <g id="top-bar" transform="translate(562.000000, 363.000000)">
                    <g id="socails" transform="translate(248.000000, 27.000000)">
                        <g id="google">
                            <g id="post-gplus" transform="translate(10.000000, 13.000000)">
                                <path d="M7,6.06 L7,8.4 L10.97,8.4 C10.81,9.43 9.77,11.42 7,11.42 C4.61,11.42 2.66,9.44 2.66,7 C2.66,4.56 4.61,2.58 7,2.58 C8.36,2.58 9.27,3.16 9.79,3.66 L11.69,1.83 C10.47,0.69 8.89,0 7,0 C3.13,0 0,3.13 0,7 C0,10.87 3.13,14 7,14 C11.0291172,14 13.7055515,11.17528 13.7199417,7.19229996 C13.7199805,7.20149958 13.72,7.21073275 13.72,7.22 L13.72,7.15 C13.72,6.69 13.67,6.34 13.61,5.99 L7,5.99 L7,6.06 Z M7,0.12 C8.85,0.12 10.41,0.79 11.61,1.89 L11.68,1.82 C10.47,0.69 8.89,0 7,0 C3.13,0 0,3.13 0,7 L0,7.06 C0.04,3.23 3.16,0.12 7,0.12 L7,0.12 Z M7,11.54 C9.77,11.54 10.81,9.56 10.97,8.52 L10.94,8.52 C10.72,9.58 9.67,11.41 7,11.41 C4.63,11.41 2.7,9.46 2.67,7.06 C2.67,7.08 2.66,7.1 2.66,7.12 C2.66,9.56 4.61,11.54 7,11.54 L7,11.54 Z M7,2.58 C4.61,2.58 2.66,4.56 2.66,7 C2.66,7.02 2.67,7.04 2.67,7.06 C2.7,4.65 4.63,2.71 7,2.71 C8.36,2.71 9.27,3.29 9.79,3.79 L11.69,1.96 C11.67,1.94 11.64,1.92 11.62,1.9 L9.79,3.67 C9.27,3.17 8.36,2.58 7,2.58 L7,2.58 Z M7,8.4 L7,8.52 L10.94,8.52 C10.95,8.48 10.96,8.43 10.97,8.4 L7,8.4 Z M7,14 C3.16,14 0.04,10.9 0,7.06 L0,7.12 C0,10.99 3.13,14.12 7,14.12 C11.04,14.12 13.72,11.28 13.72,7.28 L13.72,7.22 C13.69,11.19 11.02,14 7,14 Z M22,6 L20,6 L20,4 L18,4 L18,6 L16,6 L16,8 L18,8 L18,10 L20,10 L20,8 L22,8 L22,6 Z M18,4 L20,4 L20,4.12 L18,4.12 L18,4 Z M16,6 L18,6 L18,6.12 L16,6.12 L16,6 Z M16,8 L18,8 L18,8.12 L16,8.12 L16,8 Z M20,8 L22,8 L22,8.12 L20,8.12 L20,8 Z M18,10 L20,10 L20,10.12 L18,10.12 L18,10 Z" id="Shape"></path>
                            </g>
                        </g>
                    </g>
                </g>
            </g>
        </g>
    </g>
</svg>