<?xml version="1.0" encoding="UTF-8" standalone="no"?>
<svg width="16px" height="10px" viewBox="0 0 16 10" version="1.1" xmlns="http://www.w3.org/2000/svg" xmlns:xlink="http://www.w3.org/1999/xlink">
    <!-- Generator: Sketch 3.6.1 (26313) - http://www.bohemiancoding.com/sketch -->
    <title>Shape</title>
    <desc>Created with Sketch.</desc>
    <defs></defs>
    <g id="Ui-kit" stroke="none" stroke-width="1" fill="none" fill-rule="evenodd">
        <g id="Menu-left" transform="translate(-1714.000000, -195.000000)" fill="#5D6474">
            <g id="left-open-nl.1.1" transform="translate(1516.000000, 92.000000)">
                <g id="sing-in" transform="translate(23.000000, 93.000000)">
                    <g id="Group" transform="translate(78.000000, 0.000000)">
                        <g id="Oval-136-Copy-+-post-gplus" transform="translate(90.000000, 0.000000)">
                            <path d="M11.9575071,14.2917847 L11.9575071,15.9490085 L14.7691218,15.9490085 C14.6558074,16.6784703 13.9192635,18.0878187 11.9575071,18.0878187 C10.2648725,18.0878187 8.88385269,16.6855524 8.88385269,14.9575071 C8.88385269,13.2294618 10.2648725,11.8271955 11.9575071,11.8271955 C12.9206799,11.8271955 13.5651558,12.2379603 13.9334278,12.592068 L15.2790368,11.296034 C14.4150142,10.4886686 13.296034,10 11.9575071,10 C9.21671388,10 7,12.2167139 7,14.9575071 C7,17.6983003 9.21671388,19.9150142 11.9575071,19.9150142 C14.8109895,19.9150142 16.7064812,17.9145043 16.7166726,15.0936969 C16.7167001,15.1002122 16.7167139,15.1067512 16.7167139,15.1133144 L16.7167139,15.0637394 C16.7167139,14.7379603 16.6813031,14.490085 16.6388102,14.2422096 L11.9575071,14.2422096 L11.9575071,14.2917847 Z M11.9575071,10.0849858 C13.2677054,10.0849858 14.3725212,10.5594901 15.2223796,11.3385269 L15.2719547,11.2889518 C14.4150142,10.4886686 13.296034,10 11.9575071,10 C9.21671388,10 7,12.2167139 7,14.9575071 L7,15 C7.02832861,12.2875354 9.23796034,10.0849858 11.9575071,10.0849858 L11.9575071,10.0849858 Z M11.9575071,18.1728045 C13.9192635,18.1728045 14.6558074,16.7705382 14.7691218,16.0339943 L14.7478754,16.0339943 C14.592068,16.7847025 13.8484419,18.0807365 11.9575071,18.0807365 C10.2790368,18.0807365 8.9121813,16.6997167 8.89093484,15 C8.89093484,15.0141643 8.88385269,15.0283286 8.88385269,15.0424929 C8.88385269,16.7705382 10.2648725,18.1728045 11.9575071,18.1728045 L11.9575071,18.1728045 Z M11.9575071,11.8271955 C10.2648725,11.8271955 8.88385269,13.2294618 8.88385269,14.9575071 C8.88385269,14.9716714 8.89093484,14.9858357 8.89093484,15 C8.9121813,13.2932011 10.2790368,11.9192635 11.9575071,11.9192635 C12.9206799,11.9192635 13.5651558,12.3300283 13.9334278,12.684136 L15.2790368,11.388102 C15.2648725,11.3739377 15.2436261,11.3597734 15.2294618,11.3456091 L13.9334278,12.5991501 C13.5651558,12.2450425 12.9206799,11.8271955 11.9575071,11.8271955 L11.9575071,11.8271955 Z M11.9575071,15.9490085 L11.9575071,16.0339943 L14.7478754,16.0339943 C14.7549575,16.0056657 14.7620397,15.970255 14.7691218,15.9490085 L11.9575071,15.9490085 Z M11.9575071,19.9150142 C9.23796034,19.9150142 7.02832861,17.7195467 7,15 L7,15.0424929 C7,17.7832861 9.21671388,20 11.9575071,20 C14.8186969,20 16.7167139,17.9886686 16.7167139,15.1558074 L16.7167139,15.1133144 C16.6954674,17.9249292 14.8045326,19.9150142 11.9575071,19.9150142 Z M22.5807365,14.2492918 L21.1643059,14.2492918 L21.1643059,12.8328612 L19.7478754,12.8328612 L19.7478754,14.2492918 L18.3314448,14.2492918 L18.3314448,15.6657224 L19.7478754,15.6657224 L19.7478754,17.082153 L21.1643059,17.082153 L21.1643059,15.6657224 L22.5807365,15.6657224 L22.5807365,14.2492918 Z M19.7478754,12.8328612 L21.1643059,12.8328612 L21.1643059,12.917847 L19.7478754,12.917847 L19.7478754,12.8328612 Z M18.3314448,14.2492918 L19.7478754,14.2492918 L19.7478754,14.3342776 L18.3314448,14.3342776 L18.3314448,14.2492918 Z M18.3314448,15.6657224 L19.7478754,15.6657224 L19.7478754,15.7507082 L18.3314448,15.7507082 L18.3314448,15.6657224 Z M21.1643059,15.6657224 L22.5807365,15.6657224 L22.5807365,15.7507082 L21.1643059,15.7507082 L21.1643059,15.6657224 Z M19.7478754,17.082153 L21.1643059,17.082153 L21.1643059,17.1671388 L19.7478754,17.1671388 L19.7478754,17.082153 Z" id="Shape"></path>
                        </g>
                    </g>
                </g>
            </g>
        </g>
    </g>
</svg>