<?xml version="1.0" encoding="UTF-8" standalone="no"?>
<svg width="20px" height="16px" viewBox="0 0 20 16" version="1.1" xmlns="http://www.w3.org/2000/svg" xmlns:xlink="http://www.w3.org/1999/xlink">
    <!-- Generator: Sketch 3.6.1 (26313) - http://www.bohemiancoding.com/sketch -->
    <title>Rectangle 294 Copy 3</title>
    <desc>Created with Sketch.</desc>
    <defs></defs>
    <g id="iPhone" stroke="none" stroke-width="1" fill="none" fill-rule="evenodd">
        <g id="Dribbble-feed-iPhone-6-" transform="translate(-16.000000, -34.000000)" fill="#5D6474">
            <g id="Navigation-Bar">
                <path d="M16,35.4085779 C16,34.6306418 16.6315927,34 17.4063612,34 L34.5936388,34 C35.3703507,34 36,34.6252182 36,35.4085779 C36,36.186514 35.3684073,36.8171558 34.5936388,36.8171558 L17.4063612,36.8171558 C16.6296493,36.8171558 16,36.1919376 16,35.4085779 Z M16,41.9819413 C16,41.2040052 16.6315927,40.5733634 17.4063612,40.5733634 L34.5936388,40.5733634 C35.3703507,40.5733634 36,41.1985816 36,41.9819413 C36,42.7598774 35.3684073,43.3905192 34.5936388,43.3905192 L17.4063612,43.3905192 C16.6296493,43.3905192 16,42.765301 16,41.9819413 Z M16,48.5553047 C16,47.7773687 16.6315927,47.1467269 17.4063612,47.1467269 L34.5936388,47.1467269 C35.3703507,47.1467269 36,47.771945 36,48.5553047 C36,49.3332408 35.3684073,49.9638826 34.5936388,49.9638826 L17.4063612,49.9638826 C16.6296493,49.9638826 16,49.3386644 16,48.5553047 Z" id="Rectangle-294-Copy-3"></path>
            </g>
        </g>
    </g>
</svg>