<?xml version="1.0" encoding="UTF-8" standalone="no"?>
<svg width="18px" height="16px" viewBox="0 0 18 16" version="1.1" xmlns="http://www.w3.org/2000/svg" xmlns:xlink="http://www.w3.org/1999/xlink" xmlns:sketch="http://www.bohemiancoding.com/sketch/ns">
    <!-- Generator: Sketch 3.5.2 (25235) - http://www.bohemiancoding.com/sketch -->
    <title>img ic</title>
    <desc>Created with Sketch.</desc>
    <defs></defs>
    <g id="Ui-kit" stroke="none" stroke-width="1" fill="none" fill-rule="evenodd" sketch:type="MSPage">
        <g id="Modals" sketch:type="MSArtboardGroup" transform="translate(-1075.000000, -2710.000000)">
            <g id="modal-sav" sketch:type="MSLayerGroup" transform="translate(750.000000, 2388.000000)">
                <g id="white-content" transform="translate(42.000000, 286.000000)" sketch:type="MSShapeGroup">
                    <g id="logo" transform="translate(235.000000, 0.000000)">
                        <g id="img-ic" transform="translate(49.000000, 37.000000)">
                            <path d="M16,12 C16,13.104 15.104,14 14,14 L2,14 C0.896,14 0,13.104 0,12 L0,2 C0,0.896 0.896,0 2,0 L14,0 C15.104,0 16,0.896 16,2 L16,12 L16,12 Z" id="Shape" stroke="#AEB6C2" stroke-width="2"></path>
                            <path d="M2,12 L14,12 L14,10 L11,7 L8,10 L6,8 L2,12 Z" id="Shape" fill="#AEB6C2"></path>
                            <circle id="Oval" fill="#AEB6C2" cx="4" cy="4" r="2"></circle>
                        </g>
                    </g>
                </g>
            </g>
        </g>
    </g>
</svg>