<?xml version="1.0" encoding="UTF-8" standalone="no"?>
<svg width="17px" height="16px" viewBox="0 0 17 16" version="1.1" xmlns="http://www.w3.org/2000/svg" xmlns:xlink="http://www.w3.org/1999/xlink">
    <!-- Generator: Sketch 3.6.1 (26313) - http://www.bohemiancoding.com/sketch -->
    <title>Shape</title>
    <desc>Created with Sketch.</desc>
    <defs></defs>
    <g id="Ui-kit" stroke="none" stroke-width="1" fill="none" fill-rule="evenodd">
        <g id="Elements" transform="translate(-436.000000, -67.000000)" fill="#AAB8C2">
            <path d="M448.09549,67 C446.674959,67 445.395714,67.6324386 444.5,68.6427458 C443.604363,67.6324386 442.325041,67 440.90451,67 C438.195874,67 436,69.2986038 436,72.1341584 C436,72.8960199 436.128575,73.6291849 436.353756,74.329301 C436.353756,74.329301 436.557943,74.9610077 436.738827,75.3087546 C438.806165,79.7548919 444.5,82.6380556 444.5,82.6380556 C444.5,82.6380556 450.193835,79.7548534 452.261173,75.3087546 C452.261173,75.3087546 452.527915,74.7163369 452.646244,74.329301 C452.861256,73.6259494 453,72.8960199 453,72.1341584 C453,69.2986038 450.804126,67 448.09549,67 L448.09549,67 Z" id="Shape"></path>
        </g>
    </g>
</svg>