<?xml version="1.0" encoding="UTF-8" standalone="no"?>
<svg width="17px" height="16px" viewBox="0 0 17 16" version="1.1" xmlns="http://www.w3.org/2000/svg" xmlns:xlink="http://www.w3.org/1999/xlink">
    <!-- Generator: Sketch 3.6.1 (26313) - http://www.bohemiancoding.com/sketch -->
    <title>Shape</title>
    <desc>Created with Sketch.</desc>
    <defs></defs>
    <g id="Ui-kit" stroke="none" stroke-width="1" fill="none" fill-rule="evenodd">
        <g id="Elements" transform="translate(-412.000000, -67.000000)" fill="#FF4149">
            <path d="M424.09549,67 C422.674959,67 421.395714,67.6324386 420.5,68.6427458 C419.604363,67.6324386 418.325041,67 416.90451,67 C414.195874,67 412,69.2986038 412,72.1341584 C412,72.8960199 412.128575,73.6291849 412.353756,74.329301 C412.353756,74.329301 412.557943,74.9610077 412.738827,75.3087546 C414.806165,79.7548919 420.5,82.6380556 420.5,82.6380556 C420.5,82.6380556 426.193835,79.7548534 428.261173,75.3087546 C428.261173,75.3087546 428.527915,74.7163369 428.646244,74.329301 C428.861256,73.6259494 429,72.8960199 429,72.1341584 C429,69.2986038 426.804126,67 424.09549,67 L424.09549,67 Z" id="Shape"></path>
        </g>
    </g>
</svg>