<?xml version="1.0" encoding="UTF-8" standalone="no"?>
<svg width="12px" height="11px" viewBox="0 0 12 11" version="1.1" xmlns="http://www.w3.org/2000/svg" xmlns:xlink="http://www.w3.org/1999/xlink" xmlns:sketch="http://www.bohemiancoding.com/sketch/ns">
    <!-- Generator: Sketch 3.5.2 (25235) - http://www.bohemiancoding.com/sketch -->
    <title>Shape</title>
    <desc>Created with Sketch.</desc>
    <defs></defs>
    <g id="Ui-kit" stroke="none" stroke-width="1" fill="none" fill-rule="evenodd" sketch:type="MSPage">
        <g id="Elements" sketch:type="MSArtboardGroup" transform="translate(-1016.000000, -835.000000)" fill="#FFFFFF">
            <g id="hover-active" sketch:type="MSLayerGroup" transform="translate(731.000000, 760.000000)">
                <g id="buttons-like" transform="translate(271.000000, 10.000000)" sketch:type="MSShapeGroup">
                    <g id="like-active" transform="translate(0.000000, 50.000000)">
                        <path d="M25.0115,20.7615 L25.03025,20.78025 L20.53025,25.281 C20.3945,25.41675 20.207,25.5 19.99925,25.5 C19.79225,25.5 19.60475,25.41675 19.469,25.281 L19.469,25.281 L14.969,20.78025 L14.9885,20.7615 C14.37725,20.151 14,19.30725 14,18.375 C14,16.51125 15.5105,15 17.375,15 C18.4415,15 19.38125,15.5055 19.99925,16.278 C20.618,15.5055 21.55775,15 22.625,15 C24.48875,15 26,16.51125 26,18.375 C26,19.30725 25.622,20.151 25.0115,20.7615 L25.0115,20.7615 Z" id="Shape"></path>
                    </g>
                </g>
            </g>
        </g>
    </g>
</svg>