<?xml version="1.0" encoding="UTF-8" standalone="no"?>
<svg width="19px" height="18px" viewBox="0 0 19 18" version="1.1" xmlns="http://www.w3.org/2000/svg" xmlns:xlink="http://www.w3.org/1999/xlink">
    <!-- Generator: Sketch 3.6.1 (26313) - http://www.bohemiancoding.com/sketch -->
    <title>Shape</title>
    <desc>Created with Sketch.</desc>
    <defs></defs>
    <g id="Notice-open" stroke="none" stroke-width="1" fill="none" fill-rule="evenodd">
        <g id="Notice-links" transform="translate(-686.000000, -339.000000)" stroke="#FFFFFF" fill="#FF4149">
            <g id="notice-2-" transform="translate(-15.000000, -23.000000)">
                <g id="top-bar" transform="translate(562.000000, 363.000000)">
                    <g id="love" transform="translate(55.000000, 0.000000)">
                        <path d="M97.0954901,2.1453128e-14 C95.6749588,2.1453128e-14 94.395714,0.632438642 93.5,1.64274579 C92.604363,0.632438642 91.3250412,2.13162821e-14 89.9045099,2.13162821e-14 C87.1958744,2.1453128e-14 85,2.29860381 85,5.13415839 C85,5.89601988 85.1285754,6.62918494 85.3537558,7.32930095 C85.3537558,7.32930095 85.5579435,7.96100774 85.7388273,8.30875462 C87.8061648,12.7548919 93.5,15.6380556 93.5,15.6380556 C93.5,15.6380556 99.1938352,12.7548534 101.261173,8.30875462 C101.261173,8.30875462 101.527915,7.71633692 101.646244,7.32930095 C101.861256,6.62594937 102,5.89601988 102,5.13415839 C102,2.29860381 99.8041256,2.1453128e-14 97.0954901,2.1453128e-14 L97.0954901,2.1453128e-14 Z" id="Shape"></path>
                    </g>
                </g>
            </g>
        </g>
    </g>
</svg>