<?xml version="1.0" encoding="UTF-8" standalone="no"?>
<svg width="9px" height="10px" viewBox="0 0 9 10" version="1.1" xmlns="http://www.w3.org/2000/svg" xmlns:xlink="http://www.w3.org/1999/xlink">
    <!-- Generator: Sketch 3.6.1 (26313) - http://www.bohemiancoding.com/sketch -->
    <title>power</title>
    <desc>Created with Sketch.</desc>
    <defs></defs>
    <g id="Ui-kit" stroke="none" stroke-width="1" fill="none" fill-rule="evenodd">
        <g id="Menu-left" transform="translate(-841.000000, -198.000000)" fill="#5D6474">
            <g id="left-open-nl.1.2" transform="translate(595.000000, 95.000000)">
                <g id="user" transform="translate(24.000000, 91.000000)">
                    <g id="icons" transform="translate(65.000000, 2.000000)">
                        <g id="#4" transform="translate(146.000000, 0.000000)">
                            <path d="M18.6813978,18.3237497 C17.5446106,19.4605369 15.8877072,19.9045028 14.334827,19.4884098 C12.7819468,19.0723169 11.5690093,17.8593794 11.1529163,16.3064992 C10.7368233,14.753619 11.1807893,13.0967156 12.3175765,11.9599284 L12.7720433,11.5054616 C13.0242685,11.2618544 13.425193,11.2653383 13.6731466,11.5132919 C13.9211003,11.7612455 13.9245842,12.1621701 13.680977,12.4143952 L13.2265101,12.8688621 C12.3072852,13.7880694 12.0322933,15.170495 12.5297637,16.3715111 C13.0272342,17.5725273 14.1991978,18.3556124 15.4991657,18.3556124 C16.7991337,18.3556124 17.9710973,17.5725273 18.4685677,16.3715111 C18.9660381,15.170495 18.6910463,13.7880694 17.7718213,12.8688621 L17.3173545,12.4143952 C17.1502517,12.253002 17.0832349,12.014003 17.1420619,11.7892576 C17.200889,11.5645122 17.3764051,11.3889961 17.6011505,11.330169 C17.8258958,11.271342 18.0648949,11.3383588 18.2262881,11.5054616 L18.6813978,11.9599284 C19.5253492,12.8037937 19.9994834,13.9483724 19.9994834,15.1418391 C19.9994834,16.3353057 19.5253492,17.4798844 18.6813978,18.3237497 L18.6813978,18.3237497 Z M15.4994871,13.8568614 C15.1444728,13.8568614 14.8566769,13.5690655 14.8566769,13.2140512 L14.8566769,10.6428102 C14.8566769,10.2877959 15.1444728,10 15.4994871,10 C15.8545014,10 16.1422974,10.2877959 16.1422974,10.6428102 L16.1422974,13.2140512 C16.1422974,13.5690655 15.8545014,13.8568614 15.4994871,13.8568614 L15.4994871,13.8568614 Z" id="power"></path>
                        </g>
                    </g>
                </g>
            </g>
        </g>
    </g>
</svg>