<?xml version="1.0" encoding="UTF-8" standalone="no"?>
<svg width="161px" height="31px" viewBox="0 0 161 31" version="1.1" xmlns="http://www.w3.org/2000/svg" xmlns:xlink="http://www.w3.org/1999/xlink">
    <!-- Generator: Sketch 3.6.1 (26313) - http://www.bohemiancoding.com/sketch -->
    <title>FLATUN</title>
    <desc>Created with Sketch.</desc>
    <defs>
        <path d="M17.7068025,5.66441631 L5.96249473,5.66441631 L5.96249473,13.1928188 L15.7795315,13.1928188 C16.6896363,13.1928188 17.3688587,13.3969201 17.8172191,13.8051288 C18.2655795,14.2133376 18.4897564,14.7587231 18.4897564,15.4413016 C18.4897564,16.1238802 18.2622336,16.6659197 17.8071812,17.0674365 C17.3521289,17.4689534 16.6762524,17.6697087 15.7795315,17.6697087 L5.96249473,17.6697087 L5.96249473,27.3662911 C5.96249473,28.5976093 5.68478311,29.5110463 5.12935153,30.1066296 C4.57391995,30.7022128 3.86123831,31 2.99128524,31 C2.10794827,31 1.38857478,30.6988669 0.833143204,30.0965917 C0.277711624,29.4943165 0,28.5842254 0,27.3662911 L0,4.72085654 C0,3.86428736 0.127145081,3.16498941 0.381439057,2.62294173 C0.635733033,2.08089404 1.03389789,1.68607511 1.57594558,1.43847308 C2.11799326,1.19087105 2.81059936,1.06707189 3.65378465,1.06707189 L17.7068025,1.06707189 C18.657059,1.06707189 19.3630488,1.27786505 19.8247931,1.6994577 C20.2865374,2.12105034 20.5174061,2.67312766 20.5174061,3.35570623 C20.5174061,4.05166869 20.2865374,4.61043786 19.8247931,5.03203051 C19.3630488,5.45362315 18.657059,5.66441631 17.7068025,5.66441631 L17.7068025,5.66441631 Z M31.945365,4.17881157 L31.945365,25.599626 L44.0309604,25.599626 C44.9946008,25.599626 45.7340498,25.8338406 46.2493297,26.3022769 C46.7646096,26.7707131 47.0222457,27.3595956 47.0222457,28.068942 C47.0222457,28.7916722 46.7679555,29.3772088 46.2593675,29.8255692 C45.7507796,30.2739297 45.0079847,30.4981065 44.0309604,30.4981065 L29.636655,30.4981065 C28.3384173,30.4981065 27.4049047,30.2103571 26.8360892,29.6348497 C26.2672738,29.0593423 25.9828703,28.1291756 25.9828703,26.8443219 L25.9828703,4.17881157 C25.9828703,2.97426115 26.2538901,2.07086189 26.7959378,1.46858669 C27.3379855,0.86631148 28.0506671,0.565178394 28.9340041,0.565178394 C29.8307249,0.565178394 30.5567903,0.862965557 31.1122218,1.45854882 C31.6676534,2.05413208 31.945365,2.96087726 31.945365,4.17881157 L31.945365,4.17881157 Z M70.3751941,27.1655337 L68.9698923,23.4715976 L57.0047513,23.4715976 L55.5994495,27.2458366 C55.0507099,28.7180649 54.5822806,29.7118041 54.1941477,30.227084 C53.8060148,30.7423639 53.1702894,31 52.2869524,31 C51.5374544,31 50.8749616,30.7256343 50.2994542,30.1768947 C49.7239468,29.628155 49.4361974,29.0058133 49.4361974,28.3098509 C49.4361974,27.9083341 49.5031159,27.4934396 49.6369548,27.065155 C49.7707937,26.6368704 49.9916247,26.0412961 50.2994542,25.2784141 L57.8278566,6.16630981 C58.0419989,5.61757018 58.299635,4.95842331 58.6007726,4.18884944 C58.9019102,3.41927556 59.2231189,2.78020423 59.5644081,2.27161628 C59.9056974,1.76302833 60.3540511,1.35147978 60.9094827,1.03695828 C61.4649143,0.722436784 62.1508285,0.565178394 62.967246,0.565178394 C63.7970474,0.565178394 64.4896535,0.722436784 65.0450851,1.03695828 C65.6005167,1.35147978 66.0488704,1.75633648 66.3901597,2.25154054 C66.731449,2.7467446 67.0191984,3.27874639 67.2534165,3.84756186 C67.4876346,4.41637733 67.7854218,5.17590189 68.1467869,6.12615833 L75.8357953,25.1178082 C76.4380705,26.5632687 76.7392036,27.6138886 76.7392036,28.2696994 C76.7392036,28.9522779 76.4548001,29.5779656 75.8859846,30.1467811 C75.3171692,30.7155965 74.6312549,31 73.8282213,31 C73.359785,31 72.9582742,30.9163519 72.6236769,30.7490533 C72.2890796,30.5817546 72.008022,30.3542318 71.7804958,30.0664781 C71.5529697,29.7787244 71.3087173,29.3370625 71.0477313,28.7414793 C70.7867454,28.145896 70.5625686,27.6205861 70.3751941,27.1655337 L70.3751941,27.1655337 Z M58.570659,18.9947076 L67.3638331,18.9947076 L62.9270946,6.84888497 L58.570659,18.9947076 Z M97.7633661,5.98562815 L91.2588264,5.98562815 L91.2588264,27.3662911 C91.2588264,28.5976093 90.9844607,29.5110463 90.4357211,30.1066296 C89.8869815,30.7022128 89.1776458,31 88.3076927,31 C87.4243557,31 86.7049822,30.6988669 86.1495506,30.0965917 C85.5941191,29.4943165 85.3164074,28.5842254 85.3164074,27.3662911 L85.3164074,5.98562815 L78.8118677,5.98562815 C77.7946918,5.98562815 77.0385132,5.7614513 76.5433091,5.31309087 C76.0481051,4.86473044 75.8005068,4.27250203 75.8005068,3.53638789 C75.8005068,2.77350596 76.0581428,2.17123979 76.5734227,1.72957131 C77.0887026,1.28790282 77.8348435,1.06707189 78.8118677,1.06707189 L97.7633661,1.06707189 C98.7939259,1.06707189 99.5601424,1.29459467 100.062038,1.74964704 C100.563934,2.20469942 100.814879,2.80027375 100.814879,3.53638789 C100.814879,4.27250203 100.560588,4.86473044 100.052,5.31309087 C99.5434125,5.7614513 98.780542,5.98562815 97.7633661,5.98562815 L97.7633661,5.98562815 Z M105.53754,18.3322082 L105.53754,4.17881157 C105.53754,2.97426115 105.80856,2.07086189 106.350608,1.46858669 C106.892656,0.86631148 107.605337,0.565178394 108.488674,0.565178394 C109.412163,0.565178394 110.14492,0.86631148 110.686968,1.46858669 C111.229015,2.07086189 111.500035,2.97426115 111.500035,4.17881157 L111.500035,18.65342 C111.500035,20.2996389 111.684061,21.6748133 112.052118,22.7789845 C112.420175,23.8831557 113.07263,24.7397121 114.009503,25.3486792 C114.946375,25.9576464 116.257977,26.2621254 117.944348,26.2621254 C120.273145,26.2621254 121.919339,25.6431296 122.88298,24.4051195 C123.84662,23.1671093 124.328433,21.2900464 124.328433,18.7738744 L124.328433,4.17881157 C124.328433,2.96087726 124.596107,2.05413208 125.131463,1.45854882 C125.666818,0.862965557 126.382846,0.565178394 127.279567,0.565178394 C128.176288,0.565178394 128.902353,0.862965557 129.457784,1.45854882 C130.013216,2.05413208 130.290928,2.96087726 130.290928,4.17881157 L130.290928,18.3322082 C130.290928,20.6342378 130.066751,22.5547977 129.61839,24.0939455 C129.17003,25.6330932 128.323511,26.9848462 127.078809,28.1492449 C126.008098,29.1396531 124.763414,29.8623725 123.344722,30.3174248 C121.926029,30.7724772 120.266451,31 118.365938,31 C116.10406,31 114.156733,30.7557476 112.523898,30.2672355 C110.891063,29.7787234 109.559385,29.0225447 108.528826,27.9986769 C107.498266,26.974809 106.742087,25.6632072 106.260267,24.0638319 C105.778447,22.4644566 105.53754,20.5539345 105.53754,18.3322082 L105.53754,18.3322082 Z M143.866118,4.13866009 L155.329365,21.4840993 L155.329365,3.97805417 C155.329365,2.84042322 155.573618,1.98721281 156.06213,1.41839734 C156.550642,0.849581864 157.209789,0.565178394 158.03959,0.565178394 C158.896159,0.565178394 159.572036,0.849581864 160.06724,1.41839734 C160.562444,1.98721281 160.810042,2.84042322 160.810042,3.97805417 L160.810042,27.1253822 C160.810042,29.7084737 159.739347,31 157.597924,31 C157.062568,31 156.580755,30.9230438 156.152471,30.769129 C155.724186,30.6152142 155.322675,30.3709618 154.947926,30.0363645 C154.573177,29.7017672 154.225201,29.3102941 153.903988,28.8619337 C153.582774,28.4135733 153.261566,27.9551818 152.940352,27.4867455 L141.758165,10.3420637 L141.758165,27.5871242 C141.758165,28.7113713 141.497183,29.5612358 140.975211,30.1367432 C140.453239,30.7122506 139.784055,31 138.967637,31 C138.124452,31 137.448576,30.7089047 136.939988,30.1267053 C136.4314,29.544506 136.17711,28.6979874 136.17711,27.5871242 L136.17711,4.88146246 C136.17711,3.91782213 136.284179,3.16164349 136.498321,2.61290386 C136.752615,2.01062865 137.174202,1.51877794 137.763093,1.13733698 C138.351984,0.755896015 138.98771,0.565178394 139.670288,0.565178394 C140.205644,0.565178394 140.664035,0.652172397 141.045476,0.826163012 C141.426917,1.00015363 141.76151,1.23436825 142.049263,1.52881391 C142.337017,1.82325956 142.631458,2.20469481 142.932596,2.67313108 C143.233734,3.14156735 143.544904,3.63007213 143.866118,4.13866009 L143.866118,4.13866009 Z" id="path-1"></path>
    </defs>
    <g id="Ui-kit" stroke="none" stroke-width="1" fill="none" fill-rule="evenodd">
        <g id="Blocks" transform="translate(-1496.000000, -3361.000000)">
            <g id="Group-6" transform="translate(1496.000000, 3361.000000)">
                <g id="FLATUN">
                    <use fill="none" xlink:href="#path-1"></use>
                    <use fill="#FFFFFF" fill-rule="evenodd" xlink:href="#path-1"></use>
                </g>
            </g>
        </g>
    </g>
</svg>