<?xml version="1.0" encoding="UTF-8" standalone="no"?>
<svg width="22px" height="22px" viewBox="0 0 22 22" version="1.1" xmlns="http://www.w3.org/2000/svg" xmlns:xlink="http://www.w3.org/1999/xlink" xmlns:sketch="http://www.bohemiancoding.com/sketch/ns">
    <!-- Generator: Sketch 3.5.2 (25235) - http://www.bohemiancoding.com/sketch -->
    <title>Shape</title>
    <desc>Created with Sketch.</desc>
    <defs>
        <filter x="-50%" y="-50%" width="200%" height="200%" filterUnits="objectBoundingBox" id="filter-1">
            <feOffset dx="0" dy="0" in="SourceAlpha" result="shadowOffsetOuter1"></feOffset>
            <feGaussianBlur stdDeviation="0.5" in="shadowOffsetOuter1" result="shadowBlurOuter1"></feGaussianBlur>
            <feColorMatrix values="0 0 0 0 0.164705882   0 0 0 0 0.176470588   0 0 0 0 0.22745098  0 0 0 0.28 0" in="shadowBlurOuter1" type="matrix" result="shadowMatrixOuter1"></feColorMatrix>
            <feMerge>
                <feMergeNode in="shadowMatrixOuter1"></feMergeNode>
                <feMergeNode in="SourceGraphic"></feMergeNode>
            </feMerge>
        </filter>
    </defs>
    <g id="Ui-kit" stroke="none" stroke-width="1" fill="none" fill-rule="evenodd" sketch:type="MSPage">
        <g id="Elements" sketch:type="MSArtboardGroup" transform="translate(-1091.000000, -779.000000)" filter="url(#filter-1)" fill="#FFFFFF">
            <g id="Group" sketch:type="MSLayerGroup" transform="translate(1072.000000, 760.000000)">
                <g id="Bitmap" sketch:type="MSShapeGroup">
                    <path d="M39.5601236,28.9376484 C39.5601236,28.9376484 38.2944869,27.506001 38.05718,26.9330298 C37.7293218,26.140966 37.8063425,23.754887 37.8063425,23.754887 C37.8063425,22.8925679 37.1074321,22.1936575 36.245113,22.1936575 C36.245113,22.1936575 33.9782078,22.1515043 33.1861441,21.8236461 C32.6126525,21.5863392 31.0623516,20.4398764 31.0623516,20.4398764 C30.4758497,19.8533745 29.5245406,19.8533745 28.9380387,20.4398764 C28.9380387,20.4398764 27.6458611,21.4796552 27.0728899,21.7169621 C26.2808262,22.0448203 23.7552773,22.1936575 23.7552773,22.1936575 C22.8929582,22.1936575 22.1940478,22.8925679 22.1940478,23.754887 C22.1940478,23.754887 22.2278745,26.097772 21.9000163,26.8898357 C21.6627094,27.462807 20.4402667,28.9376484 20.4402667,28.9376484 C19.8532444,29.5241503 19.8532444,30.4754594 20.4402667,31.0614409 C20.4402667,31.0614409 21.4800455,32.2422508 21.7173524,32.815222 C22.0452106,33.6078061 22.1940478,36.2447227 22.1940478,36.2447227 C22.1940478,37.1070418 22.8929582,37.8059522 23.7552773,37.8059522 C23.7552773,37.8059522 26.2064075,37.6644007 26.9984713,37.9917385 C27.5709221,38.228525 28.9380387,39.5592129 28.9380387,39.5592129 C29.5245406,40.1462352 30.4758497,40.1462352 31.0623516,39.5592129 C31.0623516,39.5592129 32.3482843,38.1478614 32.9202147,37.9105546 C33.7127988,37.582176 36.245113,37.8059522 36.245113,37.8059522 C37.1074321,37.8059522 37.8063425,37.1070418 37.8063425,36.2447227 C37.8063425,36.2447227 37.9458123,33.8149293 38.2736705,33.0228655 C38.5109774,32.4493739 39.5601236,31.0614409 39.5601236,31.0614409 C40.1466255,30.4754594 40.1466255,29.5241503 39.5601236,28.9376484 L39.5601236,28.9376484 Z M27,28.696117 L27,26.7179234 C27,25.9514982 27.7350843,25.7688806 28.6504274,26.3151503 L33.3149309,29.0988901 C34.2264368,29.6428698 34.2302739,30.5225452 33.3149309,31.0688148 L28.6504274,33.8525547 C27.7389215,34.3965344 27,34.2160584 27,33.4497816 L27,31.471588 L27,28.696117 Z" id="Shape"></path>
                </g>
            </g>
        </g>
    </g>
</svg>