<?xml version="1.0" encoding="UTF-8" standalone="no"?>
<svg width="8px" height="8px" viewBox="0 0 8 8" version="1.1" xmlns="http://www.w3.org/2000/svg" xmlns:xlink="http://www.w3.org/1999/xlink" xmlns:sketch="http://www.bohemiancoding.com/sketch/ns">
    <!-- Generator: Sketch 3.5.2 (25235) - http://www.bohemiancoding.com/sketch -->
    <title>plus</title>
    <desc>Created with Sketch.</desc>
    <defs></defs>
    <g id="Ui-kit" stroke="none" stroke-width="1" fill="none" fill-rule="evenodd" sketch:type="MSPage">
        <g id="Menu-left" sketch:type="MSArtboardGroup" transform="translate(-621.000000, -382.000000)" fill="#5D6474">
            <g id="left-open-1" sketch:type="MSLayerGroup" transform="translate(374.000000, 188.000000)">
                <g id="links" transform="translate(0.000000, 91.000000)" sketch:type="MSShapeGroup">
                    <g id="user-link">
                        <g id="recources" transform="translate(0.000000, 61.000000)">
                            <g id="add" transform="translate(241.000000, 36.000000)">
                                <path d="M10.6666667,10.6666667 L13.3316845,10.6666667 C13.6961594,10.6666667 14,10.3681898 14,10 C14,9.62924321 13.7007849,9.33333333 13.3316845,9.33333333 L10.6666667,9.33333333 L10.6666667,6.66831553 C10.6666667,6.30384064 10.3681898,6 10,6 C9.62924321,6 9.33333333,6.29921505 9.33333333,6.66831553 L9.33333333,9.33333333 L6.66831553,9.33333333 C6.30384064,9.33333333 6,9.63181017 6,10 C6,10.3707568 6.29921505,10.6666667 6.66831553,10.6666667 L9.33333333,10.6666667 L9.33333333,13.3316845 C9.33333333,13.6961594 9.63181017,14 10,14 C10.3707568,14 10.6666667,13.7007849 10.6666667,13.3316845 L10.6666667,10.6666667 Z" id="plus"></path>
                            </g>
                        </g>
                    </g>
                </g>
            </g>
        </g>
    </g>
</svg>