<?xml version="1.0" encoding="UTF-8" standalone="no"?>
<svg width="9px" height="11px" viewBox="0 0 9 11" version="1.1" xmlns="http://www.w3.org/2000/svg" xmlns:xlink="http://www.w3.org/1999/xlink">
    <!-- Generator: Sketch 3.6.1 (26313) - http://www.bohemiancoding.com/sketch -->
    <title>gear</title>
    <desc>Created with Sketch.</desc>
    <defs></defs>
    <g id="Ui-kit" stroke="none" stroke-width="1" fill="none" fill-rule="evenodd">
        <g id="Menu-left" transform="translate(-796.000000, -198.000000)" fill="#5D6474">
            <g id="left-open-nl.1.2" transform="translate(595.000000, 95.000000)">
                <g id="user" transform="translate(24.000000, 91.000000)">
                    <g id="icons" transform="translate(65.000000, 2.000000)">
                        <g id="#3" transform="translate(101.000000, 0.000000)">
                            <path d="M19.370699,14.3095883 L19.370699,14.3140855 L19.2743307,14.371264 C19.3779867,14.8780546 19.3779867,15.4005833 19.2743307,15.9073739 L19.370699,15.9651949 L19.370699,15.9651949 C19.769787,16.1971923 20.0131005,16.6260496 20.0075199,17.087637 C20.0019392,17.5492244 19.7483285,17.9720739 19.3437482,18.1943548 C18.9391679,18.4166358 18.4462595,18.4039323 18.0536662,18.1611062 L18.0536662,18.1656033 L17.941879,18.1013578 C17.5977888,18.3861922 17.2063784,18.6084264 16.78546,18.7579469 L16.78546,18.9943703 C16.78546,19.7040065 16.2101861,20.2792804 15.5005499,20.2792804 C14.7909137,20.2792804 14.2156399,19.7040065 14.2156399,18.9943703 L14.2156399,18.7585893 C13.7946547,18.6092148 13.4032198,18.3869668 13.0592208,18.1020003 L12.9474336,18.1662458 L12.9474336,18.1617486 C12.7491038,18.284452 12.5208448,18.3502404 12.2876323,18.3519153 C11.7126952,18.3484096 11.2100667,17.9633913 11.056956,17.4092053 C10.9038453,16.8550193 11.1375249,16.2665736 11.6291159,15.9684072 L11.6291159,15.9684072 L11.7248417,15.9105862 C11.6220475,15.4037087 11.6220475,14.8813538 11.7248417,14.3744763 L11.6291159,14.3172978 L11.6291159,14.3128006 C11.2369689,14.0775353 11.0001226,13.6509333 11.0077947,13.1936914 C11.0154669,12.7364495 11.266492,12.3180336 11.6663112,12.0960569 C12.0661304,11.8740803 12.5540017,11.8822664 12.9461487,12.1175318 L12.9461487,12.1130346 L13.0579359,12.1804923 C13.4019349,11.8955258 13.7933698,11.6732778 14.214355,11.5239033 L14.214355,11.28491 C14.214355,10.5752738 14.7896288,10 15.499265,10 C16.2089012,10 16.784175,10.5752738 16.784175,11.28491 L16.784175,11.520691 C17.2050934,11.6702115 17.5965039,11.8924457 17.9405941,12.1772801 L18.0523813,12.1098223 L18.0523813,12.1143195 C18.2509862,11.992622 18.4792579,11.9279413 18.7121826,11.9273651 C19.2896847,11.9256056 19.7969649,12.3104644 19.9508336,12.8670938 C20.1047023,13.4237232 19.8671125,14.0144859 19.370699,14.3095883 L19.370699,14.3095883 Z M15.4999075,12.5698201 C14.080635,12.5698201 12.9300874,13.7203677 12.9300874,15.1396402 C12.9300874,16.5589126 14.080635,17.7094603 15.4999075,17.7094603 C16.9191799,17.7094603 18.0697275,16.5589126 18.0697275,15.1396402 C18.0697275,13.7203677 16.9191799,12.5698201 15.4999075,12.5698201 L15.4999075,12.5698201 Z M15.4999075,16.4245502 C14.7902712,16.4245502 14.2149974,15.8492764 14.2149974,15.1396402 C14.2149974,14.430004 14.7902712,13.8547301 15.4999075,13.8547301 C16.2095437,13.8547301 16.7848175,14.430004 16.7848175,15.1396402 C16.7848175,15.8492764 16.2095437,16.4245502 15.4999075,16.4245502 L15.4999075,16.4245502 Z" id="gear"></path>
                        </g>
                    </g>
                </g>
            </g>
        </g>
    </g>
</svg>