<?xml version="1.0" encoding="UTF-8" standalone="no"?>
<svg width="11px" height="13px" viewBox="0 0 11 13" version="1.1" xmlns="http://www.w3.org/2000/svg" xmlns:xlink="http://www.w3.org/1999/xlink" xmlns:sketch="http://www.bohemiancoding.com/sketch/ns">
    <!-- Generator: Sketch 3.5.2 (25235) - http://www.bohemiancoding.com/sketch -->
    <title>Shape</title>
    <desc>Created with Sketch.</desc>
    <defs></defs>
    <g id="Ui-kit" stroke="none" stroke-width="1" fill="none" fill-rule="evenodd" sketch:type="MSPage">
        <g id="Menu-left" sketch:type="MSArtboardGroup" transform="translate(-774.000000, -456.000000)" fill="#9EB6C9">
            <g id="left-open-3" sketch:type="MSLayerGroup" transform="translate(738.000000, 188.000000)">
                <g id="links" transform="translate(0.000000, 87.000000)" sketch:type="MSShapeGroup">
                    <g id="user-link">
                        <g id="recources" transform="translate(24.000000, 59.000000)">
                            <path d="M22.2339286,127.270571 L22.2370714,127.276071 L22.1192143,127.346 C22.1812857,127.649286 22.2142857,127.963571 22.2142857,128.285714 C22.2142857,128.607071 22.1812857,128.921357 22.1192143,129.224643 L22.2370714,129.295357 L22.2339286,129.299286 C22.6912143,129.574286 23,130.070071 23,130.642071 C23,131.510286 22.296,132.214286 21.4285714,132.214286 C21.1323571,132.214286 20.8589286,132.127071 20.6232143,131.984857 L20.6200714,131.990357 L20.4833571,131.907857 C20.0645714,132.252786 19.5923571,132.526214 19.0714286,132.710857 L19.0714286,132.999214 C19.0714286,133.867429 18.3674286,134.571429 17.5,134.571429 C16.6317857,134.571429 15.9285714,133.867429 15.9285714,132.999214 L15.9285714,132.710857 C15.4076429,132.526214 14.9346429,132.252786 14.5166429,131.907857 L14.3799286,131.990357 L14.3767857,131.984857 C14.1410714,132.127071 13.8668571,132.214286 13.5714286,132.214286 C12.7032143,132.214286 12,131.510286 12,130.642071 C12,130.070071 12.3087857,129.574286 12.7660714,129.299286 L12.7629286,129.295357 L12.88,129.224643 C12.8187143,128.921357 12.7857143,128.607071 12.7857143,128.285714 C12.7857143,127.963571 12.8187143,127.649286 12.88,127.346 L12.7629286,127.276071 L12.7660714,127.270571 C12.3087857,126.996357 12,126.500571 12,125.928571 C12,125.060357 12.7032143,124.357143 13.5714286,124.357143 C13.8668571,124.357143 14.1410714,124.443571 14.3767857,124.585786 L14.3799286,124.580286 L14.5166429,124.662786 C14.9346429,124.317857 15.4076429,124.044429 15.9285714,123.859786 L15.9285714,123.571429 C15.9285714,122.703214 16.6317857,122 17.5,122 C18.3674286,122 19.0714286,122.703214 19.0714286,123.571429 L19.0714286,123.859786 C19.5923571,124.044429 20.0645714,124.317857 20.4833571,124.662786 L20.6200714,124.580286 L20.6232143,124.585786 C20.8589286,124.443571 21.1323571,124.357143 21.4285714,124.357143 C22.296,124.357143 23,125.060357 23,125.928571 C23,126.500571 22.6912143,126.996357 22.2339286,127.270571 L22.2339286,127.270571 Z M17.5,125.142071 C15.7643571,125.142071 14.3571429,126.549286 14.3571429,128.285714 C14.3571429,130.021357 15.7643571,131.428571 17.5,131.428571 C19.2356429,131.428571 20.6428571,130.021357 20.6428571,128.285714 C20.6428571,126.549286 19.2356429,125.142071 17.5,125.142071 L17.5,125.142071 Z M17.5,129.856357 C16.6317857,129.856357 15.9285714,129.153143 15.9285714,128.285714 C15.9285714,127.4175 16.6317857,126.714286 17.5,126.714286 C18.3674286,126.714286 19.0714286,127.4175 19.0714286,128.285714 C19.0714286,129.153143 18.3674286,129.856357 17.5,129.856357 L17.5,129.856357 Z" id="Shape"></path>
                        </g>
                    </g>
                </g>
            </g>
        </g>
    </g>
</svg>