<?xml version="1.0" encoding="UTF-8" standalone="no"?>
<svg width="20px" height="19px" viewBox="0 0 20 19" version="1.1" xmlns="http://www.w3.org/2000/svg" xmlns:xlink="http://www.w3.org/1999/xlink">
    <!-- Generator: Sketch 3.7.1 (28215) - http://www.bohemiancoding.com/sketch -->
    <title>Dribbble</title>
    <desc>Created with Sketch.</desc>
    <defs></defs>
    <g id="Ui-kit" stroke="none" stroke-width="1" fill="none" fill-rule="evenodd">
        <g id="Modals" transform="translate(-202.000000, -3437.000000)" fill="#FFFFFF">
            <g id="Rectangle-179-+-7-+-FLATUN-+-Ipsum-Copy-2-+-Group-Copy-5" transform="translate(48.000000, 2926.000000)">
                <g id="Group-Copy-5" transform="translate(138.000000, 495.000000)">
                    <g id="Oval-136-Copy-+-post-gplus-Copy" transform="translate(0.727273, 0.000000)">
                        <g id="Group-5">
                            <path d="M34.2524132,21.5256741 C34.0156514,20.9893398 33.7198288,20.4722484 33.376861,19.9892022 C33.0380378,19.5105966 32.6474069,19.0596218 32.2184381,18.6510802 C31.7879151,18.2415517 31.3154278,17.8700156 30.8118558,17.5468335 C30.3046573,17.2192107 29.7617113,16.9389551 29.1985603,16.7114941 C28.6240116,16.481566 28.0230408,16.3029524 27.4132628,16.1850279 C26.7874243,16.0626628 26.1439712,16 25.5005181,16 C24.8560288,16 24.2125757,16.0626628 23.5867372,16.1850279 C22.9764411,16.3029524 22.3754704,16.481566 21.8014397,16.7114941 C21.2382887,16.9389551 20.6953427,17.2192107 20.187108,17.5468335 C19.6840541,17.8700156 19.2115668,18.2415517 18.7815619,18.6510802 C18.3525931,19.0596218 17.9624802,19.5105966 17.623139,19.9892022 C17.2801712,20.4722484 16.9838305,20.9893398 16.7470688,21.5256741 C16.503572,22.0723699 16.3170639,22.6457098 16.1916889,23.2269442 C16.0647598,23.8215006 16,24.4343131 16,25.0471256 C16,25.6619118 16.0647598,26.2747243 16.1916889,26.8702675 C16.3170639,27.4515019 16.503572,28.023855 16.7470688,28.569564 C16.9838305,29.1058983 17.2801712,29.6249633 17.623139,30.1080096 C17.9624802,30.5866151 18.3525931,31.0356163 18.7815619,31.4461316 C19.2115668,31.8546732 19.6840541,32.2252225 20.187108,32.5493914 C20.6953427,32.8760274 21.2382887,33.1567764 21.8014397,33.383744 C22.3754704,33.6156457 22.9764411,33.7922857 23.5867372,33.9102102 C24.2125757,34.0335621 24.8560288,34.0952381 25.5005181,34.0952381 C26.1439712,34.0952381 26.7874243,34.0335621 27.4132628,33.9102102 C28.0230408,33.7922857 28.6240116,33.6156457 29.1985603,33.383744 C29.7617113,33.1567764 30.3046573,32.8760274 30.8118558,32.5493914 C31.3154278,32.2252225 31.7879151,31.8546732 32.2184381,31.4461316 C32.6474069,31.0356163 33.0380378,30.5866151 33.376861,30.1080096 C33.7198288,29.6249633 34.0156514,29.1058983 34.2524132,28.569564 C34.4948738,28.023855 34.6829361,27.4515019 34.807793,26.8702675 C34.9352402,26.2747243 35,25.6619118 35,25.0471256 C35,24.4343131 34.9352402,23.8215006 34.807793,23.2269442 C34.6829361,22.6457098 34.4948738,22.0723699 34.2524132,21.5256741 L34.2524132,21.5256741 Z M25.5005181,17.3208527 C27.553662,17.3208527 29.4296232,18.0510963 30.8584828,19.2500773 C30.8382778,19.2786949 29.6834815,20.9543078 26.6200851,22.0467127 C25.2331897,19.6201331 23.7095217,17.6923888 23.5877734,17.5394324 C24.2011779,17.3978243 24.8415226,17.3208527 25.5005181,17.3208527 L25.5005181,17.3208527 Z M23.5566887,17.5453533 C23.5566887,17.5468335 23.5551344,17.5478203 23.5551344,17.5478203 C23.5551344,17.5478203 23.5452909,17.5497939 23.5307848,17.5517676 C23.5395921,17.5497939 23.5473633,17.5488071 23.5566887,17.5453533 L23.5566887,17.5453533 Z M22.0382015,18.060471 C22.1464798,18.1976384 23.6468343,20.1352509 25.0513443,22.5119963 C21.1553962,23.4978251 17.7738998,23.4588459 17.5604515,23.455392 C18.086819,21.0618707 19.7747178,19.0773845 22.0382015,18.060471 L22.0382015,18.060471 Z M19.4654251,30.2111318 C18.17282,28.8419251 17.3863773,27.0321053 17.3863773,25.0471256 C17.3863773,24.9652199 17.3905219,24.8843011 17.3931123,24.8033822 C17.537138,24.806836 21.5455091,24.892689 25.7227736,23.7020959 C25.9553907,24.135308 26.1776463,24.576908 26.3807329,25.0160409 C26.2734908,25.0436718 26.1672847,25.0747565 26.0610787,25.1088016 C21.6827998,26.4558049 19.4617985,30.2066911 19.4617985,30.2066911 C19.4617985,30.2066911 19.4654251,30.210145 19.4654251,30.2111318 L19.4654251,30.2111318 Z M25.5005181,32.7748788 C23.5841468,32.7748788 21.8242352,32.1408498 20.4352675,31.08249 C20.4062551,31.0607801 20.372062,31.0356163 20.3311338,31.0035447 C20.372062,31.0356163 20.4062551,31.0607801 20.4352675,31.08249 C20.4824126,31.1170285 20.5129792,31.1387385 20.5129792,31.1387385 C20.5129792,31.1387385 22.06825,27.9088909 26.8801603,26.3117299 C26.8982931,26.305809 26.9169439,26.3013683 26.9350766,26.2959408 C28.0764029,29.1207005 28.547336,31.486591 28.6675301,32.1620663 C27.6945793,32.5558057 26.6231935,32.7748788 25.5005181,32.7748788 L25.5005181,32.7748788 Z M30.0342204,31.4559997 C29.9513279,30.9897293 29.5187326,28.7215336 28.4540819,25.9372333 C31.0740034,25.5385598 33.3431859,26.222423 33.5110432,26.2747243 C33.1499427,28.427956 31.8552653,30.2846496 30.0342204,31.4559997 L30.0342204,31.4559997 Z M27.9603534,24.7170358 C27.9023286,24.5852959 27.84534,24.4520758 27.785243,24.3193491 C27.6163495,23.9404119 27.434504,23.5659154 27.2454055,23.1978332 C30.4497191,21.9519784 31.7500954,20.1618949 31.7656378,20.140185 C32.9028194,21.456597 33.5923815,23.137144 33.6115504,24.9706474 C33.4939467,24.945977 30.7481322,24.3829987 27.9603534,24.7170358 L27.9603534,24.7170358 Z" id="Dribbble"></path>
                        </g>
                    </g>
                </g>
            </g>
        </g>
    </g>
</svg>