<?xml version="1.0" encoding="UTF-8" standalone="no"?>
<svg width="18px" height="11px" viewBox="0 0 18 11" version="1.1" xmlns="http://www.w3.org/2000/svg" xmlns:xlink="http://www.w3.org/1999/xlink" xmlns:sketch="http://www.bohemiancoding.com/sketch/ns">
    <!-- Generator: Sketch 3.5.2 (25235) - http://www.bohemiancoding.com/sketch -->
    <title>vk</title>
    <desc>Created with Sketch.</desc>
    <defs></defs>
    <g id="Geral-Web" stroke="none" stroke-width="1" fill="none" fill-rule="evenodd" sketch:type="MSPage">
        <g id="Modal-share" sketch:type="MSArtboardGroup" transform="translate(-801.000000, -736.000000)" fill="#FFFFFF">
            <g id="Rectangle-179-+-7-+-FLATUN-+-Ipsum-Copy-2-+-Group-Copy-5" sketch:type="MSLayerGroup" transform="translate(442.000000, 216.000000)">
                <g id="Group-Copy-5" transform="translate(168.000000, 505.000000)" sketch:type="MSShapeGroup">
                    <g id="Oval-136-Copy-+-post-gplus-Copy" transform="translate(120.000000, 0.000000)">
                        <path d="M80.8827638,25.9538689 C80.8827638,25.9538689 81.2076698,25.9155074 81.3737991,25.7240392 C81.526491,25.5480515 81.5216104,25.2178029 81.5216104,25.2178029 C81.5216104,25.2178029 81.500567,23.671392 82.1704717,23.4436671 C82.8311224,23.2192012 83.6792627,24.938205 84.5781736,25.5992454 C85.2579662,26.0993032 85.7745453,25.9898541 85.7745453,25.9898541 L88.1783808,25.9538689 C88.1783808,25.9538689 89.4357911,25.8707636 88.8395385,24.8117138 C88.7907329,24.7252137 88.4921946,24.0283239 87.0521751,22.5965223 C85.5447785,21.0979106 85.7468465,21.340369 87.5624791,18.7481482 C88.6682118,17.1694865 89.1101879,16.2057635 88.9720743,15.7930206 C88.8404893,15.399764 88.0271467,15.5036457 88.0271467,15.5036457 L85.3206529,15.5215703 C85.3206529,15.5215703 85.1198527,15.4923069 84.971154,15.5876336 C84.8256878,15.6808556 84.7323233,15.8986676 84.7323233,15.8986676 C84.7323233,15.8986676 84.3037846,17.1201936 83.7326954,18.1592139 C82.5275134,20.3513206 82.045542,20.4673557 81.8485447,20.3310195 C81.3902155,20.0137392 81.5047503,19.05667 81.5047503,18.3765506 C81.5047503,16.2520689 81.8055704,15.366291 80.918956,15.1370045 C80.6247912,15.0609604 80.4080816,15.0106491 79.6556509,15.0024336 C78.68987,14.9919097 77.872661,15.0056248 77.4098316,15.2484906 C77.1019125,15.4100164 76.8643495,15.7698679 77.0091184,15.7905763 C77.1880512,15.8161054 77.5930745,15.9076978 77.8078193,16.2207007 C78.0852507,16.6250244 78.075553,17.5326649 78.075553,17.5326649 C78.075553,17.5326649 78.2349636,20.033497 77.7033626,20.3440557 C77.338588,20.5571149 76.8381085,20.1221699 75.7636242,18.1333453 C75.2131982,17.1146261 74.797463,15.9884267 74.797463,15.9884267 C74.797463,15.9884267 74.7174091,15.7780155 74.5744149,15.6653751 C74.4009965,15.5289032 74.1586797,15.4856531 74.1586797,15.4856531 L71.5866867,15.5036457 C71.5866867,15.5036457 71.2006786,15.5151881 71.0588253,15.6950459 C70.9326279,15.8551459 71.0487473,16.1858698 71.0487473,16.1858698 C71.0487473,16.1858698 73.0622012,21.2320741 75.3422478,23.7750699 C77.4330935,26.1069076 79.806885,25.9538689 79.806885,25.9538689 L80.8827638,25.9538689 Z" id="vk"></path>
                    </g>
                </g>
            </g>
        </g>
    </g>
</svg>