<?xml version="1.0" encoding="UTF-8" standalone="no"?>
<svg width="13px" height="11px" viewBox="0 0 13 11" version="1.1" xmlns="http://www.w3.org/2000/svg" xmlns:xlink="http://www.w3.org/1999/xlink" xmlns:sketch="http://www.bohemiancoding.com/sketch/ns">
    <!-- Generator: Sketch 3.5.2 (25235) - http://www.bohemiancoding.com/sketch -->
    <title>post-gplus</title>
    <desc>Created with Sketch.</desc>
    <defs></defs>
    <g id="Geral-Web" stroke="none" stroke-width="1" fill="none" fill-rule="evenodd" sketch:type="MSPage">
        <g id="Modal-share" sketch:type="MSArtboardGroup" transform="translate(-744.000000, -736.000000)" fill="#FFFFFF">
            <g id="Rectangle-179-+-7-+-FLATUN-+-Ipsum-Copy-2-+-Group-Copy-5" sketch:type="MSLayerGroup" transform="translate(442.000000, 216.000000)">
                <g id="Group-Copy-5" transform="translate(168.000000, 505.000000)" sketch:type="MSShapeGroup">
                    <g id="Oval-136-Copy-+-post-gplus-Copy" transform="translate(120.000000, 0.000000)">
                        <g id="post-gplus" transform="translate(14.000000, 15.000000)">
                            <path d="M11.7,2.64935155 C11.6,7.24935155 8.7,10.4493516 4.3,10.6493516 C2.5,10.7493516 1.2,10.1493516 0,9.44935155 C1.3,9.64935155 3,9.14935155 3.9,8.34935155 C2.6,8.24935155 1.8,7.54935155 1.4,6.44935155 C1.8,6.54935155 2.2,6.44935155 2.5,6.44935155 C1.3,6.04935155 0.5,5.34935155 0.4,3.74935155 C0.7,3.94935155 1.1,4.04935155 1.5,4.04935155 C0.6,3.54935155 -8.8817842e-16,1.64935155 0.7,0.449351551 C2,1.84935155 3.6,3.04935155 6.2,3.24935155 C5.5,0.449351551 9.3,-1.05064845 10.8,0.849351551 C11.5,0.749351551 12,0.449351551 12.5,0.249351551 C12.3,0.949351551 11.9,1.34935155 11.4,1.74935155 C11.9,1.64935155 12.4,1.54935155 12.8,1.34935155 C12.7,1.84935155 12.2,2.24935155 11.7,2.64935155 L11.7,2.64935155 Z" id="Shape"></path>
                        </g>
                    </g>
                </g>
            </g>
        </g>
    </g>
</svg>