<?xml version="1.0" encoding="UTF-8" standalone="no"?>
<svg width="12px" height="14px" viewBox="0 0 12 14" version="1.1" xmlns="http://www.w3.org/2000/svg" xmlns:xlink="http://www.w3.org/1999/xlink">
    <!-- Generator: Sketch 3.6.1 (26313) - http://www.bohemiancoding.com/sketch -->
    <title>Shape</title>
    <desc>Created with Sketch.</desc>
    <defs></defs>
    <g id="iPhone" stroke="none" stroke-width="1" fill="none" fill-rule="evenodd">
        <g id="Modal-Flatstudio" transform="translate(-127.000000, -291.000000)" fill="#AEB6C2">
            <g id="notice" transform="translate(-4.000000, 53.000000)">
                <g id="Bitmap">
                    <g id="Group" transform="translate(14.000000, 22.000000)">
                        <g id="Group-Copy-5" transform="translate(48.000000, 203.000000)">
                            <g id="Oval-136-+-Shape-Copy">
                                <g id="Group">
                                    <g id="Oval-136-Copy-+-post-gplus-Copy">
                                        <path d="M77.7150838,18.2290503 L72.9553073,15.4804469 C73.0223464,15.3463687 73.0223464,15.1452514 73.0223464,15.0111732 C73.0223464,13.8715084 72.150838,13 71.0111732,13 C69.8715084,13 69,13.8715084 69,15.0111732 C69,16.150838 69.8715084,17.0223464 71.0111732,17.0223464 C71.547486,17.0223464 72.0167598,16.8212291 72.3519553,16.4860335 L77.1117318,19.2346369 C77.0446927,19.3687151 77.0446927,19.5698324 77.0446927,19.7039106 C77.0446927,19.8379888 77.0446927,20.0391061 77.1117318,20.1731844 L72.3519553,22.9888268 C72.0167598,22.6536313 71.547486,22.452514 71.0111732,22.452514 C69.9385475,22.452514 69.0670391,23.3240223 69.0670391,24.396648 C69.0670391,25.4692737 69.9385475,26.3407821 71.0111732,26.3407821 C72.0837989,26.3407821 72.9553073,25.4692737 72.9553073,24.396648 C72.9553073,24.2625698 72.9553073,24.1284916 72.8882682,23.9273743 L77.6480447,21.1117318 C77.9832402,21.4469274 78.452514,21.6480447 78.9888268,21.6480447 C80.1284916,21.6480447 81,20.7765363 81,19.6368715 C81,18.4972067 80.1955307,17.6927374 79.0558659,17.6927374 C78.5195531,17.6927374 78.0502793,17.8938547 77.7150838,18.2290503 Z" id="Shape" transform="translate(75.000000, 19.670391) rotate(-180.000000) translate(-75.000000, -19.670391) "></path>
                                    </g>
                                </g>
                            </g>
                        </g>
                    </g>
                </g>
            </g>
        </g>
    </g>
</svg>