<?xml version="1.0" encoding="UTF-8" standalone="no"?>
<svg width="175px" height="34px" viewBox="0 0 175 34" version="1.1" xmlns="http://www.w3.org/2000/svg" xmlns:xlink="http://www.w3.org/1999/xlink" xmlns:sketch="http://www.bohemiancoding.com/sketch/ns">
    <!-- Generator: Sketch 3.5.2 (25235) - http://www.bohemiancoding.com/sketch -->
    <title>FLATUN</title>
    <desc>Created with Sketch.</desc>
    <defs>
        <linearGradient x1="100%" y1="100%" x2="0%" y2="0%" id="linearGradient-1">
            <stop stop-color="#FF575F" offset="0%"></stop>
            <stop stop-color="#7277FF" offset="75.5085517%"></stop>
            <stop stop-color="#689AFF" offset="100%"></stop>
        </linearGradient>
    </defs>
    <g id="Geral-Web" stroke="none" stroke-width="1" fill="none" fill-rule="evenodd" sketch:type="MSPage">
        <g id="Modal-share" sketch:type="MSArtboardGroup" transform="translate(-633.000000, -606.000000)" fill="url(#linearGradient-1)">
            <g id="Rectangle-179-+-7-+-FLATUN-+-Ipsum-Copy-2-+-Group-Copy-5" sketch:type="MSLayerGroup" transform="translate(442.000000, 216.000000)">
                <g id="7-+-FLATUN-+-Ipsum-Copy-2" transform="translate(138.000000, 51.000000)" sketch:type="MSShapeGroup">
                    <path d="M72.2692596,344.549197 L59.4886282,344.549197 L59.4886282,352.74191 L70.1719252,352.74191 C71.162338,352.74191 71.9014954,352.964021 72.3894193,353.40825 C72.8773433,353.852479 73.1213017,354.44599 73.1213017,355.1888 C73.1213017,355.931609 72.8737022,356.521479 72.3784957,356.958426 C71.8832893,357.395372 71.1477731,357.613843 70.1719252,357.613843 L59.4886282,357.613843 L59.4886282,368.166056 C59.4886282,369.506026 59.1864112,370.500066 58.581968,371.148203 C57.9775249,371.796341 57.2019559,372.120405 56.2552377,372.120405 C55.2939547,372.120405 54.5111033,371.7927 53.9066602,371.13728 C53.302217,370.48186 53,369.491462 53,368.166056 L53,343.522377 C53,342.590224 53.1383644,341.82922 53.4150974,341.239341 C53.6918304,340.649463 54.1251296,340.219805 54.7150078,339.950355 C55.304886,339.680904 56.058608,339.546181 56.9761964,339.546181 L72.2692596,339.546181 C73.3033671,339.546181 74.0716538,339.775574 74.5741427,340.234369 C75.0766315,340.693163 75.3278722,341.293956 75.3278722,342.036765 C75.3278722,342.79414 75.0766315,343.402215 74.5741427,343.861009 C74.0716538,344.319804 73.3033671,344.549197 72.2692596,344.549197 L72.2692596,344.549197 Z M87.7642399,342.932502 L87.7642399,366.2435 L100.916274,366.2435 C101.964947,366.2435 102.769645,366.498381 103.330393,367.008153 C103.891142,367.517924 104.171512,368.15877 104.171512,368.930709 C104.171512,369.717214 103.894783,370.354418 103.341317,370.842342 C102.787851,371.330266 101.979511,371.574224 100.916274,371.574224 L85.2518081,371.574224 C83.8390133,371.574224 82.8231271,371.261084 82.204119,370.634793 C81.585111,370.008503 81.2756116,368.996258 81.2756116,367.598028 L81.2756116,342.932502 C81.2756116,341.621661 81.5705463,340.638546 82.1604246,339.983125 C82.7503028,339.327705 83.5258718,339 84.4871549,339 C85.4630029,339 86.2531365,339.324064 86.8575797,339.972202 C87.4620228,340.62034 87.7642399,341.607097 87.7642399,342.932502 L87.7642399,342.932502 Z M129.585136,367.947584 L128.05583,363.927693 L115.034879,363.927693 L113.505572,368.034973 C112.908412,369.637111 112.398648,370.718538 111.976266,371.279287 C111.553884,371.840035 110.862062,372.120405 109.900779,372.120405 C109.085145,372.120405 108.364193,371.821829 107.737903,371.224669 C107.111612,370.627508 106.798472,369.950251 106.798472,369.192876 C106.798472,368.755929 106.871295,368.304424 107.016944,367.838348 C107.162593,367.372271 107.40291,366.724143 107.737903,365.893944 L115.930615,345.095378 C116.163654,344.498217 116.444024,343.780907 116.771734,342.943426 C117.099444,342.105944 117.448996,341.410481 117.820401,340.857015 C118.191806,340.303549 118.679722,339.855685 119.284166,339.51341 C119.888609,339.171135 120.635048,339 121.523507,339 C122.42653,339 123.180252,339.171135 123.784696,339.51341 C124.389139,339.855685 124.877055,340.296266 125.24846,340.835168 C125.619865,341.374069 125.933006,341.953015 126.187891,342.572023 C126.442777,343.191031 126.766841,344.017576 127.160093,345.051684 L135.527583,365.719166 C136.183004,367.292175 136.510709,368.435502 136.510709,369.149182 C136.510709,369.891991 136.20121,370.57289 135.582201,371.191898 C134.963193,371.810906 134.216754,372.120405 133.34286,372.120405 C132.833089,372.120405 132.396148,372.029376 132.032026,371.847315 C131.667904,371.665254 131.362046,371.417654 131.114442,371.104509 C130.866839,370.791364 130.601034,370.310729 130.317018,369.662592 C130.033003,369.014454 129.789045,368.44279 129.585136,367.947584 L129.585136,367.947584 Z M116.738963,359.05576 L126.308051,359.05576 L121.479813,345.838184 L116.738963,359.05576 Z M159.390054,344.898753 L152.31155,344.898753 L152.31155,368.166056 C152.31155,369.506026 152.012975,370.500066 151.415814,371.148203 C150.818653,371.796341 150.046725,372.120405 149.100007,372.120405 C148.138724,372.120405 147.355873,371.7927 146.75143,371.13728 C146.146986,370.48186 145.844769,369.491462 145.844769,368.166056 L145.844769,344.898753 L138.766266,344.898753 C137.659334,344.898753 136.83643,344.654795 136.297529,344.166871 C135.758627,343.678947 135.489181,343.03446 135.489181,342.23339 C135.489181,341.403191 135.769551,340.747781 136.330299,340.26714 C136.891048,339.786498 137.703029,339.546181 138.766266,339.546181 L159.390054,339.546181 C160.511551,339.546181 161.345379,339.79378 161.891562,340.288987 C162.437746,340.784193 162.710833,341.432321 162.710833,342.23339 C162.710833,343.03446 162.434105,343.678947 161.880639,344.166871 C161.327173,344.654795 160.496986,344.898753 159.390054,344.898753 L159.390054,344.898753 Z M167.850225,358.334801 L167.850225,342.932502 C167.850225,341.621661 168.14516,340.638546 168.735038,339.983125 C169.324916,339.327705 170.100485,339 171.061768,339 C172.066746,339 172.864162,339.327705 173.45404,339.983125 C174.043919,340.638546 174.338853,341.621661 174.338853,342.932502 L174.338853,358.684357 C174.338853,360.475839 174.539118,361.97236 174.939652,363.173963 C175.340187,364.375567 176.050215,365.307707 177.069758,365.970409 C178.0893,366.633112 179.516638,366.964458 181.351815,366.964458 C183.886107,366.964458 185.677562,366.290842 186.726235,364.943589 C187.774907,363.596336 188.299235,361.553641 188.299235,358.81544 L188.299235,342.932502 C188.299235,341.607097 188.590529,340.62034 189.173125,339.972202 C189.75572,339.324064 190.534931,339 191.510779,339 C192.486627,339 193.27676,339.324064 193.881203,339.972202 C194.485647,340.62034 194.787864,341.607097 194.787864,342.932502 L194.787864,358.334801 C194.787864,360.839963 194.543905,362.929994 194.055981,364.604957 C193.568057,366.27992 192.646842,367.750952 191.292306,369.018098 C190.127115,370.0959 188.7726,370.882393 187.228721,371.377599 C185.684842,371.872806 183.878822,372.120405 181.810607,372.120405 C179.34914,372.120405 177.229979,371.8546 175.453062,371.322981 C173.676145,370.791363 172.22696,369.968458 171.105463,368.854244 C169.983966,367.74003 169.161062,366.312691 168.636726,364.572186 C168.112389,362.831681 167.850225,360.752574 167.850225,358.334801 L167.850225,358.334801 Z M209.560935,342.888807 L222.035705,361.764817 L222.035705,342.71403 C222.035705,341.476014 222.301511,340.547515 222.833129,339.928507 C223.364748,339.309499 224.082058,339 224.985082,339 C225.917235,339 226.652751,339.309499 227.191652,339.928507 C227.730553,340.547515 228,341.476014 228,342.71403 L228,367.903889 C228,370.714914 226.834826,372.120405 224.504443,372.120405 C223.921847,372.120405 223.397519,372.036658 222.931442,371.869162 C222.465365,371.701666 222.028425,371.435861 221.620608,371.071738 C221.212791,370.707616 220.834109,370.281599 220.484552,369.793675 C220.134994,369.305751 219.785442,368.806911 219.435885,368.29714 L207.266976,349.639603 L207.266976,368.406376 C207.266976,369.629827 206.982965,370.554684 206.414934,371.180974 C205.846903,371.807265 205.118669,372.120405 204.23021,372.120405 C203.312622,372.120405 202.577106,371.803624 202.02364,371.170051 C201.470174,370.536478 201.193445,369.615262 201.193445,368.406376 L201.193445,343.697155 C201.193445,342.648483 201.309962,341.825578 201.543001,341.228418 C201.819734,340.572998 202.278521,340.037746 202.919376,339.622646 C203.560232,339.207547 204.252054,339 204.994864,339 C205.577459,339 206.0763,339.09467 206.491399,339.284014 C206.906499,339.473358 207.270615,339.728239 207.583761,340.048667 C207.896906,340.369095 208.217329,340.784188 208.545039,341.293959 C208.872749,341.803731 209.211378,342.335341 209.560935,342.888807 L209.560935,342.888807 Z" id="FLATUN"></path>
                </g>
            </g>
        </g>
    </g>
</svg>