<?xml version="1.0" encoding="UTF-8" standalone="no"?>
<svg width="13px" height="11px" viewBox="0 0 13 11" version="1.1" xmlns="http://www.w3.org/2000/svg" xmlns:xlink="http://www.w3.org/1999/xlink">
    <!-- Generator: Sketch 3.6.1 (26313) - http://www.bohemiancoding.com/sketch -->
    <title>Shape</title>
    <desc>Created with Sketch.</desc>
    <defs></defs>
    <g id="Notice-open" stroke="none" stroke-width="1" fill="none" fill-rule="evenodd">
        <g id="Notice-links" transform="translate(-865.000000, -382.000000)" fill="#AEB6C2">
            <g id="notice-2-" transform="translate(-15.000000, -23.000000)">
                <g id="top-bar" transform="translate(562.000000, 363.000000)">
                    <g id="socails" transform="translate(248.000000, 27.000000)">
                        <g id="twitter" transform="translate(56.000000, 0.000000)">
                            <g id="post-gplus" transform="translate(14.000000, 14.000000)">
                                <path d="M11.7,3.64935155 C11.6,8.24935155 8.7,11.4493516 4.3,11.6493516 C2.5,11.7493516 1.2,11.1493516 0,10.4493516 C1.3,10.6493516 3,10.1493516 3.9,9.34935155 C2.6,9.24935155 1.8,8.54935155 1.4,7.44935155 C1.8,7.54935155 2.2,7.44935155 2.5,7.44935155 C1.3,7.04935155 0.5,6.34935155 0.4,4.74935155 C0.7,4.94935155 1.1,5.04935155 1.5,5.04935155 C0.6,4.54935155 -8.8817842e-16,2.64935155 0.7,1.44935155 C2,2.84935155 3.6,4.04935155 6.2,4.24935155 C5.5,1.44935155 9.3,-0.0506484493 10.8,1.84935155 C11.5,1.74935155 12,1.44935155 12.5,1.24935155 C12.3,1.94935155 11.9,2.34935155 11.4,2.74935155 C11.9,2.64935155 12.4,2.54935155 12.8,2.34935155 C12.7,2.84935155 12.2,3.24935155 11.7,3.64935155 L11.7,3.64935155 Z" id="Shape"></path>
                            </g>
                        </g>
                    </g>
                </g>
            </g>
        </g>
    </g>
</svg>