<?xml version="1.0" encoding="UTF-8" standalone="no"?>
<svg width="13px" height="9px" viewBox="0 0 13 9" version="1.1" xmlns="http://www.w3.org/2000/svg" xmlns:xlink="http://www.w3.org/1999/xlink">
    <!-- Generator: Sketch 3.6.1 (26313) - http://www.bohemiancoding.com/sketch -->
    <title>Combined Shape</title>
    <desc>Created with Sketch.</desc>
    <defs></defs>
    <g id="Ui-kit" stroke="none" stroke-width="1" fill="none" fill-rule="evenodd">
        <g id="Elements" transform="translate(-381.000000, -232.000000)" fill="#AAB8C2">
            <g id="icons" transform="translate(381.000000, 228.000000)">
                <g id="views" transform="translate(0.000000, 2.000000)">
                    <path d="M6.5,2.00731511 C3.63265032,2.00731511 1.16137424,3.69760101 0.0261492249,6.13680071 C-0.0087164083,6.21071585 -0.0087164083,6.29718262 0.0261492249,6.37249239 C1.16137424,8.81167814 3.63266427,10.501978 6.5,10.501978 C9.36733573,10.501978 11.8386258,8.81169209 12.9738508,6.37249239 C13.0087164,6.29857725 13.0087164,6.21211048 12.9738508,6.13680071 C11.8386258,3.69760101 9.36734968,2.00731511 6.5,2.00731511 L6.5,2.00731511 Z M6.5,9.18546562 C4.88083999,9.18546562 3.56989218,7.87310924 3.56989218,6.25534386 C3.56989218,4.63618386 4.88223462,3.32523605 6.5,3.32523605 C8.11916001,3.32523605 9.43010782,4.63757848 9.43010782,6.25534386 C9.43010782,7.87310924 8.11776538,9.18546562 6.5,9.18546562 L6.5,9.18546562 Z M6.5,8.1297203 C7.53595975,8.1297203 8.37577107,7.28990899 8.37577107,6.25394924 C8.37577107,5.21798948 7.53595975,4.37817817 6.5,4.37817817 C5.46404025,4.37817817 4.62422893,5.21798948 4.62422893,6.25394924 C4.62422893,7.28990899 5.46404025,8.1297203 6.5,8.1297203 Z" id="Combined-Shape"></path>
                </g>
            </g>
        </g>
    </g>
</svg>