<?xml version="1.0" encoding="UTF-8" standalone="no"?>
<svg width="10px" height="14px" viewBox="0 0 10 14" version="1.1" xmlns="http://www.w3.org/2000/svg" xmlns:xlink="http://www.w3.org/1999/xlink" xmlns:sketch="http://www.bohemiancoding.com/sketch/ns">
    <!-- Generator: Sketch 3.5.2 (25235) - http://www.bohemiancoding.com/sketch -->
    <title>votes</title>
    <desc>Created with Sketch.</desc>
    <defs></defs>
    <g id="Ui-kit" stroke="none" stroke-width="1" fill="none" fill-rule="evenodd" sketch:type="MSPage">
        <g id="Menu-left" sketch:type="MSArtboardGroup" transform="translate(-775.000000, -601.000000)">
            <g id="left-open-3" sketch:type="MSLayerGroup" transform="translate(738.000000, 188.000000)">
                <g id="links" transform="translate(0.000000, 87.000000)" sketch:type="MSShapeGroup">
                    <g id="recources" transform="translate(0.000000, 287.000000)">
                        <ellipse id="Mask" stroke-opacity="0.1" stroke="#FFFFFF" cx="41.5" cy="45.5" rx="17.5" ry="17.5"></ellipse>
                        <path d="M42,49 C39.2383333,49 37,46.7608333 37,43.9991667 C37,41.2383333 39.2383333,39 42,39 C44.7616667,39 47,41.2383333 47,43.9991667 C47,46.7608333 44.7616667,49 42,49 L42,49 Z M42,40.6658333 C40.1591667,40.6658333 38.6666667,42.1583333 38.6666667,43.9991667 C38.6666667,45.8408333 40.1591667,47.3333333 42,47.3333333 C43.8408333,47.3333333 45.3333333,45.8408333 45.3333333,43.9991667 C45.3333333,42.1583333 43.8408333,40.6658333 42,40.6658333 L42,40.6658333 Z M42,46.4991667 C40.6191667,46.4991667 39.5,45.38 39.5,43.9991667 C39.5,42.6183333 40.6191667,41.5 42,41.5 C43.3808333,41.5 44.5,42.6183333 44.5,43.9991667 C44.5,45.38 43.3808333,46.4991667 42,46.4991667 L42,46.4991667 Z M45.3333333,48.7833333 L45.3333333,51.5 C45.3333333,51.96 44.96,52.3333333 44.5,52.3333333 C44.27,52.3333333 44.0616667,52.24 43.9108333,52.0891667 L43.9108333,52.0891667 L42,50.1783333 L40.0891667,52.0891667 C40.0133333,52.1641667 39.9241667,52.225 39.8241667,52.2675 C39.7241667,52.31 39.615,52.3333333 39.5,52.3333333 C39.27,52.3333333 39.0616667,52.24 38.9108333,52.0891667 C38.835,52.0133333 38.7741667,51.9233333 38.7316667,51.8241667 C38.69,51.7241667 38.6666667,51.615 38.6666667,51.5 L38.6666667,48.7833333 C39.6116667,49.4433333 40.7591667,49.8333333 42,49.8333333 C43.24,49.8333333 44.3883333,49.4433333 45.3333333,48.7833333 L45.3333333,48.7833333 Z" id="votes" fill="#6C8CFF"></path>
                    </g>
                </g>
            </g>
        </g>
    </g>
</svg>