<svg xmlns="http://www.w3.org/2000/svg" width="20" height="20" viewBox="0 0 19.999999 19.999999"><path fill="#fff" d="M3.8 0h12.4A3.8 3.8 0 0 1 20 3.8v12.4a3.8 3.8 0 0 1-3.8 3.8H3.8A3.8 3.8 0 0 1 0 16.2V3.8A3.8 3.8 0 0 1 3.8 0"/><path fill="#dd4b39" d="M16.667 5V1.667H15V5h-3.333v1.667H15V10h1.667V6.667H20v9.583c0 1.033-.367 1.916-1.1 2.65-.734.733-1.617 1.1-2.65 1.1h-6.094a4.274 4.274 0 0 0 .508-2.044c0-.573-.096-1.105-.286-1.595-.191-.49-.432-.894-.723-1.211-.29-.317-.603-.625-.937-.924a13.69 13.69 0 0 0-.938-.775 3.506 3.506 0 0 1-.722-.71c-.191-.256-.287-.514-.287-.775 0-.312.1-.607.3-.885.2-.278.442-.545.729-.8.286-.257.57-.537.853-.841.282-.304.523-.707.722-1.21.2-.504.3-1.073.3-1.707 0-.633-.115-1.265-.345-1.894-.23-.63-.558-1.144-.983-1.543a1.04 1.04 0 0 0-.183-.143 4.022 4.022 0 0 0-.162-.098.476.476 0 0 1-.13-.124 1.285 1.285 0 0 1-.137-.221h1.758l1.757-.833H5.56c-1.198 0-2.26.167-3.184.501C1.452 2.502.66 3.082 0 3.906c0-1.094.352-2.018 1.055-2.773C1.758.378 2.656 0 3.75 0h12.5c1.033 0 1.916.367 2.65 1.1.733.734 1.1 1.617 1.1 2.65V5h-3.333zM2.59 9.512c.278.36.616.653 1.016.879.399.225.82.338 1.263.338.842 0 1.451-.263 1.83-.788.377-.525.565-1.222.565-2.09 0-.53-.069-1.085-.208-1.666a8.077 8.077 0 0 0-.612-1.693 3.812 3.812 0 0 0-1.093-1.354 2.468 2.468 0 0 0-1.55-.534c-.807 0-1.434.3-1.881.898-.447.6-.67 1.316-.67 2.149 0 .408.049.837.149 1.289.1.451.254.903.462 1.354.208.451.451.857.73 1.217zm1.602 3.053c0-.217.09-.59.273-1.12a7.1 7.1 0 0 1-.911.065c-1.476 0-2.66-.512-3.555-1.536v5.638c1.31-.678 2.982-1.046 5.013-1.107-.547-.712-.82-1.358-.82-1.94zm4.452 5.514a1.636 1.636 0 0 0-.228-.45c-.108-.155-.2-.288-.273-.396a2.5 2.5 0 0 0-.345-.384 19.663 19.663 0 0 0-.358-.332 17.168 17.168 0 0 0-1.25-.93 38.45 38.45 0 0 0-.397-.275 5.939 5.939 0 0 0-.638-.026c-.477 0-.942.03-1.393.091a8.59 8.59 0 0 0-1.394.313 4.45 4.45 0 0 0-1.302.644 2.96 2.96 0 0 0-.898 1.01c.234.79.684 1.43 1.348 1.92S2.925 20 3.75 20h4.948c.087-.287.13-.595.13-.925 0-.182-.02-.358-.059-.527a7.23 7.23 0 0 0-.124-.47z"/></svg>