<svg version="1" xmlns="http://www.w3.org/2000/svg" width="682.667" height="682.667" viewBox="0 0 512.000000 512.000000"><path d="M230.5 44.1c-31.8 4-65.4 16.4-91.5 33.6-53 35.1-87.3 90.7-95 154.3-1.3 10.9-1.3 37.1 0 48 7.7 63.5 42.1 119.4 94.9 154.2 62.2 41.1 143.3 46.3 210.6 13.4 22.3-11 38.8-22.8 57.1-41 18.2-18.3 30-34.8 41-57.1 28.7-58.8 28.7-128.1 0-187C415.7 97.1 353.1 52.9 280 44c-10-1.2-39.5-1.1-49.5.1zm51.5 66.7c13.2 4.4 23.7 10.8 33.5 20.6 18.2 18.1 26.2 38.1 25.2 63.1-.8 22-5.7 31.3-29.1 55.5-8.8 9.1-17.7 18.7-19.9 21.5-8.2 10.3-12.6 23-14.2 40.7l-.7 7.8H235v-10.4c0-11.8 1.8-21.7 5.7-31.4 5.4-13.7 9.9-19.7 30.6-40.9 16.4-16.8 20.3-21.3 22.7-26.6 6-12.8 6-24.6.1-37.3-7.6-16.1-26.3-26.2-43.8-23.5-20 3.1-33.5 17.2-36.8 38.3l-.6 3.8h-42.2l.6-8.3c.7-10.8 5.3-24.9 11.3-35.2 9.6-16.3 27.8-31.1 45.4-37 11.8-3.9 15.5-4.4 30.5-4.1 12.5.3 15 .7 23.5 3.4zM277 384v21h-42v-42h42v21z" fill="#4CAF48"/></svg>