<svg id="Layer_1" data-name="Layer 1" xmlns="http://www.w3.org/2000/svg" viewBox="0 0 110.36 27.85"><defs><style>.cls-1{fill:#fff;}</style></defs><title>logo</title><path class="cls-1" d="M104,62.44h20.88V59H100.47V79.84H97V55.48H93.51V59H72.63V83.32h52.21V79.84H104v-7h20.88V69.4H104v-7ZM90,79.84H76.11V62.44h17.4v17.4H90Z" transform="translate(-14.48 -55.48)"/><path class="cls-1" d="M62.19,59H44.78V79.84H22.88l1-1,0.47-.47,2-2,1-1,1.45-1.45,1-1,1-1,2.43-2.43,0,0,1-1,2.46-2.46L37.75,65l0.07-.07,2.46-2.46,1-1,0.91-.91L43.76,59H16.94v3.48H35.36l-0.07.07-0.95.95-2.46,2.46-1,1,0,0L28.4,69.4l-1,1-1,1-1.45,1.45-1,1-2,2-0.47.47-1,1L18,79.84l-0.51.51-0.51.51-2.46,2.46H69.15V59h-7Zm3.48,7V79.84H48.26V62.44h17.4v3.48Z" transform="translate(-14.48 -55.48)"/></svg>