<svg viewBox="0 0 32 32" xmlns="http://www.w3.org/2000/svg"><g fill="none" fill-rule="evenodd"><path fill="#6D4C41" d="M4 13.053L16 8.5 28 13z"/><path d="M20 4H9.044C8.467 4 8 4.465 8 5.055V19h16V8l-3.29-1.015L20 4z" fill="#FDD835"/><path fill-opacity=".1" fill="#BF360C" d="M24 11.416L20.29 7.71 24 8v3.416z"/><path d="M20 6.99c0 .558.443 1.01 1.01 1.01H24l-4-4v2.99z" fill="#FFF9C4"/><path d="M4 26.008C4 27.108 4.897 28 6.005 28h19.99A2 2 0 0 0 28 26.008V13H4v13.008zM12.997 17A.996.996 0 0 1 12 16c0-.552.453-1 .997-1h6.006c.55 0 .997.444.997 1 0 .552-.453 1-.997 1h-6.006z" fill="#8D6E63"/><path d="M26.449 27.949H17L12 23l9-1 5.857 5.807c-.13.061-.266.109-.408.142z" fill-opacity=".1" fill="#000"/><path fill="#F5F5F5" d="M21 22l-3-3v2h-6v2h6v2z"/></g></svg>