<svg viewBox="0 0 32 32" xmlns="http://www.w3.org/2000/svg"><g fill="none" fill-rule="evenodd"><path d="M26.4 28H5.6A1.6 1.6 0 0 1 4 26.4V5.6A1.6 1.6 0 0 1 5.6 4h20.8A1.6 1.6 0 0 1 28 5.6v20.8a1.6 1.6 0 0 1-1.6 1.6z" fill="#EEE"/><path fill="#66BB6A" d="M8 6h12v22H8z"/><path fill-opacity=".1" fill="#000" opacity=".5" d="M20 6l8 8-8 14h-7V17l7 7V14z"/><path d="M5.6 28H13V17H4v9.4c0 .873.716 1.589 1.6 1.6z" fill="#2196F3"/><path d="M28 14H16v14h10.4a1.616 1.616 0 0 0 1.6-1.61V14z" fill="#FFC107"/><path d="M6 24h2v2H6v-2zm3-6h2v2H9v-2zm-3 3h2v2H6v-2zm3 0h2v2H9v-2zm0 3h2v2H9v-2zm-3-6h2v2H6v-2z" fill="#1976D2"/><path d="M16 8h2v2h-2V8zm0 3h2v2h-2v-2zm-6 3h2v2h-2v-2zm3-6h2v2h-2V8zm-3 3h2v2h-2v-2zm3 0h2v2h-2v-2zm0 3h2v2h-2v-2zm-3-6h2v2h-2V8z" fill="#388E3C"/><path d="M24 16h2v2h-2v-2zm0 3h2v2h-2v-2zm-3-3h2v2h-2v-2zm-3 3h2v2h-2v-2zm3 0h2v2h-2v-2zm-3-3h2v2h-2v-2z" fill="#CC9200"/></g></svg>