<svg viewBox="0 0 32 32" xmlns="http://www.w3.org/2000/svg"><g fill="none" fill-rule="evenodd"><path d="M4 26.002C4 27.105 4.887 28 5.998 28H12l16-16V5.998A1.993 1.993 0 0 0 26.002 4H20L4 20v6.002z" fill="#8BC34A"/><path fill="#FFEB3B" d="M28 12v8l-8 8h-8V12z"/><path d="M20 20h8v6.002A1.993 1.993 0 0 1 26.002 28H20v-8z" fill="#FF9800"/><path d="M20 4l8 8h-8l8 8v6.002A1.993 1.993 0 0 1 26.002 28H20l-8-8v8l-8-8L20 4z" fill-opacity=".1" fill="#000"/><path fill="#00BCD4" d="M20 4h-8l-8 8v8h8l8-8z"/><path fill="#F5F5F5" d="M12 12h8v8h-8z"/><path d="M12 4v8H4V5.998C4 4.895 4.887 4 5.998 4H12z" fill="#2196F3"/></g></svg>