<svg viewBox="0 0 32 32" xmlns="http://www.w3.org/2000/svg"><g fill="none" fill-rule="evenodd"><path d="M16 2c-.875 0-1.718.08-2.545.223L4.545 24.05A13.977 13.977 0 0 0 16 30c7.732 0 14-6.268 14-14S23.732 2 16 2z" fill="#34A853"/><path d="M16 10.273c0-2.991-.939-5.76-2.545-8.05C6.948 3.432 2 9.143 2 16c0 2.99.939 5.76 2.545 8.05C11.052 22.84 16 17.13 16 10.273z" fill="#64DD17"/><path d="M29.761 18.545L13.486 2.27A13.895 13.895 0 0 1 16 10.273C16 17.13 11.052 22.84 4.545 24.05l.016.016 3.373 3.373A13.943 13.943 0 0 0 16 30c6.857 0 12.568-4.932 13.761-11.455z" fill-opacity=".1" fill="#000"/></g></svg>