<svg viewBox="0 0 32 32" xmlns="http://www.w3.org/2000/svg"><g fill="none" fill-rule="evenodd"><path d="M8.65 4.863C8.922 4.386 9.6 4 10.15 4h11.7c.557 0 1.229.386 1.501.863l5.871 10.274c.272.477.273 1.249 0 1.726l-5.87 10.274c-.273.477-.95.863-1.502.863h-11.7c-.557 0-1.229-.386-1.501-.863l-5.87-10.274c-.272-.477-.273-1.249 0-1.726l5.87-10.274z" fill="#4285F4"/><path d="M27.302 20.222L19.54 12.46 17 12h-3l-2 2v4l.46 1.54L20.92 28h.929c.552 0 1.229-.386 1.501-.863l3.952-6.915z" fill-opacity=".1" fill="#000"/><path d="M19.165 19.872l2.042 2.042.707-.707-2.042-2.042a5.007 5.007 0 0 0-.336-6.705 5.004 5.004 0 0 0-7.072 7.08 5.005 5.005 0 0 0 6.7.332zM16 20a4 4 0 1 0 0-8 4 4 0 0 0 0 8zm-1-1.17V16h-1v2.236c.289.258.627.462 1 .593zm2-.001v-3.83h-1v4c.35 0 .687-.06 1-.17z" fill="#F5F5F5"/></g></svg>