<svg viewBox="0 0 32 32" xmlns="http://www.w3.org/2000/svg"><g fill="none" fill-rule="evenodd"><path d="M19.645 12h8.859c.933 0 1.322 1.193.568 1.743l-7.148 5.217 2.789 8.52c.29.89-.729 1.63-1.485 1.079L16 23.284l-7.228 5.275c-.756.552-1.776-.19-1.485-1.08l2.79-8.519-7.15-5.217c-.753-.55-.364-1.743.57-1.743h8.858l2.729-8.335c.29-.886 1.542-.886 1.832 0L19.645 12z" fill="#FFA000"/><path d="M28.504 12h-8.859l-2.729-8.335c-.29-.886-1.542-.886-1.832 0L12.355 12H3.496c-.933 0-1.322 1.193-.568 1.743l7.148 5.217-2.789 8.52c-.29.89.729 1.63 1.485 1.079L16 23.284l5.924-4.324 7.148-5.217c.754-.55.365-1.743-.568-1.743z" fill="#FFB300"/><path d="M19.645 12l2.279 6.96L16 23.284l-5.924-4.324-7.148-5.217c-.754-.55-.365-1.743.568-1.743h8.859l2.729-8.335c.29-.886 1.542-.886 1.832 0L19.645 12z" fill="#FFC107"/><path d="M2.928 13.743l7.148 5.217L12.355 12H3.496c-.933 0-1.322 1.193-.568 1.743zM15.084 3.665L12.355 12h7.29l-2.729-8.335c-.29-.886-1.542-.886-1.832 0z" fill="#FFCA28"/></g></svg>