<svg viewBox="0 0 32 32" xmlns="http://www.w3.org/2000/svg"><g fill="none" fill-rule="evenodd"><path d="M1.636 10.636L.27 9.27A9.974 9.974 0 0 1 7.667 6c.706 0 1.395.073 2.06.212A9.958 9.958 0 0 1 16 4c4.854 0 8.9 3.459 9.81 8.046A7.001 7.001 0 0 1 25 26H8a8 8 0 1 1 5.135-14.135l1.229-1.229A8.972 8.972 0 0 0 8 8a8.972 8.972 0 0 0-6.364 2.636zm10.212 2.516A6.967 6.967 0 0 0 8 12a6.967 6.967 0 0 0-3.848 1.152L5.53 14.53A5.99 5.99 0 0 1 8 14c.88 0 1.717.19 2.47.53l1.378-1.378z" fill="#F1F1F1"/><rect fill="#4D4D4D" x="7.5" y="18" width="17" height="2" rx="1"/><path d="M29.425 24.425A6.971 6.971 0 0 1 25 26h-4l2-8 6.425 6.425z" fill-opacity=".1" fill="#000"/><path d="M23 28.504A1.5 1.5 0 0 1 21.502 30H10.498C9.671 30 9 29.32 9 28.504V18h14v10.504z" fill="#4285F4"/><path d="M12 21v1h8v-1h-8zm0 2v1h8v-1h-8zm0 2v1h8v-1h-8z" fill="#FFF"/></g></svg>