<svg viewBox="0 0 32 32" xmlns="http://www.w3.org/2000/svg"><g fill="none" fill-rule="evenodd"><path d="M6.45 13A6.55 6.55 0 0 1 13 6.45V4a9 9 0 0 0-9 9h2.45z" fill="#EA4335"/><path d="M29.258 26.285L22.5 19.5H21l-.936-.936A8.953 8.953 0 0 0 22 13h-2.45A6.55 6.55 0 0 1 13 19.55V22a8.95 8.95 0 0 0 5.564-1.936L19.5 21v1.5l6.774 6.755c.442.443 1.512.306 2.393-.574.885-.885 1.035-1.951.591-2.396z" fill="#4285F4"/><path d="M13 6.45A6.55 6.55 0 0 1 19.55 13H22a9 9 0 0 0-9-9v2.45z" fill="#FBBC05"/><path d="M4 13a9 9 0 0 0 9 9v-2.45A6.55 6.55 0 0 1 6.45 13H4z" fill="#34A853"/></g></svg>