<svg viewBox="0 0 32 32" xmlns="http://www.w3.org/2000/svg"><g fill="none" fill-rule="evenodd"><path d="M16 0c6.627 0 12 5.373 12 12 0 8.627-12 20-12 20V0z" fill="#E0E0E0"/><path d="M16 0C9.373 0 4 5.373 4 12c0 8.627 12 20 12 20V0z" fill="#EEE"/><path d="M27.903 10.468c.064.502.097 1.013.097 1.532 0 5.705-5.247 12.61-8.802 16.633l-9.916-9.915L22.718 5.282l5.185 5.186z" fill-opacity=".05" fill="#000"/><circle fill="#8BC34A" cx="16" cy="12" r="9.5"/><path d="M21.917 11A6.005 6.005 0 0 0 17 6.083V5h-2v1.083A6.005 6.005 0 0 0 10.083 11H9v2h1.083A6.005 6.005 0 0 0 15 17.917V19h2v-1.083A6.005 6.005 0 0 0 21.917 13H23v-2h-1.083zM16 16.6a4.6 4.6 0 1 0 0-9.2 4.6 4.6 0 0 0 0 9.2zm0-1.9a2.7 2.7 0 1 0 0-5.4 2.7 2.7 0 0 0 0 5.4z" fill="#F5F5F5"/></g></svg>