<svg viewBox="0 0 32 32" xmlns="http://www.w3.org/2000/svg"><path d="M9.167 20.333c2.485 0 4.5-2.089 4.5-4.666 0-2.578-2.015-4.667-4.5-4.667-2.486 0-4.5 2.09-4.5 4.667s2.014 4.666 4.5 4.666zm0-1.666c1.38 0 2.5-1.343 2.5-3s-1.12-3-2.5-3c-1.381 0-2.5 1.343-2.5 3s1.119 3 2.5 3zM15 20.333h2v-4.666a2.667 2.667 0 0 1 3.303-2.59l.763-1.91A3.47 3.47 0 0 0 20 11c-1.195 0-2.267.611-3 1.58V11h-2v9.333zm14-1.299c-.779.805-1.836 1.3-3 1.3-2.393 0-4.333-2.09-4.333-4.667C21.667 13.089 23.607 11 26 11c1.164 0 2.221.495 3 1.3V11h2v8.667c0 1.287-.272 2.609-1.028 3.635C29.18 24.375 27.95 25 26.333 25c-1.102 0-2.044-.29-2.794-.847-.682-.527-1.232-1.353-1.514-2.149l1.89-.651c.189.567.398.902.818 1.195.352.262.857.452 1.6.452 1.05 0 1.653-.375 2.029-.885.41-.557.638-1.402.638-2.448v-.633zm0-3.367c0 1.657-1.194 3-2.667 3-1.472 0-2.666-1.343-2.666-3s1.194-3 2.666-3c1.473 0 2.667 1.343 2.667 3zM2.333 20.333a1.333 1.333 0 1 0 0-2.666 1.333 1.333 0 0 0 0 2.666z" fill="#757575" fill-rule="evenodd"/></svg>