<svg viewBox="0 0 32 32" xmlns="http://www.w3.org/2000/svg"><g fill="none" fill-rule="evenodd"><path fill="#D84315" d="M19.611 6.5L26 16h6l-5.703 3.168L19.89 25 16 32v-8.111l-9.793-4.44L0 16h16V0z"/><path d="M29 16h3l-3.114-1.73C28.04 7.908 22.593 3 16 3V0l-1.73 3.114A13.007 13.007 0 0 0 3.114 14.27L0 16h3c0 6.593 4.908 12.04 11.27 12.886L16 32v-3c7.18 0 13-5.82 13-13z" fill="#FF5722"/><circle fill="#F5F5F5" cx="16" cy="16" r="11.5"/><path d="M22.1 10.2L12 13l-.71 11.71 2.596 2.596c.685.127 1.392.194 2.114.194 6.351 0 11.5-5.149 11.5-11.5 0-.136-.002-.272-.007-.407L22.1 10.2z" fill-opacity=".05" fill="#000"/><rect fill="#FF9C0A" x="11" y="9" width="2" height="16" rx="1"/><path d="M21.406 10c.88 0 1.087.507.458 1.136L19 14l2.864 2.864c.628.628.421 1.136-.458 1.136H11v-8h10.406z" fill="#FF5722"/></g></svg>