<svg viewBox="0 0 32 32" xmlns="http://www.w3.org/2000/svg"><g fill="none" fill-rule="evenodd"><path d="M18.987 7.293c0 2.747-1.8 4.974-4.547 4.974-2.76 0-4.84-2.227-4.84-4.974l.04-.48a18.358 18.358 0 0 0-4.307 11.854c0 5.893 4.774 10.666 10.667 10.666s10.667-4.773 10.667-10.666c0-7.187-3.454-13.6-8.667-17.774 0 0 .987 3.534.987 6.4z" fill="#EA4335"/><path d="M11.32 21.147c0-2.16 1.4-3.68 3.747-4.16 2.36-.48 4.8-1.614 6.16-3.44.52 1.72.786 3.533.786 5.386a6.4 6.4 0 0 1-6.4 6.4c-2.373 0-4.293-1.866-4.293-4.186z" fill="#F5F5F5"/></g></svg>