<svg viewBox="0 0 32 32" xmlns="http://www.w3.org/2000/svg"><g fill="none" fill-rule="evenodd"><path d="M29 9H3v16.009C3 26.11 3.894 27 4.997 27h22.006A1.995 1.995 0 0 0 29 25.009V9z" fill="#E0E0E0"/><path d="M29 9H3V6.991C3 5.891 3.895 5 4.997 5h22.006C28.106 5 29 5.89 29 6.991V9z" fill="#BDBDBD"/><path d="M6 7.75a.75.75 0 1 0 0-1.5.75.75 0 0 0 0 1.5zm3 0a.75.75 0 1 0 0-1.5.75.75 0 0 0 0 1.5z" fill="#EEE"/><path d="M6.55 23.404c0 .198-.013.444 0 .591h4.117c-.022-.147 0-.391 0-.59a5.32 5.32 0 0 1 8.109-4.529l2.968-2.969a9.414 9.414 0 0 0-5.757-1.955c-5.223 0-9.438 4.231-9.438 9.452z" fill="#4285F4"/><path d="M18.776 18.876a5.314 5.314 0 0 1 2.531 4.528c0 .2.022.444 0 .591h4.137c.012-.147 0-.393 0-.59 0-3.055-1.45-5.77-3.7-7.498l-2.968 2.97z" fill="#EA4335"/><path d="M21.775 16.266a.296.296 0 0 0-.24-.468.29.29 0 0 0-.18.065l-6.442 4.958a1.772 1.772 0 1 0 2.597 2.32l.001.002 4.264-6.877z" fill="#9E9E9E"/><path d="M18.275 27l-3.428-3.429c.31.265.71.424 1.149.424.642 0 1.202-.342 1.515-.852l4.264-6.877a.291.291 0 0 0-.004-.35l7.224 7.224v2.014A1.995 1.995 0 0 1 27.003 27h-8.728z" fill-opacity=".1" fill="#000"/></g></svg>