<svg viewBox="0 0 32 32" xmlns="http://www.w3.org/2000/svg"><g fill="none" fill-rule="evenodd"><path d="M2 8v19.005C2 28.107 2.9 29 3.991 29H28.01c1.1 0 1.991-.902 1.991-1.995V8h-8V6l-2-2h-8l-2 2v2H2zm10-1c0-.552.453-1 .997-1h6.006c.55 0 .997.444.997 1v1h-8V7z" fill="#EEE"/><path fill="#0277BD" d="M13 25V12h-2v13z"/><path d="M13 25V12h4l1 .996L19 12h1.004c.551 0 .996.446.996.996V24c0 .546-.446 1-.996 1H13z" fill="#03A9F4"/><path fill-opacity=".1" fill="#000" d="M19 12h-1l-1 5 4 4v-7z"/><path fill="#F5F5F5" d="M17 12v5l1-.5 1 .5v-5z"/></g></svg>