<svg viewBox="0 0 32 32" xmlns="http://www.w3.org/2000/svg"><g fill="none" fill-rule="evenodd"><path d="M28 25.995A2.005 2.005 0 0 1 25.995 28H6.005A2.005 2.005 0 0 1 4 25.995V9l12-3 12 3v16.995z" fill="#7DA1B3"/><path fill="#5B7C8C" d="M4 4h24v5H4z"/><path d="M24 14.59c0 .8-.655 1.455-1.455 1.455-.13 0-.254-.014-.37-.05l-2.59 2.581a1.459 1.459 0 0 1-1.404 1.833 1.459 1.459 0 0 1-1.403-1.833l-1.854-1.854c-.117.036-.248.05-.379.05-.13 0-.261-.014-.378-.05l-3.309 3.316c.037.117.051.24.051.371 0 .8-.654 1.455-1.454 1.455-.8 0-1.455-.655-1.455-1.455s.655-1.454 1.455-1.454c.13 0 .254.014.37.05l3.317-3.309a1.459 1.459 0 0 1 1.404-1.833 1.459 1.459 0 0 1 1.403 1.833l1.855 1.855c.116-.036.247-.051.378-.051.13 0 .262.015.378.05l2.582-2.588a1.236 1.236 0 0 1-.051-.371c0-.8.654-1.455 1.454-1.455.8 0 1.455.655 1.455 1.455z" fill="#F5F5F5"/></g></svg>