<svg viewBox="0 0 32 32" xmlns="http://www.w3.org/2000/svg"><g fill="none" fill-rule="evenodd"><path d="M2 8v19.005C2 28.107 2.9 29 3.991 29H28.01c1.1 0 1.991-.902 1.991-1.995V8h-8V6l-2-2h-8l-2 2v2H2zm10-1c0-.552.453-1 .997-1h6.006c.55 0 .997.444.997 1v1h-8V7z" fill="#EEE"/><path d="M12.54 14.099A5.992 5.992 0 0 0 10 19.002v4.997c0 .554.448 1.003 1.002 1.003h9.996c.553 0 1.002-.449 1.002-1.003v-4.997a5.993 5.993 0 0 0-2.54-4.903l.866-1.387a.374.374 0 0 0-.12-.516.377.377 0 0 0-.516.118l-.869 1.39A5.975 5.975 0 0 0 16 13.003c-1.02 0-1.98.254-2.822.703l-.869-1.39a.377.377 0 0 0-.516-.12.374.374 0 0 0-.12.517l.867 1.387z" fill="#8BC34A"/><path d="M22 24.028v-5.026H10l6 6h4.998c.544 0 .987-.433 1.002-.974z" fill-opacity=".05" fill="#000"/><path d="M18.5 17.252a.75.75 0 1 0 0-1.5.75.75 0 0 0 0 1.5zm-5 0a.75.75 0 1 0 0-1.5.75.75 0 0 0 0 1.5z" fill="#F5F5F5"/></g></svg>