<svg viewBox="0 0 32 32" xmlns="http://www.w3.org/2000/svg"><g fill="none" fill-rule="evenodd"><circle fill="#34A853" cx="16" cy="16" r="14"/><circle fill="#FB8C00" cx="20.75" cy="15.5" r="1.25"/><circle fill="#FB8C00" cx="12.25" cy="15.5" r="1.25"/><circle fill="#CCA58B" cx="16.5" cy="16.5" r="4.75"/><path d="M14.185 12.351a4.749 4.749 0 0 0-2.052 6.02C13.149 19.36 14.678 20 16 20a4 4 0 1 0 0-8 5.28 5.28 0 0 0-1.815.351z" fill="#F9CAAA"/><path d="M18.5 25a4.5 4.5 0 1 0 0-9H9c0 4.97 4.253 9 9.5 9z" fill="#F5F5F5"/><ellipse fill="#FB8C00" cx="16.5" cy="16" rx="1.5" ry="1"/><circle fill="#424242" cx="14.2" cy="15" r=".4"/><circle fill="#424242" cx="18.8" cy="15" r=".4"/><circle fill="#F5F5F5" cx="10" cy="8" r="1.5"/><rect fill="#F5F5F5" x="11" y="11" width="11" height="3" rx=".75"/><path d="M19.545 11H12V8c3.483 0 6.447 1.252 7.545 3z" fill="#EA4335"/><path d="M15.25 17.5h2.5a1.25 1.25 0 0 1-2.5 0z" fill="#424242"/></g></svg>