<svg viewBox="0 0 32 32" xmlns="http://www.w3.org/2000/svg"><path d="M24.173 22.96c.4-.475.77-.992 1.09-1.552l.002-.001c.32-.56.578-1.142.786-1.73l3.121-.35.826-.83.002-4.994-.824-.834-3.118-.35a10.854 10.854 0 0 0-1.88-3.283l1.263-2.907-.302-1.136-2.132-1.244-2.133-1.245-1.123.303-1.863 2.558a10.619 10.619 0 0 0-3.756-.008l-1.857-2.553L11.15 2.5 6.87 4.996l-.301 1.137L7.826 9.04c-.4.476-.77.992-1.089 1.552l-.001.002c-.32.56-.58 1.141-.788 1.728l-3.121.35-.825.831L2 18.497l.822.833 3.118.35a10.888 10.888 0 0 0 1.883 3.284L6.559 25.87l.302 1.134 2.131 1.246 2.133 1.244 1.124-.302 1.86-2.558c1.257.227 2.524.225 3.757.007l1.857 2.554 1.127.304 4.28-2.496.301-1.138-1.258-2.907zM16 21.191A5.189 5.189 0 0 0 21.184 16 5.189 5.189 0 0 0 16 10.808 5.189 5.189 0 0 0 10.814 16 5.189 5.189 0 0 0 16 21.192z" fill="#616161" fill-rule="evenodd"/></svg>