<svg viewBox="0 0 32 32" xmlns="http://www.w3.org/2000/svg"><g fill="none" fill-rule="evenodd"><path d="M21.838 10.53A8 8 0 0 1 16 24v-2.91l-7.273 5.455L16 32v-2.91c7.23 0 13.09-5.86 13.09-13.09a13.04 13.04 0 0 0-3.164-8.535l-4.088 3.065z" fill="#3F51B5"/><path d="M10.162 21.47A8 8 0 0 1 16 8v2.91l7.273-5.455L16 0v2.91C8.77 2.91 2.91 8.77 2.91 16a13.04 13.04 0 0 0 3.164 8.535l4.088-3.065z" fill="#4285F4"/><path d="M13.203 8.502A7.983 7.983 0 0 1 16 8V2.91l-2.797 5.592zM16 24v5.09l2.797-5.592A7.983 7.983 0 0 1 16 24z" fill-opacity=".1" fill="#000"/></g></svg>